<svg xmlns="http://www.w3.org/2000/svg" xmlns:xlink="http://www.w3.org/1999/xlink" width="185" height="27" viewBox="0 0 185 27"><defs><path id="3v0za" d="M187.89 11.94l-2.38 4.61c-.42.82-1.84 1.5-3.17 1.54l-14.97.36c-1.47.04-2.25-.64-1.72-1.51l.57-.95c.2.04.43.05.67.04l14.97-.36c1.33-.03 2.75-.72 3.17-1.54l1.83-3.55c.92.15 1.37.7 1.03 1.36z"/><path id="3v0zb" d="M187.89 16.94l-2.38 4.61c-.42.82-1.84 1.5-3.17 1.54l-14.97.36c-1.47.04-2.25-.64-1.72-1.51l.57-.95c.2.04.43.05.67.04l14.97-.36c1.33-.03 2.75-.72 3.17-1.54l1.83-3.55c.92.15 1.37.7 1.03 1.36z"/><path id="3v0zc" d="M187.89 21.94l-2.38 4.61c-.42.82-1.84 1.5-3.17 1.54l-14.97.36c-1.47.04-2.25-.64-1.72-1.52l.57-.94c.2.04.43.05.67.04l14.97-.36c1.33-.03 2.75-.72 3.17-1.54l1.83-3.55c.92.15 1.37.7 1.03 1.36z"/><path id="3v0zd" d="M172.07 4.81h14.25c1.27 0 1.97.63 1.57 1.4l-2.38 4.62c-.42.82-1.84 1.5-3.17 1.54l-14.97.36c-1.47.04-2.25-.65-1.72-1.52l2.97-4.9c.5-.83 2.05-1.5 3.45-1.5z"/><path id="3v0ze" d="M2.98 25V1.98h7.44c.97 0 2.16.15 2.9.56.13.07.25.14.36.22l-2.6 3.48-.02-.01a1.5 1.5 0 0 0-1-.45h-2.7v6.28h2.84c.33 0 .64-.15.93-.46.28-.31.43-1.87.43-2.68l-.02-.5 5.03-1.88c.3 1.06.45 4.57.45 5.38 0 .88-.16-1.26-.47-.42a7.26 7.26 0 0 1-1.31 2.23 5.99 5.99 0 0 1-4.68 2.13h-3.2V25zm108.34 0v-3.68h3.08V25z"/><path id="3v0zf" d="M18.94 25.2c-.52 0-1-.09-1.46-.26a3.61 3.61 0 0 1-1.17-.71 3.25 3.25 0 0 1-.71-3.87c.23-.44.54-.82.94-1.14.4-.32.88-.57 1.43-.74a6.1 6.1 0 0 1 1.83-.26c.85 0 1.56.13 2.12.4v-.32c0-.5-.14-.86-.43-1.1-.29-.24-.75-.36-1.39-.36-.6 0-1.15.1-1.66.29-.5.2-1.04.48-1.6.85 0 0-.42-3.7 3.64-3.7 1.68 0 2.97.37 3.88 1.12.9.75 1.36 1.87 1.36 3.36v2.04c0 .36.05.61.16.75.1.14.3.22.56.25V25a9.65 9.65 0 0 1-1.6.2 2.7 2.7 0 0 1-1.55-.37 1.72 1.72 0 0 1-.69-1.09l-.08-.38c-.47.6-1 1.06-1.62 1.37-.61.31-1.27.47-1.96.47zm1.14-2.72a2.56 2.56 0 0 0 1.34-.4c.15-.1.27-.22.36-.35.1-.13.14-.26.14-.39v-.78a5.44 5.44 0 0 0-1.46-.28c-.47 0-.85.11-1.16.34-.3.23-.46.51-.46.86 0 .3.12.53.35.72.23.19.53.28.89.28zm7.2-2.74c0-.72.13-1.41.38-2.07a5.07 5.07 0 0 1 2.92-2.94 6.4 6.4 0 0 1 2.48-.45c1.28 0 2.35.27 3.21.8.86.53 1.5 1.22 1.93 2.06l-3.7 1.12a1.69 1.69 0 0 0-1.46-.78c-.52 0-.96.2-1.32.59-.36.4-.54.95-.54 1.67s.18 1.28.54 1.67c.36.4.8.59 1.32.59.61 0 1.1-.26 1.46-.78l3.7 1.12a5.15 5.15 0 0 1-1.93 2.06c-.86.53-1.93.8-3.21.8a6.4 6.4 0 0 1-2.48-.45 5.07 5.07 0 0 1-2.92-2.94 5.72 5.72 0 0 1-.38-2.07zm18.84-5.26h4.02l-4.08 5.08L51.5 27h-4.4l-3.8-5.38h-.08V25h-3.78V14.48h3.78v3.68h.08zm4.3 7.22c.33-.01.6-.07.81-.16.2-.1.38-.27.52-.53s.26-.62.35-1.09c.1-.47.18-1.07.26-1.82l.4-3.62h8.38V25h-3.8v-7.22H56l-.08.72a20.26 20.26 0 0 1-.58 3.18 5.4 5.4 0 0 1-.99 2.01c-.42.5-.95.85-1.58 1.05-.63.2-1.42.3-2.35.32zm17.86 3.5c-.92 0-1.74-.14-2.46-.43a5.03 5.03 0 0 1-2.92-2.87 5.44 5.44 0 0 1-.38-2.02c0-.76.12-1.48.37-2.16a5 5 0 0 1 2.9-2.99c.71-.3 1.54-.45 2.49-.45.93 0 1.76.15 2.48.45a4.96 4.96 0 0 1 2.91 2.94 5.87 5.87 0 0 1 .27 3.23h-7.38c.04.56.25.96.62 1.21s.78.37 1.22.37c.41 0 .8-.1 1.17-.28.37-.19.61-.45.73-.78l3.22.92a5.07 5.07 0 0 1-1.97 2.06c-.89.53-1.98.8-3.27.8zm1.68-6.58c-.07-.5-.25-.9-.56-1.2-.3-.3-.7-.44-1.18-.44s-.87.15-1.18.44c-.3.3-.5.7-.56 1.2zm14.4-8.22a3.02 3.02 0 0 1-.99 2.33c-.31.29-.7.51-1.13.67-.44.16-.93.24-1.46.24-.53 0-1.02-.08-1.46-.24a3.34 3.34 0 0 1-1.13-.67 3 3 0 0 1-1-2.33h1.97c0 .44.13.82.4 1.14.27.32.67.48 1.22.48.5 0 .89-.15 1.15-.46.26-.3.42-.7.47-1.16zm-5.24 9.14l4.12-5.06h2.66V25h-3.8v-4.88L78 25h-2.68V14.48h3.8zm15.46-5.06h4.02l-4.08 5.08L99.96 27h-4.4l-3.8-5.38h-.08V25H87.9V14.48h3.78v3.68h.08zm7.78 10.72c-.52 0-1-.09-1.46-.26a3.61 3.61 0 0 1-1.17-.71 3.25 3.25 0 0 1-.71-3.87c.23-.44.54-.82.94-1.14.4-.32.88-.57 1.43-.74a6.1 6.1 0 0 1 1.83-.26c.85 0 1.56.13 2.12.4v-.32c0-.5-.14-.86-.43-1.1-.29-.24-.75-.36-1.4-.36-.6 0-1.14.1-1.65.29-.5.2-1.04.48-1.6.85 0 0-.42-3.7 3.64-3.7 1.68 0 2.97.37 3.88 1.12.9.75 1.36 1.87 1.36 3.36v2.04c0 .36.05.61.16.75.1.14.3.22.56.25V25a9.65 9.65 0 0 1-1.6.2 2.7 2.7 0 0 1-1.55-.37 1.72 1.72 0 0 1-.7-1.09l-.07-.38c-.47.6-1 1.06-1.62 1.37-.61.31-1.27.47-1.96.47zm1.14-2.72a2.56 2.56 0 0 0 1.34-.4c.15-.1.27-.22.36-.35.1-.13.14-.26.14-.39v-.78a5.44 5.44 0 0 0-1.46-.28c-.47 0-.85.11-1.16.34-.3.23-.46.51-.46.86 0 .3.12.53.35.72.23.19.53.28.89.28zm7.82 2.52v-3.68h3.08V25z"/><path id="3v0zg" d="M116.5 6.22h9.78v3.06H120v7.89h2.63c1.54 0 2.7.34 3.48 1.02a3.54 3.54 0 0 1 1.17 2.81c0 1.25-.38 2.23-1.12 2.94-.74.7-1.86 1.06-3.35 1.06h-6.32zm5.82 15.83c.45 0 .8-.1 1.03-.29.24-.2.35-.46.35-.8a.97.97 0 0 0-.35-.74c-.23-.2-.58-.31-1.03-.31h-2.3v2.14zm10.8 3.13c-.83 0-1.57-.13-2.22-.39a4.53 4.53 0 0 1-2.63-2.58 4.9 4.9 0 0 1-.34-1.82c0-.68.11-1.33.34-1.94a4.5 4.5 0 0 1 2.6-2.7c.65-.26 1.4-.4 2.25-.4.84 0 1.58.14 2.23.4.65.28 1.19.64 1.63 1.09.44.45.77.97.99 1.56a5.28 5.28 0 0 1 .24 2.91h-6.64c.04.5.22.87.56 1.09.33.22.7.33 1.1.33.37 0 .72-.08 1.05-.25.33-.17.55-.4.66-.7l2.9.83a4.57 4.57 0 0 1-1.78 1.85c-.8.48-1.78.72-2.94.72zm1.5-5.92a1.76 1.76 0 0 0-.5-1.08c-.27-.27-.62-.4-1.06-.4-.43 0-.78.13-1.06.4-.27.26-.44.62-.5 1.08zm4.02 2.77c.3-.01.55-.06.73-.14.19-.09.34-.25.47-.48.13-.23.23-.56.32-.98.08-.42.16-.97.23-1.64l.36-3.26h7.54V25h-3.42v-6.5h-1.2l-.08.65c-.13 1.15-.3 2.1-.52 2.86a4.86 4.86 0 0 1-.89 1.81 3 3 0 0 1-1.42.95c-.57.18-1.28.27-2.12.28z"/></defs><g><g transform="translate(-3 -2)"><g><use fill="#ccbea5" xlink:href="#3v0za"/></g><g><use fill="#ccbea5" xlink:href="#3v0zb"/></g><g><use fill="#ccbea5" xlink:href="#3v0zc"/></g><g><use fill="#c84b1e" xlink:href="#3v0zd"/></g><g><use fill="#c84b1e" xlink:href="#3v0ze"/></g><g><use fill="#f19637" xlink:href="#3v0zf"/></g><g><use fill="#c84b1e" xlink:href="#3v0zg"/></g></g></g></svg>