<svg xmlns="http://www.w3.org/2000/svg" width="32" height="32" viewBox="0 0 32 32">
  <g fill="none" fill-rule="evenodd">
    <path stroke="#2C8CFD" stroke-linecap="round" stroke-linejoin="bevel" stroke-width="2" d="M6,1 L22,1 L22,5 C22,6.1045695 22.8954305,7 24,7 L28,7 L28,29 C28,30.1045695 27.1045695,31 26,31 L6,31 C4.8954305,31 4,30.1045695 4,29 L4,3 C4,1.8954305 4.8954305,1 6,1 Z"/>
    <rect width="18" height="9" x="7" y="17" fill="#2C8CFD" rx="1"/>
    <path stroke="#2C8CFD" stroke-linecap="round" stroke-linejoin="round" stroke-width="2" d="M23,1 L28,7"/>
    <path fill="#FFF" d="M9,23.9331997 L9,19.0701403 L10.5664663,19.0701403 C10.9962168,19.0701403 11.3825411,19.1675564 11.7254509,19.3623914 C12.0683607,19.5572265 12.3361157,19.8322182 12.5287241,20.1873747 C12.7213325,20.5425313 12.8187486,20.9405456 12.8209753,21.3814295 L12.8209753,21.6052104 C12.8209753,22.0505478 12.7268992,22.4496754 12.5387442,22.8026052 C12.3505891,23.1555351 12.0856174,23.4316401 11.743821,23.6309285 C11.4020246,23.830217 11.0207102,23.930973 10.5998664,23.9331997 L9,23.9331997 Z M10.6020322,19.9752839 L10.6020322,23.0313961 L11.0095138,23.0313961 C11.3457435,23.0313961 11.6040353,22.9117135 11.7843969,22.6723447 C11.9647585,22.4329759 12.054938,22.077268 12.054938,21.6052104 L12.054938,21.3947896 C12.054938,20.9249587 11.9647585,20.5709208 11.7843969,20.3326653 C11.6040353,20.0944099 11.3412902,19.9752839 10.9961538,19.9752839 L10.6020322,19.9752839 Z M17.9701017,21.6018704 C17.9701017,22.0761547 17.8821489,22.4958788 17.7062406,22.8610554 C17.5303324,23.2262321 17.2803905,23.507347 16.9564076,23.7044088 C16.6324247,23.9014706 16.2633569,24 15.8491932,24 C15.4350295,24 15.0676317,23.9048106 14.7469888,23.7144289 C14.4263459,23.5240471 14.176404,23.2518388 13.9971558,22.8977956 C13.8179075,22.5437524 13.7238314,22.1373882 13.7149246,21.6786907 L13.7149246,21.4048096 C13.7149246,20.9282987 13.8023208,20.5080179 13.9771157,20.1439546 C14.1519106,19.7798913 14.4024091,19.4987763 14.7286187,19.3006012 C15.0548283,19.1024261 15.4261227,19.00334 15.8425132,19.00334 C16.2544502,19.00334 16.621848,19.1013128 16.9447176,19.2972612 C17.2675871,19.4932096 17.5186423,19.7720979 17.6978906,20.1339345 C17.8771389,20.4957711 17.967875,20.9104853 17.9701017,21.3780895 L17.9701017,21.6018704 Z M16.7777169,21.3981296 C16.7777169,20.9149386 16.6970007,20.5480974 16.5355659,20.2975952 C16.3741311,20.0470929 16.1431159,19.9218437 15.8425132,19.9218437 C15.2546679,19.9218437 14.9440497,20.362721 14.9106494,21.244489 L14.9073094,21.6018704 C14.9073094,22.0783814 14.9863556,22.4446658 15.1444504,22.7007348 C15.3025451,22.9568038 15.537457,23.0848363 15.8491932,23.0848363 C16.1453425,23.0848363 16.3735745,22.9590304 16.5338959,22.7074148 C16.6942174,22.4557992 16.7754902,22.0939681 16.7777169,21.6219105 L16.7777169,21.3981296 Z M23.0714763,22.2865731 C23.0558895,22.6250295 22.9645967,22.9239577 22.7975952,23.1833667 C22.6305937,23.4427757 22.3962384,23.6437312 22.0945224,23.7862391 C21.7928063,23.9287471 21.4482317,24 21.0607882,24 C20.4217292,24 19.9185055,23.7918079 19.5511022,23.3754175 C19.1836989,22.9590271 19,22.3711906 19,21.6118904 L19,21.3714095 C19,20.8948985 19.0829428,20.4779577 19.248831,20.1205745 C19.4147192,19.7631913 19.6535277,19.4870863 19.9652639,19.2922512 C20.277,19.0974161 20.6377178,19 21.0474282,19 C21.6375002,19 22.1117773,19.1553091 22.4702739,19.4659319 C22.8287704,19.7765547 23.0325092,20.2046288 23.0814963,20.750167 L21.9124916,20.750167 C21.9035849,20.4540177 21.828992,20.2413723 21.6887108,20.1122244 C21.5484295,19.9830766 21.3346708,19.9185037 21.0474282,19.9185037 C20.7557322,19.9185037 20.5419735,20.0276097 20.4061456,20.245825 C20.2703177,20.4640403 20.1990648,20.8125115 20.1923848,21.2912492 L20.1923848,21.6352705 C20.1923848,22.1540885 20.2575144,22.5248263 20.3877756,22.747495 C20.5180367,22.9701637 20.742372,23.0814963 21.0607882,23.0814963 C21.3302173,23.0814963 21.5361828,23.0180367 21.6786907,22.8911156 C21.8211987,22.7641944 21.8969049,22.5626823 21.9058116,22.2865731 L23.0714763,22.2865731 Z"/>
    <polygon fill="#2C8CFD" points="13.045 9.349 13.86 4.891 15.56 4.891 14.051 12 12.273 12 11.321 7.947 10.389 12 8.616 12 7.103 4.891 8.807 4.891 9.622 9.349 10.599 4.891 12.054 4.891"/>
  </g>
</svg>
