<svg xmlns="http://www.w3.org/2000/svg" width="32" height="32" viewBox="0 0 32 32">
  <g fill="none" fill-rule="evenodd">
    <path stroke="#6CB406" stroke-linecap="round" stroke-linejoin="bevel" stroke-width="2" d="M6,1 L22,1 L22,5 C22,6.1045695 22.8954305,7 24,7 L28,7 L28,29 C28,30.1045695 27.1045695,31 26,31 L6,31 C4.8954305,31 4,30.1045695 4,29 L4,3 C4,1.8954305 4.8954305,1 6,1 Z"/>
    <polygon fill="#6CB406" points="10.188 7.254 11.351 4.891 13.309 4.891 11.321 8.416 14.362 13 12.385 13 10.188 9.593 8.992 12 7.02 12 9.056 8.416 7.073 4.891 9.026 4.891"/>
    <rect width="18" height="9" x="7" y="17" fill="#6CB406" rx="1"/>
    <path fill="#FFF" d="M12.5302198,23.9038462 L11.5343407,22.4134615 L10.5521978,23.9038462 L9,23.9038462 L10.7513736,21.4725275 L9.07554945,19.0961538 L10.6071429,19.0961538 L11.5686813,20.4835165 L12.5164835,19.0961538 L13.9862637,19.0961538 L12.3104396,21.4175824 L14.0961538,23.9038462 L12.5302198,23.9038462 Z M14.5563187,19.0961538 L15.9162088,19.0961538 L15.9162088,22.8255495 L18.2101648,22.8255495 L18.2101648,23.9038462 L14.5563187,23.9038462 L14.5563187,19.0961538 Z M19.3021978,23.8557692 C18.9358956,23.7596149 18.6382795,23.6314111 18.4093407,23.4711538 L18.8557692,22.4684066 C19.0709718,22.6103487 19.3205114,22.7248164 19.6043956,22.8118132 C19.8882798,22.89881 20.167581,22.9423077 20.4423077,22.9423077 C20.9642883,22.9423077 21.2252747,22.8118145 21.2252747,22.5508242 C21.2252747,22.4134609 21.1508707,22.3115846 21.0020604,22.2451923 C20.8532502,22.1788 20.6140126,22.1089747 20.2843407,22.0357143 C19.9226172,21.9578751 19.6204225,21.8743136 19.3777473,21.7850275 C19.135072,21.6957413 18.9267408,21.5526567 18.7527473,21.3557692 C18.5787537,21.1588818 18.4917582,20.8933167 18.4917582,20.5590659 C18.4917582,20.2660242 18.5718856,20.0016037 18.7321429,19.7657967 C18.8924001,19.5299897 19.1316376,19.3434073 19.4498626,19.206044 C19.7680877,19.0686806 20.1584226,19 20.6208791,19 C20.9368148,19 21.248167,19.035485 21.5549451,19.106456 C21.8617231,19.1774271 22.131867,19.2815927 22.3653846,19.418956 L21.9464286,20.4285714 C21.4885508,20.1813174 21.0444161,20.0576923 20.614011,20.0576923 C20.3438631,20.0576923 20.1469786,20.097756 20.0233516,20.1778846 C19.8997247,20.2580132 19.8379121,20.3621788 19.8379121,20.4903846 C19.8379121,20.6185904 19.9111714,20.7147433 20.0576923,20.7788462 C20.2042132,20.842949 20.4400167,20.9093403 20.7651099,20.978022 C21.1314121,21.0558612 21.4347515,21.1394226 21.6751374,21.2287088 C21.9155232,21.317995 22.1238544,21.4599349 22.3001374,21.654533 C22.4764203,21.849131 22.5645604,22.1135514 22.5645604,22.4478022 C22.5645604,22.7362652 22.484433,22.9972516 22.3241758,23.2307692 C22.1639186,23.4642869 21.9235364,23.6508693 21.603022,23.790522 C21.2825076,23.9301747 20.8933173,24 20.4354396,24 C20.0462435,24 19.6685,23.9519236 19.3021978,23.8557692 Z"/>
    <path stroke="#6CB406" stroke-linecap="round" stroke-linejoin="round" stroke-width="2" d="M23,1 L28,7"/>
  </g>
</svg>
