<svg xmlns="http://www.w3.org/2000/svg" width="32" height="32" viewBox="0 0 32 32">
  <g fill="none" fill-rule="evenodd">
    <path fill="#F84646" fill-rule="nonzero" d="M14.0531508,9.98516076 C13.7893421,9.83264633 13.5172893,9.66776587 13.3029447,9.46990932 C12.7299851,8.93404782 12.2518318,8.18796373 11.9550469,7.37592745 C11.975657,7.29760923 11.992145,7.23165705 12.0086331,7.16158285 C12.0086331,7.16158285 12.33015,5.32728772 12.2477097,4.70486397 C12.2353437,4.61830173 12.2270997,4.59769167 12.2064896,4.52761748 L12.1776355,4.45342127 C12.0910733,4.2514427 11.9179488,4.01648805 11.6458961,4.02473207 L11.4892596,4 L11.4851376,4 C11.1842308,4 10.9369101,4.17312448 10.8750799,4.40807914 C10.6772233,5.12943116 10.8833239,6.21764221 11.2460609,7.61912613 L11.1553767,7.85408079 C10.89569,8.49299258 10.561807,9.14014839 10.2732662,9.70486397 L10.2361681,9.78318219 C9.93113926,10.3808739 9.65084247,10.8878813 9.40352178,11.3165705 L9.14795707,11.4525969 C9.12734701,11.4608409 8.68629177,11.6999176 8.57911947,11.7576257 C7.697009,12.2852432 7.11168336,12.8829349 7.01275509,13.3610882 C6.97977899,13.5136026 7.00451106,13.7073372 7.1611475,13.7938994 L7.41259021,13.9175598 C7.51976251,13.9752679 7.63517883,14 7.75471716,14 C8.38126292,14 9.11498097,13.2168178 10.1207518,11.4649629 C11.283159,11.0857378 12.6063247,10.772465 13.76461,10.5993405 C14.6467205,11.0939819 15.7349315,11.4402308 16.4233074,11.4402308 C16.5428458,11.4402308 16.6500181,11.4278648 16.7365803,11.4031327 C16.8684847,11.3701566 16.979779,11.2959604 17.0457312,11.1929101 C17.1776355,10.9909316 17.2064896,10.7188788 17.1693915,10.430338 C17.1570255,10.3437758 17.0910733,10.2407255 17.0209991,10.1747733 C16.8190205,9.97279472 16.3655993,9.86974444 15.6813454,9.86150041 C15.203192,9.86150041 14.6425985,9.90272053 14.0531508,9.98516076 Z M7.61456877,13.5342127 C7.7299851,13.2209398 8.18340636,12.5985161 8.85529425,12.0502885 C8.90063637,12.0173124 8.99956465,11.9183842 9.09849293,11.8276999 C8.39362895,12.944765 7.92371964,13.3940643 7.61456877,13.5342127 Z M11.5923099,4.37510305 C11.7942885,4.37510305 11.9097048,4.88623248 11.9179488,5.36026381 C11.9261928,5.83841715 11.8190205,6.17230008 11.6747501,6.42374279 C11.5593338,6.05688376 11.5057477,5.47980214 11.5057477,5.10057708 C11.5057477,5.10057708 11.4975036,4.37510305 11.5923099,4.37510305 Z M10.4051706,10.9002473 C10.545319,10.6446826 10.6895894,10.3808739 10.8421038,10.1005771 C11.2089628,9.41220115 11.4397955,8.86809563 11.61292,8.4270404 C11.9550469,9.04534213 12.3796141,9.5729596 12.8824995,10.0016488 C12.9443297,10.055235 13.0102819,10.1046991 13.0803561,10.1582852 C12.0539752,10.3561418 11.1759867,10.6034625 10.4051706,10.9002473 Z M16.5098697,10.5251443 C16.8726067,10.6158285 16.8767287,10.801319 16.8148985,10.8425392 C16.7530684,10.8837593 16.5758219,10.9043693 16.4604055,10.9043693 C16.0935465,10.9043693 15.6360032,10.7353669 15.0012135,10.4633141 C15.2485341,10.442704 15.4711228,10.43446 15.6731013,10.43446 C16.0399604,10.43446 16.1471327,10.43446 16.5098697,10.5251443 Z"/>
    <path stroke="#F84646" stroke-linecap="round" stroke-linejoin="bevel" stroke-width="2" d="M6,1 L22,1 L22,5 C22,6.1045695 22.8954305,7 24,7 L28,7 L28,29 C28,30.1045695 27.1045695,31 26,31 L6,31 C4.8954305,31 4,30.1045695 4,29 L4,3 C4,1.8954305 4.8954305,1 6,1 Z"/>
    <rect width="18" height="9" x="7" y="17" fill="#F84646" rx="1"/>
    <path fill="#FFF" d="M11.675981,19.2237216 C11.933465,19.3728701 12.1320926,19.5859361 12.2718696,19.8629261 C12.4116466,20.1399162 12.4815341,20.4654337 12.4815341,20.8394886 C12.4815341,21.2135435 12.4116466,21.5378774 12.2718696,21.8125 C12.1320926,22.0871226 11.933465,22.2990049 11.675981,22.4481534 C11.418497,22.5973019 11.1150383,22.671875 10.7655957,22.671875 L10.0924624,22.671875 L10.0924624,23.9715909 L9,23.9715909 L9,19 L10.7655957,19 C11.1150383,19 11.418497,19.0745731 11.675981,19.2237216 Z M11.2732028,21.3757102 C11.3619014,21.2502361 11.40625,21.0714974 11.40625,20.8394886 C11.40625,20.6074799 11.3619014,20.4275575 11.2732028,20.2997159 C11.1845042,20.1718744 11.0528889,20.1079545 10.878353,20.1079545 L10.40625,20.1079545 L10.40625,21.5639205 L10.878353,21.5639205 C11.0528889,21.5639205 11.1845042,21.5011843 11.2732028,21.3757102 Z M14.234375,19 L16.1267785,19 C16.5651018,19 16.9538696,19.1017982 17.2930937,19.3053977 C17.6323178,19.5089972 17.8953078,19.7978201 18.0820716,20.171875 C18.2688354,20.5459299 18.3622159,20.983899 18.3622159,21.4857955 C18.3622159,21.9876919 18.2688354,22.425661 18.0820716,22.7997159 C17.8953078,23.1737708 17.6323178,23.4625937 17.2930937,23.6661932 C16.9538696,23.8697927 16.5651018,23.9715909 16.1267785,23.9715909 L14.234375,23.9715909 L14.234375,19 Z M16.1426066,22.8494318 C16.383559,22.8494318 16.5769873,22.7286944 16.7228974,22.4872159 C16.8688074,22.2457374 16.9417614,21.9119339 16.9417614,21.4857955 C16.9417614,21.059657 16.8688074,20.7258535 16.7228974,20.484375 C16.5769873,20.2428965 16.383559,20.1221591 16.1426066,20.1221591 L15.640625,20.1221591 L15.640625,22.8494318 L16.1426066,22.8494318 Z M21.1464465,20.0866477 L21.1464465,21.1803977 L22.7782073,21.1803977 L22.7782073,22.2670455 L21.1464465,22.2670455 L21.1464465,23.9715909 L20.1008523,23.9715909 L20.1008523,19 L23,19 L23,20.0866477 L21.1464465,20.0866477 Z"/>
    <path stroke="#F84646" stroke-linecap="round" stroke-linejoin="round" stroke-width="2" d="M23,1 L28,7"/>
  </g>
</svg>
