<svg xmlns="http://www.w3.org/2000/svg" xmlns:xlink="http://www.w3.org/1999/xlink" width="27" height="28" viewBox="0 0 27 28"><defs><path id="ygmga" d="M594 3112h4a1 1 0 0 1 1 1v19a1 1 0 0 1-1 1h-4zm-22 1a1 1 0 0 1 1-1h5v21h-5a1 1 0 0 1-1-1zm7-7a1 1 0 0 1 1-1h12a1 1 0 0 1 1 1v26a1 1 0 0 1-1 1h-3v-6h-6v6h-3a1 1 0 0 1-1-1zm18 13v-3h-2v3zm0 4v-3h-2v3zm0 5v-3h-2v3zm-21-9v-3h-2v3zm0 4v-3h-2v3zm0 5v-3h-2v3zm8-16v-3h-2v3zm0 6v-3h-2v3zm0 6v-3h-2v3zm3-12v-3h-2v3zm0 6v-3h-2v3zm0 6v-3h-2v3zm3-12v-3h-2v3zm0 6v-3h-2v3zm0 6v-3h-2v3z"/></defs><g><g transform="translate(-572 -3105)"><use fill="#a4a6ad" xlink:href="#ygmga"/></g></g></svg>