<svg xmlns="http://www.w3.org/2000/svg" xmlns:xlink="http://www.w3.org/1999/xlink" width="20" height="19" viewBox="0 0 20 19"><defs><path id="lmoga" d="M756 3162.5a1.5 1.5 0 1 1 3 0 1.5 1.5 0 0 1-3 0z"/><path id="lmogb" d="M765 3162.5a1.5 1.5 0 1 1 3 0 1.5 1.5 0 0 1-3 0z"/><path id="lmogc" d="M753 3160c0-1.1.9-2 2-2h14a2 2 0 0 1 2 2v4a2 2 0 0 1-2 2h-14a2 2 0 0 1-2-2z"/><path id="lmogd" d="M755 3155a3 3 0 0 1 3-3h8a3 3 0 0 1 3 3v1a2 2 0 0 1-2 2h-10a2 2 0 0 1-2-2z"/><path id="lmogg" d="M753 3166h3v2.5a1.5 1.5 0 1 1-3 0z"/><path id="lmogh" d="M768 3166h3v2.5a1.5 1.5 0 1 1-3 0z"/><clipPath id="lmoge"><use fill="#fff" xlink:href="#lmoga"/></clipPath><clipPath id="lmogf"><use fill="#fff" xlink:href="#lmogb"/></clipPath></defs><g><g transform="translate(-752 -3151)"><g><use fill="#fff" fill-opacity="0" stroke="#8d9099" stroke-miterlimit="50" stroke-width="2" xlink:href="#lmogc"/></g><g><use fill="#fff" fill-opacity="0" stroke="#8d9099" stroke-miterlimit="50" stroke-width="2" xlink:href="#lmogd"/></g><g><use fill="#fff" fill-opacity="0" stroke="#8d9099" stroke-miterlimit="50" stroke-width="4" clip-path="url(&quot;#lmoge&quot;)" xlink:href="#lmoga"/></g><g><use fill="#fff" fill-opacity="0" stroke="#8d9099" stroke-miterlimit="50" stroke-width="4" clip-path="url(&quot;#lmogf&quot;)" xlink:href="#lmogb"/></g><g><use fill="#8d9099" xlink:href="#lmogg"/></g><g><use fill="#8d9099" xlink:href="#lmogh"/></g></g></g></svg>