<svg xmlns="http://www.w3.org/2000/svg" xmlns:xlink="http://www.w3.org/1999/xlink" width="57" height="56" viewBox="0 0 57 56"><defs><path id="ovv5a" d="M467 1528a1 1 0 0 0-2 0v2a1 1 0 0 0 2 0z"/><path id="ovv5b" d="M466 1539a1 1 0 0 0-1 1v4a1 1 0 0 0 2 0v-4a1 1 0 0 0-1-1z"/><path id="ovv5c" d="M470 1517a1 1 0 0 0-2 0v2a1 1 0 0 0 2 0z"/><path id="ovv5d" d="M467 1523a1 1 0 0 0-2 0v2a1 1 0 0 0 2 0z"/><path id="ovv5e" d="M467 1534a1 1 0 0 0-2 0v2a1 1 0 0 0 2 0v-2z"/><path id="ovv5f" d="M470 1523a1 1 0 0 0-2 0v2a1 1 0 0 0 2 0z"/><path id="ovv5g" d="M463 1517a1 1 0 0 0-2 0v2a1 1 0 0 0 2 0z"/><path id="ovv5h" d="M467 1517a1 1 0 0 0-2 0v2a1 1 0 0 0 2 0z"/><path id="ovv5i" d="M470 1508v-2a1 1 0 0 0-2 0v2a1 1 0 0 0 2 0z"/><path id="ovv5j" d="M463 1523a1 1 0 0 0-2 0v2a1 1 0 0 0 2 0z"/><path id="ovv5k" d="M474 1506a1 1 0 0 0-2 0v2a1 1 0 0 0 2 0z"/><path id="ovv5l" d="M462 1527a1 1 0 0 0-1 1v2a1 1 0 0 0 2 0v-2a1 1 0 0 0-1-1z"/><path id="ovv5m" d="M478 1534a1 1 0 0 0-2 0v2a1 1 0 0 0 2 0v-2z"/><path id="ovv5n" d="M477 1539a1 1 0 0 0-1 1v4a1 1 0 0 0 2 0v-4a1 1 0 0 0-1-1z"/><path id="ovv5o" d="M481 1527a1 1 0 0 0-1 1v2a1 1 0 0 0 2 0v-2a1 1 0 0 0-1-1z"/><path id="ovv5p" d="M466 1509.33c.53 0 1-.42 1-.94v-3.99l10-2.36v15.8c0 .39.32.74.7.88l6.3 2.6v9.74c0 .52.47.94 1 .94s1-.42 1-.94v-10.4c0-.39-.25-.74-.62-.88l-6.38-2.6v-18.24a.96.96 0 0 0-.97-.94c-.53 0-1.03.42-1.03.94v1.16l-11.28 2.65a.95.95 0 0 0-.72.92v4.72c0 .52.47.94 1 .94z"/><path id="ovv5q" d="M482 1523a1 1 0 0 0-2 0v2a1 1 0 0 0 2 0z"/><path id="ovv5r" d="M478 1523a1 1 0 0 0-2 0v2a1 1 0 0 0 2 0z"/><path id="ovv5s" d="M470 1534a1 1 0 0 0-2 0v2a1 1 0 0 0 2 0z"/><path id="ovv5t" d="M478 1528a1 1 0 0 0-2 0v2a1 1 0 0 0 2 0z"/><path id="ovv5u" d="M469 1539a1 1 0 0 0-1 1v4a1 1 0 0 0 2 0v-4a1 1 0 0 0-1-1z"/><path id="ovv5v" d="M470 1528a1 1 0 0 0-2 0v2a1 1 0 0 0 2 0z"/><path id="ovv5w" d="M473.06 1544c.52 0 .94-.41.94-.92v-29.47c0-.43-.3-.8-.71-.9l-15.12-3.68a.96.96 0 0 0-.8.17.91.91 0 0 0-.37.72v20.26c0 .51.42.93.94.93.53 0 .95-.42.95-.93v-19.08l13.22 3.22v28.76c0 .5.42.92.95.92z"/><path id="ovv5x" d="M452 1512a1 1 0 0 0-2 0v2a1 1 0 0 0 2 0z"/><path id="ovv5y" d="M452 1506a1 1 0 0 0-2 0v2a1 1 0 0 0 2 0z"/><path id="ovv5z" d="M444 1534a1 1 0 0 0-2 0v2a1 1 0 0 0 2 0v-2z"/><path id="ovv5A" d="M435.93 1525.43c.51 0 .93-.42.93-.93v-4.64h9.28v23.21a.93.93 0 0 0 1.86 0v-24.14a.93.93 0 0 0-.93-.93h-11.14a.93.93 0 0 0-.93.93v5.57c0 .51.42.93.93.93z"/><path id="ovv5B" d="M446 1512v2a1 1 0 0 0 2 0v-2a1 1 0 0 0-2 0z"/><path id="ovv5C" d="M452 1500a1 1 0 0 0-2 0v2a1 1 0 0 0 2 0z"/><path id="ovv5D" d="M443 1539a1 1 0 0 0-1 1v4a1 1 0 0 0 2 0v-4a1 1 0 0 0-1-1z"/><path id="ovv5E" d="M481.1 1536.54c0-1.05.83-1.9 1.86-1.9 1.04 0 1.88.85 1.88 1.9 0 1.05-.84 1.9-1.88 1.9a1.89 1.89 0 0 1-1.87-1.9zm-25.84.96a2.83 2.83 0 0 1 2.8-2.86c1.55 0 2.8 1.28 2.8 2.86a2.83 2.83 0 0 1-2.8 2.85 2.83 2.83 0 0 1-2.8-2.85zm-23.1-5.73a2.84 2.84 0 0 1 2.8-2.86c1.55 0 2.8 1.28 2.8 2.86a2.84 2.84 0 0 1-2.8 2.87 2.84 2.84 0 0 1-2.8-2.87zm53.9 14.23H484v-5.77c1.6-.43 2.7-1.91 2.7-3.68 0-2.11-1.68-3.82-3.74-3.82a3.78 3.78 0 0 0-3.73 3.82 3.78 3.78 0 0 0 2.77 3.68v5.77h-23v-3.82a4.76 4.76 0 0 0 3.73-4.68c0-2.63-2.1-4.77-4.67-4.77a4.73 4.73 0 0 0-4.66 4.77c0 2.3 1.47 4.23 3.6 4.68v3.82h-21v-9.55a4.67 4.67 0 0 0 3.63-4.68c0-2.63-2.09-4.77-4.66-4.77a4.73 4.73 0 0 0-4.67 4.77c0 2.3 1.57 4.24 3.7 4.68v9.55h-2.07c-.51 0-.93.52-.93 1.05 0 .52.42.95.93.95h54.13c.52 0 .94-.43.94-.95 0-.53-.42-1.05-.94-1.05z"/><path id="ovv5F" d="M438 1540v4a1 1 0 0 0 2 0v-4a1 1 0 0 0-2 0z"/><path id="ovv5G" d="M444 1523a1 1 0 0 0-2 0v2a1 1 0 0 0 2 0z"/><path id="ovv5H" d="M444 1528a1 1 0 0 0-2 0v2a1 1 0 0 0 2 0z"/><path id="ovv5I" d="M438 1523v2a1 1 0 0 0 2 0v-2a1 1 0 0 0-2 0z"/><path id="ovv5J" d="M452 1528a1 1 0 0 0-2 0v2a1 1 0 0 0 2 0z"/><path id="ovv5K" d="M455 1517a1 1 0 0 0-2 0v2a1 1 0 0 0 2 0z"/><path id="ovv5L" d="M455 1512a1 1 0 0 0-2 0v2a1 1 0 0 0 2 0z"/><path id="ovv5M" d="M455 1523a1 1 0 0 0-2 0v2a1 1 0 0 0 2 0z"/><path id="ovv5N" d="M454 1527a1 1 0 0 0-1 1v2a1 1 0 0 0 2 0v-2a1 1 0 0 0-1-1z"/><path id="ovv5O" d="M455 1506a1 1 0 0 0-2 0v2a1 1 0 0 0 2 0z"/><path id="ovv5P" d="M452 1534a1 1 0 0 0-2 0v2a1 1 0 0 0 2 0z"/><path id="ovv5Q" d="M442.94 1516c.53 0 1.06-.41 1.06-.92v-6.82l3.42-1.59c.32-.15.58-.47.58-.82v-7.74l4.39-2.3 4.61 2.3v7.74c0 .5.53.92 1.06.92.52 0 .94-.41.94-.92v-8.31c0-.35-.2-.67-.52-.83l-5.15-2.51v-1.28c0-.5-.42-.92-.94-.92a.93.93 0 0 0-.95.92v1.28l-4.86 2.51c-.32.16-.58.48-.58.83v7.74l-3.48 1.59a.92.92 0 0 0-.52.82v7.39c0 .5.42.92.94.92z"/><path id="ovv5R" d="M452 1523a1 1 0 0 0-2 0v2a1 1 0 0 0 2 0z"/><path id="ovv5S" d="M451 1539a1 1 0 0 0-1 1v4a1 1 0 0 0 2 0v-4a1 1 0 0 0-1-1z"/><path id="ovv5T" d="M455 1500a1 1 0 0 0-2 0v2a1 1 0 0 0 2 0z"/><path id="ovv5U" d="M452 1517a1 1 0 0 0-2 0v2a1 1 0 0 0 2 0z"/></defs><g><g transform="translate(-430 -1492)"><g><use fill="#8d9099" xlink:href="#ovv5a"/></g><g><use fill="#8d9099" xlink:href="#ovv5b"/></g><g><use fill="#8d9099" xlink:href="#ovv5c"/></g><g><use fill="#8d9099" xlink:href="#ovv5d"/></g><g><use fill="#8d9099" xlink:href="#ovv5e"/></g><g><use fill="#8d9099" xlink:href="#ovv5f"/></g><g><use fill="#8d9099" xlink:href="#ovv5g"/></g><g><use fill="#8d9099" xlink:href="#ovv5h"/></g><g><use fill="#8d9099" xlink:href="#ovv5i"/></g><g><use fill="#8d9099" xlink:href="#ovv5j"/></g><g><use fill="#8d9099" xlink:href="#ovv5k"/></g><g><use fill="#8d9099" xlink:href="#ovv5l"/></g><g><use fill="#8d9099" xlink:href="#ovv5m"/></g><g><use fill="#8d9099" xlink:href="#ovv5n"/></g><g><use fill="#8d9099" xlink:href="#ovv5o"/></g><g><use fill="#8d9099" xlink:href="#ovv5p"/></g><g><use fill="#8d9099" xlink:href="#ovv5q"/></g><g><use fill="#8d9099" xlink:href="#ovv5r"/></g><g><use fill="#8d9099" xlink:href="#ovv5s"/></g><g><use fill="#8d9099" xlink:href="#ovv5t"/></g><g><use fill="#8d9099" xlink:href="#ovv5u"/></g><g><use fill="#8d9099" xlink:href="#ovv5v"/></g><g><use fill="#8d9099" xlink:href="#ovv5w"/></g><g><use fill="#8d9099" xlink:href="#ovv5x"/></g><g><use fill="#8d9099" xlink:href="#ovv5y"/></g><g><use fill="#8d9099" xlink:href="#ovv5z"/></g><g><use fill="#8d9099" xlink:href="#ovv5A"/></g><g><use fill="#8d9099" xlink:href="#ovv5B"/></g><g><use fill="#8d9099" xlink:href="#ovv5C"/></g><g><use fill="#8d9099" xlink:href="#ovv5D"/></g><g><use fill="#8d9099" xlink:href="#ovv5E"/></g><g><use fill="#8d9099" xlink:href="#ovv5F"/></g><g><use fill="#8d9099" xlink:href="#ovv5G"/></g><g><use fill="#8d9099" xlink:href="#ovv5H"/></g><g><use fill="#8d9099" xlink:href="#ovv5I"/></g><g><use fill="#8d9099" xlink:href="#ovv5J"/></g><g><use fill="#8d9099" xlink:href="#ovv5K"/></g><g><use fill="#8d9099" xlink:href="#ovv5L"/></g><g><use fill="#8d9099" xlink:href="#ovv5M"/></g><g><use fill="#8d9099" xlink:href="#ovv5N"/></g><g><use fill="#8d9099" xlink:href="#ovv5O"/></g><g><use fill="#8d9099" xlink:href="#ovv5P"/></g><g><use fill="#8d9099" xlink:href="#ovv5Q"/></g><g><use fill="#8d9099" xlink:href="#ovv5R"/></g><g><use fill="#8d9099" xlink:href="#ovv5S"/></g><g><use fill="#8d9099" xlink:href="#ovv5T"/></g><g><use fill="#8d9099" xlink:href="#ovv5U"/></g></g></g></svg>