<svg xmlns="http://www.w3.org/2000/svg" xmlns:xlink="http://www.w3.org/1999/xlink" width="46" height="46" viewBox="0 0 46 46"><defs><path id="e8boa" d="M1091 315v-36"/><path id="e8bob" d="M1069 295c0-5.52 2.69-10 6-10s6 4.48 6 10-2.69 10-6 10-6-4.48-6-10z"/><path id="e8boc" d="M1070 297h6"/><path id="e8bod" d="M1102 297h6"/><path id="e8boe" d="M1101 295c0-5.52 2.69-10 6-10s6 4.48 6 10-2.69 10-6 10-6-4.48-6-10z"/><path id="e8bof" d="M1073 285s4.5-4 9-4 9 4 9 4 4.5-4 9-4 9 4 9 4"/><path id="e8bog" d="M1075 317c0-1.1.9-2 2-2h28a2 2 0 0 1 2 2v4a2 2 0 0 1-2 2h-28a2 2 0 0 1-2-2z"/></defs><g><g transform="translate(-1068 -278)"><g><use fill="#fff" fill-opacity="0" stroke="#2a313b" stroke-linecap="square" stroke-miterlimit="50" stroke-width="2" xlink:href="#e8boa"/></g><g><use fill="#fff" fill-opacity="0" stroke="#2a313b" stroke-miterlimit="50" stroke-width="2" xlink:href="#e8bob"/></g><g><use fill="#fff" fill-opacity="0" stroke="#2a313b" stroke-linecap="square" stroke-miterlimit="50" stroke-width="2" xlink:href="#e8boc"/></g><g><use fill="#fff" fill-opacity="0" stroke="#2a313b" stroke-linecap="square" stroke-miterlimit="50" stroke-width="2" xlink:href="#e8bod"/></g><g><use fill="#fff" fill-opacity="0" stroke="#2a313b" stroke-miterlimit="50" stroke-width="2" xlink:href="#e8boe"/></g><g><use fill="#fff" fill-opacity="0" stroke="#2a313b" stroke-linecap="square" stroke-miterlimit="50" stroke-width="2" xlink:href="#e8bof"/></g><g><use fill="#fff" fill-opacity="0" stroke="#2a313b" stroke-miterlimit="50" stroke-width="2" xlink:href="#e8bog"/></g></g></g></svg>