<svg xmlns="http://www.w3.org/2000/svg" xmlns:xlink="http://www.w3.org/1999/xlink" width="12" height="12" viewBox="0 0 12 12"><defs><path id="pispa" d="M736.66 5669c-.36 0-.66.3-.66.66v10.68c0 .36.3.66.66.66h5.75v-4.65h-1.56v-1.8h1.56v-1.34c0-1.55.95-2.4 2.33-2.4.66 0 1.23.05 1.4.07v1.62h-.96c-.75 0-.9.36-.9.89v1.15h1.8l-.24 1.81h-1.56v4.65h3.06c.36 0 .66-.3.66-.66v-10.68c0-.36-.3-.66-.66-.66z"/></defs><g><g transform="translate(-736 -5669)"><use fill="#fffffe" xlink:href="#pispa"/></g></g></svg>