<svg xmlns="http://www.w3.org/2000/svg" xmlns:xlink="http://www.w3.org/1999/xlink" width="8" height="12" viewBox="0 0 8 12"><defs><path id="42uha" d="M859.2 5671.72c-.16-1.26.5-2.22 1.49-2.2.98.03 1.92 1.04 2.1 2.3.16 1.26-.5 2.25-1.49 2.23-.98-.03-1.92-1.08-2.1-2.33zm4.52 6.75c0 1.09-.72 1.94-2.8 1.94-1.47 0-2.54-.9-2.54-2 0-1.05 1.32-1.94 2.8-1.92.34 0 .66.05.95.14.8.54 1.38.85 1.54 1.46.03.13.05.25.05.38zM865 5669h-3.83c-1.72 0-3.34 1.26-3.34 2.72 0 1.5 1.17 2.7 2.92 2.7h.36c-.12.2-.2.44-.2.69 0 .41.23.75.52 1.02l-.66.01c-2.13 0-3.77 1.32-3.77 2.68 0 1.34 1.8 2.18 3.93 2.18 2.42 0 3.76-1.33 3.76-2.68 0-1.07-.32-1.72-1.34-2.41-.34-.24-1-.82-1-1.16 0-.4.11-.6.73-1.06a2.48 2.48 0 0 0 1.08-1.94c0-.94-.43-1.85-1.23-2.15h1.21z"/></defs><g><g transform="translate(-857 -5669)"><use fill="#dd4b37" xlink:href="#42uha"/></g></g></svg>