<svg xmlns="http://www.w3.org/2000/svg" xmlns:xlink="http://www.w3.org/1999/xlink" width="20" height="45" viewBox="0 0 20 45"><defs><path id="xpc4a" d="M762.25 2440.34v-3.28h-.91l-4.75-5.8 1.44-15.38a.94.94 0 0 1 1.87.18l-.58 6.2a8.88 8.88 0 0 1 13.36 0l-.58-6.2a.94.94 0 1 1 1.86-.18l1.45 15.38-4.75 5.8h-.91v3.28h-2.34v3.97a7.97 7.97 0 1 1-9.38 7.84 1.4 1.4 0 0 1 2.81 0A5.16 5.16 0 1 0 766 2447l-1.4-1.4v-5.26zm3.75-7.5a4.69 4.69 0 1 0 0-9.37 4.69 4.69 0 0 0 0 9.37zm0-.93a3.75 3.75 0 0 1 0-7.5.47.47 0 0 0-.47.47v6.56a.47.47 0 0 0 .94 0v-6.57c0-.25-.2-.46-.46-.46a3.75 3.75 0 0 1-.01 7.5z"/></defs><g><g transform="translate(-756 -2415)"><use fill="#2a313b" xlink:href="#xpc4a"/></g></g></svg>