<svg xmlns="http://www.w3.org/2000/svg" xmlns:xlink="http://www.w3.org/1999/xlink" width="51" height="85" viewBox="0 0 51 85"><defs><path id="580ua" d="M923.18 343.93v-8.81h-2.45L908 319.56l3.87-41.28a2.52 2.52 0 0 1 5.01.47l-1.56 16.66a23.84 23.84 0 0 1 17.92-8.09c7.14 0 13.55 3.13 17.93 8.1l-1.56-16.67a2.52 2.52 0 1 1 5-.47l3.88 41.28-12.73 15.56h-2.45v8.81h-6.3v10.63a21.39 21.39 0 1 1-25.15 21.06 3.77 3.77 0 1 1 7.55 0 13.84 13.84 0 1 0 13.83-13.84l-3.77-3.77v-14.08zm10.06-20.13a12.58 12.58 0 1 0 0-25.16 12.58 12.58 0 0 0 0 25.16zm-10.06-12.58c0-5.44 4.32-9.87 9.72-10.06a1 1 0 0 0-.92 1v18.12c0 .5.35.9.82.98a10.06 10.06 0 0 1-9.62-10.04zm10.06-10.06h.23-.45.22zm10.07 10.06c0 5.4-4.28 9.82-9.63 10.04a1 1 0 0 0 .82-.98v-18.12a1 1 0 0 0-.92-1c5.4.18 9.73 4.61 9.73 10.06z"/></defs><g><g clip-path="url(#clip-9A1C5032-9C18-CA8C-F6C3-EF42F1CE2EFB)" opacity=".25" transform="translate(-908 -312)"><use fill="#fff" xlink:href="#580ua"/></g></g></svg>