<svg xmlns="http://www.w3.org/2000/svg" width="16" height="16" viewBox="0 0 16 16">
  <path fill="#8D9099" fill-rule="evenodd" d="M5,1 C5,1.55228475 5.44771525,2 6,2 L10,2 C10.5522847,2 11,1.55228475 11,1 L12,1 C13.1045695,1 14,1.8954305 14,3 L14,13 C14,14.1045695 13.1045695,15 12,15 L4,15 C2.8954305,15 2,14.1045695 2,13 L2,3 C2,1.8954305 2.8954305,1 4,1 L5,1 Z M6,9 L6,11 C6,12.1045695 6.8954305,13 8,13 C9.1045695,13 10,12.1045695 10,11 L10,9 L6,9 Z M7,7 L7,8 L9,8 L9,7 L7,7 Z M7,5 L7,6 L9,6 L9,5 L7,5 Z M7,3 L7,4 L9,4 L9,3 L7,3 Z"/>
</svg>
