<svg xmlns="http://www.w3.org/2000/svg" width="32" height="32" viewBox="0 0 32 32">
  <path fill="none" stroke="#2A313B" stroke-linecap="round" stroke-linejoin="round" stroke-width="2" d="M5,21.7522702 L5,15 C5,9.9648915 8.38299041,5.71992275 13,4.41406497 L13,4 C13,2.34314575 14.3431458,1 16,1 C17.6568542,1 19,2.34314575 19,4 L19,4.41406497 C23.6170096,5.71992275 27,9.9648915 27,15 L27,21.7388312 C27.8574922,22.1084903 28.5571572,22.5309021 29.0644483,23 C29.6686894,23.5587487 30,24.3651286 30,25 L2,25 C2,24.352201 2.30547155,23.5681026 2.93333333,23 C3.44408398,22.537862 4.14450929,22.1196831 5,21.7522702 Z M13,28 L19,28 C19,29.6568542 17.6568542,31 16,31 C14.3431458,31 13,29.6568542 13,28 Z"/>
</svg>
