<svg xmlns="http://www.w3.org/2000/svg" width="24" height="24" viewBox="0 0 24 24">
  <path fill="none" stroke="#8D9099" stroke-linecap="round" stroke-linejoin="round" stroke-width="2" d="M3.9047619,16 L3.9047619,12 C4.14285714,7.72366863 6.55927886,4.53994206 9.61904762,4 L9.61904762,3 C9.85714286,2.00735931 10.8165327,1 12.4761905,1 C13.1834673,1 14.1428571,2.00735931 14.3809524,3 L14.3809524,4 C17.4407211,4.53994206 19.8571429,7.72366863 20.0952381,12 L20.0952381,16 C20.4696373,15.8313677 20.969398,16.1481766 21.047619,17 C21.7633496,16.9190615 22,17.5238465 22,18 L2,18 C2,17.5141507 2.21819396,16.926077 2.95238095,17 C3.03148855,16.1533965 3.53179235,15.8397623 3.9047619,16 Z M9.61904762,21 L14.3809524,21 C14.3809524,22.1045695 13.3149637,23 12.4761905,23 C10.6850363,23 9.61904762,22.1045695 9.61904762,21 Z"/>
</svg>
