<svg xmlns="http://www.w3.org/2000/svg" width="48" height="48" viewBox="0 0 48 48">
  <g fill="none" fill-rule="evenodd">
    <circle cx="24" cy="24" r="23" stroke="#2A313B" stroke-linecap="round" stroke-linejoin="round" stroke-width="2"/>
    <polygon stroke="#2A313B" stroke-linecap="round" stroke-linejoin="round" stroke-width="2" points="10 15 15.833 23 24 11 32.167 23 38 15 38 31 10 31"/>
    <rect width="30" height="2" x="9" y="34" fill="#2A313B" rx="1"/>
    <circle cx="24" cy="26" r="2" stroke="#2A313B" stroke-linecap="round" stroke-linejoin="round" stroke-width="2"/>
    <path stroke="#2A313B" stroke-linecap="round" stroke-linejoin="round" stroke-width="2" d="M37,24 C35.8954305,24 35,24.8954305 35,26 C35,27.1045695 35.8954305,28 37,28"/>
    <path stroke="#2A313B" stroke-linecap="round" stroke-linejoin="round" stroke-width="2" d="M13,24 C11.8954305,24 11,24.8954305 11,26 C11,27.1045695 11.8954305,28 13,28" transform="matrix(-1 0 0 1 24 0)"/>
  </g>
</svg>
