<svg xmlns="http://www.w3.org/2000/svg" width="24" height="24" viewBox="0 0 24 24">
  <path fill="#2A313B" fill-rule="evenodd" d="M15.5505856,3.85048027 L15.2411761,0.54559897 C15.2154881,0.271217925 15.4167897,0.0279353468 15.690796,0.00221212379 C15.9648023,-0.0235110992 16.2077526,0.178065894 16.2334407,0.452446939 L17,8.64026192 L14.4785227,11.7262823 L13.9309427,11.7262823 L13.4949234,13.4727449 L12.7474617,13.4727449 L12.7474617,15.583015 C14.7302366,15.9365322 16.2356162,17.671521 16.2356162,19.7585909 C16.2356162,22.1010565 14.3392663,24 12,24 C9.66073375,24 7.76438377,22.1010565 7.76438377,19.7585909 C7.76438377,19.3452146 8.09903376,19.0101069 8.51184545,19.0101069 C8.92465715,19.0101069 9.25930714,19.3452146 9.25930714,19.7585909 C9.25930714,21.2743039 10.4863571,22.5030321 12,22.5030321 C13.5136429,22.5030321 14.7406929,21.2743039 14.7406929,19.7585909 C14.7406929,18.2428779 13.5136429,17.0141497 12,17.0141497 L11.2525383,16.2656658 L11.2525383,13.4727449 L10.5050766,13.4727449 L10.0690573,11.7262823 L9.52147727,11.7262823 L7,8.64026192 L7.76655927,0.452446939 C7.79224736,0.178065894 8.03519766,-0.0235110992 8.30920396,0.00221212379 C8.58321026,0.0279353468 8.78451194,0.271217925 8.75882385,0.54559897 L8.4494144,3.85048027 C9.31684374,2.86625525 10.5860266,2.24548552 12,2.24548552 C13.4139734,2.24548552 14.6831563,2.86625525 15.5505856,3.85048027 Z M9.50846104,6.98588392 C9.50846104,8.36380484 10.623961,9.48083045 12,9.48083045 C13.376039,9.48083045 14.491539,8.36380484 14.491539,6.98588392 C14.491539,5.607963 13.376039,4.4909374 12,4.4909374 C10.623961,4.4909374 9.50846104,5.607963 9.50846104,6.98588392 Z M13.9932312,6.98588392 C13.9932312,8.08822066 13.1008312,8.98184114 12,8.98184114 C10.8991688,8.98184114 10.0067688,8.08822066 10.0067688,6.98588392 C10.0067688,5.88354719 10.8991688,4.9899267 12,4.9899267 C13.1008312,4.9899267 13.9932312,5.88354719 13.9932312,6.98588392 Z M12,4.9899267 C11.8623961,4.9899267 11.7508461,5.1014767 11.7508461,5.2390806 L11.7508461,8.73268725 C11.7508461,8.87029114 11.8623961,8.98184114 12,8.98184114 C12.1376039,8.98184114 12.2491539,8.87029114 12.2491539,8.73268725 L12.2491539,5.2390806 C12.2491539,5.1014767 12.1376039,4.9899267 12,4.9899267 Z"/>
</svg>
