<svg xmlns="http://www.w3.org/2000/svg" width="32" height="32" viewBox="0 0 32 32">
  <g fill="none" fill-rule="evenodd">
    <path stroke="#2A313B" stroke-width="2" d="M7,6 L17,6 C19.209139,6 21,7.790861 21,10 L21,23 L3,23 L3,10 C3,7.790861 4.790861,6 7,6 Z"/>
    <circle cx="27" cy="12" r="3" stroke="#2A313B" stroke-width="2"/>
    <rect width="2" height="11" x="26" y="15" fill="#2A313B"/>
    <rect width="6" height="2" x="24" y="26" fill="#2A313B" rx="1"/>
    <rect width="18" height="2" x="3" y="14" fill="#2A313B"/>
    <circle cx="8" cy="19" r="2" fill="#2A313B"/>
    <circle cx="16" cy="19" r="2" fill="#2A313B"/>
    <path fill="#2A313B" d="M4 24L8 24 8 27C8 27.5522847 7.55228475 28 7 28L5 28C4.44771525 28 4 27.5522847 4 27L4 24zM16 24L20 24 20 27C20 27.5522847 19.5522847 28 19 28L17 28C16.4477153 28 16 27.5522847 16 27L16 24z"/>
  </g>
</svg>
