<svg xmlns="http://www.w3.org/2000/svg" width="32" height="32" viewBox="0 0 32 32">
  <path fill="#8D9099" fill-rule="evenodd" d="M19,30 L19,24 L13,24 L13,30 L10,30 C9.44771525,30 9,29.5522847 9,29 L9,3 C9,2.44771525 9.44771525,2 10,2 L22,2 C22.5522847,2 23,2.44771525 23,3 L23,29 C23,29.5522847 22.5522847,30 22,30 L19,30 Z M24,9 L28,9 C28.5522847,9 29,9.44771525 29,10 L29,29 C29,29.5522847 28.5522847,30 28,30 L24,30 L24,9 Z M3,9 L8,9 L8,30 L3,30 C2.44771525,30 2,29.5522847 2,29 L2,10 C2,9.44771525 2.44771525,9 3,9 Z M27,13 L25,13 L25,16 L27,16 L27,13 Z M27,17 L25,17 L25,20 L27,20 L27,17 Z M27,22 L25,22 L25,25 L27,25 L27,22 Z M4,13 L4,16 L6,16 L6,13 L4,13 Z M4,17 L4,20 L6,20 L6,17 L4,17 Z M4,22 L4,25 L6,25 L6,22 L4,22 Z M12,6 L12,9 L14,9 L14,6 L12,6 Z M12,12 L12,15 L14,15 L14,12 L12,12 Z M12,18 L12,21 L14,21 L14,18 L12,18 Z M15,6 L15,9 L17,9 L17,6 L15,6 Z M15,12 L15,15 L17,15 L17,12 L15,12 Z M15,18 L15,21 L17,21 L17,18 L15,18 Z M18,6 L18,9 L20,9 L20,6 L18,6 Z M18,12 L18,15 L20,15 L20,12 L18,12 Z M18,18 L18,21 L20,21 L20,18 L18,18 Z"/>
</svg>
