<svg xmlns="http://www.w3.org/2000/svg" width="48" height="48" viewBox="0 0 48 48">
  <g fill="none" fill-rule="evenodd">
    <rect width="48" height="48" fill="#FFF" fill-opacity=".6" rx="2"/>
    <g transform="rotate(-45 32.485 3.515)">
      <path fill="#2C8CFD" d="M20.7157288,24 L0,24 L0,3.28427125 L20.7157288,24 Z"/>
      <path fill="#F84646" d="M4.28427125,0 L24,0 L24,19.7157288 L4.28427125,0 Z"/>
    </g>
    <polygon fill="#2C8CFD" points="10.768 44.531 9.285 44.531 5.482 38.479 5.482 44.531 4 44.531 4 36 5.482 36 9.297 42.076 9.297 36 10.768 36"/>
    <path fill="#F84646" d="M42.8925781,9.45117188 C42.8925781,9.07617 42.7607435,8.78711039 42.4970703,8.58398438 C42.2333971,8.38085836 41.7578159,8.17578229 41.0703125,7.96875 C40.3828091,7.76171771 39.8359395,7.53125127 39.4296875,7.27734375 C38.6523399,6.78906006 38.2636719,6.15234768 38.2636719,5.3671875 C38.2636719,4.67968406 38.5439425,4.11328348 39.1044922,3.66796875 C39.6650419,3.22265402 40.3925737,3 41.2871094,3 C41.8808623,3 42.4101539,3.10937391 42.875,3.328125 C43.3398461,3.54687609 43.7050768,3.85839642 43.9707031,4.26269531 C44.2363295,4.66699421 44.3691406,5.11523191 44.3691406,5.60742188 L42.8925781,5.60742188 C42.8925781,5.16210715 42.7529311,4.81347782 42.4736328,4.56152344 C42.1943345,4.30956905 41.7949245,4.18359375 41.2753906,4.18359375 C40.7910132,4.18359375 40.4150404,4.28710834 40.1474609,4.49414062 C39.8798815,4.70117291 39.7460938,4.99023252 39.7460938,5.36132812 C39.7460938,5.67382969 39.8906236,5.93456927 40.1796875,6.14355469 C40.4687514,6.35254011 40.9453092,6.55566308 41.609375,6.75292969 C42.2734408,6.9501963 42.8066386,7.17480343 43.2089844,7.42675781 C43.6113301,7.6787122 43.9062491,7.96777181 44.09375,8.29394531 C44.2812509,8.62011882 44.375,9.00195094 44.375,9.43945312 C44.375,10.1503942 44.1025418,10.7158182 43.5576172,11.1357422 C43.0126926,11.5556662 42.2734422,11.765625 41.3398438,11.765625 C40.7226532,11.765625 40.155276,11.6513683 39.6376953,11.4228516 C39.1201146,11.1943348 38.7177749,10.8789083 38.4306641,10.4765625 C38.1435533,10.0742167 38,9.60547143 38,9.0703125 L39.4824219,9.0703125 C39.4824219,9.55468992 39.6425765,9.92968617 39.9628906,10.1953125 C40.2832047,10.4609388 40.7421845,10.59375 41.3398438,10.59375 C41.8554713,10.59375 42.2431628,10.4892589 42.5029297,10.2802734 C42.7626966,10.071288 42.8925781,9.79492359 42.8925781,9.45117188 Z"/>
  </g>
</svg>
