<svg xmlns="http://www.w3.org/2000/svg" width="16" height="16" viewBox="0 0 16 16">
  <path fill="#2A313B" fill-rule="evenodd" d="M9.19238816,7.77817459 L14.263456,12.8492424 C14.6539803,13.2397667 14.6539803,13.8729317 14.263456,14.263456 C13.8729317,14.6539803 13.2397667,14.6539803 12.8492424,14.263456 L7.77817459,9.19238816 L2.70710678,14.263456 C2.31658249,14.6539803 1.68341751,14.6539803 1.29289322,14.263456 C0.902368927,13.8729317 0.902368927,13.2397667 1.29289322,12.8492424 L6.36396103,7.77817459 L1.29289322,2.70710678 C0.902368927,2.31658249 0.902368927,1.68341751 1.29289322,1.29289322 C1.68341751,0.902368927 2.31658249,0.902368927 2.70710678,1.29289322 L7.77817459,6.36396103 L12.8492424,1.29289322 C13.2397667,0.902368927 13.8729317,0.902368927 14.263456,1.29289322 C14.6539803,1.68341751 14.6539803,2.31658249 14.263456,2.70710678 L9.19238816,7.77817459 Z"/>
</svg>
