<svg xmlns="http://www.w3.org/2000/svg" width="16" height="16" viewBox="0 0 16 16">
  <path fill="#8D9099" fill-rule="evenodd" d="M13,2 L14,2 C14.5522847,2 15,2.44771525 15,3 L15,15 C15,15.5522847 14.5522847,16 14,16 L2,16 C1.44771525,16 1,15.5522847 1,15 L1,3 C1,2.44771525 1.44771525,2 2,2 L3,2 L3,1 C3,0.44771525 3.44771525,1.01453063e-16 4,0 L5,0 C5.55228475,-1.01453063e-16 6,0.44771525 6,1 L6,2 L10,2 L10,1 C10,0.44771525 10.4477153,1.01453063e-16 11,0 L12,0 C12.5522847,-1.01453063e-16 13,0.44771525 13,1 L13,2 Z M3,4 L3,6 L5,6 L5,4 L3,4 Z M7,4 L7,6 L9,6 L9,4 L7,4 Z M11,4 L11,6 L13,6 L13,4 L11,4 Z M3,8 L3,10 L5,10 L5,8 L3,8 Z M7,8 L7,10 L9,10 L9,8 L7,8 Z M11,8 L11,10 L13,10 L13,8 L11,8 Z M3,12 L3,14 L5,14 L5,12 L3,12 Z M7,12 L7,14 L9,14 L9,12 L7,12 Z"/>
</svg>
