<svg xmlns="http://www.w3.org/2000/svg" width="16" height="16" viewBox="0 0 16 16">
  <g fill="none" fill-rule="evenodd">
    <path fill="#2A313B" d="M9.03451108,9.07438348 C9.87162253,9.07438348 10.5167821,8.71461383 10.9995235,8.17905487 C11.7568397,8.47297438 12.3616632,8.97143901 12.991538,9.68182183 C12.9994033,10.2458788 13.0017856,10.9087145 12.9986849,11.6703291 C12.9963244,12.2501339 12.4853478,13 11.855841,13 L6.18054494,13 C5.5630282,13 5.05719117,12.2672076 5.03822699,11.6987105 C5.01274233,10.9348373 5,10.2625411 5,9.68182183 C5.63377743,9.0170882 6.29493278,8.50836447 7.08808053,8.19949509 C7.56875631,8.72374785 8.20809445,9.07438348 9.03451108,9.07438348 Z M9.03451108,7.85950679 C7.48786688,7.85950679 6.92409671,6.01733531 6.92409671,4.94380271 C6.92409671,3.87027012 7.86896141,3 9.03451108,3 C10.2000608,3 11.1449255,3.87027012 11.1449255,4.94380271 C11.1449255,6.01733531 10.5811553,7.85950679 9.03451108,7.85950679 Z"/>
    <rect width="3" height="2" y="3" fill="#2A313B" rx="1"/>
    <rect width="3" height="2" y="7" fill="#2A313B" rx="1"/>
    <rect width="3" height="2" y="11" fill="#2A313B" rx="1"/>
    <rect width="12" height="14" x="3" y="1" stroke="#2A313B" stroke-linecap="round" stroke-linejoin="round" stroke-width="2" rx="1"/>
  </g>
</svg>
