<svg xmlns="http://www.w3.org/2000/svg" width="48" height="48" viewBox="0 0 48 48">
  <g fill="none" fill-rule="evenodd">
    <rect width="48" height="48" fill="#FFF" fill-opacity=".6" rx="2"/>
    <g transform="translate(12 12)">
      <path fill="#F84646" d="M20.7157288,24 L0,24 L0,3.28427125 L20.7157288,24 Z"/>
      <path fill="#2C8CFD" d="M4.28427125,0 L24,0 L24,19.7157288 L4.28427125,0 Z"/>
    </g>
    <polygon fill="#2C8CFD" points="44.875 12 43.393 12 39.59 5.947 39.59 12 38.107 12 38.107 3.469 39.59 3.469 43.404 9.545 43.404 3.469 44.875 3.469"/>
    <path fill="#F84646" d="M9.20507812,42.8027344 C9.20507812,42.4277325 9.07324351,42.1386729 8.80957031,41.9355469 C8.54589712,41.7324209 8.07031594,41.5273448 7.3828125,41.3203125 C6.69530906,41.1132802 6.14843953,40.8828138 5.7421875,40.6289062 C4.96483986,40.1406226 4.57617188,39.5039102 4.57617188,38.71875 C4.57617188,38.0312466 4.85644251,37.464846 5.41699219,37.0195312 C5.97754187,36.5742165 6.70507365,36.3515625 7.59960938,36.3515625 C8.19336234,36.3515625 8.72265393,36.4609364 9.1875,36.6796875 C9.65234607,36.8984386 10.0175768,37.2099589 10.2832031,37.6142578 C10.5488295,38.0185567 10.6816406,38.4667944 10.6816406,38.9589844 L9.20507812,38.9589844 C9.20507812,38.5136696 9.06543108,38.1650403 8.78613281,37.9130859 C8.50683454,37.6611316 8.10742447,37.5351562 7.58789062,37.5351562 C7.1035132,37.5351562 6.7275404,37.6386708 6.45996094,37.8457031 C6.19238147,38.0527354 6.05859375,38.341795 6.05859375,38.7128906 C6.05859375,39.0253922 6.20312355,39.2861318 6.4921875,39.4951172 C6.78125145,39.7041026 7.25780918,39.9072256 7.921875,40.1044922 C8.58594082,40.3017588 9.11913861,40.5263659 9.52148438,40.7783203 C9.92383014,41.0302747 10.2187491,41.3193343 10.40625,41.6455078 C10.5937509,41.9716813 10.6875,42.3535134 10.6875,42.7910156 C10.6875,43.5019567 10.4150418,44.0673807 9.87011719,44.4873047 C9.32519259,44.9072287 8.58594217,45.1171875 7.65234375,45.1171875 C7.03515316,45.1171875 6.46777603,45.0029308 5.95019531,44.7744141 C5.4326146,44.5458973 5.03027487,44.2304708 4.74316406,43.828125 C4.45605325,43.4257792 4.3125,42.9570339 4.3125,42.421875 L5.79492188,42.421875 C5.79492188,42.9062524 5.95507652,43.2812487 6.27539062,43.546875 C6.59570473,43.8125013 7.05468451,43.9453125 7.65234375,43.9453125 C8.16797133,43.9453125 8.55566276,43.8408214 8.81542969,43.6318359 C9.07519661,43.4228505 9.20507812,43.1464861 9.20507812,42.8027344 Z"/>
  </g>
</svg>
