<svg xmlns="http://www.w3.org/2000/svg" width="24" height="24" viewBox="0 0 24 24">
  <g fill="none" fill-rule="evenodd">
    <path stroke="#2A313B" stroke-linecap="round" stroke-linejoin="round" stroke-width="2" d="M21.2430093,13.1737302 C23.5859969,10.6177461 23.5859969,5.47377204 21.2430093,2.91698802 C18.9000217,0.361003994 15.1006419,0.361003994 12.7576543,2.91698802 C12.4687225,3.23218605 12.2179238,3.57218392 12.000125,3.92898169 C11.7823262,3.57218392 11.5315275,3.23218605 11.2425957,2.91778801 C8.89960811,0.361803989 5.10022826,0.361803989 2.75724068,2.91778801 C0.414253106,5.47377204 0.414253106,10.6185461 2.75724068,13.1745302 L12.000125,22.2568671"/>
    <path fill="#2A313B" fill-rule="nonzero" d="M19.8284271,18.4142136 L21.9497475,16.2928932 C22.3402718,15.9023689 22.9734367,15.9023689 23.363961,16.2928932 C23.7544853,16.6834175 23.7544853,17.3165825 23.363961,17.7071068 L21.2426407,19.8284271 L23.363961,21.9497475 C23.7544853,22.3402718 23.7544853,22.9734367 23.363961,23.363961 C22.9734367,23.7544853 22.3402718,23.7544853 21.9497475,23.363961 L19.8284271,21.2426407 L17.7071068,23.363961 C17.3165825,23.7544853 16.6834175,23.7544853 16.2928932,23.363961 C15.9023689,22.9734367 15.9023689,22.3402718 16.2928932,21.9497475 L18.4142136,19.8284271 L16.2928932,17.7071068 C15.9023689,17.3165825 15.9023689,16.6834175 16.2928932,16.2928932 C16.6834175,15.9023689 17.3165825,15.9023689 17.7071068,16.2928932 L19.8284271,18.4142136 Z"/>
  </g>
</svg>
