<svg xmlns="http://www.w3.org/2000/svg" width="24" height="24" viewBox="0 0 24 24">
  <g fill="none" fill-rule="evenodd">
    <rect width="18" height="8" x="3" y="10" stroke="#8D9099" stroke-width="2" rx="2"/>
    <path stroke="#8D9099" stroke-width="2" d="M8,4 L16,4 C17.6568542,4 19,5.34314575 19,7 L19,8 C19,9.1045695 18.1045695,10 17,10 L7,10 C5.8954305,10 5,9.1045695 5,8 L5,7 C5,5.34314575 6.34314575,4 8,4 Z"/>
    <circle cx="7.5" cy="14.5" r="1" stroke="#8D9099" stroke-width="2"/>
    <circle cx="16.5" cy="14.5" r="1" stroke="#8D9099" stroke-width="2"/>
    <path fill="#8D9099" d="M3 18L6 18 6 20.5C6 21.3284271 5.32842712 22 4.5 22L4.5 22C3.67157288 22 3 21.3284271 3 20.5L3 18zM18 18L21 18 21 20.5C21 21.3284271 20.3284271 22 19.5 22L19.5 22C18.6715729 22 18 21.3284271 18 20.5L18 18z"/>
  </g>
</svg>
