<svg xmlns="http://www.w3.org/2000/svg" width="24" height="24" viewBox="0 0 24 24">
  <g fill="none" fill-rule="evenodd">
    <path fill="#8D9099" d="M19 10C17 7.1045695 16 5.1045695 16 4 16 2.34314575 17.3431458 1 19 1 20.6568542 1 22 2.34314575 22 4 22 5.1045695 21 7.1045695 19 10zM19 5C19.5522847 5 20 4.55228475 20 4 20 3.44771525 19.5522847 3 19 3 18.4477153 3 18 3.44771525 18 4 18 4.55228475 18.4477153 5 19 5zM6.5 22C3.5 17.8177115 2 14.9288226 2 13.3333333 2 10.9400994 4.01471863 9 6.5 9 8.98528137 9 11 10.9400994 11 13.3333333 11 14.9288226 9.5 17.8177115 6.5 22zM6.5 15C7.32842712 15 8 14.3284271 8 13.5 8 12.6715729 7.32842712 12 6.5 12 5.67157288 12 5 12.6715729 5 13.5 5 14.3284271 5.67157288 15 6.5 15z"/>
    <path stroke="#8D9099" stroke-dasharray="1 1" d="M19.9277344,9.30371094 C14.9375,10.034668 11.0318302,13.2717139 15.5588379,14 C17.9338379,14.3820801 20.5368072,14.7560928 21.5083008,15.3569336 C23.2860549,16.4564232 22.8467879,18.5302886 18.6845703,19.8198242 C16.9894606,20.345002 13.0874424,20.8751127 6.97851562,21.4101562"/>
  </g>
</svg>
