<svg xmlns="http://www.w3.org/2000/svg" width="24" height="24" viewBox="0 0 24 24">
  <path fill="#8D9099" fill-rule="evenodd" d="M12.9230769,5.69230769 C13.9384615,5.69230769 14.7692308,4.86153846 14.7692308,3.84615385 C14.7692308,2.83076923 13.9384615,2 12.9230769,2 C11.9076923,2 11.0769231,2.83076923 11.0769231,3.84615385 C11.0769231,4.86153846 11.9076923,5.69230769 12.9230769,5.69230769 L12.9230769,5.69230769 Z M9.50769231,8.83076923 L6.92307692,21.8461538 L8.86153846,21.8461538 L10.5230769,14.4615385 L12.4615385,16.3076923 L12.4615385,21.8461538 L14.3076923,21.8461538 L14.3076923,14.9230769 L12.3692308,13.0769231 L12.9230769,10.3076923 C14.1230769,11.6923077 15.9692308,12.6153846 18,12.6153846 L18,10.7692308 C16.2461538,10.7692308 14.7692308,9.84615385 14.0307692,8.55384615 L13.1076923,7.07692308 C12.7384615,6.52307692 12.1846154,6.15384615 11.5384615,6.15384615 C11.2615385,6.15384615 11.0769231,6.24615385 10.8,6.24615385 L6,8.27692308 L6,12.6153846 L7.84615385,12.6153846 L7.84615385,9.47692308 L9.50769231,8.83076923 L9.50769231,8.83076923 Z"/>
</svg>
