<svg xmlns="http://www.w3.org/2000/svg" width="48" height="48" viewBox="0 0 48 48">
  <g fill="none" fill-rule="evenodd">
    <path stroke="#2A313B" stroke-linecap="round" stroke-linejoin="round" stroke-width="2" d="M13.8705587,46.2394329 C17.4984594,38.5322173 21.8997438,32.5473335 27.0744118,28.2847814 C34.8491036,21.7161007 34.2563319,3.56419799 17.8436977,8.214078 C4.45201855,1.87780284 -1.0295277,15.2928423 0.20165823,24.8211014 C1.02244885,31.1732741 5.578749,38.3127179 13.8705587,46.2394329 Z" transform="rotate(21 15.972 26.407)"/>
    <path stroke="#979797"/>
    <path stroke="#2A313B" stroke-linecap="round" stroke-linejoin="round" stroke-width="2" d="M9.28417969 31.6806641C12.6975911 20.304362 17.5175781 13.4264323 23.7441406 11.046875 29.9707031 8.66731771 33.952474 5.41992188 35.6894531 1.3046875M18.1679688 14.2070313C13.9147135 14.4042969 11.0068359 15.2008464 9.44433594 16.5966797M15.2177734 20.6083984C16.539388 22.0947266 17.5413411 24.6188151 18.2236328 28.1806641"/>
    <polyline stroke="#2A313B" stroke-linecap="round" stroke-linejoin="round" stroke-width="2" points="34.231 38.104 36.812 40.756 41.899 35.661"/>
    <circle cx="38" cy="38" r="9" stroke="#2A313B" stroke-linecap="round" stroke-linejoin="round" stroke-width="2"/>
  </g>
</svg>
