<svg xmlns="http://www.w3.org/2000/svg" width="24" height="24" viewBox="0 0 24 24">
  <path fill="#2A313B" fill-rule="evenodd" d="M19.5889042,18.9118889 C19.4027273,18.969168 19.2049642,19 19,19 L5,19 C4.79503576,19 4.59727273,18.969168 4.41109584,18.9118889 C4.51841039,18.8635323 4.61894199,18.7952716 4.70710678,18.7071068 L9.70710678,13.7071068 C9.74955595,13.6646576 9.78739099,13.6193416 9.82061189,13.5717819 L10.7721188,14.3118429 C11.4943397,14.8735703 12.5056603,14.8735703 13.2278812,14.3118429 L14.1793881,13.5717819 C14.212609,13.6193416 14.250444,13.6646576 14.2928932,13.7071068 L19.2928932,18.7071068 C19.381058,18.7952716 19.4815896,18.8635323 19.5889042,18.9118889 Z M20.9118889,17.5889042 C20.8635323,17.4815896 20.7952716,17.381058 20.7071068,17.2928932 L15.7581048,12.3438912 L21,8.26686158 L21,17 C21,17.2049642 20.969168,17.4027273 20.9118889,17.5889042 Z M3.08811112,17.5889042 C3.03083202,17.4027273 3,17.2049642 3,17 L3,8.26686158 L8.24189523,12.3438912 L3.29289322,17.2928932 C3.20472843,17.381058 3.13646773,17.4815896 3.08811112,17.5889042 Z M20.7502393,6.03142961 C20.6216359,6.0645235 20.4975572,6.12392722 20.3860594,6.21064778 L12,12.7331384 L3.61394061,6.21064778 C3.50244275,6.12392722 3.37836407,6.0645235 3.24976068,6.03142961 C3.5908755,5.41633848 4.24681722,5 5,5 L19,5 C19.7531828,5 20.4091245,5.41633848 20.7502393,6.03142961 Z"/>
</svg>
