<svg xmlns="http://www.w3.org/2000/svg" width="32" height="32" viewBox="0 0 32 32">
  <path fill="#2A313B" fill-rule="evenodd" d="M22.5857864,22 L9.41421356,22 L13.7071068,17.7071068 C13.749556,17.6646576 13.787391,17.6193416 13.8206119,17.5717819 L14.7721188,18.3118429 C15.4943397,18.8735703 16.5056603,18.8735703 17.2278812,18.3118429 L18.1793881,17.5717819 C18.212609,17.6193416 18.250444,17.6646576 18.2928932,17.7071068 L22.5857864,22 Z M24,20.5857864 L19.7581048,16.3438912 L24,13.0446394 L24,20.5857864 Z M8,20.5857864 L8,13.0446394 L12.2418952,16.3438912 L8,20.5857864 Z M25.9999734,10.9872283 C25.9930922,9.3362489 24.6525949,8 23,8 L9,8 C7.34740508,8 6.0069078,9.3362489 6.00002661,10.9872283 C5.99993969,10.9944575 5.99993087,11.0016857 6,11.0089115 L6,21 C6,22.6568542 7.34314575,24 9,24 L23,24 C24.6568542,24 26,22.6568542 26,21 L26,11.0089115 C26.0000691,11.0016857 26.0000603,10.9944575 25.9999734,10.9872283 Z M23.908685,10.581939 L16,16.7331384 L8.09131498,10.581939 C8.2496144,10.2384329 8.5969627,10 9,10 L23,10 C23.4030373,10 23.7503856,10.2384329 23.908685,10.581939 Z M16,32 C7.163444,32 0,24.836556 0,16 C0,7.163444 7.163444,0 16,0 C24.836556,0 32,7.163444 32,16 C32,24.836556 24.836556,32 16,32 Z"/>
</svg>
