<svg xmlns="http://www.w3.org/2000/svg" width="24" height="24" viewBox="0 0 24 24">
  <path fill="#8D9099" fill-rule="evenodd" d="M20.5889042,19.9118889 C20.4027273,19.969168 20.2049642,20 20,20 L4,20 C3.79503576,20 3.59727273,19.969168 3.41109584,19.9118889 C3.51841039,19.8635323 3.61894199,19.7952716 3.70710678,19.7071068 L8.70710678,12.7071068 C8.91974395,12.4944696 9.01660198,12.2098965 8.99768088,11.9317245 L10.7721188,13.3118429 C11.4943397,13.8735703 12.5056603,13.8735703 13.2278812,13.3118429 L15.0023191,11.9317245 C14.983398,12.2098965 15.080256,12.4944696 15.2928932,12.7071068 L20.2928932,19.7071068 C20.381058,19.7952716 20.4815896,19.8635323 20.5889042,19.9118889 Z M21.9118889,18.5889042 C21.8635323,18.4815896 21.7952716,18.381058 21.7071068,18.2928932 L16.7071068,11.2928932 C16.5576928,11.1434793 16.3727608,11.0512308 16.1794889,11.016148 L21.6139406,6.78935222 C21.8646764,6.59433549 21.9971802,6.3036497 22,6.00891146 L22,18 C22,18.2049642 21.969168,18.4027273 21.9118889,18.5889042 Z M2.08811112,18.5889042 C2.03083202,18.4027273 2,18.2049642 2,18 L2,6.00891146 C2.00281977,6.3036497 2.1353236,6.59433549 2.38605939,6.78935222 L7.82051106,11.016148 C7.62723923,11.0512308 7.44230717,11.1434793 7.29289322,11.2928932 L2.29289322,18.2928932 C2.20472843,18.381058 2.13646773,18.4815896 2.08811112,18.5889042 Z M21.9999458,5.98511695 C21.9969805,5.77522336 21.9281591,5.56452539 21.7893522,5.38605939 C21.4502822,4.95011219 20.8220066,4.87157774 20.3860594,5.21064778 L12,11.7331384 L3.61394061,5.21064778 C3.17799342,4.87157774 2.54971782,4.95011219 2.21064778,5.38605939 C2.07184089,5.56452539 2.00301955,5.77522336 2.00005422,5.98511695 C2.00805451,4.88739831 2.90039577,4 4,4 L20,4 C21.0996042,4 21.9919455,4.88739831 21.9999458,5.98511695 Z"/>
</svg>
