<svg xmlns="http://www.w3.org/2000/svg" width="16" height="16" viewBox="0 0 16 16">
  <g fill="none" fill-rule="evenodd" stroke-linecap="square">
    <path stroke="#B5B7BD" stroke-width="2" d="M15,9.27272727 L15,6.72727273 L12.9241818,6.72727273 C12.8039091,6.26145455 12.6206364,5.82236364 12.382,5.41763636 L13.8494545,3.95018182 L12.0498182,2.15054545 L10.5823636,3.618 C10.1776364,3.37936364 9.73854545,3.19609091 9.27272727,3.07581818 L9.27272727,1 L6.72727273,1 L6.72727273,3.07581818 C6.26145455,3.19609091 5.82236364,3.37936364 5.41763636,3.618 L3.95018182,2.15054545 L2.15054545,3.95018182 L3.618,5.41763636 C3.37936364,5.82236364 3.19609091,6.26145455 3.07581818,6.72727273 L1,6.72727273 L1,9.27272727 L3.07581818,9.27272727 C3.19609091,9.73854545 3.37936364,10.1776364 3.618,10.5823636 L2.15054545,12.0498182 L3.95018182,13.8494545 L5.41763636,12.382 C5.82172727,12.6206364 6.26145455,12.8039091 6.72727273,12.9241818 L6.72727273,15 L9.27272727,15 L9.27272727,12.9241818 C9.73854545,12.8039091 10.1776364,12.6206364 10.5823636,12.382 L12.0498182,13.8494545 L13.8494545,12.0498182 L12.382,10.5823636 C12.6206364,10.1782727 12.8039091,9.73854545 12.9241818,9.27272727 L15,9.27272727 Z"/>
    <circle cx="8" cy="8" r="2" stroke="#B5B7BD" stroke-width="2"/>
  </g>
</svg>
