<svg xmlns="http://www.w3.org/2000/svg" width="32" height="32" viewBox="0 0 32 32">
  <path fill="#BFC1C4" fill-rule="evenodd" d="M16,32 C7.163444,32 0,24.836556 0,16 C0,7.163444 7.163444,0 16,0 C24.836556,0 32,7.163444 32,16 C32,24.836556 24.836556,32 16,32 Z M14.0074516,14.7716628 L14.0074516,16.4803279 L16.847392,16.4803279 C16.7329359,17.21363 15.9889717,18.6303981 14.0074516,18.6303981 C12.2977645,18.6303981 10.9028316,17.2207494 10.9028316,15.4836066 C10.9028316,13.7464637 12.2977645,12.336815 14.0074516,12.336815 C14.9803279,12.336815 15.6312966,12.7497424 16.0032787,13.1057143 L17.3624441,11.8028571 C16.4897168,10.9912412 15.3594635,10.5 14.0074516,10.5 C11.2390462,10.5 9,12.7283841 9,15.4836066 C9,18.238829 11.2390462,20.4672131 14.0074516,20.4672131 C16.8974665,20.4672131 18.8146051,18.4452927 18.8146051,15.5975176 C18.8146051,15.2700234 18.7788376,15.0208431 18.7359165,14.7716628 L14.0074516,14.7716628 Z M24.5421013,13.9738878 L23.1114009,13.9738878 L23.1114009,12.5500002 L21.6807004,12.5500002 L21.6807004,13.9738878 L20.25,13.9738878 L20.25,15.3977754 L21.6807004,15.3977754 L21.6807004,16.821663 L23.1114009,16.821663 L23.1114009,15.3977754 L24.5421013,15.3977754 L24.5421013,13.9738878 Z"/>
</svg>
