<svg xmlns="http://www.w3.org/2000/svg" width="24" height="24" viewBox="0 0 24 24">
  <path fill="#FFF" fill-rule="evenodd" d="M12.1836735,13.8 L17.3921283,13.8 C17.1822157,15.1569454 15.8177843,18.0449672 12.1836735,18.0449672 C9.04810496,18.0449672 6.48979592,15.4364703 6.48979592,12.2219589 C6.48979592,9.00744749 9.04810496,6.39895056 12.1836735,6.39895056 C13.96793,6.39895056 15.1618076,7.16305572 15.8440233,7.82176707 L18.3367347,5.41088353 C16.7361516,3.90902166 14.6632653,3 12.1836735,3 C7.10641399,3 3,7.12353304 3,12.2219589 C3,17.3203847 7.10641399,21.4439177 12.1836735,21.4439177 C17.483965,21.4439177 21,17.7024373 21,12.4327465 C21,11.8267321 20.9344023,11.5610979 20.8556851,11.1 L12.1836735,11.1 L12.1836735,13.8 Z"/>
</svg>
