<svg xmlns="http://www.w3.org/2000/svg" xmlns:xlink="http://www.w3.org/1999/xlink" width="16" height="16" viewBox="0 0 16 16">
  <defs>
    <circle id="ic_help_16_normal-a" cx="8" cy="8" r="8"/>
  </defs>
  <g fill="none" fill-rule="evenodd">
    <use fill="#FFF" xlink:href="#ic_help_16_normal-a"/>
    <circle cx="8" cy="8" r="7.5" stroke="#E1E3EA"/>
    <path fill="#2C8CFD" d="M7.38916016,9.94433594 C7.38916016,9.30631191 7.46663334,8.79817897 7.62158203,8.41992188 C7.77653072,8.04166478 8.06021929,7.66910991 8.47265625,7.30224609 C8.88509321,6.93538228 9.15966729,6.63688266 9.29638672,6.40673828 C9.43310615,6.1765939 9.50146484,5.93392055 9.50146484,5.67871094 C9.50146484,4.90852479 9.14599965,4.5234375 8.43505859,4.5234375 C8.09781732,4.5234375 7.82780049,4.62711485 7.625,4.83447266 C7.42219951,5.04183046 7.31624354,5.32779766 7.30712891,5.69238281 L5.32470703,5.69238281 C5.33382166,4.82193575 5.61523161,4.14062746 6.16894531,3.6484375 C6.72265902,3.15624754 7.47802256,2.91015625 8.43505859,2.91015625 C9.40120926,2.91015625 10.1508762,3.14371511 10.684082,3.61083984 C11.2172878,4.07796458 11.4838867,4.73762595 11.4838867,5.58984375 C11.4838867,5.97721548 11.397299,6.34293448 11.2241211,6.68701172 C11.0509431,7.03108896 10.7478863,7.41275832 10.3149414,7.83203125 L9.76123047,8.35839844 C9.41487457,8.69108239 9.21663437,9.08072693 9.16650391,9.52734375 L9.13916016,9.94433594 L7.38916016,9.94433594 Z M7.19091797,12.0429688 C7.19091797,11.7376287 7.29459532,11.4858408 7.50195312,11.2875977 C7.70931093,11.0893545 7.97477052,10.9902344 8.29833984,10.9902344 C8.62190917,10.9902344 8.88736875,11.0893545 9.09472656,11.2875977 C9.30208437,11.4858408 9.40576172,11.7376287 9.40576172,12.0429688 C9.40576172,12.3437515 9.30436299,12.5921214 9.1015625,12.7880859 C8.89876201,12.9840505 8.6310238,13.0820312 8.29833984,13.0820312 C7.96565589,13.0820312 7.69791768,12.9840505 7.49511719,12.7880859 C7.29231669,12.5921214 7.19091797,12.3437515 7.19091797,12.0429688 Z"/>
  </g>
</svg>
