<svg xmlns="http://www.w3.org/2000/svg" width="24" height="24" viewBox="0 0 24 24">
  <g fill="none" fill-rule="evenodd">
    <path stroke="#8D9099" stroke-linecap="round" stroke-linejoin="round" stroke-width="2" d="M11.5,19 C17.2989899,19 19.2608696,15.8659932 22,12 C19.2608696,8.13400675 17.2989899,5 11.5,5 C5.70101013,5 3.73913043,8.13400675 1,12 C3.73913043,15.8659932 5.70101013,19 11.5,19 Z"/>
    <path stroke="#8D9099" stroke-width="2" d="M9.17157288,9.17157288 C8.44771525,9.8954305 8,10.8954305 8,12 C8,14.209139 9.790861,16 12,16 M14.8284271,14.8284271 C15.5522847,14.1045695 16,13.1045695 16,12 C16,9.790861 14.209139,8 12,8" transform="scale(-1 1) rotate(-20 0 80.055)"/>
    <rect width="2" height="32" x="11" y="-4" fill="#8D9099" rx="1" transform="rotate(45 12 12)"/>
  </g>
</svg>
