<svg xmlns="http://www.w3.org/2000/svg" width="16" height="16" viewBox="0 0 16 16">
  <path fill="#2A313B" d="M11.338742,14.4398182 C11.2321965,14.4398182 11.1311056,14.3932727 11.0621965,14.3121818 L6.80365109,9.32127273 C6.71146927,9.21327273 6.690742,9.06163636 6.75001473,8.93290909 C6.80946927,8.80418182 6.93837836,8.72163636 7.08019655,8.72163636 L9.27237836,8.72163636 C9.18765109,6.93454545 8.59692382,3.61236364 5.384742,3.61236364 C3.32183291,3.61236364 1.44256018,5.074 0.708196546,7.24909091 C0.645832909,7.43381818 0.448560182,7.53672727 0.261832909,7.48181818 C0.0747420001,7.42727273 -0.0361670908,7.23472727 0.0107420001,7.04545455 C0.851287455,3.64654545 3.56601473,1.27272727 6.61219655,1.27272727 C10.2743784,1.27272727 13.2281965,4.51654545 13.4652875,8.72145455 L15.5971056,8.72145455 C15.7389238,8.72145455 15.8678329,8.804 15.9272875,8.93272727 C15.9865602,9.06145455 15.9658329,9.21309091 15.8736511,9.32109091 L11.6152875,14.3123636 C11.5461965,14.3932727 11.4451056,14.4398182 11.338742,14.4398182 Z"/>
</svg>
