<svg xmlns="http://www.w3.org/2000/svg" width="32" height="32" viewBox="0 0 32 32">
  <path fill="none" stroke="#FFF" stroke-linecap="round" stroke-linejoin="round" stroke-width="2" d="M22.677484,28.8796364 C22.4643931,28.8796364 22.2622113,28.7865455 22.1243931,28.6243636 L13.6073022,18.6425455 C13.4229385,18.4265455 13.381484,18.1232727 13.5000295,17.8658182 C13.6189385,17.6083636 13.8767567,17.4432727 14.1603931,17.4432727 L18.5447567,17.4432727 C18.3753022,13.8690909 17.1938476,7.22472727 10.769484,7.22472727 C6.64366582,7.22472727 2.88512036,10.148 1.41639309,14.4981818 C1.29166582,14.8676364 0.897120364,15.0734545 0.523665818,14.9636364 C0.149484,14.8545455 -0.0723341817,14.4694545 0.0214840001,14.0909091 C1.70257491,7.29309091 7.13202945,2.54545455 13.2243931,2.54545455 C20.5487567,2.54545455 26.4563931,9.03309091 26.9305749,17.4429091 L31.1942113,17.4429091 C31.4778476,17.4429091 31.7356658,17.608 31.8545749,17.8654545 C31.9731204,18.1229091 31.9316658,18.4261818 31.7473022,18.6421818 L23.2305749,28.6247273 C23.0923931,28.7865455 22.8902113,28.8796364 22.677484,28.8796364 Z"/>
</svg>
