<svg xmlns="http://www.w3.org/2000/svg" width="48" height="48" viewBox="0 0 48 48">
  <g fill="none" fill-rule="evenodd">
    <path stroke="#2A313B" stroke-linecap="round" stroke-linejoin="round" stroke-width="2" d="M3,1 L24.2485298,1 C24.7329761,1 25.200956,1.1758365 25.565539,1.49484661 L32.3170092,7.40238306 C32.7510391,7.78215924 33,8.33081129 33,8.90753645 L33,45 C33,46.1045695 32.1045695,47 31,47 L3,47 C1.8954305,47 1,46.1045695 1,45 L1,3 C1,1.8954305 1.8954305,1 3,1 Z"/>
    <rect width="2" height="14" x="12" y="6" fill="#2A313B" rx="1"/>
    <rect width="2" height="6" x="41" y="40" fill="#2A313B" rx="1"/>
    <rect width="14" height="2" x="6" y="8" fill="#2A313B" rx="1"/>
    <rect width="22" height="2" x="6" y="30" fill="#2A313B" rx="1"/>
    <path stroke="#2A313B" stroke-linecap="round" stroke-linejoin="round" stroke-width="2" d="M42,1 L42,1 C43.6568542,1 45,2.34314575 45,4 L45,36 L39,36 L39,4 C39,2.34314575 40.3431458,1 42,1 Z"/>
    <polygon stroke="#2A313B" stroke-linecap="round" stroke-linejoin="round" stroke-width="2" points="40 37 44 37 46 42 42 47 38 42"/>
    <rect width="8" height="2" x="9" y="18" fill="#2A313B" rx="1"/>
    <rect width="4" height="2" x="5" y="12" fill="#2A313B" rx="1"/>
    <path fill="#2A313B" d="M18,12 L20,12 C20.5522847,12 21,12.4477153 21,13 L21,13 C21,13.5522847 20.5522847,14 20,14 L19,14 L18,14 C17.4477153,14 17,13.5522847 17,13 L17,13 C17,12.4477153 17.4477153,12 18,12 Z"/>
    <path stroke="#2A313B" stroke-linecap="round" stroke-linejoin="round" stroke-width="2" d="M33,10 L27,10 C25.8954305,10 25,9.1045695 25,8 L25,1"/>
    <rect width="22" height="2" x="6" y="34" fill="#2A313B" rx="1"/>
    <rect width="16" height="2" x="6" y="39" fill="#2A313B" rx="1"/>
  </g>
</svg>
