<svg xmlns="http://www.w3.org/2000/svg" width="32" height="32" viewBox="0 0 32 32">
  <path fill="#8D9099" fill-rule="evenodd" d="M16,32 C24.836556,32 32,24.836556 32,16 C32,7.163444 24.836556,0 16,0 C7.163444,0 0,7.163444 0,16 C0,24.836556 7.163444,32 16,32 Z M17.1466361,25.7627987 L16.5,26.3109619 L15.8533639,25.7627987 C10.6460143,21.3484489 8,17.644029 8,14.5 C8,9.80557963 11.8055796,6 16.5,6 C21.1944204,6 25,9.80557963 25,14.5 C25,17.644029 22.3539857,21.3484489 17.1466361,25.7627987 Z M23,14.5 C23,10.9101491 20.0898509,8 16.5,8 C12.9101491,8 10,10.9101491 10,14.5 C10,16.7692674 12.1421632,19.8728019 16.5,23.6807879 C20.8578368,19.8728019 23,16.7692674 23,14.5 Z M16.5,16 C17.3284271,16 18,15.3284271 18,14.5 C18,13.6715729 17.3284271,13 16.5,13 C15.6715729,13 15,13.6715729 15,14.5 C15,15.3284271 15.6715729,16 16.5,16 Z M16.5,18 C14.5670034,18 13,16.4329966 13,14.5 C13,12.5670034 14.5670034,11 16.5,11 C18.4329966,11 20,12.5670034 20,14.5 C20,16.4329966 18.4329966,18 16.5,18 Z"/>
</svg>
