<svg xmlns="http://www.w3.org/2000/svg" width="32" height="32" viewBox="0 0 32 32">
  <g fill="none" fill-rule="evenodd">
    <circle cx="16" cy="16" r="16" fill="#F8CE46"/>
    <path fill="#2A313B" d="M15.5,18.8662178 L15.5,19.5 C15.5,19.7761424 15.7238576,20 16,20 C16.2761424,20 16.5,19.7761424 16.5,19.5 L16.5,18.8662178 C16.7989007,18.6933131 17,18.3701412 17,18 C17,17.4477153 16.5522847,17 16,17 C15.4477153,17 15,17.4477153 15,18 C15,18.3701412 15.2010993,18.6933131 15.5,18.8662178 Z M20,14 C21.1045695,14 22,14.8954305 22,16 L22,22 C22,23.1045695 21.1045695,24 20,24 L12,24 C10.8954305,24 10,23.1045695 10,22 L10,16 C10,14.8954305 10.8954305,14 12,14 L12,12 C12,9.790861 13.790861,8 16,8 C18.209139,8 20,9.790861 20,12 L20,14 Z M14,14 L18,14 L18,12 C18,10.8954305 17.1045695,10 16,10 C14.8954305,10 14,10.8954305 14,12 L14,14 Z"/>
  </g>
</svg>
