<svg xmlns="http://www.w3.org/2000/svg" width="16" height="16" viewBox="0 0 16 16">
  <path fill-rule="evenodd" d="M8,0 C8.55228475,-1.01453063e-16 9,0.44771525 9,1 L9,3 C9,3.55228475 8.55228475,4 8,4 C7.44771525,4 7,3.55228475 7,3 L7,1 C7,0.44771525 7.44771525,1.01453063e-16 8,0 Z M13.6568542,2.34314575 C14.0473785,2.73367004 14.0473785,3.36683502 13.6568542,3.75735931 L12.2426407,5.17157288 C11.8521164,5.56209717 11.2189514,5.56209717 10.8284271,5.17157288 C10.4379028,4.78104858 10.4379028,4.1478836 10.8284271,3.75735931 L12.2426407,2.34314575 C12.633165,1.95262146 13.26633,1.95262146 13.6568542,2.34314575 Z M16,8 C16,8.55228475 15.5522847,9 15,9 L13,9 C12.4477153,9 12,8.55228475 12,8 C12,7.44771525 12.4477153,7 13,7 L15,7 C15.5522847,7 16,7.44771525 16,8 Z M13.6568542,13.6568542 C13.26633,14.0473785 12.633165,14.0473785 12.2426407,13.6568542 L10.8284271,12.2426407 C10.4379028,11.8521164 10.4379028,11.2189514 10.8284271,10.8284271 C11.2189514,10.4379028 11.8521164,10.4379028 12.2426407,10.8284271 L13.6568542,12.2426407 C14.0473785,12.633165 14.0473785,13.26633 13.6568542,13.6568542 Z M8,16 C7.44771525,16 7,15.5522847 7,15 L7,13 C7,12.4477153 7.44771525,12 8,12 C8.55228475,12 9,12.4477153 9,13 L9,15 C9,15.5522847 8.55228475,16 8,16 Z M2.34314575,13.6568542 C1.95262146,13.26633 1.95262146,12.633165 2.34314575,12.2426407 L3.75735931,10.8284271 C4.1478836,10.4379028 4.78104858,10.4379028 5.17157288,10.8284271 C5.56209717,11.2189514 5.56209717,11.8521164 5.17157288,12.2426407 L3.75735931,13.6568542 C3.36683502,14.0473785 2.73367004,14.0473785 2.34314575,13.6568542 Z M3.83475851e-17,8 C-1.6455854e-16,7.44771525 0.44771525,7 1,7 L3,7 C3.55228475,7 4,7.44771525 4,8 C4,8.55228475 3.55228475,9 3,9 L1,9 C0.44771525,9 2.4125371e-16,8.55228475 3.83475851e-17,8 Z M2.34314575,2.34314575 C2.73367004,1.95262146 3.36683502,1.95262146 3.75735931,2.34314575 L5.17157288,3.75735931 C5.56209717,4.1478836 5.56209717,4.78104858 5.17157288,5.17157288 C4.78104858,5.56209717 4.1478836,5.56209717 3.75735931,5.17157288 L2.34314575,3.75735931 C1.95262146,3.36683502 1.95262146,2.73367004 2.34314575,2.34314575 Z"/>
</svg>
