<svg xmlns="http://www.w3.org/2000/svg" width="18" height="18" viewBox="0 0 18 18">
  <path fill="#F84646" fill-rule="evenodd" d="M10.4142136,9 L13.2426407,11.8284271 C13.633165,12.2189514 13.633165,12.8521164 13.2426407,13.2426407 C12.8521164,13.633165 12.2189514,13.633165 11.8284271,13.2426407 L9,10.4142136 L6.17157288,13.2426407 C5.78104858,13.633165 5.1478836,13.633165 4.75735931,13.2426407 C4.36683502,12.8521164 4.36683502,12.2189514 4.75735931,11.8284271 L7.58578644,9 L4.75735931,6.17157288 C4.36683502,5.78104858 4.36683502,5.1478836 4.75735931,4.75735931 C5.1478836,4.36683502 5.78104858,4.36683502 6.17157288,4.75735931 L9,7.58578644 L11.8284271,4.75735931 C12.2189514,4.36683502 12.8521164,4.36683502 13.2426407,4.75735931 C13.633165,5.1478836 13.633165,5.78104858 13.2426407,6.17157288 L10.4142136,9 Z"/>
</svg>
