<svg xmlns="http://www.w3.org/2000/svg" width="32" height="32" viewBox="0 0 32 32">
  <g fill="none" fill-rule="evenodd">
    <circle cx="16" cy="16" r="16" fill="#F8CE46"/>
    <path fill="#2A313B" d="M24,12 L25,12 C25.5522847,12 26,12.4477153 26,13 C26,13.5522847 25.5522847,14 25,14 L24,14 L24,15 C24,15.5522847 23.5522847,16 23,16 C22.4477153,16 22,15.5522847 22,15 L22,14 L21,14 C20.4477153,14 20,13.5522847 20,13 C20,12.4477153 20.4477153,12 21,12 L22,12 L22,11 C22,10.4477153 22.4477153,10 23,10 C23.5522847,10 24,10.4477153 24,11 L24,12 Z M12.0606484,16.5738682 C12.788122,17.4290713 13.7537783,18 15,18 C16.2693036,18 17.2475526,17.4077265 17.9795285,16.5260585 C19.1278394,17.0099257 20.0449272,17.8305269 21,19 C21.0110686,19.8618254 21.0149759,20.863725 21.0117218,22.005699 C21.0085807,23.1080453 20.1140695,24.0000112 19.0117187,24.0000112 L10.8934019,24 C9.81049198,24 8.92429104,23.1380999 8.89418922,22.0556085 L8.89417469,22.0556089 C8.86172113,20.8885467 8.89699623,19.8700104 9,19 C9.95212279,17.9157751 10.9058498,17.0836646 12.0606484,16.5738682 Z M15,16 C12.654839,16 11.8,12.9673112 11.8,11.2 C11.8,9.4326888 13.2326888,8 15,8 C16.7673112,8 18.2,9.4326888 18.2,11.2 C18.2,12.9673112 17.345161,16 15,16 Z"/>
  </g>
</svg>
