<svg xmlns="http://www.w3.org/2000/svg" width="24" height="24" viewBox="0 0 24 24">
  <g fill="none" fill-rule="evenodd">
    <circle cx="12" cy="12" r="11" stroke="#2A313B" stroke-linecap="round" stroke-linejoin="round" stroke-width="2"/>
    <polygon stroke="#2A313B" stroke-linecap="round" stroke-linejoin="round" stroke-width="2" points="12 6 15 12 12 18 9 12" transform="rotate(45 12 12)"/>
    <path fill="#2A313B" d="M12,1 C12.5522847,1 13,1.44771525 13,2 L13,3 C13,3.55228475 12.5522847,4 12,4 C11.4477153,4 11,3.55228475 11,3 L11,2 C11,1.44771525 11.4477153,1 12,1 Z M19.7781746,4.22182541 C20.1686989,4.6123497 20.1686989,5.24551468 19.7781746,5.63603897 L19.0710678,6.34314575 C18.6805435,6.73367004 18.0473785,6.73367004 17.6568542,6.34314575 C17.26633,5.95262146 17.26633,5.31945648 17.6568542,4.92893219 L18.363961,4.22182541 C18.7544853,3.83130112 19.3876503,3.83130112 19.7781746,4.22182541 Z M23,12 C23,12.5522847 22.5522847,13 22,13 L21,13 C20.4477153,13 20,12.5522847 20,12 C20,11.4477153 20.4477153,11 21,11 L22,11 C22.5522847,11 23,11.4477153 23,12 Z M19.7781746,19.7781746 C19.3876503,20.1686989 18.7544853,20.1686989 18.363961,19.7781746 L17.6568542,19.0710678 C17.26633,18.6805435 17.26633,18.0473785 17.6568542,17.6568542 C18.0473785,17.26633 18.6805435,17.26633 19.0710678,17.6568542 L19.7781746,18.363961 C20.1686989,18.7544853 20.1686989,19.3876503 19.7781746,19.7781746 Z M12,23 C11.4477153,23 11,22.5522847 11,22 L11,21 C11,20.4477153 11.4477153,20 12,20 C12.5522847,20 13,20.4477153 13,21 L13,22 C13,22.5522847 12.5522847,23 12,23 Z M4.22182541,19.7781746 C3.83130112,19.3876503 3.83130112,18.7544853 4.22182541,18.363961 L4.92893219,17.6568542 C5.31945648,17.26633 5.95262146,17.26633 6.34314575,17.6568542 C6.73367004,18.0473785 6.73367004,18.6805435 6.34314575,19.0710678 L5.63603897,19.7781746 C5.24551468,20.1686989 4.6123497,20.1686989 4.22182541,19.7781746 Z M1,12 C1,11.4477153 1.44771525,11 2,11 L3,11 C3.55228475,11 4,11.4477153 4,12 C4,12.5522847 3.55228475,13 3,13 L2,13 C1.44771525,13 1,12.5522847 1,12 Z M4.22182541,4.22182541 C4.6123497,3.83130112 5.24551468,3.83130112 5.63603897,4.22182541 L6.34314575,4.92893219 C6.73367004,5.31945648 6.73367004,5.95262146 6.34314575,6.34314575 C5.95262146,6.73367004 5.31945648,6.73367004 4.92893219,6.34314575 L4.22182541,5.63603897 C3.83130112,5.24551468 3.83130112,4.6123497 4.22182541,4.22182541 Z"/>
  </g>
</svg>
