<svg xmlns="http://www.w3.org/2000/svg" xmlns:xlink="http://www.w3.org/1999/xlink" width="32" height="32" viewBox="0 0 32 32">
  <defs>
    <path id="ic_phone_32_dark_hovered-a" d="M16,32 C24.836556,32 32,24.836556 32,16 C32,7.163444 24.836556,0 16,0 C7.163444,0 0,7.163444 0,16 C0,24.836556 7.163444,32 16,32 Z M21,19 L21,13 L11,13 L11,19 L21,19 Z M21,21 L11,21 L11,23.2071277 C11,23.6436927 11.3180937,24 11.708957,24 L20.291043,24 C20.6775742,24 21,23.6401477 21,23.2071277 L21,21 Z M21,11 L21,8.79287233 C21,8.35630729 20.6819063,8 20.291043,8 L11.708957,8 C11.3224258,8 11,8.3598523 11,8.79287233 L11,11 L21,11 Z M9,8.49257535 C9,7.115964 10.0522754,6 11.3275309,6 L20.6724691,6 C21.9579289,6 23,7.1181422 23,8.49257535 L23,23.5074247 C23,24.884036 21.9477246,26 20.6724691,26 L11.3275309,26 C10.0420711,26 9,24.8818578 9,23.5074247 L9,8.49257535 Z M14,9 L18,9 L18,10 L14,10 L14,9 Z M15,22 L17,22 L17,23 L15,23 L15,22 Z"/>
  </defs>
  <g fill="none" fill-rule="evenodd">
    <use fill="#2A313B" fill-rule="nonzero" xlink:href="#ic_phone_32_dark_hovered-a"/>
  </g>
</svg>
