<svg xmlns="http://www.w3.org/2000/svg" xmlns:xlink="http://www.w3.org/1999/xlink" width="24" height="24" viewBox="0 0 24 24">
  <defs>
    <path id="ic_phone_24_dark-a" d="M5,4.49257535 C5,3.115964 6.05227542,2 7.32753092,2 L16.6724691,2 C17.9579289,2 19,3.1181422 19,4.49257535 L19,19.5074247 C19,20.884036 17.9477246,22 16.6724691,22 L7.32753092,22 C6.04207109,22 5,20.8818578 5,19.5074247 L5,4.49257535 Z M7,6 L7,18 L17,18 L17,6 L7,6 Z M10,4 L10,5 L14,5 L14,4 L10,4 Z M11,20 C11,20.5561352 11.4477153,21 12,21 C12.5561352,21 13,20.5522847 13,20 C13,19.4438648 12.5522847,19 12,19 C11.4438648,19 11,19.4477153 11,20 Z"/>
  </defs>
  <g fill="none" fill-rule="evenodd">
    <use fill="#8D9099" fill-rule="nonzero" xlink:href="#ic_phone_24_dark-a"/>
  </g>
</svg>
