<svg xmlns="http://www.w3.org/2000/svg" width="24" height="24" viewBox="0 0 24 24">
  <g fill="none" fill-rule="evenodd">
    <path stroke="#8D9099" stroke-linecap="round" stroke-linejoin="round" stroke-width="2" d="M5.99670586,20 L4,20 C2.8954305,20 2,19.1045695 2,18 L2,11 C2,9.8954305 2.8954305,9 4,9 L20,9 C21.1045695,9 22,9.8954305 22,11 L22,18 C22,19.1045695 21.1045695,20 20,20 L18,20"/>
    <rect width="4" height="2" x="4" y="12" fill="#8D9099" rx="1"/>
    <circle cx="16" cy="13" r="1" fill="#8D9099"/>
    <circle cx="19" cy="13" r="1" fill="#8D9099"/>
    <rect width="12" height="6" x="6" y="17" stroke="#8D9099" stroke-linecap="round" stroke-linejoin="round" stroke-width="2"/>
    <polygon stroke="#8D9099" stroke-linecap="round" stroke-linejoin="round" stroke-width="2" points="6 1 15 1 18 4 18 9 6 9"/>
  </g>
</svg>
