<svg xmlns="http://www.w3.org/2000/svg" width="32" height="32" viewBox="0 0 32 32">
  <g fill="none" fill-rule="evenodd">
    <path stroke="#2A313B" stroke-width="2" d="M13.8393017 18.996831C13.2775445 19.9456713 12.2739679 20.5 10.5 20.5 8.7260321 20.5 7.72245548 19.9456713 7.16069826 18.996831 7.10739367 18.998937 7.05382097 19 7 19 4.790861 19 3 17.209139 3 15 3 13.8718496 3.46703544 12.8527811 4.21830868 12.1255922 4.07752821 11.7780198 4 11.3980637 4 11 4 9.57867227 4.98842333 8.38820318 6.31539526 8.07846746 6.11576612 7.76728567 6 7.39716215 6 7 6 5.8954305 6.8954305 5 8 5 8.07067559 5 8.14049496 5.00366593 8.20927832 5.01081802 8.94713439 3.75494078 9.80085847 3 10.5 3 11.1991415 3 12.0528656 3.75494078 12.7907217 5.01081802 12.859505 5.00366593 12.9293244 5 13 5 14.1045695 5 15 5.8954305 15 7 15 7.39716215 14.8842339 7.76728567 14.6846047 8.07846746 16.0115767 8.38820318 17 9.57867227 17 11 17 11.3980637 16.9224718 11.7780198 16.7816913 12.1255922 17.5329646 12.8527811 18 13.8718496 18 15 18 17.209139 16.209139 19 14 19 13.946179 19 13.8926063 18.998937 13.8393017 18.996831zM25.2262012 20.7310094C24.8516963 21.4268257 24.1826453 21.8333333 23 21.8333333 21.8173547 21.8333333 21.1483037 21.4268257 20.7737988 20.7310094 20.7382624 20.7325538 20.7025473 20.7333333 20.6666667 20.7333333 19.1939073 20.7333333 18 19.4200353 18 17.8 18 16.9726897 18.311357 16.2253728 18.8122058 15.6921009 18.7183521 15.4372145 18.6666667 15.1585801 18.6666667 14.8666667 18.6666667 13.8243597 19.3256156 12.951349 20.2102635 12.7242095 20.0771774 12.4960095 20 12.2245856 20 11.9333333 20 11.1233157 20.5969537 10.4666667 21.3333333 10.4666667 21.3804504 10.4666667 21.4269966 10.469355 21.4728522 10.4745999 21.9647563 9.55362324 22.5339056 9 23 9 23.4660944 9 24.0352437 9.55362324 24.5271478 10.4745999 24.5730034 10.469355 24.6195496 10.4666667 24.6666667 10.4666667 25.4030463 10.4666667 26 11.1233157 26 11.9333333 26 12.2245856 25.9228226 12.4960095 25.7897365 12.7242095 26.6743844 12.951349 27.3333333 13.8243597 27.3333333 14.8666667 27.3333333 15.1585801 27.2816479 15.4372145 27.1877942 15.6921009 27.688643 16.2253728 28 16.9726897 28 17.8 28 19.4200353 26.8060927 20.7333333 25.3333333 20.7333333 25.2974527 20.7333333 25.2617376 20.7325538 25.2262012 20.7310094z"/>
    <path stroke="#2A313B" stroke-linecap="square" stroke-width="2" d="M11 20L11 29M23 21L23 28"/>
  </g>
</svg>
