<svg xmlns="http://www.w3.org/2000/svg" width="24" height="24" viewBox="0 0 24 24">
  <path fill="#8D9099" fill-rule="evenodd" d="M21.4249765,14.123109 C21.7930386,14.8534168 22,15.6753028 22,16.5458761 C22,19.5575262 19.5235183,22 16.4684854,22 C15.5218721,22 14.6328786,21.7646786 13.8532455,21.3519968 C13.2864534,21.4551672 12.7031985,21.5096505 12.1058325,21.5096505 C6.83772342,21.5096505 2.5667921,17.2993682 2.5667921,12.1037501 C2.5667921,11.456906 2.63381938,10.8239726 2.75964252,10.2142236 C2.27751646,9.40277053 2,8.46148496 2,7.45528314 C2,4.44131455 4.47648166,2 7.5326905,2 C8.61335842,2 9.62229539,2.30719295 10.4748354,2.83695589 C11.00635,2.74653683 11.5507996,2.69900887 12.1058325,2.69900887 C17.3751176,2.69900887 21.644873,6.91045036 21.644873,12.1037501 C21.644873,12.7969628 21.5696143,13.4716281 21.4249765,14.123109 Z M16.9988241,16.5992001 C17.440969,15.9813366 17.6667451,15.2753724 17.6667451,14.5010143 C17.6667451,13.8530111 17.5362183,13.2965861 17.2786924,12.8433316 C17.0211665,12.3935547 16.6601599,12.0179679 16.203904,11.7246856 C15.7547037,11.4360401 15.2067262,11.1902857 14.570555,10.9909001 C13.9437912,10.7926737 13.2347131,10.608358 12.4621355,10.4460674 C11.8518344,10.3069611 11.4073377,10.1991538 11.1427563,10.126123 C10.8840546,10.0565699 10.6253528,9.95687706 10.3748824,9.83284067 C10.1326435,9.71228192 9.94096896,9.57085724 9.80691439,9.40624819 C9.6775635,9.25323132 9.61523989,9.07355243 9.61523989,8.86025619 C9.61523989,8.51017214 9.80926623,8.21457138 10.2067262,7.95838405 C10.6194732,7.69060453 11.1768579,7.55613516 11.8588899,7.55613516 C12.59619,7.55613516 13.1312324,7.67669391 13.4522578,7.9178114 C13.7826905,8.16588419 14.0707902,8.51712746 14.3083255,8.96226743 C14.514111,9.31003304 14.6999059,9.55346896 14.8786453,9.70996348 C15.0691439,9.87689098 15.3466604,9.96267316 15.6994356,9.96267316 C16.0874882,9.96267316 16.417921,9.82704457 16.6789746,9.55810584 C16.9388523,9.29264476 17.070555,8.98661102 17.070555,8.65043761 C17.070555,8.30151278 16.9694262,7.94099577 16.7718721,7.57816032 C16.5766698,7.21880253 16.2638758,6.87451458 15.8440734,6.54993334 C15.4277987,6.22882977 14.8986359,5.96916478 14.2695202,5.77673448 C13.6439323,5.58430418 12.894873,5.48692981 12.0435089,5.48692981 C10.976952,5.48692981 10.0362183,5.63299136 9.24482596,5.92163682 C8.44167451,6.21260071 7.81843838,6.64151162 7.39275635,7.18982206 C6.96237065,7.74161015 6.74482596,8.38265809 6.74482596,9.09209992 C6.74482596,9.83747754 6.95296331,10.4715702 7.3621825,10.9781487 C7.76552211,11.4754535 8.31702728,11.8730656 9.0014111,12.1593926 C9.66933208,12.4410827 10.5101129,12.6879963 11.5014111,12.8966557 C12.2293039,13.0473541 12.8172625,13.1922564 13.2511759,13.3244073 C13.6662747,13.4542398 14.0084666,13.6397148 14.2695202,13.8785139 C14.5164628,14.1080392 14.6375823,14.4001623 14.6375823,14.7699531 C14.6375823,15.2405958 14.4071025,15.6254564 13.9308561,15.9442416 C13.4452023,16.2711413 12.7984478,16.4380687 12.0094073,16.4380687 C11.4367357,16.4380687 10.9698965,16.354605 10.6241769,16.1946328 C10.280809,16.0335014 10.011524,15.8283197 9.82337723,15.5825654 C9.62935089,15.3310149 9.44590781,15.0087521 9.27657573,14.6262099 C9.12488241,14.2772851 8.93673565,14.0048687 8.71683913,13.8205529 C8.48753528,13.6292819 8.20413923,13.5330667 7.87723424,13.5330667 C7.47742239,13.5330667 7.14228598,13.6547847 6.88123236,13.8982206 C6.6178269,14.1428157 6.48377234,14.4418942 6.48377234,14.7850229 C6.48377234,15.3379702 6.68838194,15.909465 7.09407338,16.4844375 C7.49506115,17.0570915 8.02304798,17.5184606 8.66392286,17.8592709 C9.5611477,18.3287544 10.7100188,18.5663943 12.0799624,18.5663943 C13.221778,18.5663943 14.2236595,18.3913522 15.0597366,18.0482235 C15.906397,17.7027763 16.5578551,17.2159045 16.9988241,16.5992001 Z"/>
</svg>
