<svg xmlns="http://www.w3.org/2000/svg" width="48" height="48" viewBox="0 0 48 48">
  <g fill="none" fill-rule="evenodd">
    <rect width="48" height="2" y="46" fill="#2A313B" rx="1"/>
    <rect width="27" height="35" x="4" y="12" stroke="#2A313B" stroke-linecap="round" stroke-linejoin="round" stroke-width="2"/>
    <rect width="13" height="26" x="31" y="21" stroke="#2A313B" stroke-linecap="round" stroke-linejoin="round" stroke-width="2"/>
    <rect width="7" height="9" x="14" y="38" stroke="#2A313B" stroke-linecap="round" stroke-linejoin="round" stroke-width="2"/>
    <rect width="27" height="3" x="4" y="9" stroke="#2A313B" stroke-linecap="round" stroke-linejoin="round" stroke-width="2"/>
    <rect width="5" height="3" x="7" y="16" fill="#2A313B"/>
    <rect width="5" height="3" x="15" y="16" fill="#2A313B"/>
    <rect width="5" height="3" x="23" y="16" fill="#2A313B"/>
    <rect width="5" height="3" x="35" y="26" fill="#2A313B"/>
    <rect width="5" height="3" x="7" y="23" fill="#2A313B"/>
    <rect width="5" height="3" x="15" y="22" fill="#2A313B"/>
    <rect width="5" height="3" x="23" y="22" fill="#2A313B"/>
    <rect width="5" height="3" x="35" y="32" fill="#2A313B"/>
    <rect width="5" height="3" x="7" y="28" fill="#2A313B"/>
    <rect width="5" height="3" x="15" y="28" fill="#2A313B"/>
    <rect width="5" height="3" x="23" y="28" fill="#2A313B"/>
    <rect width="5" height="3" x="35" y="38" fill="#2A313B"/>
    <rect width="4" height="5" x="7" y="39" fill="#2A313B"/>
    <rect width="13" height="2" x="11" y="34" fill="#2A313B"/>
    <rect width="4" height="5" x="24" y="39" fill="#2A313B"/>
  </g>
</svg>
