<svg xmlns="http://www.w3.org/2000/svg" width="48" height="48" viewBox="0 0 48 48">
  <g fill="none" fill-rule="evenodd">
    <rect width="15" height="17" x="1" y="30" stroke="#2A313B" stroke-linecap="round" stroke-linejoin="round" stroke-width="2"/>
    <path stroke="#2A313B" stroke-linecap="round" stroke-linejoin="round" stroke-width="2" d="M8.5 35L8.5 35C10.4329966 35 12 36.5670034 12 38.5L12 47 5 47 5 38.5C5 36.5670034 6.56700338 35 8.5 35zM39.5 35L39.5 35C41.4329966 35 43 36.5670034 43 38.5L43 47 36 47 36 38.5C36 36.5670034 37.5670034 35 39.5 35z"/>
    <rect width="10" height="22" x="3" y="8" stroke="#2A313B" stroke-linecap="round" stroke-linejoin="round" stroke-width="2"/>
    <rect width="16" height="35" x="16" y="12" stroke="#2A313B" stroke-linecap="round" stroke-linejoin="round" stroke-width="2"/>
    <rect width="15" height="5" x="32" y="21" stroke="#2A313B" stroke-linecap="round" stroke-linejoin="round" stroke-width="2"/>
    <rect width="15" height="5" x="32" y="26" stroke="#2A313B" stroke-linecap="round" stroke-linejoin="round" stroke-width="2"/>
    <polyline stroke="#2A313B" stroke-linecap="round" stroke-linejoin="round" stroke-width="2" points="25 11 25 1 45 1 45 21 32 21"/>
    <rect width="48" height="2" x="-2" y="46" fill="#2A313B" rx="1"/>
    <rect width="2" height="4" x="19" y="20" fill="#2A313B" rx="1"/>
    <rect width="2" height="4" x="5" y="13" fill="#2A313B" rx="1"/>
    <rect width="5" height="2" x="28" y="4" fill="#2A313B" rx="1"/>
    <rect width="5" height="2" x="37" y="4" fill="#2A313B" rx="1"/>
    <rect width="5" height="2" x="28" y="8" fill="#2A313B" rx="1"/>
    <rect width="5" height="2" x="37" y="8" fill="#2A313B" rx="1"/>
    <rect width="5" height="2" x="37" y="12" fill="#2A313B" rx="1"/>
    <rect width="5" height="2" x="37" y="16" fill="#2A313B" rx="1"/>
    <rect width="2" height="4" x="23" y="20" fill="#2A313B" rx="1"/>
    <rect width="2" height="4" x="9" y="13" fill="#2A313B" rx="1"/>
    <rect width="2" height="4" x="27" y="20" fill="#2A313B" rx="1"/>
    <rect width="2" height="4" x="19" y="27" fill="#2A313B" rx="1"/>
    <rect width="2" height="4" x="5" y="20" fill="#2A313B" rx="1"/>
    <rect width="2" height="4" x="23" y="27" fill="#2A313B" rx="1"/>
    <rect width="2" height="4" x="9" y="20" fill="#2A313B" rx="1"/>
    <rect width="2" height="4" x="27" y="27" fill="#2A313B" rx="1"/>
    <rect width="2" height="4" x="19" y="35" fill="#2A313B" rx="1"/>
    <rect width="2" height="4" x="23" y="35" fill="#2A313B" rx="1"/>
    <rect width="2" height="4" x="27" y="35" fill="#2A313B" rx="1"/>
    <rect width="15" height="21" x="32" y="26" stroke="#2A313B" stroke-linecap="round" stroke-linejoin="round" stroke-width="2"/>
    <rect width="2" height="7" x="7" y="1" fill="#2A313B" rx="1"/>
  </g>
</svg>
