<svg xmlns="http://www.w3.org/2000/svg" width="24" height="24" viewBox="0 0 24 24">
  <g fill="none" fill-rule="evenodd" stroke-linecap="round" stroke-linejoin="round">
    <path stroke="#8D9099" stroke-width="2" d="M5 7L19 7 18.2422027 19.1247566C18.1763233 20.1788264 17.3022241 21 16.2460976 21L7.75390244 21C6.69777588 21 5.82367665 20.1788264 5.75779729 19.1247566L5 7zM8.8 4C8.8 3.44771525 9.24771525 3 9.8 3L14.2 3C14.7522847 3 15.2 3.44771525 15.2 4L18 4C19.1045695 4 20 4.8954305 20 6L20 7 4 7 4 6C4 4.8954305 4.8954305 4 6 4L8.8 4zM12 10L12 18M15 10L15 18M9 10L9 18"/>
  </g>
</svg>
