<svg xmlns="http://www.w3.org/2000/svg" width="48" height="48" viewBox="0 0 48 48">
  <g fill="none" fill-rule="evenodd">
    <circle cx="24" cy="28" r="18" stroke="#2A313B" stroke-linecap="round" stroke-linejoin="round" stroke-width="2"/>
    <rect width="12" height="4" x="18" y="1" stroke="#2A313B" stroke-linecap="round" stroke-linejoin="round" stroke-width="2" rx="2"/>
    <path stroke="#2A313B" stroke-linecap="round" stroke-linejoin="round" stroke-width="2" d="M21,10 L21,5 M27,5 L27,10"/>
    <path fill="#2A313B" d="M25.3901382,25.3408291 C26.3470777,25.8421178 27,26.8448098 27,28 C27,29.6568542 25.6568542,31 24,31 C22.3431458,31 21,29.6568542 21,28 C21,26.8448098 21.6529223,25.8421178 22.6098618,25.3408291 L24,17 L25.3901382,25.3408291 Z M23,12 L25,12 L25,16 L23,16 L23,12 Z M29.2185255,12.8339457 L31.0595352,13.615408 L29.4966106,17.2974274 L27.6556009,16.5159651 L29.2185255,12.8339457 Z M34.6066017,15.9791847 L36.0208153,17.3933983 L33.1923882,20.2218254 L31.7781746,18.8076118 L34.6066017,15.9791847 Z M38.4140746,20.9660349 L39.1632878,22.8204026 L35.4545523,24.318829 L34.7053392,22.4644613 L38.4140746,20.9660349 Z M40,27 L40,29 L36,29 L36,27 L40,27 Z M39.1660543,33.2185255 L38.384592,35.0595352 L34.7025726,33.4966106 L35.4840349,31.6556009 L39.1660543,33.2185255 Z M36.0208153,38.6066017 L34.6066017,40.0208153 L31.7781746,37.1923882 L33.1923882,35.7781746 L36.0208153,38.6066017 Z M31.0339651,42.4140746 L29.1795974,43.1632878 L27.681171,39.4545523 L29.5355387,38.7053392 L31.0339651,42.4140746 Z M25,44 L23,44 L23,40 L25,40 L25,44 Z M18.7814745,43.1660543 L16.9404648,42.384592 L18.5033894,38.7025726 L20.3443991,39.4840349 L18.7814745,43.1660543 Z M13.3933983,40.0208153 L11.9791847,38.6066017 L14.8076118,35.7781746 L16.2218254,37.1923882 L13.3933983,40.0208153 Z M9.61540797,35.0595352 L8.83394571,33.2185255 L12.5159651,31.6556009 L13.2974274,33.4966106 L9.61540797,35.0595352 Z M8,29 L8,27 L12,27 L12,29 L8,29 Z M8.83394571,22.7814745 L9.61540797,20.9404648 L13.2974274,22.5033894 L12.5159651,24.3443991 L8.83394571,22.7814745 Z M11.9791847,17.3933983 L13.3933983,15.9791847 L16.2218254,18.8076118 L14.8076118,20.2218254 L11.9791847,17.3933983 Z M16.9660349,13.5859254 L18.8204026,12.8367122 L20.318829,16.5454477 L18.4644613,17.2946608 L16.9660349,13.5859254 Z"/>
  </g>
</svg>
