<svg xmlns="http://www.w3.org/2000/svg" width="32" height="32" viewBox="0 0 32 32">
  <g fill="none" fill-rule="evenodd">
    <circle cx="16" cy="16" r="16" fill="#2A313B"/>
    <path fill="#FFF" d="M12.0603944,13.5413286 C13.5253394,13.5413286 14.6543687,12.8577663 15.4991662,11.8402042 C16.8244695,12.3986513 17.8829107,13.3457341 18.9851916,14.6954615 C18.9989557,15.7671697 19.0031248,17.0265576 18.9976986,18.4736252 C18.9935677,19.5752544 18.0993586,21 16.9977218,21 L7.06595365,21 C5.98529934,21 5.10008455,19.6076945 5.06689722,18.5275499 C5.02229907,17.0761908 5,15.798828 5,14.6954615 C6.1091105,13.4324676 7.26613237,12.4658925 8.65414093,11.8790407 C9.49532355,12.8751209 10.6141653,13.5413286 12.0603944,13.5413286 Z M12.0603944,11.2330629 C9.35376703,11.2330629 8.36716923,7.73293709 8.36716923,5.69322516 C8.36716923,3.65351323 10.0206825,2 12.0603944,2 C14.1001063,2 15.7536196,3.65351323 15.7536196,5.69322516 C15.7536196,7.73293709 14.7670218,11.2330629 12.0603944,11.2330629 Z" transform="translate(4 4)"/>
  </g>
</svg>
