<svg xmlns="http://www.w3.org/2000/svg" width="24" height="24" viewBox="0 0 24 24">
  <path fill="#8D9099" fill-rule="evenodd" d="M11.9582541,19.9417391 C13.0461923,19.8059585 13.9253743,19.5438715 14.8899894,19.0733618 C15.8387314,18.6091448 16.4459347,18.1702219 17.2492427,17.3713169 C18.0019446,16.6166017 18.4194159,16.0450212 18.8621551,15.1577011 C19.4788764,13.9198321 19.8299272,12.4483166 19.8899809,10.8283764 C19.9121563,10.2757854 19.8963419,10.1525962 19.769809,9.99473228 C19.5294708,9.68838506 19.0012868,9.73896736 18.8210611,10.0831356 C18.7640999,10.1968271 18.7482854,10.2946754 18.729314,10.7367974 C18.6976793,11.4157241 18.6502888,11.8546469 18.5553906,12.3788561 C18.1822172,14.4345494 17.1954795,16.076608 15.6205041,17.254479 C14.3080481,18.2396884 12.9512882,18.7196958 11.1739645,18.8238896 C10.5730635,18.8586228 10.4687059,18.8807061 10.3327254,18.9849292 C10.0796653,19.1838776 10.0670607,19.6512117 10.31055,19.869097 C10.4591996,20.004907 10.5635513,20.0238438 11.0790721,20.0080533 C11.3478938,19.9985849 11.7431897,19.9670039 11.9582541,19.9417391 L11.9582541,19.9417391 Z M4.72862297,19.600688 C4.83933565,19.5628084 5.01010792,19.4744051 5.10815732,19.4112373 C5.70900553,19.0133403 7.38203035,16.8755482 7.92917995,15.8081931 C8.24224092,15.1987564 8.34659262,14.7471894 8.2486019,14.4124603 C8.14734266,14.0524722 7.97978023,13.8629922 7.23022952,13.2598482 C6.92977901,13.0167274 6.64829407,12.7672552 6.60405477,12.7009352 C6.49019094,12.53672 6.39844383,12.214635 6.39844383,11.9872753 C6.40165366,11.4599198 6.74319233,10.5031099 7.19229252,9.76733751 C7.54013348,9.19578036 8.16315708,8.46321294 8.77987839,7.90109493 C9.50410255,7.2379295 10.1429406,6.78642109 10.8640136,6.42955015 C11.7906389,5.96853815 12.3567599,5.85170024 12.7710742,6.04429735 C12.8754259,6.09167468 12.9860858,6.1548425 13.0209245,6.18322437 C13.0525005,6.21166483 13.2960484,6.50851432 13.5617131,6.83688621 C14.074024,7.48110891 14.191039,7.5853027 14.5420898,7.70529285 C14.9880388,7.85686398 15.4434413,7.815838 15.9019949,7.58215632 C16.2498946,7.40214474 17.0089046,6.93164086 17.4990929,6.59061315 C18.1442333,6.13904615 19.5231157,5.01486872 19.7097611,4.79063204 C20.0386365,4.38644237 20.0955977,3.8686139 19.8741724,3.29699815 C19.6401366,2.69391276 18.7293257,1.56338983 18.0936389,1.08023599 C17.5180644,0.644459478 17.110111,0.477150593 16.5724677,0.451862372 C16.1297285,0.429773264 15.9462929,0.467652862 15.3801719,0.701334539 C10.9399345,2.52969752 7.39468776,5.25798953 4.57996742,9.00632377 C3.10940239,10.9641453 1.98982946,12.9945973 1.22445847,15.1008436 C0.778568105,16.329209 0.756445521,16.8628865 1.12325792,17.4912836 C1.28141972,17.7565228 1.9550436,18.4133603 2.44523195,18.779647 C3.26120322,19.3859608 3.63752774,19.610174 3.93797825,19.6733125 C4.14353637,19.7175318 4.50088945,19.6827985 4.72862297,19.600688 L4.72862297,19.600688 Z M12.1764755,17.6523407 C14.0961994,17.3713169 15.5825789,16.4807977 16.5566533,15.0345411 C17.1038029,14.2198339 17.4453415,13.2630239 17.5623624,12.2367534 C17.6034505,11.860969 17.6034505,11.1757203 17.5592112,11.0620288 C17.5180644,10.9546886 17.385235,10.8094102 17.2713653,10.7494415 C17.1480422,10.6862737 16.8855873,10.6925665 16.7400888,10.7683784 C16.4965409,10.8915149 16.4238239,11.087317 16.4238239,11.6178189 C16.4238239,12.4356725 16.2119106,13.2977571 15.8450982,13.9672153 C15.4276269,14.7313989 14.8204294,15.3629482 14.0803909,15.8019003 C13.444704,16.1808311 12.5054154,16.4618608 11.648356,16.5313214 C11.3383934,16.5566096 11.1676211,16.619754 11.0506061,16.7555346 C10.8703804,16.9608051 10.8513562,17.2386885 11.003157,17.4691886 C11.1676152,17.724977 11.4206166,17.7660322 12.1764755,17.6523407 L12.1764755,17.6523407 Z M12.8500994,15.2682228 C13.473123,15.1355885 13.9507067,14.8987605 14.3586601,14.5166599 C14.8836343,14.0209206 15.1714744,13.4209229 15.2979428,12.5588384 C15.3833289,11.9967496 15.348543,11.7757179 15.1492931,11.59256 C14.9627123,11.4220461 14.6180225,11.4157241 14.4092604,11.5767695 C14.2574595,11.690461 14.2100104,11.8104512 14.1752246,12.1356825 C14.1341364,12.5683126 14.0582096,12.8714549 13.9285842,13.1525139 C13.6502504,13.74933 13.160062,14.0588002 12.3314862,14.1598476 C11.9424397,14.2072249 11.8254247,14.2514266 11.6989504,14.399822 C11.4680658,14.674559 11.556603,15.1198039 11.876025,15.2840191 C11.9962498,15.3440113 12.0468501,15.3503333 12.3124619,15.3345429 C12.476926,15.3250686 12.7204739,15.2966574 12.8500994,15.2682228 L12.8500994,15.2682228 Z" transform="matrix(1 0 0 -1 1 22.46)"/>
</svg>
