<svg xmlns="http://www.w3.org/2000/svg" width="16" height="16" viewBox="0 0 16 16">
  <path fill="#8D9099" fill-rule="evenodd" d="M8.88928339,6.20808936 C8.65249935,6.39096499 8.5,6.67767343 8.5,7 C8.5,7.55228475 8.94771525,8 9.5,8 C9.68039451,8 9.84963259,7.95223361 9.9957562,7.86865885 C9.99857081,7.91207626 10,7.95587123 10,8 C10,9.1045695 9.1045695,10 8,10 C6.8954305,10 6,9.1045695 6,8 C6,6.8954305 6.8954305,6 8,6 C8.31945492,6 8.62141669,6.07489709 8.88928339,6.20808936 Z M8,13.5 C3.581722,13.5 2.08695652,11.0375661 0,8 C2.08695652,4.96243388 3.581722,2.5 8,2.5 C12.418278,2.5 13.9130435,4.96243388 16,8 C13.9130435,11.0375661 12.418278,13.5 8,13.5 Z M8,12 C10.209139,12 12,10.209139 12,8 C12,5.790861 10.209139,4 8,4 C5.790861,4 4,5.790861 4,8 C4,10.209139 5.790861,12 8,12 Z"/>
</svg>
