<svg xmlns="http://www.w3.org/2000/svg" xmlns:xlink="http://www.w3.org/1999/xlink" width="16" height="16" viewBox="0 0 16 16">
  <defs>
    <circle id="ic_warning_16_normal-a" cx="8" cy="8" r="8"/>
  </defs>
  <g fill="none" fill-rule="evenodd">
    <use fill="#F9F9FB" xlink:href="#ic_warning_16_normal-a"/>
    <circle cx="8" cy="8" r="7.5" stroke="#E1E3EA"/>
    <path fill="#F60" d="M6.728,3.2 L9.332,3.2 L8.898,9.598 L7.162,9.598 L6.728,3.2 Z M7.071,12.741 C6.81433205,12.4936654 6.686,12.1926684 6.686,11.838 C6.686,11.4833316 6.81199874,11.1870012 7.064,10.949 C7.31600126,10.7109988 7.63799804,10.592 8.03,10.592 C8.42200196,10.592 8.74399874,10.7109988 8.996,10.949 C9.24800126,11.1870012 9.374,11.4833316 9.374,11.838 C9.374,12.1926684 9.24566795,12.4936654 8.989,12.741 C8.73233205,12.9883346 8.41266858,13.112 8.03,13.112 C7.64733142,13.112 7.32766795,12.9883346 7.071,12.741 Z"/>
  </g>
</svg>
