<svg xmlns="http://www.w3.org/2000/svg" width="24" height="24" viewBox="0 0 24 24">
  <g fill="none" fill-rule="evenodd" stroke-linecap="round" stroke-linejoin="round">
    <path stroke="#2A313B" stroke-width="2" d="M3,5 L21,5 C22.1045695,5 23,5.8954305 23,7 L23,21 C23,22.1045695 22.1045695,23 21,23 L5,23 C2.790861,23 1,21.209139 1,19 L1,7 C1,5.8954305 1.8954305,5 3,5 Z"/>
    <circle cx="16.5" cy="14.5" r="2.5" stroke="#2A313B" stroke-width="2"/>
    <path stroke="#2A313B" stroke-width="2" d="M19,5 L1,5 L1,3 C1,1.8954305 1.8954305,1 3,1 L17,1 C18.1045695,1 19,1.8954305 19,3 L19,5 Z"/>
  </g>
</svg>
