<svg xmlns="http://www.w3.org/2000/svg" width="24" height="24" viewBox="0 0 24 24">
  <g fill="none" fill-rule="evenodd">
    <path stroke="#8D9099" stroke-linecap="round" stroke-linejoin="round" stroke-width="2" d="M5,1 L17,1 L21,5 L21,21 C21,22.1045695 20.1045695,23 19,23 L5,23 C3.8954305,23 3,22.1045695 3,21 L3,3 C3,1.8954305 3.8954305,1 5,1 Z"/>
    <path fill="#8D9099" d="M10,10 L11,10 C11.5522847,10 12,10.4477153 12,11 C12,11.5522847 11.5522847,12 11,12 L10,12 C9.44771525,12 9,11.5522847 9,11 C9,10.4477153 9.44771525,10 10,10 Z M10,6 L11,6 C11.5522847,6 12,6.44771525 12,7 C12,7.55228475 11.5522847,8 11,8 L10,8 C9.44771525,8 9,7.55228475 9,7 C9,6.44771525 9.44771525,6 10,6 Z M10,2 L11,2 C11.5522847,2 12,2.44771525 12,3 C12,3.55228475 11.5522847,4 11,4 L10,4 C9.44771525,4 9,3.55228475 9,3 C9,2.44771525 9.44771525,2 10,2 Z M13,8 L14,8 C14.5522847,8 15,8.44771525 15,9 C15,9.55228475 14.5522847,10 14,10 L13,10 C12.4477153,10 12,9.55228475 12,9 C12,8.44771525 12.4477153,8 13,8 Z M13,4 L14,4 C14.5522847,4 15,4.44771525 15,5 C15,5.55228475 14.5522847,6 14,6 L13,6 C12.4477153,6 12,5.55228475 12,5 C12,4.44771525 12.4477153,4 13,4 Z M11,14 L13,14 C13.5522847,14 14,14.4477153 14,15 L14,19 C14,19.5522847 13.5522847,20 13,20 L11,20 C10.4477153,20 10,19.5522847 10,19 L10,15 C10,14.4477153 10.4477153,14 11,14 Z"/>
    <polygon fill="#8D9099" points="17 1 17 5 21 5"/>
  </g>
</svg>
