<svg xmlns="http://www.w3.org/2000/svg" xmlns:xlink="http://www.w3.org/1999/xlink" width="32" height="32" viewBox="0 0 32 32"><defs><path id="4210a" d="M134 2218a16 16 0 1 1 32 0 16 16 0 0 1-32 0zm14 .48h2.85c-.12.73-.86 2.15-2.84 2.15a3.13 3.13 0 0 1-3.1-3.15c0-1.73 1.39-3.14 3.1-3.14.97 0 1.62.41 2 .77l1.35-1.3a5 5 0 1 0-3.35 8.66c2.89 0 4.8-2.02 4.8-4.87 0-.33-.03-.58-.07-.83H148zm10.54-2.5h-1.43v-1.43h-1.43v1.42h-1.43v1.43h1.43v1.42h1.43v-1.42h1.43z"/></defs><g><g transform="translate(-134 -2202)"><use fill="#fff" fill-opacity="0" stroke="white" stroke-width="1.75" xlink:href="#4210a"/></g></g></svg>