<svg xmlns="http://www.w3.org/2000/svg" xmlns:xlink="http://www.w3.org/1999/xlink" width="32" height="32" viewBox="0 0 32 32"><defs><path id="jxuva" d="M477 2275a16 16 0 1 1 32 0 16 16 0 0 1-32 0zm16-8.53c-2.32 0-2.61 0-3.52.05-.9.04-1.53.18-2.07.4-.56.21-1.04.5-1.51.98-.48.47-.77.95-.99 1.5a6.23 6.23 0 0 0-.4 2.08c-.03.9-.04 1.2-.04 3.52 0 2.31 0 2.6.05 3.51.04.9.18 1.53.4 2.07.21.56.5 1.04.98 1.51.47.48.95.77 1.5.99.55.2 1.17.35 2.08.4.9.03 1.2.04 3.51.04 2.32 0 2.61 0 3.52-.05.9-.04 1.53-.18 2.07-.4a4.17 4.17 0 0 0 1.51-.98c.48-.47.77-.95.99-1.5.2-.55.35-1.17.4-2.08.03-.9.04-1.2.04-3.51 0-2.32 0-2.61-.05-3.52a6.32 6.32 0 0 0-.4-2.07 4.19 4.19 0 0 0-.98-1.51 4.17 4.17 0 0 0-1.5-.99 6.28 6.28 0 0 0-2.08-.4 60.5 60.5 0 0 0-3.52-.04z"/><path id="jxuvb" d="M492.24 2268h.77c2.27 0 2.54.01 3.44.05.84.04 1.29.18 1.59.3.4.15.68.33.98.63.3.3.48.59.64.98.11.3.25.76.3 1.59.03.9.04 1.17.04 3.45 0 2.27 0 2.54-.05 3.44a4.72 4.72 0 0 1-.3 1.59c-.15.4-.33.68-.63.98-.3.3-.58.48-.98.64-.3.11-.75.25-1.59.29-.9.04-1.17.05-3.44.05-2.28 0-2.55-.01-3.45-.05a4.73 4.73 0 0 1-1.59-.3c-.4-.15-.68-.33-.98-.63-.3-.3-.48-.59-.64-.98-.11-.3-.25-.76-.3-1.59-.03-.9-.04-1.17-.04-3.45 0-2.28 0-2.54.05-3.44.04-.84.18-1.29.3-1.59.15-.4.33-.68.63-.98.3-.3.58-.48.98-.64.3-.12.76-.25 1.59-.3.78-.03 1.09-.04 2.68-.04zm5.32 1.42a1.02 1.02 0 1 0 0 2.05 1.02 1.02 0 0 0 0-2.05zm-4.55 1.2a4.38 4.38 0 1 0 0 8.77 4.38 4.38 0 0 0 0-8.77z"/><path id="jxuvc" d="M493 2272.16a2.84 2.84 0 1 1 0 5.69 2.84 2.84 0 0 1 0-5.69z"/></defs><g><g transform="translate(-477 -2259)"><g><g><use fill="#2a313b" xlink:href="#jxuva"/></g><g><use fill="#2a313b" xlink:href="#jxuvb"/></g><g><use fill="#2a313b" xlink:href="#jxuvc"/></g></g></g></g></svg>