<svg xmlns="http://www.w3.org/2000/svg" xmlns:xlink="http://www.w3.org/1999/xlink" width="14" height="19" viewBox="0 0 14 19"><defs><path id="2ilxa" d="M206.06 2854.23c-2.7 0-3.7-3.5-3.7-5.54a3.7 3.7 0 1 1 7.38 0c0 2.04-.98 5.54-3.68 5.54zm0 2.31c1.47 0 2.6-.68 3.44-1.7a9.1 9.1 0 0 1 3.49 2.86c0 1.07.01 2.33 0 3.77 0 1.1-.9 2.53-2 2.53h-9.92c-1.08 0-1.97-1.4-2-2.47-.05-1.45-.07-2.73-.07-3.83a10.18 10.18 0 0 1 3.65-2.82c.85 1 1.96 1.66 3.41 1.66z"/></defs><g><g transform="translate(-199 -2845)"><g><use fill="#2a313b" xlink:href="#2ilxa"/></g></g></g></svg>