<svg xmlns="http://www.w3.org/2000/svg" xmlns:xlink="http://www.w3.org/1999/xlink" width="271" height="443" viewBox="0 0 271 443">
  <defs>
    <path id="img_article_page_pie_chart_w271_h443-a" d="M147,254 C206.094468,254 254,206.094468 254,147 C254,87.9055318 206.094468,40 147,40 C87.9055318,40 40,87.9055318 40,147 C40,206.094468 87.9055318,254 147,254 Z"/>
    <mask id="img_article_page_pie_chart_w271_h443-h" width="214" height="214" x="0" y="0" fill="#fff">
      <use xlink:href="#img_article_page_pie_chart_w271_h443-a"/>
    </mask>
    <path id="img_article_page_pie_chart_w271_h443-b" d="M147,254 C206.094468,254 254,206.094468 254,147 C254,87.9055318 206.094468,40 147,40 C87.9055318,40 40,87.9055318 40,147 C40,206.094468 87.9055318,254 147,254 Z"/>
    <mask id="img_article_page_pie_chart_w271_h443-i" width="214" height="214" x="0" y="0" fill="#fff">
      <use xlink:href="#img_article_page_pie_chart_w271_h443-b"/>
    </mask>
    <path id="img_article_page_pie_chart_w271_h443-c" d="M147,254 C206.094468,254 254,206.094468 254,147 C254,87.9055318 206.094468,40 147,40 C87.9055318,40 40,87.9055318 40,147 C40,206.094468 87.9055318,254 147,254 Z"/>
    <mask id="img_article_page_pie_chart_w271_h443-j" width="214" height="214" x="0" y="0" fill="#fff">
      <use xlink:href="#img_article_page_pie_chart_w271_h443-c"/>
    </mask>
    <path id="img_article_page_pie_chart_w271_h443-d" d="M147,254 C206.094468,254 254,206.094468 254,147 C254,87.9055318 206.094468,40 147,40 C87.9055318,40 40,87.9055318 40,147 C40,206.094468 87.9055318,254 147,254 Z"/>
    <mask id="img_article_page_pie_chart_w271_h443-k" width="214" height="214" x="0" y="0" fill="#fff">
      <use xlink:href="#img_article_page_pie_chart_w271_h443-d"/>
    </mask>
    <path id="img_article_page_pie_chart_w271_h443-e" d="M147,254 C206.094468,254 254,206.094468 254,147 C254,87.9055318 206.094468,40 147,40 C87.9055318,40 40,87.9055318 40,147 C40,206.094468 87.9055318,254 147,254 Z"/>
    <mask id="img_article_page_pie_chart_w271_h443-l" width="214" height="214" x="0" y="0" fill="#fff">
      <use xlink:href="#img_article_page_pie_chart_w271_h443-e"/>
    </mask>
    <path id="img_article_page_pie_chart_w271_h443-f" d="M147,254 C206.094468,254 254,206.094468 254,147 C254,87.9055318 206.094468,40 147,40 C87.9055318,40 40,87.9055318 40,147 C40,206.094468 87.9055318,254 147,254 Z"/>
    <mask id="img_article_page_pie_chart_w271_h443-m" width="214" height="214" x="0" y="0" fill="#fff">
      <use xlink:href="#img_article_page_pie_chart_w271_h443-f"/>
    </mask>
    <path id="img_article_page_pie_chart_w271_h443-g" d="M147,254 C206.094468,254 254,206.094468 254,147 C254,87.9055318 206.094468,40 147,40 C87.9055318,40 40,87.9055318 40,147 C40,206.094468 87.9055318,254 147,254 Z"/>
    <mask id="img_article_page_pie_chart_w271_h443-n" width="214" height="214" x="0" y="0" fill="#fff">
      <use xlink:href="#img_article_page_pie_chart_w271_h443-g"/>
    </mask>
  </defs>
  <g fill="none" fill-rule="evenodd" transform="translate(-3 -5)">
    <g transform="translate(22 38)">
      <text fill="#94989D" font-family="Roboto-Regular, Roboto" font-size="12">
        <tspan x="0" y="30">Комфорт-клас</tspan>
      </text>
      <text fill="#2A313B" font-family="Roboto-Medium, Roboto" font-size="16" font-weight="400">
        <tspan x="20" y="15">58%</tspan>
      </text>
      <circle cx="6" cy="11" r="6" fill="#F8CE46"/>
      <g transform="translate(130)">
        <text fill="#94989D" font-family="Roboto-Regular, Roboto" font-size="12">
          <tspan x="0" y="30">Держ. резерв</tspan>
        </text>
        <text fill="#2A313B" font-family="Roboto-Medium, Roboto" font-size="16" font-weight="400">
          <tspan x="20" y="15">1%</tspan>
        </text>
        <circle cx="6" cy="11" r="6" fill="#E3000F"/>
      </g>
      <g transform="translate(0 47)">
        <text fill="#94989D" font-family="Roboto-Regular, Roboto" font-size="12">
          <tspan x="0" y="30">Економ-клас</tspan>
        </text>
        <text fill="#2A313B" font-family="Roboto-Medium, Roboto" font-size="16" font-weight="400">
          <tspan x="20" y="15">1%</tspan>
        </text>
        <circle cx="6" cy="11" r="6" fill="#FF5964"/>
      </g>
      <g transform="translate(130 47)">
        <text fill="#94989D" font-family="Roboto-Regular, Roboto" font-size="12">
          <tspan x="0" y="30">Бізнес клас</tspan>
        </text>
        <text fill="#2A313B" font-family="Roboto-Medium, Roboto" font-size="16" font-weight="400">
          <tspan x="20" y="15">10%</tspan>
        </text>
        <circle cx="6" cy="11" r="6" fill="#C0D87F"/>
      </g>
      <g transform="translate(0 94)">
        <text fill="#94989D" font-family="Roboto-Regular, Roboto" font-size="12">
          <tspan x="0" y="30">Преміум-клас</tspan>
        </text>
        <text fill="#2A313B" font-family="Roboto-Medium, Roboto" font-size="16" font-weight="400">
          <tspan x="20" y="15">14%</tspan>
        </text>
        <circle cx="6" cy="11" r="6" fill="#F5A623"/>
      </g>
      <g transform="translate(130 94)">
        <text fill="#94989D" font-family="Roboto-Regular, Roboto" font-size="12">
          <tspan x="0" y="30">Закрите будівництво</tspan>
        </text>
        <text fill="#2A313B" font-family="Roboto-Medium, Roboto" font-size="16" font-weight="400">
          <tspan x="20" y="15">16%</tspan>
        </text>
        <circle cx="6" cy="11" r="6" fill="#D6E6AC"/>
      </g>
    </g>
    <g transform="translate(0 176)">
      <circle cx="147" cy="147" r="124.5" stroke="#E1E3EA"/>
      <use stroke="#D6E6AC" stroke-dasharray="671.96 9999999" stroke-width="224" mask="url(#img_article_page_pie_chart_w271_h443-h)" xlink:href="#img_article_page_pie_chart_w271_h443-a"/>
      <use stroke="#FFC710" stroke-dasharray="389.74 9999999" stroke-width="224" mask="url(#img_article_page_pie_chart_w271_h443-i)" transform="rotate(28 147 147)" xlink:href="#img_article_page_pie_chart_w271_h443-b"/>
      <use stroke="#FF5964" stroke-dasharray="6.72 9999999" stroke-width="224" mask="url(#img_article_page_pie_chart_w271_h443-j)" transform="rotate(31 147 147)" xlink:href="#img_article_page_pie_chart_w271_h443-c"/>
      <use stroke="#F5A623" stroke-dasharray="94.074 9999999" stroke-width="224" mask="url(#img_article_page_pie_chart_w271_h443-k)" transform="rotate(81 147 147)" xlink:href="#img_article_page_pie_chart_w271_h443-d"/>
      <use stroke="#E3000F" stroke-dasharray="6.72 9999999" stroke-width="224" mask="url(#img_article_page_pie_chart_w271_h443-l)" transform="rotate(84 147 147)" xlink:href="#img_article_page_pie_chart_w271_h443-e"/>
      <use stroke="#C0D87F" stroke-dasharray="68.3 9999999" stroke-width="224" mask="url(#img_article_page_pie_chart_w271_h443-m)" transform="rotate(120 147 147)" xlink:href="#img_article_page_pie_chart_w271_h443-f"/>
      <use stroke="#D6E6AC" stroke-dasharray="107.514 9999999" stroke-width="224" mask="url(#img_article_page_pie_chart_w271_h443-n)" transform="rotate(180 147 147)" xlink:href="#img_article_page_pie_chart_w271_h443-g"/>
      <circle cx="147" cy="147" r="40" fill="#8D9099"/>
      <circle cx="147" cy="147" r="24" fill="#FFF"/>
      <g transform="translate(18 39)">
        <circle cx="250" cy="137" r="6" fill="#F8CE46"/>
        <circle cx="69" cy="218" r="6" fill="#FF5964" transform="matrix(-1 0 0 1 138 0)"/>
        <circle cx="24" cy="177" r="6" fill="#F5A623" transform="matrix(-1 0 0 1 48 0)"/>
        <circle cx="6" cy="129" r="6" fill="#E3000F" transform="matrix(-1 0 0 1 12 0)"/>
        <circle cx="6" cy="84" r="6" fill="#C0D87F" transform="matrix(-1 0 0 1 12 0)"/>
        <circle cx="58" cy="6" r="6" fill="#D6E6AC" transform="matrix(-1 0 0 1 116 0)"/>
      </g>
    </g>
    <text fill="#2A313B" font-family="Roboto-Medium, Roboto" font-size="16" font-weight="400">
      <tspan x="2" y="15">Разподілення первинного ринку</tspan>
    </text>
  </g>
</svg>
