<svg xmlns="http://www.w3.org/2000/svg" width="192" height="46" viewBox="0 0 192 46">
  <g fill="none" fill-rule="evenodd">
    <g stroke="#2A313B" stroke-linecap="round" stroke-linejoin="round" stroke-width="4" transform="translate(69 2)">
      <rect width="54" height="42" rx="6"/>
      <path d="M0 6L25.1581782 25.5674719C26.2415096 26.410063 27.7584904 26.410063 28.8418218 25.5674719L54 6M3 39L18 24M51 39L36 24"/>
    </g>
    <g stroke="#2A313B" stroke-width="4" transform="translate(2 2)">
      <path d="M0,0 L35.3856545,3.55271368e-15 C42.9966974,2.15458779e-15 49.1666667,6.16996929 49.1666667,13.7810121 L49.1666667,16.1474359 C49.1666667,18.8628359 51.3679333,21.0641026 54.0833333,21.0641026 L54.0833333,21.0641026 C56.7987334,21.0641026 59,23.2653692 59,25.9807692 L59,26.0320513 C59,28.7757736 56.7757736,31 54.0320513,31 L24.8825641,31 C19.3951195,31 14.9466667,26.5515472 14.9466667,21.0641026 L14.9466667,21.0641026 C10.8192586,21.0641026 7.47333333,17.7181773 7.47333333,13.5907692 L7.47333333,10.3333333 L7.47333333,10.3333333 C3.3459253,10.3333333 2.28181854e-15,6.98740803 1.77635684e-15,2.86 L0,0 Z"/>
      <path stroke-linecap="round" d="M7 10L21 10M14 21L29 21"/>
    </g>
    <g stroke="#2A313B" stroke-width="4" transform="matrix(-1 0 0 1 190 2)">
      <path d="M0,0 L35.3856545,3.55271368e-15 C42.9966974,2.15458779e-15 49.1666667,6.16996929 49.1666667,13.7810121 L49.1666667,16.1474359 C49.1666667,18.8628359 51.3679333,21.0641026 54.0833333,21.0641026 L54.0833333,21.0641026 C56.7987334,21.0641026 59,23.2653692 59,25.9807692 L59,26.0320513 C59,28.7757736 56.7757736,31 54.0320513,31 L24.8825641,31 C19.3951195,31 14.9466667,26.5515472 14.9466667,21.0641026 L14.9466667,21.0641026 C10.8192586,21.0641026 7.47333333,17.7181773 7.47333333,13.5907692 L7.47333333,10.3333333 L7.47333333,10.3333333 C3.3459253,10.3333333 2.28181854e-15,6.98740803 1.77635684e-15,2.86 L0,0 Z"/>
      <path stroke-linecap="round" d="M7 10L21 10M14 21L29 21"/>
    </g>
  </g>
</svg>
