<svg xmlns="http://www.w3.org/2000/svg" width="96" height="96" viewBox="0 0 96 96">
  <g fill="#8D9099">
    <path d="M29.1984375 15.615375L39.7280625 25.9850625C40.3569375 26.6041875 41.369625 26.5978125 41.9904375 25.9674375 42.6095625 25.3370625 42.6016875 24.3241875 41.9728125 23.7050625L31.45125 13.3434375C26.4609375 8.353125 18.3391875 8.353125 13.348875 13.3434375 8.3585625 18.33375 8.3585625 26.4555 13.3408125 31.43625L23.609625 41.8666875C23.9233125 42.1850625 24.336 42.3451875 24.750375 42.3451875 25.1551875 42.3451875 25.5615 42.191625 25.872 41.8843125 26.502375 41.2651875 26.5104375 40.2523125 25.889625 39.6219375L15.61125 29.1834375C11.8689375 25.4394375 11.8689375 19.3498125 15.61125 15.6058125 19.3535625 11.8633125 25.4431875 11.8618125 29.1984375 15.615375zM43.2 92.7946875L39.9999375 92.7946875C36.7599375 92.7946875 33.6159375 92.161125 30.6590625 90.90825 29.84625 90.5626875 28.905375 90.945 28.563 91.7595 28.2174375 92.5723125 28.59825 93.5115 29.4125625 93.8555625 32.7661875 95.27475 36.32775 95.99475 39.99975 95.99475L43.2 95.99475C44.083125 95.99475 44.7999375 95.2779375 44.7999375 94.3948125 44.7999375 93.5116875 44.083125 92.7946875 43.2 92.7946875z"/>
    <path d="M16.1615625 47.8329375C16.4735625 48.146625 16.88325 48.3016875 17.29275 48.3016875 17.70075 48.3016875 18.1104375 48.1464375 18.4239375 47.8329375 19.0479375 47.2089375 19.0479375 46.1960625 18.4239375 45.5705625L8.8239375 35.9705625C1.337625 28.48575 1.337625 16.3033125 8.8239375 8.8185 16.31025 1.3336875 28.4911875 1.3321875 35.9728125 8.8153125L45.5488125 18.4393125C46.169625 19.0665 47.184 19.0681875 47.8111875 18.4456875 48.4366875 17.823375 48.4400625 16.8088125 47.8175625 16.1833125L38.238375 6.556125C29.50725-2.1766875 15.2960625-2.179875 6.5615625 6.556125-2.17275 15.2889375-2.17275 29.500125 6.5615625 38.2329375L16.1615625 47.8329375zM56.0000625 83.1946875C55.1169375 83.1946875 54.400125 83.9115 54.400125 84.794625L54.400125 94.394625C54.400125 95.27775 55.1169375 95.9945625 56.0000625 95.9945625 56.8831875 95.9945625 57.6 95.27775 57.6 94.394625L57.6 84.794625C57.6 83.9115 56.8831875 83.1946875 56.0000625 83.1946875zM66.73125 67.6633125L60.318375 61.2504375C60.619125 60.6249375 60.799875 59.933625 60.799875 59.1945 60.799875 56.548125 58.64625 54.3945 55.999875 54.3945 53.3535 54.3945 51.199875 56.548125 51.199875 59.1945 51.199875 61.840875 53.3535 63.9945 55.999875 63.9945 56.739 63.9945 57.4303125 63.81375 58.0558125 63.5128125L64.4686875 69.9256875C64.7806875 70.2376875 65.190375 70.3944375 65.599875 70.3944375 66.0095625 70.3944375 66.4190625 70.2376875 66.7310625 69.9256875 67.35675 69.3001875 67.35675 68.289 66.73125 67.6633125zM56.0000625 60.794625C55.1184375 60.794625 54.400125 60.0763125 54.400125 59.1946875 54.400125 58.3130625 55.1184375 57.59475 56.0000625 57.59475 56.8816875 57.59475 57.6 58.3130625 57.6 59.1946875 57.6 60.0763125 56.8816875 60.794625 56.0000625 60.794625z"/>
    <path d="M68.7999375,12.794625 C53.801625,12.794625 41.599875,24.9961875 41.599875,39.9946875 C41.599875,40.53225 41.6206875,41.0795625 41.6623125,41.6570625 C41.084625,41.6154375 40.5375,41.594625 39.9999375,41.594625 C27.5071875,41.594625 16.6591875,50.0475 13.6190625,62.149875 C13.4030625,63.0058125 13.923,63.8761875 14.780625,64.0906875 C15.631875,64.3018125 16.5054375,63.78675 16.7214375,62.929125 C19.4030625,52.2523125 28.975875,44.7946875 39.99975,44.7946875 C40.9741875,44.7946875 42.0061875,44.8730625 43.246125,45.0410625 C43.7469375,45.1130625 44.2396875,44.941875 44.5918125,44.58675 C44.9454375,44.233125 45.1134375,43.7355 45.046125,43.2410625 C44.878125,42.001125 44.79975,40.969125 44.79975,39.9946875 C44.79975,26.761125 55.5661875,15.9946875 68.79975,15.9946875 C82.0333125,15.9946875 92.79975,26.761125 92.79975,39.9946875 L92.79975,81.59475 C92.79975,87.7708125 87.7756875,92.7946875 81.5998125,92.7946875 L68.79975,92.7946875 C67.916625,92.7946875 67.1998125,93.5115 67.1998125,94.394625 C67.1998125,95.27775 67.916625,95.9945625 68.79975,95.9945625 L81.6,95.9945625 C89.539125,95.9945625 96,89.5336875 96,81.5945625 L96,39.9946875 C96,24.9961875 83.7984375,12.794625 68.7999375,12.794625 Z"/>
    <path d="M62.4,76.7945625 L27.964875,76.7945625 C25.9520625,71.0840625 20.5408125,67.1945625 14.4,67.1945625 C6.460875,67.1945625 -2.84217094e-14,73.6554375 -2.84217094e-14,81.5945625 C-2.84217094e-14,89.5336875 6.460875,95.9945625 14.4,95.9945625 C20.5408125,95.9945625 25.9520625,92.104875 27.964875,86.3945625 L48,86.3945625 L48,91.1945625 C48,92.0776875 48.7168125,92.7945 49.5999375,92.7945 C50.4830625,92.7945 51.199875,92.0776875 51.199875,91.1945625 L51.199875,84.794625 C51.199875,83.9115 50.4830625,83.1946875 49.5999375,83.1946875 L26.7808125,83.1946875 C26.05125,83.1946875 25.4128125,83.689125 25.2320625,84.3946875 C23.956875,89.340375 19.5024375,92.7946875 14.4,92.7946875 C8.2239375,92.7946875 3.2000625,87.770625 3.2000625,81.59475 C3.2000625,75.418875 8.224125,70.3948125 14.4,70.3948125 C19.5024375,70.3948125 23.956875,73.849125 25.2320625,78.7948125 C25.4128125,79.500375 26.05125,79.9948125 26.7808125,79.9948125 L60.8000625,79.9948125 L60.8000625,91.19475 C60.8000625,92.077875 61.516875,92.7946875 62.4,92.7946875 C63.283125,92.7946875 63.9999375,92.077875 63.9999375,91.19475 L63.9999375,78.3946875 C63.9999375,77.511375 63.283125,76.7945625 62.4,76.7945625 Z"/>
    <path d="M14.4,73.5946875 C9.988875,73.5946875 6.3999375,77.1834375 6.3999375,81.59475 C6.3999375,86.005875 9.9886875,89.5948125 14.4,89.5948125 C18.811125,89.5948125 22.4000625,86.0060625 22.4000625,81.59475 C22.4000625,77.1834375 18.811125,73.5946875 14.4,73.5946875 Z M14.4,86.3945625 C11.753625,86.3945625 9.6,84.2409375 9.6,81.5945625 C9.6,78.9481875 11.753625,76.7945625 14.4,76.7945625 C17.046375,76.7945625 19.2,78.9481875 19.2,81.5945625 C19.2,84.2409375 17.046375,86.3945625 14.4,86.3945625 Z"/>
  </g>
</svg>
