<svg xmlns="http://www.w3.org/2000/svg" xmlns:xlink="http://www.w3.org/1999/xlink" width="98" height="122" viewBox="0 0 98 122"><defs><path id="l4uia" d="M545.06 1043.1l-8.42 4.05-6.54-6.69-9.3.93-3.85-8.52-9.06-2.32-.7-9.32-7.73-5.27 2.53-9-5.45-7.6 5.45-7.6-2.53-9 7.72-5.27.71-9.32 9.06-2.31 3.85-8.52 9.3.92 6.54-6.68 8.42 4.04 8.43-4.04 6.53 6.68 9.3-.92 3.86 8.52 9.06 2.31.7 9.32 7.72 5.28-2.52 9 5.45 7.6-5.45 7.59 2.52 9-7.72 5.27-.7 9.32-9.06 2.32-3.85 8.52-9.3-.93-6.54 6.7z"/><path id="l4uic" d="M583.03 1058.95a2 2 0 0 1-.74 2.74l-15.58 9a2 2 0 0 1-2.74-.74l-15.25-26.42 4.2 2.02 6.54-6.68 9.3.92 1.4-3.1zm-57 11a2 2 0 0 1-2.74.74l-15.58-9a2 2 0 0 1-.74-2.74l12.3-21.3.97 2.14 9.3-.92 6.54 6.68 5.59-2.68z"/><path id="l4uid" d="M545 1007l-9.4 4.94 1.8-10.47-7.62-7.41 10.52-1.53L545 983l4.7 9.53 10.52 1.53-7.61 7.41 1.8 10.47z"/><clipPath id="l4uib"><use fill="#fff" xlink:href="#l4uia"/></clipPath></defs><g><g transform="translate(-496 -951)"><g><use fill="#8d9099" xlink:href="#l4uia"/><use fill="#fff" fill-opacity="0" stroke="#2a313b" stroke-linecap="round" stroke-linejoin="bevel" stroke-miterlimit="50" stroke-width="8" clip-path="url(&quot;#l4uib&quot;)" xlink:href="#l4uia"/></g><g><use fill="#f8ce46" xlink:href="#l4uic"/><use fill="#fff" fill-opacity="0" stroke="#2a313b" stroke-linecap="round" stroke-linejoin="bevel" stroke-miterlimit="50" stroke-width="4" xlink:href="#l4uic"/></g><g><use fill="#f8ce46" xlink:href="#l4uid"/></g></g></g></svg>