<svg xmlns="http://www.w3.org/2000/svg" width="130" height="81" viewBox="0 0 130 81">
  <g fill="none" fill-rule="evenodd">
    <rect width="126" height="79" x="2" y="2" stroke="#2A313B" stroke-linecap="round" stroke-linejoin="round" stroke-width="4" rx="6"/>
    <rect width="24" height="21" x="95" y="11" stroke="#2A313B" stroke-linecap="round" stroke-linejoin="round" stroke-width="4" rx="2"/>
    <path stroke="#2A313B" stroke-linecap="square" stroke-width="4" d="M74 17.4775638C76.4990266 16.4925213 78.9980532 16 81.4970799 16 87.6647199 16 87.6647199 20 93.83236 20 96.91618 20 98.45809 19 100 18M74 24.4775638C76.4990266 23.4925213 78.9980532 23 81.4970799 23 87.6647199 23 87.6647199 27 93.83236 27 96.91618 27 98.45809 26 100 25"/>
    <path fill="#2A313B" d="M74.1949025,36 L83.9869272,41.5793947 C83.9955969,41.7530442 84,41.9282267 84,42.1047625 C84,46.4651818 81.3137085,50 78,50 C74.6862915,50 72,46.4651818 72,42.1047625 C72,39.6450079 72.8548309,37.4479758 74.1949025,36 Z"/>
    <path stroke="#2A313B" stroke-linecap="round" stroke-width="4" d="M84,65 C79.2654371,60.6750421 72.7246994,58 65.5,58 C58.2753006,58 51.7345629,60.6750421 47,65"/>
    <path fill="#2A313B" d="M56.8050975,36 C58.1451691,37.4479758 59,39.6450079 59,42.1047625 C59,46.4651818 56.3137085,50 53,50 C49.6862915,50 47,46.4651818 47,42.1047625 C47,41.9282267 47.0044031,41.7530442 47.0130728,41.5793947 L56.8050975,36 Z"/>
  </g>
</svg>
