<svg xmlns="http://www.w3.org/2000/svg" xmlns:xlink="http://www.w3.org/1999/xlink" width="116" height="122" viewBox="0 0 116 122"><defs><path id="xo5la" d="M799 956a4 4 0 0 1 4-4h16a4 4 0 0 1 4 4v110a4 4 0 0 1-4 4h-16a4 4 0 0 1-4-4z"/><path id="xo5lb" d="M823 1006v-17h20v17z"/><path id="xo5lc" d="M867 1006v-17h20v17z"/><path id="xo5ld" d="M823 1053v-17h20v17z"/><path id="xo5le" d="M867 1053v-17h20v17z"/><path id="xo5lf" d="M843 956a4 4 0 0 1 4-4h16a4 4 0 0 1 4 4v110a4 4 0 0 1-4 4h-16a4 4 0 0 1-4-4z"/><path id="xo5lg" d="M887 956a4 4 0 0 1 4-4h16a4 4 0 0 1 4 4v110a4 4 0 0 1-4 4h-16a4 4 0 0 1-4-4z"/><path id="xo5lh" d="M813 995h1a2 2 0 1 1 0 4h-1v1a2 2 0 1 1-4 0v-1h-1a2 2 0 1 1 0-4h1v-1a2 2 0 1 1 4 0z"/><path id="xo5li" d="M857 995h1a2 2 0 1 1 0 4h-1v1a2 2 0 1 1-4 0v-1h-1a2 2 0 1 1 0-4h1v-1a2 2 0 1 1 4 0z"/><path id="xo5lj" d="M901 995h1a2 2 0 1 1 0 4h-1v1a2 2 0 1 1-4 0v-1h-1a2 2 0 1 1 0-4h1v-1a2 2 0 1 1 4 0z"/><path id="xo5lk" d="M813 1043h1a2 2 0 1 1 0 4h-1v1a2 2 0 1 1-4 0v-1h-1a2 2 0 1 1 0-4h1v-1a2 2 0 1 1 4 0z"/><path id="xo5ll" d="M857 1043h1a2 2 0 1 1 0 4h-1v1a2 2 0 1 1-4 0v-1h-1a2 2 0 1 1 0-4h1v-1a2 2 0 1 1 4 0z"/><path id="xo5lm" d="M901 1043h1a2 2 0 1 1 0 4h-1v1a2 2 0 1 1-4 0v-1h-1a2 2 0 1 1 0-4h1v-1a2 2 0 1 1 4 0z"/></defs><g><g transform="translate(-797 -950)"><g><use fill="#f8ce46" xlink:href="#xo5la"/><use fill="#fff" fill-opacity="0" stroke="#2a313b" stroke-linecap="round" stroke-linejoin="bevel" stroke-miterlimit="50" stroke-width="4" xlink:href="#xo5la"/></g><g><use fill="#8d9099" xlink:href="#xo5lb"/><use fill="#fff" fill-opacity="0" stroke="#2a313b" stroke-linecap="round" stroke-linejoin="bevel" stroke-miterlimit="50" stroke-width="4" xlink:href="#xo5lb"/></g><g><use fill="#8d9099" xlink:href="#xo5lc"/><use fill="#fff" fill-opacity="0" stroke="#2a313b" stroke-linecap="round" stroke-linejoin="bevel" stroke-miterlimit="50" stroke-width="4" xlink:href="#xo5lc"/></g><g><use fill="#8d9099" xlink:href="#xo5ld"/><use fill="#fff" fill-opacity="0" stroke="#2a313b" stroke-linecap="round" stroke-linejoin="bevel" stroke-miterlimit="50" stroke-width="4" xlink:href="#xo5ld"/></g><g><use fill="#8d9099" xlink:href="#xo5le"/><use fill="#fff" fill-opacity="0" stroke="#2a313b" stroke-linecap="round" stroke-linejoin="bevel" stroke-miterlimit="50" stroke-width="4" xlink:href="#xo5le"/></g><g><use fill="#f8ce46" xlink:href="#xo5lf"/><use fill="#fff" fill-opacity="0" stroke="#2a313b" stroke-linecap="round" stroke-linejoin="bevel" stroke-miterlimit="50" stroke-width="4" xlink:href="#xo5lf"/></g><g><use fill="#f8ce46" xlink:href="#xo5lg"/><use fill="#fff" fill-opacity="0" stroke="#2a313b" stroke-linecap="round" stroke-linejoin="bevel" stroke-miterlimit="50" stroke-width="4" xlink:href="#xo5lg"/></g><g><use fill="#2a313b" xlink:href="#xo5lh"/></g><g><use fill="#2a313b" xlink:href="#xo5li"/></g><g><use fill="#2a313b" xlink:href="#xo5lj"/></g><g><use fill="#2a313b" xlink:href="#xo5lk"/></g><g><use fill="#2a313b" xlink:href="#xo5ll"/></g><g><use fill="#2a313b" xlink:href="#xo5lm"/></g></g></g></svg>