<svg xmlns="http://www.w3.org/2000/svg" width="970" height="162" viewBox="0 0 970 162">
  <g fill="none" fill-rule="evenodd">
    <polygon fill="#E1E3EA" points="0 162 970 162 970 161 0 161"/>
    <polygon fill="#FFF" points="514 64 514 161 603 161 603 84.072 569.121 84.072 569.121 90.114 559.449 90.114 559.449 64"/>
    <polygon fill="#2A313B" points="514 64 514 161 515.378 161 515.378 65.376 559.244 65.376 559.244 91.304 570.273 91.304 570.273 85.306 602.622 85.306 602.622 160.979 604 160.979 604 83.93 568.874 83.93 568.874 89.929 560.603 89.929 560.603 64"/>
    <polygon fill="#2A313B" points="514 83 559 83 559 82 514 82"/>
    <polygon fill="#2A313B" points="520 92 528 92 528 91 520 91"/>
    <polygon fill="#2A313B" points="520 98 528 98 528 97 520 97"/>
    <polygon fill="#2A313B" points="520 105 528 105 528 104 520 104"/>
    <polygon fill="#2A313B" points="520 111 528 111 528 110 520 110"/>
    <polygon fill="#2A313B" points="520 118 528 118 528 117 520 117"/>
    <polygon fill="#2A313B" points="533 92 541 92 541 91 533 91"/>
    <polygon fill="#2A313B" points="533 98 541 98 541 97 533 97"/>
    <polygon fill="#2A313B" points="533 105 541 105 541 104 533 104"/>
    <polygon fill="#2A313B" points="533 111 541 111 541 110 533 110"/>
    <polygon fill="#2A313B" points="533 118 541 118 541 117 533 117"/>
    <polygon fill="#2A313B" points="547 92 555 92 555 91 547 91"/>
    <polygon fill="#2A313B" points="547 98 555 98 555 97 547 97"/>
    <polygon fill="#2A313B" points="547 105 555 105 555 104 547 104"/>
    <polygon fill="#2A313B" points="547 111 555 111 555 110 547 110"/>
    <polygon fill="#2A313B" points="547 118 555 118 555 117 547 117"/>
    <polygon fill="#2A313B" points="520 123 528 123 528 122 520 122"/>
    <polygon fill="#2A313B" points="520 130 528 130 528 129 520 129"/>
    <polygon fill="#2A313B" points="520 136 528 136 528 135 520 135"/>
    <polygon fill="#2A313B" points="520 143 528 143 528 142 520 142"/>
    <polygon fill="#2A313B" points="520 149 528 149 528 148 520 148"/>
    <polygon fill="#2A313B" points="533 123 541 123 541 122 533 122"/>
    <polygon fill="#2A313B" points="533 130 541 130 541 129 533 129"/>
    <polygon fill="#2A313B" points="533 136 541 136 541 135 533 135"/>
    <polygon fill="#2A313B" points="533 143 541 143 541 142 533 142"/>
    <polygon fill="#2A313B" points="533 149 541 149 541 148 533 148"/>
    <polygon fill="#2A313B" points="547 123 555 123 555 122 547 122"/>
    <polygon fill="#2A313B" points="547 130 555 130 555 129 547 129"/>
    <polygon fill="#2A313B" points="547 136 555 136 555 135 547 135"/>
    <polygon fill="#2A313B" points="547 143 555 143 555 142 547 142"/>
    <polygon fill="#2A313B" points="547 149 555 149 555 148 547 148"/>
    <polygon fill="#2A313B" points="522 72 523 72 523 70 522 70"/>
    <polygon fill="#2A313B" points="529 72 530 72 530 70 529 70"/>
    <polygon fill="#2A313B" points="537 72 538 72 538 70 537 70"/>
    <polygon fill="#2A313B" points="544 72 545 72 545 70 544 70"/>
    <polygon fill="#2A313B" points="551 72 552 72 552 70 551 70"/>
    <polygon fill="#2A313B" points="522 77 523 77 523 75 522 75"/>
    <polygon fill="#2A313B" points="529 77 530 77 530 75 529 75"/>
    <polygon fill="#2A313B" points="537 77 538 77 538 75 537 75"/>
    <polygon fill="#2A313B" points="544 77 545 77 545 75 544 75"/>
    <polygon fill="#2A313B" points="551 77 552 77 552 75 551 75"/>
    <path fill="#FFF" d="M344,51 L344,27 L344,51 Z"/>
    <polygon fill="#6E6E6E" points="344 51 345 51 345 27 344 27"/>
    <path fill="#FFF" d="M350,51 L350,39 L350,51 Z"/>
    <polygon fill="#6E6E6E" points="349 51 350 51 350 39 349 39"/>
    <polygon fill="#FFF" points="337 48 337 64 362 64 358.563 48"/>
    <path fill="#6E6E6E" d="M336,48 L336,65 L363,65 L359.196072,48 L336,48 Z M337.398493,49.3904817 L358.048974,49.3904817 L361.258942,63.6095183 L337.398493,63.6095183 L337.398493,49.3904817 Z"/>
    <polygon fill="#FFF" points="333 161 366 161 366 58 333 58"/>
    <polygon fill="#6E6E6E" points="333 57 333 161 334.385 161 334.385 58.384 365.615 58.384 365.615 161 367 161 367 57"/>
    <polygon fill="#6E6E6E" points="338 65 344 65 344 64 338 64"/>
    <polygon fill="#6E6E6E" points="338 72 344 72 344 71 338 71"/>
    <polygon fill="#6E6E6E" points="338 80 344 80 344 79 338 79"/>
    <polygon fill="#6E6E6E" points="338 87 344 87 344 86 338 86"/>
    <polygon fill="#6E6E6E" points="338 95 344 95 344 94 338 94"/>
    <polygon fill="#6E6E6E" points="338 102 344 102 344 101 338 101"/>
    <polygon fill="#6E6E6E" points="338 110 344 110 344 109 338 109"/>
    <polygon fill="#6E6E6E" points="338 117 344 117 344 116 338 116"/>
    <polygon fill="#6E6E6E" points="338 125 344 125 344 124 338 124"/>
    <polygon fill="#6E6E6E" points="338 132 344 132 344 131 338 131"/>
    <polygon fill="#6E6E6E" points="338 140 344 140 344 139 338 139"/>
    <polygon fill="#6E6E6E" points="338 147 344 147 344 146 338 146"/>
    <polygon fill="#6E6E6E" points="347 65 353 65 353 64 347 64"/>
    <polygon fill="#6E6E6E" points="347 72 353 72 353 71 347 71"/>
    <polygon fill="#6E6E6E" points="347 80 353 80 353 79 347 79"/>
    <polygon fill="#6E6E6E" points="347 87 353 87 353 86 347 86"/>
    <polygon fill="#6E6E6E" points="347 95 353 95 353 94 347 94"/>
    <polygon fill="#6E6E6E" points="347 102 353 102 353 101 347 101"/>
    <polygon fill="#6E6E6E" points="347 110 353 110 353 109 347 109"/>
    <polygon fill="#6E6E6E" points="347 117 353 117 353 116 347 116"/>
    <polygon fill="#6E6E6E" points="347 125 353 125 353 124 347 124"/>
    <polygon fill="#6E6E6E" points="347 132 353 132 353 131 347 131"/>
    <polygon fill="#6E6E6E" points="347 140 353 140 353 139 347 139"/>
    <polygon fill="#6E6E6E" points="347 147 353 147 353 146 347 146"/>
    <polygon fill="#6E6E6E" points="356 65 362 65 362 64 356 64"/>
    <polygon fill="#6E6E6E" points="356 72 362 72 362 71 356 71"/>
    <polygon fill="#6E6E6E" points="356 80 362 80 362 79 356 79"/>
    <polygon fill="#6E6E6E" points="356 87 362 87 362 86 356 86"/>
    <polygon fill="#6E6E6E" points="356 95 362 95 362 94 356 94"/>
    <polygon fill="#6E6E6E" points="356 102 362 102 362 101 356 101"/>
    <polygon fill="#6E6E6E" points="356 110 362 110 362 109 356 109"/>
    <polygon fill="#6E6E6E" points="356 117 362 117 362 116 356 116"/>
    <polygon fill="#6E6E6E" points="356 125 362 125 362 124 356 124"/>
    <polygon fill="#6E6E6E" points="356 132 362 132 362 131 356 131"/>
    <polygon fill="#6E6E6E" points="356 140 362 140 362 139 356 139"/>
    <polygon fill="#6E6E6E" points="356 147 362 147 362 146 356 146"/>
    <polygon fill="#FFF" points="616 161 645 161 645 78 616 78"/>
    <polygon fill="#6E6E6E" points="615 78 615 161 616.386 161 616.386 79.494 643.613 79.494 643.613 161 645 161 645 78"/>
    <polygon fill="#FAFAFA" points="214.817 23 214.817 34.502 209.46 34.502 209.46 46.155 204 46.155 204 159 238 159 238 46.155 232.533 46.155 232.533 34.502 227.169 34.502 227.169 23"/>
    <polygon fill="#6E6E6E" points="213.721 22 213.721 33.527 208.408 33.527 208.408 45.207 203 45.207 203 159 204.368 159 204.368 46.589 209.776 46.589 209.776 34.909 215.075 34.909 215.075 23.381 225.925 23.381 225.925 34.909 231.225 34.909 231.225 46.589 236.633 46.589 236.633 159 238 159 238 45.207 232.592 45.207 232.605 45.207 232.605 33.527 227.306 33.527 227.306 22"/>
    <polygon fill="#FAFAFA" points="779.845 58 779.845 66.784 774.478 66.784 774.478 78.49 769 78.49 769 160 837 160 837 78.49 831.529 78.49 831.529 66.784 826.155 66.784 826.155 58"/>
    <polygon fill="#6E6E6E" points="778.785 58 778.785 66.725 773.447 66.725 773.447 78.352 768 78.352 768 160 769.377 160 769.377 79.727 774.825 79.727 774.825 68.1 780.162 68.1 780.162 59.375 824.838 59.375 824.838 68.1 830.175 68.1 830.175 79.727 835.622 79.727 835.622 160 837 160 837 78.352 831.552 78.352 831.552 66.725 826.215 66.725 826.215 58"/>
    <polygon fill="#FAFAFA" points="687.146 103 687.146 111.131 681 111.131 681 161 749 161 749 111.131 740.93 111.131 740.93 108.092 717.453 108.092 717.453 111.131 710.456 111.131 710.456 103"/>
    <polygon fill="#6E6E6E" points="687.113 103 687.113 111.191 681 111.191 681 162 682.228 162 682.228 112.425 688.355 112.425 688.355 104.234 710.359 104.234 710.359 112.425 718.563 112.425 718.563 109.36 740.733 109.36 740.733 112.425 748.779 112.425 748.779 162 750 162 750 111.184 741.954 111.184 741.961 111.184 741.961 108.118 717.328 108.118 717.328 111.184 711.581 111.184 711.581 103"/>
    <polygon fill="#FAFAFA" points="944 50.037 944 162 970 162 970 50.037 956.997 14"/>
    <polygon fill="#2A313B" points="943 49.178 943 161 943.927 161 943.927 49.55 956.5 14.906 969.073 49.55 969.073 161 970 161 970 49.178 956.5 12"/>
    <polygon fill="#6E6E6E" points="946 63 947 63 947 55 946 55"/>
    <polygon fill="#6E6E6E" points="951 63 952 63 952 55 951 55"/>
    <polygon fill="#6E6E6E" points="956 63 957 63 957 55 956 55"/>
    <polygon fill="#6E6E6E" points="961 63 962 63 962 55 961 55"/>
    <polygon fill="#6E6E6E" points="966 63 967 63 967 55 966 55"/>
    <polygon fill="#FFF" points="591.677 94 591.677 99.278 583 99.278 583 161 629 161 629 99.278 620.323 99.278 620.323 94"/>
    <polygon fill="#6E6E6E" points="591.605 93 591.605 98.302 583 98.302 583 161 584.38 161 584.38 99.681 592.986 99.681 592.986 94.379 620.015 94.379 620.015 99.681 628.62 99.681 628.62 161 630 161 630 98.302 621.395 98.302 621.395 93"/>
    <polygon fill="#6E6E6E" points="591 115 592 115 592 107 591 107"/>
    <polygon fill="#6E6E6E" points="598 115 599 115 599 107 598 107"/>
    <polygon fill="#6E6E6E" points="606 115 607 115 607 107 606 107"/>
    <polygon fill="#6E6E6E" points="613 115 614 115 614 107 613 107"/>
    <polygon fill="#6E6E6E" points="620 115 621 115 621 107 620 107"/>
    <polygon fill="#6E6E6E" points="591 122 592 122 592 120 591 120"/>
    <polygon fill="#6E6E6E" points="598 122 599 122 599 120 598 120"/>
    <polygon fill="#6E6E6E" points="606 122 607 122 607 120 606 120"/>
    <polygon fill="#6E6E6E" points="613 122 614 122 614 120 613 120"/>
    <polygon fill="#6E6E6E" points="620 122 621 122 621 120 620 120"/>
    <polygon fill="#6E6E6E" points="591 127 592 127 592 125 591 125"/>
    <polygon fill="#6E6E6E" points="598 127 599 127 599 125 598 125"/>
    <polygon fill="#6E6E6E" points="606 127 607 127 607 125 606 125"/>
    <polygon fill="#6E6E6E" points="613 127 614 127 614 125 613 125"/>
    <polygon fill="#6E6E6E" points="620 127 621 127 621 125 620 125"/>
    <polygon fill="#6E6E6E" points="591 133 592 133 592 131 591 131"/>
    <polygon fill="#6E6E6E" points="598 133 599 133 599 131 598 131"/>
    <polygon fill="#6E6E6E" points="606 133 607 133 607 131 606 131"/>
    <polygon fill="#6E6E6E" points="613 133 614 133 614 131 613 131"/>
    <polygon fill="#6E6E6E" points="620 133 621 133 621 131 620 131"/>
    <polygon fill="#6E6E6E" points="591 139 592 139 592 137 591 137"/>
    <polygon fill="#6E6E6E" points="598 139 599 139 599 137 598 137"/>
    <polygon fill="#6E6E6E" points="606 139 607 139 607 137 606 137"/>
    <polygon fill="#6E6E6E" points="613 139 614 139 614 137 613 137"/>
    <polygon fill="#6E6E6E" points="620 139 621 139 621 137 620 137"/>
    <polygon fill="#6E6E6E" points="591 144 592 144 592 142 591 142"/>
    <polygon fill="#6E6E6E" points="598 144 599 144 599 142 598 142"/>
    <polygon fill="#6E6E6E" points="606 144 607 144 607 142 606 142"/>
    <polygon fill="#6E6E6E" points="613 144 614 144 614 142 613 142"/>
    <polygon fill="#6E6E6E" points="620 144 621 144 621 142 620 142"/>
    <polygon fill="#6E6E6E" points="591 150 592 150 592 148 591 148"/>
    <polygon fill="#6E6E6E" points="598 150 599 150 599 148 598 148"/>
    <polygon fill="#6E6E6E" points="606 150 607 150 607 148 606 148"/>
    <polygon fill="#6E6E6E" points="613 150 614 150 614 148 613 148"/>
    <polygon fill="#6E6E6E" points="620 150 621 150 621 148 620 148"/>
    <polygon fill="#6E6E6E" points="591 155 592 155 592 153 591 153"/>
    <polygon fill="#6E6E6E" points="598 155 599 155 599 153 598 153"/>
    <polygon fill="#6E6E6E" points="606 155 607 155 607 153 606 153"/>
    <polygon fill="#6E6E6E" points="613 155 614 155 614 153 613 153"/>
    <polygon fill="#6E6E6E" points="620 155 621 155 621 153 620 153"/>
    <polygon fill="#FFF" points="714.308 14 714.308 20.105 709 20.105 709 32.834 714.308 40.448 714.308 162 730.104 162 730.104 40.448 735 32.834 735 20.105 730.104 20.105 730.104 14"/>
    <polygon fill="#6E6E6E" points="714.235 13 714.235 19.083 709 19.083 709 32.655 714.235 40.233 714.235 161 715.609 161 715.609 39.799 710.374 32.221 710.374 20.461 715.609 20.461 715.609 14.378 729.817 14.378 729.817 20.461 734.626 20.461 734.626 32.241 729.817 39.819 729.817 161 731.191 161 731.191 40.213 736 32.634 736 19.083 731.191 19.083 731.191 13"/>
    <polygon fill="#6E6E6E" points="720 44 724 44 724 43 720 43"/>
    <polygon fill="#6E6E6E" points="720 52 724 52 724 51 720 51"/>
    <polygon fill="#6E6E6E" points="720 60 724 60 724 59 720 59"/>
    <polygon fill="#6E6E6E" points="720 68 724 68 724 67 720 67"/>
    <polygon fill="#6E6E6E" points="720 76 724 76 724 75 720 75"/>
    <polygon fill="#6E6E6E" points="720 84 724 84 724 83 720 83"/>
    <polygon fill="#6E6E6E" points="720 92 724 92 724 91 720 91"/>
    <polygon fill="#6E6E6E" points="720 100 724 100 724 99 720 99"/>
    <polygon fill="#6E6E6E" points="720 108 724 108 724 107 720 107"/>
    <polygon fill="#6E6E6E" points="720 116 724 116 724 115 720 115"/>
    <polygon fill="#FAFAFA" points="76.736 9 76.736 17.211 69 17.211 69 161 110 161 110 17.211 102.264 17.211 102.264 9"/>
    <polygon fill="#6E6E6E" points="76.798 8 76.798 16.224 69 16.224 69 161 70.593 161 70.593 17.742 78.405 17.742 78.405 9.518 102.595 9.518 102.595 17.742 110.407 17.742 110.407 161 112 161 112 16.224 104.167 16.224 104.167 8"/>
    <polygon fill="#6E6E6E" points="75 27 78 27 78 25 75 25"/>
    <polygon fill="#6E6E6E" points="75 33 78 33 78 31 75 31"/>
    <polygon fill="#6E6E6E" points="75 40 78 40 78 38 75 38"/>
    <polygon fill="#6E6E6E" points="75 46 78 46 78 44 75 44"/>
    <polygon fill="#6E6E6E" points="75 53 78 53 78 51 75 51"/>
    <polygon fill="#6E6E6E" points="75 59 78 59 78 57 75 57"/>
    <polygon fill="#6E6E6E" points="75 66 78 66 78 64 75 64"/>
    <polygon fill="#6E6E6E" points="75 72 78 72 78 70 75 70"/>
    <polygon fill="#6E6E6E" points="75 78 78 78 78 76 75 76"/>
    <polygon fill="#6E6E6E" points="75 85 78 85 78 83 75 83"/>
    <polygon fill="#6E6E6E" points="75 91 78 91 78 89 75 89"/>
    <polygon fill="#6E6E6E" points="75 98 78 98 78 96 75 96"/>
    <polygon fill="#6E6E6E" points="80 27 81 27 81 25 80 25"/>
    <polygon fill="#6E6E6E" points="80 33 81 33 81 31 80 31"/>
    <polygon fill="#6E6E6E" points="80 40 81 40 81 38 80 38"/>
    <polygon fill="#6E6E6E" points="80 46 81 46 81 44 80 44"/>
    <polygon fill="#6E6E6E" points="80 53 81 53 81 51 80 51"/>
    <polygon fill="#6E6E6E" points="80 59 81 59 81 57 80 57"/>
    <polygon fill="#6E6E6E" points="80 66 81 66 81 64 80 64"/>
    <polygon fill="#6E6E6E" points="80 72 81 72 81 70 80 70"/>
    <polygon fill="#6E6E6E" points="80 78 81 78 81 76 80 76"/>
    <polygon fill="#6E6E6E" points="80 85 81 85 81 83 80 83"/>
    <polygon fill="#6E6E6E" points="80 91 81 91 81 89 80 89"/>
    <polygon fill="#6E6E6E" points="80 98 81 98 81 96 80 96"/>
    <polygon fill="#6E6E6E" points="75 103 78 103 78 101 75 101"/>
    <polygon fill="#6E6E6E" points="75 110 78 110 78 108 75 108"/>
    <polygon fill="#6E6E6E" points="75 116 78 116 78 114 75 114"/>
    <polygon fill="#6E6E6E" points="75 123 78 123 78 121 75 121"/>
    <polygon fill="#6E6E6E" points="75 129 78 129 78 127 75 127"/>
    <polygon fill="#6E6E6E" points="75 135 78 135 78 133 75 133"/>
    <polygon fill="#6E6E6E" points="75 142 78 142 78 140 75 140"/>
    <polygon fill="#6E6E6E" points="75 148 78 148 78 146 75 146"/>
    <polygon fill="#6E6E6E" points="75 155 78 155 78 153 75 153"/>
    <polygon fill="#6E6E6E" points="80 103 81 103 81 101 80 101"/>
    <polygon fill="#6E6E6E" points="80 110 81 110 81 108 80 108"/>
    <polygon fill="#6E6E6E" points="80 116 81 116 81 114 80 114"/>
    <polygon fill="#6E6E6E" points="80 123 81 123 81 121 80 121"/>
    <polygon fill="#6E6E6E" points="80 129 81 129 81 127 80 127"/>
    <polygon fill="#6E6E6E" points="80 135 81 135 81 133 80 133"/>
    <polygon fill="#6E6E6E" points="80 142 81 142 81 140 80 140"/>
    <polygon fill="#6E6E6E" points="80 148 81 148 81 146 80 146"/>
    <polygon fill="#6E6E6E" points="80 155 81 155 81 153 80 153"/>
    <polygon fill="#6E6E6E" points="82 27 85 27 85 25 82 25"/>
    <polygon fill="#6E6E6E" points="82 33 85 33 85 31 82 31"/>
    <polygon fill="#6E6E6E" points="82 40 85 40 85 38 82 38"/>
    <polygon fill="#6E6E6E" points="82 46 85 46 85 44 82 44"/>
    <polygon fill="#6E6E6E" points="82 53 85 53 85 51 82 51"/>
    <polygon fill="#6E6E6E" points="82 59 85 59 85 57 82 57"/>
    <polygon fill="#6E6E6E" points="82 66 85 66 85 64 82 64"/>
    <polygon fill="#6E6E6E" points="82 72 85 72 85 70 82 70"/>
    <polygon fill="#6E6E6E" points="82 78 85 78 85 76 82 76"/>
    <polygon fill="#6E6E6E" points="82 85 85 85 85 83 82 83"/>
    <polygon fill="#6E6E6E" points="82 91 85 91 85 89 82 89"/>
    <polygon fill="#6E6E6E" points="82 98 85 98 85 96 82 96"/>
    <polygon fill="#6E6E6E" points="87 27 88 27 88 25 87 25"/>
    <polygon fill="#6E6E6E" points="87 33 88 33 88 31 87 31"/>
    <polygon fill="#6E6E6E" points="87 40 88 40 88 38 87 38"/>
    <polygon fill="#6E6E6E" points="87 46 88 46 88 44 87 44"/>
    <polygon fill="#6E6E6E" points="87 53 88 53 88 51 87 51"/>
    <polygon fill="#6E6E6E" points="87 59 88 59 88 57 87 57"/>
    <polygon fill="#6E6E6E" points="87 66 88 66 88 64 87 64"/>
    <polygon fill="#6E6E6E" points="87 72 88 72 88 70 87 70"/>
    <polygon fill="#6E6E6E" points="87 78 88 78 88 76 87 76"/>
    <polygon fill="#6E6E6E" points="87 85 88 85 88 83 87 83"/>
    <polygon fill="#6E6E6E" points="87 91 88 91 88 89 87 89"/>
    <polygon fill="#6E6E6E" points="87 98 88 98 88 96 87 96"/>
    <polygon fill="#6E6E6E" points="82 103 85 103 85 101 82 101"/>
    <polygon fill="#6E6E6E" points="82 110 85 110 85 108 82 108"/>
    <polygon fill="#6E6E6E" points="82 116 85 116 85 114 82 114"/>
    <polygon fill="#6E6E6E" points="82 123 85 123 85 121 82 121"/>
    <polygon fill="#6E6E6E" points="82 129 85 129 85 127 82 127"/>
    <polygon fill="#6E6E6E" points="82 135 85 135 85 133 82 133"/>
    <polygon fill="#6E6E6E" points="82 142 85 142 85 140 82 140"/>
    <polygon fill="#6E6E6E" points="82 148 85 148 85 146 82 146"/>
    <polygon fill="#6E6E6E" points="82 155 85 155 85 153 82 153"/>
    <polygon fill="#6E6E6E" points="87 103 88 103 88 101 87 101"/>
    <polygon fill="#6E6E6E" points="87 110 88 110 88 108 87 108"/>
    <polygon fill="#6E6E6E" points="87 116 88 116 88 114 87 114"/>
    <polygon fill="#6E6E6E" points="87 123 88 123 88 121 87 121"/>
    <polygon fill="#6E6E6E" points="87 129 88 129 88 127 87 127"/>
    <polygon fill="#6E6E6E" points="87 135 88 135 88 133 87 133"/>
    <polygon fill="#6E6E6E" points="87 142 88 142 88 140 87 140"/>
    <polygon fill="#6E6E6E" points="87 148 88 148 88 146 87 146"/>
    <polygon fill="#6E6E6E" points="87 155 88 155 88 153 87 153"/>
    <polygon fill="#6E6E6E" points="91 27 94 27 94 25 91 25"/>
    <polygon fill="#6E6E6E" points="91 33 94 33 94 31 91 31"/>
    <polygon fill="#6E6E6E" points="91 40 94 40 94 38 91 38"/>
    <polygon fill="#6E6E6E" points="91 46 94 46 94 44 91 44"/>
    <polygon fill="#6E6E6E" points="91 53 94 53 94 51 91 51"/>
    <polygon fill="#6E6E6E" points="91 59 94 59 94 57 91 57"/>
    <polygon fill="#6E6E6E" points="91 66 94 66 94 64 91 64"/>
    <polygon fill="#6E6E6E" points="91 72 94 72 94 70 91 70"/>
    <polygon fill="#6E6E6E" points="91 78 94 78 94 76 91 76"/>
    <polygon fill="#6E6E6E" points="91 85 94 85 94 83 91 83"/>
    <polygon fill="#6E6E6E" points="91 91 94 91 94 89 91 89"/>
    <polygon fill="#6E6E6E" points="91 98 94 98 94 96 91 96"/>
    <polygon fill="#6E6E6E" points="96 27 97 27 97 25 96 25"/>
    <polygon fill="#6E6E6E" points="96 33 97 33 97 31 96 31"/>
    <polygon fill="#6E6E6E" points="96 40 97 40 97 38 96 38"/>
    <polygon fill="#6E6E6E" points="96 46 97 46 97 44 96 44"/>
    <polygon fill="#6E6E6E" points="96 53 97 53 97 51 96 51"/>
    <polygon fill="#6E6E6E" points="96 59 97 59 97 57 96 57"/>
    <polygon fill="#6E6E6E" points="96 66 97 66 97 64 96 64"/>
    <polygon fill="#6E6E6E" points="96 72 97 72 97 70 96 70"/>
    <polygon fill="#6E6E6E" points="96 78 97 78 97 76 96 76"/>
    <polygon fill="#6E6E6E" points="96 85 97 85 97 83 96 83"/>
    <polygon fill="#6E6E6E" points="96 91 97 91 97 89 96 89"/>
    <polygon fill="#6E6E6E" points="96 98 97 98 97 96 96 96"/>
    <polygon fill="#6E6E6E" points="91 103 94 103 94 101 91 101"/>
    <polygon fill="#6E6E6E" points="91 110 94 110 94 108 91 108"/>
    <polygon fill="#6E6E6E" points="91 116 94 116 94 114 91 114"/>
    <polygon fill="#6E6E6E" points="91 123 94 123 94 121 91 121"/>
    <polygon fill="#6E6E6E" points="91 129 94 129 94 127 91 127"/>
    <polygon fill="#6E6E6E" points="91 135 94 135 94 133 91 133"/>
    <polygon fill="#6E6E6E" points="91 142 94 142 94 140 91 140"/>
    <polygon fill="#6E6E6E" points="91 148 94 148 94 146 91 146"/>
    <polygon fill="#6E6E6E" points="91 155 94 155 94 153 91 153"/>
    <polygon fill="#6E6E6E" points="96 103 97 103 97 101 96 101"/>
    <polygon fill="#6E6E6E" points="96 110 97 110 97 108 96 108"/>
    <polygon fill="#6E6E6E" points="96 116 97 116 97 114 96 114"/>
    <polygon fill="#6E6E6E" points="96 123 97 123 97 121 96 121"/>
    <polygon fill="#6E6E6E" points="96 129 97 129 97 127 96 127"/>
    <polygon fill="#6E6E6E" points="96 135 97 135 97 133 96 133"/>
    <polygon fill="#6E6E6E" points="96 142 97 142 97 140 96 140"/>
    <polygon fill="#6E6E6E" points="96 148 97 148 97 146 96 146"/>
    <polygon fill="#6E6E6E" points="96 155 97 155 97 153 96 153"/>
    <polygon fill="#6E6E6E" points="98 27 101 27 101 25 98 25"/>
    <polygon fill="#6E6E6E" points="98 33 101 33 101 31 98 31"/>
    <polygon fill="#6E6E6E" points="98 40 101 40 101 38 98 38"/>
    <polygon fill="#6E6E6E" points="98 46 101 46 101 44 98 44"/>
    <polygon fill="#6E6E6E" points="98 53 101 53 101 51 98 51"/>
    <polygon fill="#6E6E6E" points="98 59 101 59 101 57 98 57"/>
    <polygon fill="#6E6E6E" points="98 66 101 66 101 64 98 64"/>
    <polygon fill="#6E6E6E" points="98 72 101 72 101 70 98 70"/>
    <polygon fill="#6E6E6E" points="98 78 101 78 101 76 98 76"/>
    <polygon fill="#6E6E6E" points="98 85 101 85 101 83 98 83"/>
    <polygon fill="#6E6E6E" points="98 91 101 91 101 89 98 89"/>
    <polygon fill="#6E6E6E" points="98 98 101 98 101 96 98 96"/>
    <polygon fill="#6E6E6E" points="103 27 104 27 104 25 103 25"/>
    <polygon fill="#6E6E6E" points="103 33 104 33 104 31 103 31"/>
    <polygon fill="#6E6E6E" points="103 40 104 40 104 38 103 38"/>
    <polygon fill="#6E6E6E" points="103 46 104 46 104 44 103 44"/>
    <polygon fill="#6E6E6E" points="103 53 104 53 104 51 103 51"/>
    <polygon fill="#6E6E6E" points="103 59 104 59 104 57 103 57"/>
    <polygon fill="#6E6E6E" points="103 66 104 66 104 64 103 64"/>
    <polygon fill="#6E6E6E" points="103 72 104 72 104 70 103 70"/>
    <polygon fill="#6E6E6E" points="103 78 104 78 104 76 103 76"/>
    <polygon fill="#6E6E6E" points="103 85 104 85 104 83 103 83"/>
    <polygon fill="#6E6E6E" points="103 91 104 91 104 89 103 89"/>
    <polygon fill="#6E6E6E" points="103 98 104 98 104 96 103 96"/>
    <polygon fill="#6E6E6E" points="98 103 101 103 101 101 98 101"/>
    <polygon fill="#6E6E6E" points="98 110 101 110 101 108 98 108"/>
    <polygon fill="#6E6E6E" points="98 116 101 116 101 114 98 114"/>
    <polygon fill="#6E6E6E" points="98 123 101 123 101 121 98 121"/>
    <polygon fill="#6E6E6E" points="98 129 101 129 101 127 98 127"/>
    <polygon fill="#6E6E6E" points="98 135 101 135 101 133 98 133"/>
    <polygon fill="#6E6E6E" points="98 142 101 142 101 140 98 140"/>
    <polygon fill="#6E6E6E" points="98 148 101 148 101 146 98 146"/>
    <polygon fill="#6E6E6E" points="98 155 101 155 101 153 98 153"/>
    <polygon fill="#6E6E6E" points="103 103 104 103 104 101 103 101"/>
    <polygon fill="#6E6E6E" points="103 110 104 110 104 108 103 108"/>
    <polygon fill="#6E6E6E" points="103 116 104 116 104 114 103 114"/>
    <polygon fill="#6E6E6E" points="103 123 104 123 104 121 103 121"/>
    <polygon fill="#6E6E6E" points="103 129 104 129 104 127 103 127"/>
    <polygon fill="#6E6E6E" points="103 135 104 135 104 133 103 133"/>
    <polygon fill="#6E6E6E" points="103 142 104 142 104 140 103 140"/>
    <polygon fill="#6E6E6E" points="103 148 104 148 104 146 103 146"/>
    <polygon fill="#6E6E6E" points="103 155 104 155 104 153 103 153"/>
    <polygon fill="#FFF" points="16 58 65 58 65 42 16 42"/>
    <path fill="#6E6E6E" d="M15,41 L15,58 L64.9863205,58 L65,58 L65,41 L15,41 Z M16.3716227,56.6341125 L63.6143642,56.6341125 L63.6143642,42.3658875 L16.3716227,42.3658875 L16.3716227,56.6341125 Z"/>
    <polygon fill="#FFF" points="7 68 74 68 74 52 7 52"/>
    <path fill="#6E6E6E" d="M6,68 L75,68 L75,51 L6,51 L6,68 Z M7.39213675,66.6341125 L73.6078632,66.6341125 L73.6078632,52.3658875 L7.39213675,52.3658875 L7.39213675,66.6341125 Z"/>
    <polygon fill="#FAFAFA" points="1 161 81 161 81 61 1 61"/>
    <polygon fill="#6E6E6E" points="0 61 0 162 1.386 162 1.386 62.384 79.614 62.384 79.614 162 81 162 81 61"/>
    <polygon fill="#6E6E6E" points="13 71 17 71 17 70 13 70"/>
    <polygon fill="#6E6E6E" points="13 78 17 78 17 77 13 77"/>
    <polygon fill="#6E6E6E" points="13 86 17 86 17 85 13 85"/>
    <polygon fill="#6E6E6E" points="13 93 17 93 17 92 13 92"/>
    <polygon fill="#6E6E6E" points="13 100 17 100 17 99 13 99"/>
    <polygon fill="#6E6E6E" points="13 108 17 108 17 107 13 107"/>
    <polygon fill="#6E6E6E" points="13 115 17 115 17 114 13 114"/>
    <polygon fill="#6E6E6E" points="13 123 17 123 17 122 13 122"/>
    <polygon fill="#6E6E6E" points="13 130 17 130 17 129 13 129"/>
    <polygon fill="#6E6E6E" points="13 138 17 138 17 137 13 137"/>
    <polygon fill="#6E6E6E" points="13 145 17 145 17 144 13 144"/>
    <polygon fill="#6E6E6E" points="13 153 17 153 17 152 13 152"/>
    <polygon fill="#6E6E6E" points="63 71 67 71 67 70 63 70"/>
    <polygon fill="#6E6E6E" points="63 78 67 78 67 77 63 77"/>
    <polygon fill="#6E6E6E" points="63 86 67 86 67 85 63 85"/>
    <polygon fill="#6E6E6E" points="63 93 67 93 67 92 63 92"/>
    <polygon fill="#6E6E6E" points="63 100 67 100 67 99 63 99"/>
    <polygon fill="#6E6E6E" points="63 108 67 108 67 107 63 107"/>
    <polygon fill="#6E6E6E" points="63 115 67 115 67 114 63 114"/>
    <polygon fill="#6E6E6E" points="63 123 67 123 67 122 63 122"/>
    <polygon fill="#6E6E6E" points="63 130 67 130 67 129 63 129"/>
    <polygon fill="#6E6E6E" points="63 138 67 138 67 137 63 137"/>
    <polygon fill="#6E6E6E" points="63 145 67 145 67 144 63 144"/>
    <polygon fill="#6E6E6E" points="63 153 67 153 67 152 63 152"/>
    <polygon fill="#6E6E6E" points="24 71 32 71 32 70 24 70"/>
    <polygon fill="#6E6E6E" points="24 78 32 78 32 77 24 77"/>
    <polygon fill="#6E6E6E" points="24 86 32 86 32 85 24 85"/>
    <polygon fill="#6E6E6E" points="24 93 32 93 32 92 24 92"/>
    <polygon fill="#6E6E6E" points="24 100 32 100 32 99 24 99"/>
    <polygon fill="#6E6E6E" points="24 108 32 108 32 107 24 107"/>
    <polygon fill="#6E6E6E" points="24 115 32 115 32 114 24 114"/>
    <polygon fill="#6E6E6E" points="24 123 32 123 32 122 24 122"/>
    <polygon fill="#6E6E6E" points="24 130 32 130 32 129 24 129"/>
    <polygon fill="#6E6E6E" points="24 138 32 138 32 137 24 137"/>
    <polygon fill="#6E6E6E" points="24 145 32 145 32 144 24 144"/>
    <polygon fill="#6E6E6E" points="24 153 32 153 32 152 24 152"/>
    <polygon fill="#6E6E6E" points="36 71 44 71 44 70 36 70"/>
    <polygon fill="#6E6E6E" points="36 78 44 78 44 77 36 77"/>
    <polygon fill="#6E6E6E" points="36 86 44 86 44 85 36 85"/>
    <polygon fill="#6E6E6E" points="36 93 44 93 44 92 36 92"/>
    <polygon fill="#6E6E6E" points="36 100 44 100 44 99 36 99"/>
    <polygon fill="#6E6E6E" points="36 108 44 108 44 107 36 107"/>
    <polygon fill="#6E6E6E" points="36 115 44 115 44 114 36 114"/>
    <polygon fill="#6E6E6E" points="36 123 44 123 44 122 36 122"/>
    <polygon fill="#6E6E6E" points="36 130 44 130 44 129 36 129"/>
    <polygon fill="#6E6E6E" points="36 138 44 138 44 137 36 137"/>
    <polygon fill="#6E6E6E" points="36 145 44 145 44 144 36 144"/>
    <polygon fill="#6E6E6E" points="36 153 44 153 44 152 36 152"/>
    <polygon fill="#6E6E6E" points="49 71 57 71 57 70 49 70"/>
    <polygon fill="#6E6E6E" points="49 78 57 78 57 77 49 77"/>
    <polygon fill="#6E6E6E" points="49 86 57 86 57 85 49 85"/>
    <polygon fill="#6E6E6E" points="49 93 57 93 57 92 49 92"/>
    <polygon fill="#6E6E6E" points="49 100 57 100 57 99 49 99"/>
    <polygon fill="#6E6E6E" points="49 108 57 108 57 107 49 107"/>
    <polygon fill="#6E6E6E" points="49 115 57 115 57 114 49 114"/>
    <polygon fill="#6E6E6E" points="49 123 57 123 57 122 49 122"/>
    <polygon fill="#6E6E6E" points="49 130 57 130 57 129 49 129"/>
    <polygon fill="#6E6E6E" points="49 138 57 138 57 137 49 137"/>
    <polygon fill="#6E6E6E" points="49 145 57 145 57 144 49 144"/>
    <polygon fill="#6E6E6E" points="49 153 57 153 57 152 49 152"/>
    <polygon fill="#FFF" points="249.952 1 249.952 25.659 242 25.659 242 55.347 232 55.347 232 162 285 162 285 55.347 275 55.347 275 25.659 267.048 25.659 267.048 1"/>
    <polygon fill="#2A313B" points="249.157 0 249.157 24.706 241.114 24.706 241.114 54.451 231 54.451 231 162 232.395 162 232.395 55.837 242.51 55.837 242.51 26.092 250.552 26.092 250.552 1.386 266.448 1.386 266.448 26.092 274.491 26.092 274.491 55.837 284.605 55.837 284.605 162 286 162 286 54.451 275.886 54.451 275.886 24.706 267.844 24.706 267.844 0"/>
    <polygon fill="#FFF" points="243 162 275 162 275 69 243 69"/>
    <polygon fill="#2A313B" points="242 68 242 162 243.398 162 243.398 69.389 274.602 69.389 274.602 162 276 162 276 68"/>
    <polygon fill="#FFF" points="251 55 267 55 267 32 251 32"/>
    <path fill="#2A313B" d="M250,31 L250,55 L268,55 L267.964464,55 L267.964464,31 L250,31 Z M251.41832,32.3784124 L266.58168,32.3784124 L266.58168,53.6215876 L251.453855,53.6215876 L251.41832,53.6215876 L251.41832,32.3784124 Z"/>
    <polygon fill="#6E6E6E" points="255 36 257 36 257 35 255 35"/>
    <polygon fill="#6E6E6E" points="255 40 257 40 257 39 255 39"/>
    <polygon fill="#6E6E6E" points="255 44 257 44 257 43 255 43"/>
    <polygon fill="#6E6E6E" points="255 47 257 47 257 46 255 46"/>
    <polygon fill="#6E6E6E" points="255 51 257 51 257 50 255 50"/>
    <polygon fill="#6E6E6E" points="260 36 262 36 262 35 260 35"/>
    <polygon fill="#6E6E6E" points="260 40 262 40 262 39 260 39"/>
    <polygon fill="#6E6E6E" points="260 44 262 44 262 43 260 43"/>
    <polygon fill="#6E6E6E" points="260 47 262 47 262 46 260 46"/>
    <polygon fill="#6E6E6E" points="260 51 262 51 262 50 260 50"/>
    <polygon fill="#6E6E6E" points="246 74 248 74 248 73 246 73"/>
    <polygon fill="#6E6E6E" points="246 82 248 82 248 81 246 81"/>
    <polygon fill="#6E6E6E" points="246 89 248 89 248 88 246 88"/>
    <polygon fill="#6E6E6E" points="246 97 248 97 248 96 246 96"/>
    <polygon fill="#6E6E6E" points="246 104 248 104 248 103 246 103"/>
    <polygon fill="#6E6E6E" points="246 112 248 112 248 111 246 111"/>
    <polygon fill="#6E6E6E" points="246 119 248 119 248 118 246 118"/>
    <polygon fill="#6E6E6E" points="246 127 248 127 248 126 246 126"/>
    <polygon fill="#6E6E6E" points="246 134 248 134 248 133 246 133"/>
    <polygon fill="#6E6E6E" points="246 142 248 142 248 141 246 141"/>
    <polygon fill="#6E6E6E" points="246 149 248 149 248 148 246 148"/>
    <polygon fill="#6E6E6E" points="246 157 248 157 248 156 246 156"/>
    <polygon fill="#6E6E6E" points="269 74 271 74 271 73 269 73"/>
    <polygon fill="#6E6E6E" points="269 82 271 82 271 81 269 81"/>
    <polygon fill="#6E6E6E" points="269 89 271 89 271 88 269 88"/>
    <polygon fill="#6E6E6E" points="269 97 271 97 271 96 269 96"/>
    <polygon fill="#6E6E6E" points="269 104 271 104 271 103 269 103"/>
    <polygon fill="#6E6E6E" points="269 112 271 112 271 111 269 111"/>
    <polygon fill="#6E6E6E" points="269 119 271 119 271 118 269 118"/>
    <polygon fill="#6E6E6E" points="269 127 271 127 271 126 269 126"/>
    <polygon fill="#6E6E6E" points="269 134 271 134 271 133 269 133"/>
    <polygon fill="#6E6E6E" points="269 142 271 142 271 141 269 141"/>
    <polygon fill="#6E6E6E" points="269 149 271 149 271 148 269 148"/>
    <polygon fill="#6E6E6E" points="269 157 271 157 271 156 269 156"/>
    <polygon fill="#6E6E6E" points="251 74 255 74 255 73 251 73"/>
    <polygon fill="#6E6E6E" points="251 82 255 82 255 81 251 81"/>
    <polygon fill="#6E6E6E" points="251 89 255 89 255 88 251 88"/>
    <polygon fill="#6E6E6E" points="251 97 255 97 255 96 251 96"/>
    <polygon fill="#6E6E6E" points="251 104 255 104 255 103 251 103"/>
    <polygon fill="#6E6E6E" points="251 112 255 112 255 111 251 111"/>
    <polygon fill="#6E6E6E" points="251 119 255 119 255 118 251 118"/>
    <polygon fill="#6E6E6E" points="251 127 255 127 255 126 251 126"/>
    <polygon fill="#6E6E6E" points="251 134 255 134 255 133 251 133"/>
    <polygon fill="#6E6E6E" points="251 142 255 142 255 141 251 141"/>
    <polygon fill="#6E6E6E" points="251 149 255 149 255 148 251 148"/>
    <polygon fill="#6E6E6E" points="251 157 255 157 255 156 251 156"/>
    <polygon fill="#6E6E6E" points="257 74 261 74 261 73 257 73"/>
    <polygon fill="#6E6E6E" points="257 82 261 82 261 81 257 81"/>
    <polygon fill="#6E6E6E" points="257 89 261 89 261 88 257 88"/>
    <polygon fill="#6E6E6E" points="257 97 261 97 261 96 257 96"/>
    <polygon fill="#6E6E6E" points="257 104 261 104 261 103 257 103"/>
    <polygon fill="#6E6E6E" points="257 112 261 112 261 111 257 111"/>
    <polygon fill="#6E6E6E" points="257 119 261 119 261 118 257 118"/>
    <polygon fill="#6E6E6E" points="257 127 261 127 261 126 257 126"/>
    <polygon fill="#6E6E6E" points="257 134 261 134 261 133 257 133"/>
    <polygon fill="#6E6E6E" points="257 142 261 142 261 141 257 141"/>
    <polygon fill="#6E6E6E" points="257 149 261 149 261 148 257 148"/>
    <polygon fill="#6E6E6E" points="257 157 261 157 261 156 257 156"/>
    <polygon fill="#6E6E6E" points="263 74 267 74 267 73 263 73"/>
    <polygon fill="#6E6E6E" points="263 82 267 82 267 81 263 81"/>
    <polygon fill="#6E6E6E" points="263 89 267 89 267 88 263 88"/>
    <polygon fill="#6E6E6E" points="263 97 267 97 267 96 263 96"/>
    <polygon fill="#6E6E6E" points="263 104 267 104 267 103 263 103"/>
    <polygon fill="#6E6E6E" points="263 112 267 112 267 111 263 111"/>
    <polygon fill="#6E6E6E" points="263 119 267 119 267 118 263 118"/>
    <polygon fill="#6E6E6E" points="263 127 267 127 267 126 263 126"/>
    <polygon fill="#6E6E6E" points="263 134 267 134 267 133 263 133"/>
    <polygon fill="#6E6E6E" points="263 142 267 142 267 141 263 141"/>
    <polygon fill="#6E6E6E" points="263 149 267 149 267 148 263 148"/>
    <polygon fill="#6E6E6E" points="263 157 267 157 267 156 263 156"/>
    <polygon fill="#FAFAFA" points="886.241 37 886.241 46.444 877 46.444 877 162 926 162 926 46.444 916.752 46.444 916.752 37"/>
    <polygon fill="#2A313B" points="885.357 36 885.357 45.392 876 45.392 876 161 877.393 161 877.393 46.77 886.75 46.77 886.75 37.378 916.25 37.378 916.25 46.77 925.607 46.77 925.607 161 927 161 927 45.392 917.643 45.392 917.643 36"/>
    <polygon fill="#6E6E6E" points="886 53 888 53 888 52 886 52"/>
    <polygon fill="#6E6E6E" points="886 58 888 58 888 57 886 57"/>
    <polygon fill="#6E6E6E" points="886 62 888 62 888 61 886 61"/>
    <polygon fill="#6E6E6E" points="886 67 888 67 888 66 886 66"/>
    <polygon fill="#6E6E6E" points="886 71 888 71 888 70 886 70"/>
    <polygon fill="#6E6E6E" points="886 75 888 75 888 74 886 74"/>
    <polygon fill="#6E6E6E" points="886 80 888 80 888 79 886 79"/>
    <polygon fill="#6E6E6E" points="886 84 888 84 888 83 886 83"/>
    <polygon fill="#6E6E6E" points="886 89 888 89 888 88 886 88"/>
    <polygon fill="#6E6E6E" points="886 93 888 93 888 92 886 92"/>
    <polygon fill="#6E6E6E" points="886 98 888 98 888 97 886 97"/>
    <polygon fill="#6E6E6E" points="886 102 888 102 888 101 886 101"/>
    <polygon fill="#6E6E6E" points="915 53 917 53 917 52 915 52"/>
    <polygon fill="#6E6E6E" points="915 58 917 58 917 57 915 57"/>
    <polygon fill="#6E6E6E" points="915 62 917 62 917 61 915 61"/>
    <polygon fill="#6E6E6E" points="915 67 917 67 917 66 915 66"/>
    <polygon fill="#6E6E6E" points="915 71 917 71 917 70 915 70"/>
    <polygon fill="#6E6E6E" points="915 75 917 75 917 74 915 74"/>
    <polygon fill="#6E6E6E" points="915 80 917 80 917 79 915 79"/>
    <polygon fill="#6E6E6E" points="915 84 917 84 917 83 915 83"/>
    <polygon fill="#6E6E6E" points="915 89 917 89 917 88 915 88"/>
    <polygon fill="#6E6E6E" points="915 93 917 93 917 92 915 92"/>
    <polygon fill="#6E6E6E" points="915 98 917 98 917 97 915 97"/>
    <polygon fill="#6E6E6E" points="915 102 917 102 917 101 915 101"/>
    <polygon fill="#6E6E6E" points="892 53 897 53 897 52 892 52"/>
    <polygon fill="#6E6E6E" points="892 58 897 58 897 57 892 57"/>
    <polygon fill="#6E6E6E" points="892 62 897 62 897 61 892 61"/>
    <polygon fill="#6E6E6E" points="892 67 897 67 897 66 892 66"/>
    <polygon fill="#6E6E6E" points="892 71 897 71 897 70 892 70"/>
    <polygon fill="#6E6E6E" points="892 75 897 75 897 74 892 74"/>
    <polygon fill="#6E6E6E" points="892 80 897 80 897 79 892 79"/>
    <polygon fill="#6E6E6E" points="892 84 897 84 897 83 892 83"/>
    <polygon fill="#6E6E6E" points="892 89 897 89 897 88 892 88"/>
    <polygon fill="#6E6E6E" points="892 93 897 93 897 92 892 92"/>
    <polygon fill="#6E6E6E" points="892 98 897 98 897 97 892 97"/>
    <polygon fill="#6E6E6E" points="892 102 897 102 897 101 892 101"/>
    <polygon fill="#6E6E6E" points="900 53 905 53 905 52 900 52"/>
    <polygon fill="#6E6E6E" points="900 58 905 58 905 57 900 57"/>
    <polygon fill="#6E6E6E" points="900 62 905 62 905 61 900 61"/>
    <polygon fill="#6E6E6E" points="900 67 905 67 905 66 900 66"/>
    <polygon fill="#6E6E6E" points="900 71 905 71 905 70 900 70"/>
    <polygon fill="#6E6E6E" points="900 75 905 75 905 74 900 74"/>
    <polygon fill="#6E6E6E" points="900 80 905 80 905 79 900 79"/>
    <polygon fill="#6E6E6E" points="900 84 905 84 905 83 900 83"/>
    <polygon fill="#6E6E6E" points="900 89 905 89 905 88 900 88"/>
    <polygon fill="#6E6E6E" points="900 93 905 93 905 92 900 92"/>
    <polygon fill="#6E6E6E" points="900 98 905 98 905 97 900 97"/>
    <polygon fill="#6E6E6E" points="900 102 905 102 905 101 900 101"/>
    <polygon fill="#6E6E6E" points="907 53 912 53 912 52 907 52"/>
    <polygon fill="#6E6E6E" points="907 58 912 58 912 57 907 57"/>
    <polygon fill="#6E6E6E" points="907 62 912 62 912 61 907 61"/>
    <polygon fill="#6E6E6E" points="907 67 912 67 912 66 907 66"/>
    <polygon fill="#6E6E6E" points="907 71 912 71 912 70 907 70"/>
    <polygon fill="#6E6E6E" points="907 75 912 75 912 74 907 74"/>
    <polygon fill="#6E6E6E" points="907 80 912 80 912 79 907 79"/>
    <polygon fill="#6E6E6E" points="907 84 912 84 912 83 907 83"/>
    <polygon fill="#6E6E6E" points="907 89 912 89 912 88 907 88"/>
    <polygon fill="#6E6E6E" points="907 93 912 93 912 92 907 92"/>
    <polygon fill="#6E6E6E" points="907 98 912 98 912 97 907 97"/>
    <polygon fill="#6E6E6E" points="907 102 912 102 912 101 907 101"/>
    <polygon fill="#6E6E6E" points="886 107 888 107 888 106 886 106"/>
    <polygon fill="#6E6E6E" points="886 112 888 112 888 111 886 111"/>
    <polygon fill="#6E6E6E" points="886 116 888 116 888 115 886 115"/>
    <polygon fill="#6E6E6E" points="886 120 888 120 888 119 886 119"/>
    <polygon fill="#6E6E6E" points="886 125 888 125 888 124 886 124"/>
    <polygon fill="#6E6E6E" points="886 129 888 129 888 128 886 128"/>
    <polygon fill="#6E6E6E" points="886 134 888 134 888 133 886 133"/>
    <polygon fill="#6E6E6E" points="886 138 888 138 888 137 886 137"/>
    <polygon fill="#6E6E6E" points="886 143 888 143 888 142 886 142"/>
    <polygon fill="#6E6E6E" points="886 147 888 147 888 146 886 146"/>
    <polygon fill="#6E6E6E" points="886 152 888 152 888 151 886 151"/>
    <polygon fill="#6E6E6E" points="886 156 888 156 888 155 886 155"/>
    <polygon fill="#6E6E6E" points="915 107 917 107 917 106 915 106"/>
    <polygon fill="#6E6E6E" points="915 112 917 112 917 111 915 111"/>
    <polygon fill="#6E6E6E" points="915 116 917 116 917 115 915 115"/>
    <polygon fill="#6E6E6E" points="915 120 917 120 917 119 915 119"/>
    <polygon fill="#6E6E6E" points="915 125 917 125 917 124 915 124"/>
    <polygon fill="#6E6E6E" points="915 129 917 129 917 128 915 128"/>
    <polygon fill="#6E6E6E" points="915 134 917 134 917 133 915 133"/>
    <polygon fill="#6E6E6E" points="915 138 917 138 917 137 915 137"/>
    <polygon fill="#6E6E6E" points="915 143 917 143 917 142 915 142"/>
    <polygon fill="#6E6E6E" points="915 147 917 147 917 146 915 146"/>
    <polygon fill="#6E6E6E" points="915 152 917 152 917 151 915 151"/>
    <polygon fill="#6E6E6E" points="915 156 917 156 917 155 915 155"/>
    <polygon fill="#6E6E6E" points="892 107 897 107 897 106 892 106"/>
    <polygon fill="#6E6E6E" points="892 112 897 112 897 111 892 111"/>
    <polygon fill="#6E6E6E" points="892 116 897 116 897 115 892 115"/>
    <polygon fill="#6E6E6E" points="892 120 897 120 897 119 892 119"/>
    <polygon fill="#6E6E6E" points="892 125 897 125 897 124 892 124"/>
    <polygon fill="#6E6E6E" points="892 129 897 129 897 128 892 128"/>
    <polygon fill="#6E6E6E" points="892 134 897 134 897 133 892 133"/>
    <polygon fill="#6E6E6E" points="892 138 897 138 897 137 892 137"/>
    <polygon fill="#6E6E6E" points="892 143 897 143 897 142 892 142"/>
    <polygon fill="#6E6E6E" points="892 147 897 147 897 146 892 146"/>
    <polygon fill="#6E6E6E" points="892 152 897 152 897 151 892 151"/>
    <polygon fill="#6E6E6E" points="892 156 897 156 897 155 892 155"/>
    <polygon fill="#6E6E6E" points="900 107 905 107 905 106 900 106"/>
    <polygon fill="#6E6E6E" points="900 112 905 112 905 111 900 111"/>
    <polygon fill="#6E6E6E" points="900 116 905 116 905 115 900 115"/>
    <polygon fill="#6E6E6E" points="900 120 905 120 905 119 900 119"/>
    <polygon fill="#6E6E6E" points="900 125 905 125 905 124 900 124"/>
    <polygon fill="#6E6E6E" points="900 129 905 129 905 128 900 128"/>
    <polygon fill="#6E6E6E" points="900 134 905 134 905 133 900 133"/>
    <polygon fill="#6E6E6E" points="900 138 905 138 905 137 900 137"/>
    <polygon fill="#6E6E6E" points="900 143 905 143 905 142 900 142"/>
    <polygon fill="#6E6E6E" points="900 147 905 147 905 146 900 146"/>
    <polygon fill="#6E6E6E" points="900 152 905 152 905 151 900 151"/>
    <polygon fill="#6E6E6E" points="900 156 905 156 905 155 900 155"/>
    <polygon fill="#6E6E6E" points="907 107 912 107 912 106 907 106"/>
    <polygon fill="#6E6E6E" points="907 112 912 112 912 111 907 111"/>
    <polygon fill="#6E6E6E" points="907 116 912 116 912 115 907 115"/>
    <polygon fill="#6E6E6E" points="907 120 912 120 912 119 907 119"/>
    <polygon fill="#6E6E6E" points="907 125 912 125 912 124 907 124"/>
    <polygon fill="#6E6E6E" points="907 129 912 129 912 128 907 128"/>
    <polygon fill="#6E6E6E" points="907 134 912 134 912 133 907 133"/>
    <polygon fill="#6E6E6E" points="907 138 912 138 912 137 907 137"/>
    <polygon fill="#6E6E6E" points="907 143 912 143 912 142 907 142"/>
    <polygon fill="#6E6E6E" points="907 147 912 147 912 146 907 146"/>
    <polygon fill="#6E6E6E" points="907 152 912 152 912 151 907 151"/>
    <polygon fill="#6E6E6E" points="907 156 912 156 912 155 907 155"/>
    <polygon fill="#FAFAFA" points="396 22 396 161 432 161 432 32.364 418.292 32.364 418.292 22"/>
    <polygon fill="#2A313B" points="395 21 395 161 396.369 161 396.369 22.354 417.063 22.354 417.063 32.714 430.631 32.714 430.631 161 432 161 432 31.361 418.432 31.361 418.432 21"/>
    <polygon fill="#2A313B" points="403 44 405 44 405 43 403 43"/>
    <polygon fill="#2A313B" points="403 52 405 52 405 51 403 51"/>
    <polygon fill="#2A313B" points="403 61 405 61 405 60 403 60"/>
    <polygon fill="#2A313B" points="403 69 405 69 405 68 403 68"/>
    <polygon fill="#2A313B" points="403 77 405 77 405 76 403 76"/>
    <polygon fill="#2A313B" points="403 85 405 85 405 84 403 84"/>
    <polygon fill="#2A313B" points="403 93 405 93 405 92 403 92"/>
    <polygon fill="#2A313B" points="403 102 405 102 405 101 403 101"/>
    <polygon fill="#2A313B" points="403 110 405 110 405 109 403 109"/>
    <polygon fill="#2A313B" points="403 118 405 118 405 117 403 117"/>
    <polygon fill="#2A313B" points="403 126 405 126 405 125 403 125"/>
    <polygon fill="#2A313B" points="403 134 405 134 405 133 403 133"/>
    <polygon fill="#2A313B" points="408 44 412 44 412 43 408 43"/>
    <polygon fill="#2A313B" points="408 52 412 52 412 51 408 51"/>
    <polygon fill="#2A313B" points="408 61 412 61 412 60 408 60"/>
    <polygon fill="#2A313B" points="408 69 412 69 412 68 408 68"/>
    <polygon fill="#2A313B" points="408 77 412 77 412 76 408 76"/>
    <polygon fill="#2A313B" points="408 85 412 85 412 84 408 84"/>
    <polygon fill="#2A313B" points="408 93 412 93 412 92 408 92"/>
    <polygon fill="#2A313B" points="408 102 412 102 412 101 408 101"/>
    <polygon fill="#2A313B" points="408 110 412 110 412 109 408 109"/>
    <polygon fill="#2A313B" points="408 118 412 118 412 117 408 117"/>
    <polygon fill="#2A313B" points="408 126 412 126 412 125 408 125"/>
    <polygon fill="#2A313B" points="408 134 412 134 412 133 408 133"/>
    <polygon fill="#2A313B" points="414 44 418 44 418 43 414 43"/>
    <polygon fill="#2A313B" points="414 52 418 52 418 51 414 51"/>
    <polygon fill="#2A313B" points="414 61 418 61 418 60 414 60"/>
    <polygon fill="#2A313B" points="414 69 418 69 418 68 414 68"/>
    <polygon fill="#2A313B" points="414 77 418 77 418 76 414 76"/>
    <polygon fill="#2A313B" points="414 85 418 85 418 84 414 84"/>
    <polygon fill="#2A313B" points="414 93 418 93 418 92 414 92"/>
    <polygon fill="#2A313B" points="414 102 418 102 418 101 414 101"/>
    <polygon fill="#2A313B" points="414 110 418 110 418 109 414 109"/>
    <polygon fill="#2A313B" points="414 118 418 118 418 117 414 117"/>
    <polygon fill="#2A313B" points="414 126 418 126 418 125 414 125"/>
    <polygon fill="#2A313B" points="414 134 418 134 418 133 414 133"/>
    <polygon fill="#2A313B" points="420 44 424 44 424 43 420 43"/>
    <polygon fill="#2A313B" points="420 52 424 52 424 51 420 51"/>
    <polygon fill="#2A313B" points="420 61 424 61 424 60 420 60"/>
    <polygon fill="#2A313B" points="420 69 424 69 424 68 420 68"/>
    <polygon fill="#2A313B" points="420 77 424 77 424 76 420 76"/>
    <polygon fill="#2A313B" points="420 85 424 85 424 84 420 84"/>
    <polygon fill="#2A313B" points="420 93 424 93 424 92 420 92"/>
    <polygon fill="#2A313B" points="420 102 424 102 424 101 420 101"/>
    <polygon fill="#2A313B" points="420 110 424 110 424 109 420 109"/>
    <polygon fill="#2A313B" points="420 118 424 118 424 117 420 117"/>
    <polygon fill="#2A313B" points="420 126 424 126 424 125 420 125"/>
    <polygon fill="#2A313B" points="420 134 424 134 424 133 420 133"/>
    <polygon fill="#FFF" points="649 49.741 649 69 666 69 666 49.741 657.497 44"/>
    <path fill="#6E6E6E" d="M648,49.3100273 L648,70 L665.96594,70 L666,70 L666,49.3100273 L656.999669,43 L648,49.3100273 Z M649.359408,50.053206 L656.96561,44.6892906 L664.606202,50.053206 L664.606202,68.5978854 L649.359408,68.5978854 L649.359408,50.053206 Z"/>
    <polygon fill="#FFF" points="637 162 678 162 678 64 637 64"/>
    <polygon fill="#6E6E6E" points="636 63 636 161 637.37 161 637.37 64.376 676.631 64.376 676.631 161 678 161 678 63"/>
    <polygon fill="#FFF" points="643 162 672 162 672 60 643 60"/>
    <polygon fill="#6E6E6E" points="642.007 59 642 59 642 162 643.376 162 643.376 60.386 670.624 60.386 670.624 162 672 162 672 59"/>
    <polygon fill="#6E6E6E" points="649 68 653 68 653 67 649 67"/>
    <polygon fill="#6E6E6E" points="649 76 653 76 653 75 649 75"/>
    <polygon fill="#6E6E6E" points="649 84 653 84 653 83 649 83"/>
    <polygon fill="#6E6E6E" points="649 92 653 92 653 91 649 91"/>
    <polygon fill="#6E6E6E" points="649 100 653 100 653 99 649 99"/>
    <polygon fill="#6E6E6E" points="649 109 653 109 653 108 649 108"/>
    <polygon fill="#6E6E6E" points="649 117 653 117 653 116 649 116"/>
    <polygon fill="#6E6E6E" points="649 125 653 125 653 124 649 124"/>
    <polygon fill="#6E6E6E" points="649 133 653 133 653 132 649 132"/>
    <polygon fill="#6E6E6E" points="649 141 653 141 653 140 649 140"/>
    <polygon fill="#6E6E6E" points="649 150 653 150 653 149 649 149"/>
    <polygon fill="#6E6E6E" points="649 158 653 158 653 157 649 157"/>
    <polygon fill="#6E6E6E" points="655 68 659 68 659 67 655 67"/>
    <polygon fill="#6E6E6E" points="655 76 659 76 659 75 655 75"/>
    <polygon fill="#6E6E6E" points="655 84 659 84 659 83 655 83"/>
    <polygon fill="#6E6E6E" points="655 92 659 92 659 91 655 91"/>
    <polygon fill="#6E6E6E" points="655 100 659 100 659 99 655 99"/>
    <polygon fill="#6E6E6E" points="655 109 659 109 659 108 655 108"/>
    <polygon fill="#6E6E6E" points="655 117 659 117 659 116 655 116"/>
    <polygon fill="#6E6E6E" points="655 125 659 125 659 124 655 124"/>
    <polygon fill="#6E6E6E" points="655 133 659 133 659 132 655 132"/>
    <polygon fill="#6E6E6E" points="655 141 659 141 659 140 655 140"/>
    <polygon fill="#6E6E6E" points="655 150 659 150 659 149 655 149"/>
    <polygon fill="#6E6E6E" points="655 158 659 158 659 157 655 157"/>
    <polygon fill="#6E6E6E" points="661 68 665 68 665 67 661 67"/>
    <polygon fill="#6E6E6E" points="661 76 665 76 665 75 661 75"/>
    <polygon fill="#6E6E6E" points="661 84 665 84 665 83 661 83"/>
    <polygon fill="#6E6E6E" points="661 92 665 92 665 91 661 91"/>
    <polygon fill="#6E6E6E" points="661 100 665 100 665 99 661 99"/>
    <polygon fill="#6E6E6E" points="661 109 665 109 665 108 661 108"/>
    <polygon fill="#6E6E6E" points="661 117 665 117 665 116 661 116"/>
    <polygon fill="#6E6E6E" points="661 125 665 125 665 124 661 124"/>
    <polygon fill="#6E6E6E" points="661 133 665 133 665 132 661 132"/>
    <polygon fill="#6E6E6E" points="661 141 665 141 665 140 661 140"/>
    <polygon fill="#6E6E6E" points="661 150 665 150 665 149 661 149"/>
    <polygon fill="#6E6E6E" points="661 158 665 158 665 157 661 157"/>
    <polygon fill="#FFF" points="550.991 102 550.991 108.47 545 108.47 545 162 587 162 587 130.06 573.107 130.06 573.107 102"/>
    <polygon fill="#6E6E6E" points="549.923 101 549.923 107.355 544 107.355 544 161 545.56 161 545.56 108.889 551.483 108.889 551.483 102.499 571.737 102.499 571.737 130.209 585.44 130.209 585.44 161 587 161 587 128.676 573.29 128.676 573.29 101"/>
    <polygon fill="#FFF" points="128.615 41 128.615 50.059 122 50.059 122 162 173 162 173 64.162 158.106 64.162 158.106 50.059 147.503 50.059 147.503 41"/>
    <polygon fill="#2A313B" points="127.566 40 127.566 49.007 121 49.007 121 161 122.376 161 122.376 50.384 128.943 50.384 128.943 41.376 146.315 41.376 146.315 50.384 156.839 50.384 156.839 64.407 171.623 64.407 171.623 161 173 161 173 63.03 158.215 63.03 158.215 49.007 147.692 49.007 147.692 40"/>
    <polygon fill="#2A313B" points="128 66 138 66 138 65 128 65"/>
    <polygon fill="#2A313B" points="128 69 138 69 138 68 128 68"/>
    <polygon fill="#2A313B" points="128 72 138 72 138 71 128 71"/>
    <polygon fill="#2A313B" points="128 75 138 75 138 74 128 74"/>
    <polygon fill="#2A313B" points="128 78 138 78 138 77 128 77"/>
    <polygon fill="#2A313B" points="128 81 138 81 138 80 128 80"/>
    <polygon fill="#2A313B" points="128 84 138 84 138 83 128 83"/>
    <polygon fill="#2A313B" points="128 87 138 87 138 86 128 86"/>
    <polygon fill="#2A313B" points="128 91 138 91 138 90 128 90"/>
    <polygon fill="#2A313B" points="128 94 138 94 138 93 128 93"/>
    <polygon fill="#2A313B" points="128 97 138 97 138 96 128 96"/>
    <polygon fill="#2A313B" points="143 66 153 66 153 65 143 65"/>
    <polygon fill="#2A313B" points="143 69 153 69 153 68 143 68"/>
    <polygon fill="#2A313B" points="143 72 153 72 153 71 143 71"/>
    <polygon fill="#2A313B" points="143 75 153 75 153 74 143 74"/>
    <polygon fill="#2A313B" points="143 78 153 78 153 77 143 77"/>
    <polygon fill="#2A313B" points="143 81 153 81 153 80 143 80"/>
    <polygon fill="#2A313B" points="143 84 153 84 153 83 143 83"/>
    <polygon fill="#2A313B" points="143 87 153 87 153 86 143 86"/>
    <polygon fill="#2A313B" points="143 91 153 91 153 90 143 90"/>
    <polygon fill="#2A313B" points="143 94 153 94 153 93 143 93"/>
    <polygon fill="#2A313B" points="143 97 153 97 153 96 143 96"/>
    <polygon fill="#2A313B" points="128 101 138 101 138 100 128 100"/>
    <polygon fill="#2A313B" points="128 104 138 104 138 103 128 103"/>
    <polygon fill="#2A313B" points="128 107 138 107 138 106 128 106"/>
    <polygon fill="#2A313B" points="128 111 138 111 138 110 128 110"/>
    <polygon fill="#2A313B" points="128 114 138 114 138 113 128 113"/>
    <polygon fill="#2A313B" points="128 117 138 117 138 116 128 116"/>
    <polygon fill="#2A313B" points="128 120 138 120 138 119 128 119"/>
    <polygon fill="#2A313B" points="128 123 138 123 138 122 128 122"/>
    <polygon fill="#2A313B" points="128 126 138 126 138 125 128 125"/>
    <polygon fill="#2A313B" points="128 129 138 129 138 128 128 128"/>
    <polygon fill="#2A313B" points="128 132 138 132 138 131 128 131"/>
    <polygon fill="#2A313B" points="143 101 153 101 153 100 143 100"/>
    <polygon fill="#2A313B" points="143 104 153 104 153 103 143 103"/>
    <polygon fill="#2A313B" points="143 107 153 107 153 106 143 106"/>
    <polygon fill="#2A313B" points="143 111 153 111 153 110 143 110"/>
    <polygon fill="#2A313B" points="143 114 153 114 153 113 143 113"/>
    <polygon fill="#2A313B" points="143 117 153 117 153 116 143 116"/>
    <polygon fill="#2A313B" points="143 120 153 120 153 119 143 119"/>
    <polygon fill="#2A313B" points="143 123 153 123 153 122 143 122"/>
    <polygon fill="#2A313B" points="143 126 153 126 153 125 143 125"/>
    <polygon fill="#2A313B" points="143 129 153 129 153 128 143 128"/>
    <polygon fill="#2A313B" points="143 132 153 132 153 131 143 131"/>
    <polygon fill="#2A313B" points="128 137 138 137 138 136 128 136"/>
    <polygon fill="#2A313B" points="128 140 138 140 138 139 128 139"/>
    <polygon fill="#2A313B" points="128 143 138 143 138 142 128 142"/>
    <polygon fill="#2A313B" points="128 146 138 146 138 145 128 145"/>
    <polygon fill="#2A313B" points="128 149 138 149 138 148 128 148"/>
    <polygon fill="#2A313B" points="128 152 138 152 138 151 128 151"/>
    <polygon fill="#2A313B" points="128 155 138 155 138 154 128 154"/>
    <polygon fill="#2A313B" points="128 158 138 158 138 157 128 157"/>
    <polygon fill="#2A313B" points="143 137 153 137 153 136 143 136"/>
    <polygon fill="#2A313B" points="143 140 153 140 153 139 143 139"/>
    <polygon fill="#2A313B" points="143 143 153 143 153 142 143 142"/>
    <polygon fill="#2A313B" points="143 146 153 146 153 145 143 145"/>
    <polygon fill="#2A313B" points="143 149 153 149 153 148 143 148"/>
    <polygon fill="#2A313B" points="143 152 153 152 153 151 143 151"/>
    <polygon fill="#2A313B" points="143 155 153 155 153 154 143 154"/>
    <polygon fill="#2A313B" points="143 158 153 158 153 157 143 157"/>
    <polygon fill="#2A313B" points="167 162 168 162 168 64 167 64"/>
    <polygon fill="#2A313B" points="161 162 162 162 162 64 161 64"/>
    <polygon fill="#FFF" points="809 161 866 161 866 20 809 20"/>
    <polygon fill="#2A313B" points="808 19 808 161 809.377 161 809.377 20.444 864.624 20.444 864.624 161 866 161 866 19"/>
    <polygon fill="#6E6E6E" points="824 30 832 30 832 29 824 29"/>
    <polygon fill="#6E6E6E" points="824 34 832 34 832 33 824 33"/>
    <polygon fill="#6E6E6E" points="824 37 832 37 832 36 824 36"/>
    <polygon fill="#6E6E6E" points="824 40 832 40 832 39 824 39"/>
    <polygon fill="#6E6E6E" points="824 44 832 44 832 43 824 43"/>
    <polygon fill="#6E6E6E" points="824 47 832 47 832 46 824 46"/>
    <polygon fill="#6E6E6E" points="824 50 832 50 832 49 824 49"/>
    <polygon fill="#6E6E6E" points="824 54 832 54 832 53 824 53"/>
    <polygon fill="#6E6E6E" points="824 57 832 57 832 56 824 56"/>
    <polygon fill="#6E6E6E" points="824 60 832 60 832 59 824 59"/>
    <polygon fill="#6E6E6E" points="824 63 832 63 832 62 824 62"/>
    <polygon fill="#6E6E6E" points="824 67 832 67 832 66 824 66"/>
    <polygon fill="#2A313B" points="851 30 855 30 855 29 851 29"/>
    <polygon fill="#6E6E6E" points="851 34 855 34 855 33 851 33"/>
    <polygon fill="#6E6E6E" points="851 37 855 37 855 36 851 36"/>
    <polygon fill="#6E6E6E" points="851 40 855 40 855 39 851 39"/>
    <polygon fill="#6E6E6E" points="851 44 855 44 855 43 851 43"/>
    <polygon fill="#6E6E6E" points="851 47 855 47 855 46 851 46"/>
    <polygon fill="#6E6E6E" points="851 50 855 50 855 49 851 49"/>
    <polygon fill="#6E6E6E" points="851 54 855 54 855 53 851 53"/>
    <polygon fill="#6E6E6E" points="851 57 855 57 855 56 851 56"/>
    <polygon fill="#6E6E6E" points="851 60 855 60 855 59 851 59"/>
    <polygon fill="#6E6E6E" points="851 63 855 63 855 62 851 62"/>
    <polygon fill="#6E6E6E" points="851 67 855 67 855 66 851 66"/>
    <polygon fill="#6E6E6E" points="816 30 820 30 820 29 816 29"/>
    <polygon fill="#6E6E6E" points="816 34 820 34 820 33 816 33"/>
    <polygon fill="#6E6E6E" points="816 37 820 37 820 36 816 36"/>
    <polygon fill="#6E6E6E" points="816 40 820 40 820 39 816 39"/>
    <polygon fill="#6E6E6E" points="816 44 820 44 820 43 816 43"/>
    <polygon fill="#6E6E6E" points="816 47 820 47 820 46 816 46"/>
    <polygon fill="#6E6E6E" points="816 50 820 50 820 49 816 49"/>
    <polygon fill="#6E6E6E" points="816 54 820 54 820 53 816 53"/>
    <polygon fill="#6E6E6E" points="816 57 820 57 820 56 816 56"/>
    <polygon fill="#6E6E6E" points="816 60 820 60 820 59 816 59"/>
    <polygon fill="#6E6E6E" points="816 63 820 63 820 62 816 62"/>
    <polygon fill="#6E6E6E" points="816 67 820 67 820 66 816 66"/>
    <polygon fill="#6E6E6E" points="824 70 832 70 832 69 824 69"/>
    <polygon fill="#6E6E6E" points="824 73 832 73 832 72 824 72"/>
    <polygon fill="#6E6E6E" points="824 77 832 77 832 76 824 76"/>
    <polygon fill="#6E6E6E" points="824 80 832 80 832 79 824 79"/>
    <polygon fill="#6E6E6E" points="824 83 832 83 832 82 824 82"/>
    <polygon fill="#6E6E6E" points="824 87 832 87 832 86 824 86"/>
    <polygon fill="#6E6E6E" points="824 90 832 90 832 89 824 89"/>
    <polygon fill="#6E6E6E" points="824 93 832 93 832 92 824 92"/>
    <polygon fill="#6E6E6E" points="824 96 832 96 832 95 824 95"/>
    <polygon fill="#6E6E6E" points="824 100 832 100 832 99 824 99"/>
    <polygon fill="#6E6E6E" points="824 103 832 103 832 102 824 102"/>
    <polygon fill="#6E6E6E" points="824 106 832 106 832 105 824 105"/>
    <polygon fill="#6E6E6E" points="851 70 855 70 855 69 851 69"/>
    <polygon fill="#6E6E6E" points="851 73 855 73 855 72 851 72"/>
    <polygon fill="#6E6E6E" points="851 77 855 77 855 76 851 76"/>
    <polygon fill="#6E6E6E" points="851 80 855 80 855 79 851 79"/>
    <polygon fill="#6E6E6E" points="851 83 855 83 855 82 851 82"/>
    <polygon fill="#6E6E6E" points="851 87 855 87 855 86 851 86"/>
    <polygon fill="#6E6E6E" points="851 90 855 90 855 89 851 89"/>
    <polygon fill="#6E6E6E" points="851 93 855 93 855 92 851 92"/>
    <polygon fill="#6E6E6E" points="851 96 855 96 855 95 851 95"/>
    <polygon fill="#6E6E6E" points="851 100 855 100 855 99 851 99"/>
    <polygon fill="#6E6E6E" points="851 103 855 103 855 102 851 102"/>
    <polygon fill="#6E6E6E" points="851 106 855 106 855 105 851 105"/>
    <polygon fill="#6E6E6E" points="816 70 820 70 820 69 816 69"/>
    <polygon fill="#6E6E6E" points="816 73 820 73 820 72 816 72"/>
    <polygon fill="#6E6E6E" points="816 77 820 77 820 76 816 76"/>
    <polygon fill="#6E6E6E" points="816 80 820 80 820 79 816 79"/>
    <polygon fill="#6E6E6E" points="816 83 820 83 820 82 816 82"/>
    <polygon fill="#6E6E6E" points="816 87 820 87 820 86 816 86"/>
    <polygon fill="#6E6E6E" points="816 90 820 90 820 89 816 89"/>
    <polygon fill="#6E6E6E" points="816 93 820 93 820 92 816 92"/>
    <polygon fill="#6E6E6E" points="816 96 820 96 820 95 816 95"/>
    <polygon fill="#6E6E6E" points="816 100 820 100 820 99 816 99"/>
    <polygon fill="#6E6E6E" points="816 103 820 103 820 102 816 102"/>
    <polygon fill="#6E6E6E" points="816 106 820 106 820 105 816 105"/>
    <polygon fill="#6E6E6E" points="824 110 832 110 832 109 824 109"/>
    <polygon fill="#6E6E6E" points="824 113 832 113 832 112 824 112"/>
    <polygon fill="#6E6E6E" points="824 116 832 116 832 115 824 115"/>
    <polygon fill="#6E6E6E" points="824 120 832 120 832 119 824 119"/>
    <polygon fill="#6E6E6E" points="824 123 832 123 832 122 824 122"/>
    <polygon fill="#6E6E6E" points="824 126 832 126 832 125 824 125"/>
    <polygon fill="#6E6E6E" points="824 130 832 130 832 129 824 129"/>
    <polygon fill="#6E6E6E" points="824 133 832 133 832 132 824 132"/>
    <polygon fill="#6E6E6E" points="824 136 832 136 832 135 824 135"/>
    <polygon fill="#6E6E6E" points="824 139 832 139 832 138 824 138"/>
    <polygon fill="#6E6E6E" points="824 143 832 143 832 142 824 142"/>
    <polygon fill="#6E6E6E" points="824 146 832 146 832 145 824 145"/>
    <polygon fill="#6E6E6E" points="851 110 855 110 855 109 851 109"/>
    <polygon fill="#6E6E6E" points="851 113 855 113 855 112 851 112"/>
    <polygon fill="#6E6E6E" points="851 116 855 116 855 115 851 115"/>
    <polygon fill="#6E6E6E" points="851 120 855 120 855 119 851 119"/>
    <polygon fill="#6E6E6E" points="851 123 855 123 855 122 851 122"/>
    <polygon fill="#6E6E6E" points="851 126 855 126 855 125 851 125"/>
    <polygon fill="#6E6E6E" points="851 130 855 130 855 129 851 129"/>
    <polygon fill="#6E6E6E" points="851 133 855 133 855 132 851 132"/>
    <polygon fill="#6E6E6E" points="851 136 855 136 855 135 851 135"/>
    <polygon fill="#6E6E6E" points="851 139 855 139 855 138 851 138"/>
    <polygon fill="#6E6E6E" points="851 143 855 143 855 142 851 142"/>
    <polygon fill="#2A313B" points="851 146 855 146 855 145 851 145"/>
    <polygon fill="#6E6E6E" points="816 110 820 110 820 109 816 109"/>
    <polygon fill="#6E6E6E" points="816 113 820 113 820 112 816 112"/>
    <polygon fill="#6E6E6E" points="816 116 820 116 820 115 816 115"/>
    <polygon fill="#6E6E6E" points="816 120 820 120 820 119 816 119"/>
    <polygon fill="#6E6E6E" points="816 123 820 123 820 122 816 122"/>
    <polygon fill="#6E6E6E" points="816 126 820 126 820 125 816 125"/>
    <polygon fill="#6E6E6E" points="816 130 820 130 820 129 816 129"/>
    <polygon fill="#6E6E6E" points="816 133 820 133 820 132 816 132"/>
    <polygon fill="#6E6E6E" points="816 136 820 136 820 135 816 135"/>
    <polygon fill="#6E6E6E" points="816 139 820 139 820 138 816 138"/>
    <polygon fill="#6E6E6E" points="816 143 820 143 820 142 816 142"/>
    <polygon fill="#6E6E6E" points="816 146 820 146 820 145 816 145"/>
    <polygon fill="#2A313B" points="844 161 845 161 845 20 844 20"/>
    <polygon fill="#2A313B" points="837 161 838 161 838 20 837 20"/>
    <polygon fill="#FFF" points="197.508 113 197.508 119.024 189.687 119.024 189.687 125.512 183 125.512 183 162 249 162 249 125.512 239.787 125.512 239.787 119.024 227.659 119.024 227.659 113"/>
    <polygon fill="#6E6E6E" points="196.435 112 196.435 118.061 188.647 118.061 188.647 124.589 182 124.589 182 162 183.383 162 183.383 125.984 190.03 125.984 190.03 119.456 197.818 119.456 197.818 113.395 226.404 113.395 226.404 119.456 238.459 119.456 238.459 125.984 247.617 125.984 247.617 162 249 162 249 124.589 239.829 124.589 239.829 118.061 227.773 118.061 227.773 112"/>
    <polygon fill="#6E6E6E" points="198 161 199 161 199 132 198 132"/>
    <polygon fill="#6E6E6E" points="229 161 230 161 230 132 229 132"/>
    <polygon fill="#6E6E6E" points="207 126 212 126 212 125 207 125"/>
    <polygon fill="#6E6E6E" points="207 133 212 133 212 132 207 132"/>
    <polygon fill="#6E6E6E" points="207 140 212 140 212 139 207 139"/>
    <polygon fill="#6E6E6E" points="207 148 212 148 212 147 207 147"/>
    <polygon fill="#6E6E6E" points="207 155 212 155 212 154 207 154"/>
    <polygon fill="#6E6E6E" points="217 126 222 126 222 125 217 125"/>
    <polygon fill="#6E6E6E" points="217 133 222 133 222 132 217 132"/>
    <polygon fill="#6E6E6E" points="217 140 222 140 222 139 217 139"/>
    <polygon fill="#6E6E6E" points="217 148 222 148 222 147 217 147"/>
    <polygon fill="#6E6E6E" points="217 155 222 155 222 154 217 154"/>
    <polygon fill="#FFF" points="914.534 122 914.534 131.073 908 131.073 908 162 962 162 962 131.073 956.926 131.073 956.926 122"/>
    <polygon fill="#2A313B" points="913.432 121 913.432 130.137 907 130.137 907 162 908.388 162 908.388 131.533 914.882 131.533 914.882 122.396 955.569 122.396 955.569 131.533 960.612 131.533 960.612 162 962 162 962 130.137 956.956 130.137 956.956 121"/>
    <polygon fill="#6E6E6E" points="952 137 955 137 955 136 952 136"/>
    <polygon fill="#6E6E6E" points="952 143 955 143 955 142 952 142"/>
    <polygon fill="#6E6E6E" points="952 150 955 150 955 149 952 149"/>
    <polygon fill="#6E6E6E" points="952 157 955 157 955 156 952 156"/>
    <polygon fill="#6E6E6E" points="943 137 946 137 946 136 943 136"/>
    <polygon fill="#6E6E6E" points="943 143 946 143 946 142 943 142"/>
    <polygon fill="#6E6E6E" points="943 150 946 150 946 149 943 149"/>
    <polygon fill="#6E6E6E" points="943 157 946 157 946 156 943 156"/>
    <polygon fill="#6E6E6E" points="934 137 937 137 937 136 934 136"/>
    <polygon fill="#6E6E6E" points="934 143 937 143 937 142 934 142"/>
    <polygon fill="#6E6E6E" points="934 150 937 150 937 149 934 149"/>
    <polygon fill="#6E6E6E" points="934 157 937 157 937 156 934 156"/>
    <polygon fill="#6E6E6E" points="924 137 927 137 927 136 924 136"/>
    <polygon fill="#6E6E6E" points="924 143 927 143 927 142 924 142"/>
    <polygon fill="#6E6E6E" points="924 150 927 150 927 149 924 149"/>
    <polygon fill="#6E6E6E" points="924 157 927 157 927 156 924 156"/>
    <polygon fill="#6E6E6E" points="915 137 918 137 918 136 915 136"/>
    <polygon fill="#6E6E6E" points="915 143 918 143 918 142 915 142"/>
    <polygon fill="#6E6E6E" points="915 150 918 150 918 149 915 149"/>
    <polygon fill="#6E6E6E" points="915 157 918 157 918 156 915 156"/>
    <polygon fill="#FFF" points="860.75 109 860.75 115.401 858 115.401 858 162 880 162 880 126.551 873.125 126.551 873.125 115.401 870.375 115.401 870.375 109"/>
    <polygon fill="#6E6E6E" points="859.824 108 859.824 114.438 857 114.438 857 162 858.412 162 858.412 115.829 861.235 115.829 861.235 109.39 869.706 109.39 869.706 115.829 872.53 115.829 872.53 127.043 879.588 127.043 879.588 162 881 162 881 125.652 873.941 125.652 873.941 114.438 871.118 114.438 871.118 108"/>
    <polygon fill="#FFF" points="318.739 101 318.739 107.443 315.957 107.443 315.957 113.796 309 113.796 309 162 341 162 341 107.443 338.217 107.443 338.217 101"/>
    <polygon fill="#6E6E6E" points="317.625 100 317.625 106.37 314.875 106.37 314.875 112.652 308 112.652 308 161 309.375 161 309.375 114.028 316.25 114.028 316.25 107.747 319 107.747 319 101.376 336.875 101.376 336.875 107.747 339.625 107.747 339.625 161 341 161 341 106.37 338.25 106.37 338.25 100"/>
    <polygon fill="#FFF" points="763 111 793 111 793 96 763 96"/>
    <path fill="#6E6E6E" d="M763,111.992886 L795,111.992886 L795,95 L763,95 L763,111.992886 Z M764.391187,110.600159 L793.608475,110.600159 L793.608475,96.393065 L764.391187,96.393065 L764.391187,110.600159 Z M795,112 L795,111.992886 L795,112 Z"/>
    <polygon fill="#FFF" points="750 120 805 120 805 105 750 105"/>
    <path fill="#6E6E6E" d="M749,121 L805,121 L805,104 L749,104 L749,121 Z M750.377486,119.600044 L803.623184,119.600044 L803.623184,105.399615 L750.377486,105.399615 L750.377486,119.600044 Z"/>
    <polygon fill="#FFF" points="739 162 812 162 812 115 739 115"/>
    <polygon fill="#6E6E6E" points="739 114 739 161 740.392 161 740.392 115.374 812.608 115.374 812.608 161 814 161 814 114"/>
    <polygon fill="#6E6E6E" points="802 123 805 123 805 122 802 122"/>
    <polygon fill="#6E6E6E" points="802 130 805 130 805 129 802 129"/>
    <polygon fill="#6E6E6E" points="802 137 805 137 805 136 802 136"/>
    <polygon fill="#6E6E6E" points="802 144 805 144 805 143 802 143"/>
    <polygon fill="#6E6E6E" points="802 151 805 151 805 150 802 150"/>
    <polygon fill="#6E6E6E" points="793 123 796 123 796 122 793 122"/>
    <polygon fill="#6E6E6E" points="793 130 796 130 796 129 793 129"/>
    <polygon fill="#6E6E6E" points="793 137 796 137 796 136 793 136"/>
    <polygon fill="#6E6E6E" points="793 144 796 144 796 143 793 143"/>
    <polygon fill="#6E6E6E" points="793 151 796 151 796 150 793 150"/>
    <polygon fill="#6E6E6E" points="784 123 787 123 787 122 784 122"/>
    <polygon fill="#6E6E6E" points="784 130 787 130 787 129 784 129"/>
    <polygon fill="#6E6E6E" points="784 137 787 137 787 136 784 136"/>
    <polygon fill="#6E6E6E" points="784 144 787 144 787 143 784 143"/>
    <polygon fill="#6E6E6E" points="784 151 787 151 787 150 784 150"/>
    <polygon fill="#6E6E6E" points="775 123 778 123 778 122 775 122"/>
    <polygon fill="#6E6E6E" points="775 130 778 130 778 129 775 129"/>
    <polygon fill="#6E6E6E" points="775 137 778 137 778 136 775 136"/>
    <polygon fill="#6E6E6E" points="775 144 778 144 778 143 775 143"/>
    <polygon fill="#6E6E6E" points="775 151 778 151 778 150 775 150"/>
    <polygon fill="#6E6E6E" points="766 123 769 123 769 122 766 122"/>
    <polygon fill="#6E6E6E" points="766 130 769 130 769 129 766 129"/>
    <polygon fill="#6E6E6E" points="766 137 769 137 769 136 766 136"/>
    <polygon fill="#6E6E6E" points="766 144 769 144 769 143 766 143"/>
    <polygon fill="#6E6E6E" points="766 151 769 151 769 150 766 150"/>
    <polygon fill="#6E6E6E" points="757 123 760 123 760 122 757 122"/>
    <polygon fill="#6E6E6E" points="757 130 760 130 760 129 757 129"/>
    <polygon fill="#6E6E6E" points="757 137 760 137 760 136 757 136"/>
    <polygon fill="#6E6E6E" points="757 144 760 144 760 143 757 143"/>
    <polygon fill="#6E6E6E" points="757 151 760 151 760 150 757 150"/>
    <polygon fill="#6E6E6E" points="748 123 751 123 751 122 748 122"/>
    <polygon fill="#6E6E6E" points="748 130 751 130 751 129 748 129"/>
    <polygon fill="#6E6E6E" points="748 137 751 137 751 136 748 136"/>
    <polygon fill="#6E6E6E" points="748 144 751 144 751 143 748 143"/>
    <polygon fill="#6E6E6E" points="748 151 751 151 751 150 748 150"/>
    <polygon fill="#FAFAFA" points="438 106 492 106 492 91 438 91"/>
    <path fill="#6E6E6E" d="M438,107 L493,107 L493,90 L438,90 L438,107 Z M439.351934,105.601165 L491.648741,105.601165 L491.648741,91.398155 L439.351934,91.398155 L439.351934,105.601165 Z"/>
    <polygon fill="#FFF" points="427 161 500 161 500 101 427 101"/>
    <polygon fill="#6E6E6E" points="427 101 427 161 428.391 161 428.391 102.373 500.609 102.373 500.609 161 502 161 502 101"/>
    <polygon fill="#6E6E6E" points="490 109 493 109 493 108 490 108"/>
    <polygon fill="#6E6E6E" points="490 115 493 115 493 114 490 114"/>
    <polygon fill="#6E6E6E" points="490 120 493 120 493 119 490 119"/>
    <polygon fill="#6E6E6E" points="490 125 493 125 493 124 490 124"/>
    <polygon fill="#6E6E6E" points="490 131 493 131 493 130 490 130"/>
    <polygon fill="#6E6E6E" points="481 109 484 109 484 108 481 108"/>
    <polygon fill="#6E6E6E" points="481 115 484 115 484 114 481 114"/>
    <polygon fill="#6E6E6E" points="481 120 484 120 484 119 481 119"/>
    <polygon fill="#6E6E6E" points="481 125 484 125 484 124 481 124"/>
    <polygon fill="#6E6E6E" points="481 131 484 131 484 130 481 130"/>
    <polygon fill="#6E6E6E" points="472 109 475 109 475 108 472 108"/>
    <polygon fill="#6E6E6E" points="472 115 475 115 475 114 472 114"/>
    <polygon fill="#6E6E6E" points="472 120 475 120 475 119 472 119"/>
    <polygon fill="#6E6E6E" points="472 125 475 125 475 124 472 124"/>
    <polygon fill="#6E6E6E" points="472 131 475 131 475 130 472 130"/>
    <polygon fill="#6E6E6E" points="463 109 466 109 466 108 463 108"/>
    <polygon fill="#6E6E6E" points="463 115 466 115 466 114 463 114"/>
    <polygon fill="#6E6E6E" points="463 120 466 120 466 119 463 119"/>
    <polygon fill="#6E6E6E" points="463 125 466 125 466 124 463 124"/>
    <polygon fill="#6E6E6E" points="463 131 466 131 466 130 463 130"/>
    <polygon fill="#6E6E6E" points="454 109 457 109 457 108 454 108"/>
    <polygon fill="#6E6E6E" points="454 115 457 115 457 114 454 114"/>
    <polygon fill="#6E6E6E" points="454 120 457 120 457 119 454 119"/>
    <polygon fill="#6E6E6E" points="454 125 457 125 457 124 454 124"/>
    <polygon fill="#6E6E6E" points="454 131 457 131 457 130 454 130"/>
    <polygon fill="#6E6E6E" points="445 109 448 109 448 108 445 108"/>
    <polygon fill="#6E6E6E" points="445 115 448 115 448 114 445 114"/>
    <polygon fill="#6E6E6E" points="445 120 448 120 448 119 445 119"/>
    <polygon fill="#6E6E6E" points="445 125 448 125 448 124 445 124"/>
    <polygon fill="#6E6E6E" points="445 131 448 131 448 130 445 130"/>
    <polygon fill="#6E6E6E" points="436 109 439 109 439 108 436 108"/>
    <polygon fill="#6E6E6E" points="436 115 439 115 439 114 436 114"/>
    <polygon fill="#6E6E6E" points="436 120 439 120 439 119 436 119"/>
    <polygon fill="#6E6E6E" points="436 125 439 125 439 124 436 124"/>
    <polygon fill="#6E6E6E" points="436 131 439 131 439 130 436 130"/>
    <polygon fill="#6E6E6E" points="490 135 493 135 493 134 490 134"/>
    <polygon fill="#6E6E6E" points="490 140 493 140 493 139 490 139"/>
    <polygon fill="#6E6E6E" points="490 145 493 145 493 144 490 144"/>
    <polygon fill="#6E6E6E" points="490 151 493 151 493 150 490 150"/>
    <polygon fill="#6E6E6E" points="490 156 493 156 493 155 490 155"/>
    <polygon fill="#6E6E6E" points="481 135 484 135 484 134 481 134"/>
    <polygon fill="#6E6E6E" points="481 140 484 140 484 139 481 139"/>
    <polygon fill="#6E6E6E" points="481 145 484 145 484 144 481 144"/>
    <polygon fill="#6E6E6E" points="481 151 484 151 484 150 481 150"/>
    <polygon fill="#6E6E6E" points="481 156 484 156 484 155 481 155"/>
    <polygon fill="#6E6E6E" points="472 135 475 135 475 134 472 134"/>
    <polygon fill="#6E6E6E" points="472 140 475 140 475 139 472 139"/>
    <polygon fill="#6E6E6E" points="472 145 475 145 475 144 472 144"/>
    <polygon fill="#6E6E6E" points="472 151 475 151 475 150 472 150"/>
    <polygon fill="#6E6E6E" points="472 156 475 156 475 155 472 155"/>
    <polygon fill="#6E6E6E" points="463 135 466 135 466 134 463 134"/>
    <polygon fill="#6E6E6E" points="463 140 466 140 466 139 463 139"/>
    <polygon fill="#6E6E6E" points="463 145 466 145 466 144 463 144"/>
    <polygon fill="#6E6E6E" points="463 151 466 151 466 150 463 150"/>
    <polygon fill="#6E6E6E" points="463 156 466 156 466 155 463 155"/>
    <polygon fill="#6E6E6E" points="454 135 457 135 457 134 454 134"/>
    <polygon fill="#6E6E6E" points="454 140 457 140 457 139 454 139"/>
    <polygon fill="#6E6E6E" points="454 145 457 145 457 144 454 144"/>
    <polygon fill="#6E6E6E" points="454 151 457 151 457 150 454 150"/>
    <polygon fill="#6E6E6E" points="454 156 457 156 457 155 454 155"/>
    <polygon fill="#6E6E6E" points="445 135 448 135 448 134 445 134"/>
    <polygon fill="#6E6E6E" points="445 140 448 140 448 139 445 139"/>
    <polygon fill="#6E6E6E" points="445 145 448 145 448 144 445 144"/>
    <polygon fill="#6E6E6E" points="445 151 448 151 448 150 445 150"/>
    <polygon fill="#6E6E6E" points="445 156 448 156 448 155 445 155"/>
    <polygon fill="#6E6E6E" points="436 135 439 135 439 134 436 134"/>
    <polygon fill="#6E6E6E" points="436 140 439 140 439 139 436 139"/>
    <polygon fill="#6E6E6E" points="436 145 439 145 439 144 436 144"/>
    <polygon fill="#6E6E6E" points="436 151 439 151 439 150 436 150"/>
    <polygon fill="#6E6E6E" points="436 156 439 156 439 155 436 155"/>
    <polygon fill="#FAFAFA" points="351 115 351 162 380 162 380 120.181 375.857 120.181 375.857 115"/>
    <polygon fill="#6E6E6E" points="350 114 350 161 351.364 161 351.364 115.388 374.545 115.388 374.545 120.477 378.636 120.477 378.636 161 380 161 380 119.104 375.909 119.104 375.909 114"/>
    <polygon fill="#FAFAFA" points="281 76 281 162 311 162 311 83.365 302.818 83.365 302.818 76"/>
    <polygon fill="#2A313B" points="280 75 280 161 281.391 161 281.391 76.376 302.261 76.376 302.261 83.683 310.609 83.683 310.609 161 312 161 312 82.306 303.652 82.306 303.652 75"/>
    <polygon fill="#FAFAFA" points="49.024 137 49.024 140.775 39 140.775 39 162 93 162 93 140.775 90.019 140.775 90.019 137"/>
    <polygon fill="#6E6E6E" points="47.952 136 47.952 139.666 38 139.666 38 161 39.386 161 39.386 141.103 49.338 141.103 49.338 137.43 88.655 137.43 88.655 141.096 91.614 141.096 91.614 160.986 93 160.986 93 139.666 90.041 139.666 90.041 136"/>
  </g>
</svg>
