<svg xmlns="http://www.w3.org/2000/svg" width="614" height="256" viewBox="0 0 614 256">
  <g fill="none" fill-rule="evenodd">
    <path fill="#F0F1F4" d="M233,201 L233,121 L280,121 L280,201 L297,201 L297,103 L309,103 L309,91 L350,91 L350,103 L362,103 L362,201 L377,201 L377,61 L424,82.7971014 L424,59 L431,59 L431,86.0434783 L446,93 L446,201 L478,201 L478,167 L482,167 L482,159 L539,159 L539,167 L543,167 L543,210 L547,210 L547,197 L563,202 L563,210 L580,210 L580,233 L614,233 L614,256 L0,256 L0,201 L30,201 L30,127 L34,127 L34,117 L91,117 L91,127 L95,127 L95,185 L99,185 L99,173.578947 L115,167 L115,185 L132,185 L132,201 L141,201 L141,147 L153,147 L153,61 L216,61 L216,201 L233,201 Z"/>
    <g transform="translate(179)">
      <rect width="256" height="256"/>
      <g stroke="#2A313B" stroke-width="4" transform="translate(35 191)">
        <path fill="#FFF" d="M0,63 C0,29.862915 25.3859162,3 56.7010309,3 L143.298969,3 C174.614084,3 200,29.862915 200,63 L0,63 Z"/>
        <path fill="#FFF" d="M49,0 L59,0 C61.209139,-4.05812251e-16 63,1.790861 63,4 L63,63 L45,63 L45,4 C45,1.790861 46.790861,4.05812251e-16 49,0 Z"/>
        <rect width="22" height="13" x="43" y="13" fill="#FFF" rx="1"/>
        <path fill="#FFF" d="M140,0 L150,0 C152.209139,-4.05812251e-16 154,1.790861 154,4 L154,63 L136,63 L136,4 C136,1.790861 137.790861,4.05812251e-16 140,0 Z"/>
        <rect width="22" height="13" x="134" y="13" fill="#FFF" rx="1"/>
        <path stroke-linecap="round" d="M70.6132812,3.31542969 C70.6132812,20.5426432 80.2960612,29.15625 99.6616211,29.15625 C119.027181,29.15625 128.709961,20.5426432 128.709961,3.31542969"/>
      </g>
      <path fill="#FFF" stroke="#2A313B" stroke-width="4" d="M107,176 L162,176 C162,201.333333 152.833333,214 134.5,214 C116.166667,214 107,201.333333 107,176 Z"/>
      <path fill="#FFF" stroke="#2A313B" stroke-linecap="round" stroke-width="4" d="M72.8764247,92 L75,92 L75,130 L75,130 C69.6684101,130 65.1434176,126.089931 64.3701724,120.814711 L61.9927263,104.59534 C61.1116445,98.584439 65.2701844,92.9973834 71.281085,92.1163016 C71.8093378,92.0388699 72.3425271,92 72.8764247,92 Z"/>
      <path fill="#FFF" stroke="#2A313B" stroke-linecap="round" stroke-width="4" d="M204.882374,92 L205.955601,92 L205.955601,129 L205.955601,129 C201.044653,129 196.885657,125.37884 196.209906,120.514607 L193.987008,104.513611 C193.151064,98.4962666 197.351419,92.9405789 203.368763,92.1046348 C203.87029,92.0349614 204.37603,92 204.882374,92 Z" transform="matrix(-1 0 0 1 399.956 0)"/>
      <path fill="#FFF" stroke="#2A313B" stroke-width="4" d="M88.7861278,40.1334215 C105.84203,20.0444738 121.079988,10 134.5,10 C147.920012,10 163.15797,20.044474 180.213873,40.133422 L180.213872,40.1334222 C189.114011,50.6162695 194,63.9203923 194,77.6718489 L194,132.5 C194,165.360943 167.360943,192 134.5,192 L134.5,192 C101.639057,192 75,165.360943 75,132.5 L75.0000001,77.6718484 C75.0000001,63.9203917 79.885989,50.6162689 88.7861278,40.1334215 Z" transform="matrix(1 0 0 -1 0 202)"/>
      <g stroke="#2A313B" stroke-linecap="round" stroke-width="4" transform="translate(115 99)">
        <path d="M13.1777344 36.2207031C13.1777344 38.8873698 15.3972648 40.2207031 19.8363258 40.2207031 24.2753867 40.2207031 26.4949172 38.8873698 26.4949172 36.2207031M9.24023438 31.2851562C7.24023438 32.905443 6.24023438 34.7175464 6.24023438 36.7214666 6.24023438 38.7253868 7.24023438 40.5374903 9.24023438 42.157777"/>
        <path d="M34.2402344,31.2851562 C32.2402344,32.905443 31.2402344,34.7175464 31.2402344,36.7214666 C31.2402344,38.7253868 32.2402344,40.5374903 34.2402344,42.157777" transform="matrix(-1 0 0 1 65.48 0)"/>
        <path d="M26,0 L26,24"/>
        <path fill="#FFF" d="M.880371094 59.8408203C7.4993466 56.6110026 14.1183221 54.9960938 20.7372976 54.9960938 27.3562731 54.9960938 33.9752486 56.6110026 40.5942242 59.8408203M12.8803711 69.8408203C15.4993466 68.6110026 18.1183221 67.9960938 20.7372976 67.9960938 23.3562731 67.9960938 25.9752486 68.6110026 28.5942242 69.8408203"/>
      </g>
      <path fill="#FFF" stroke="#2A313B" stroke-width="4" d="M74.2460938,99.5664062 C66.1367188,89.8554687 62.0820312,76.7148437 62.0820312,60.1445312 C62.0820312,35.2890625 83.3710938,13.4335937 96.421875,19.4296875 C93.0234375,6.87890625 160.839844,-13 186.65625,19.4296875 C203.867188,41.0494792 206.481771,67.7617187 194.5,99.5664062 C197.1875,90.7721354 194.572917,79.8945313 186.65625,66.9335938 C174.78125,47.4921875 140.867188,62.4453125 118.644531,40.9375 C103.829427,26.5989583 89.0299479,46.1419271 74.2460938,99.5664062 Z"/>
      <g transform="translate(87 85)">
        <path fill="#2A313B" d="M10.2386159,15.6615364 L22.4703386,12.3840562 C23.4276197,13.923458 24,15.8757876 24,18 C24,22.9705627 20.8659932,27 17,27 C13.1340068,27 10,22.9705627 10,18 C10,17.1911552 10.0829887,16.4072315 10.2386159,15.6615364 Z"/>
        <path fill="#FFF" stroke="#2A313B" stroke-width="4" d="M0.261109276,9.15948429 C2.39001553,5.38083846 5.35030198,3.49151554 9.14196865,3.49151554 C12.9336353,3.49151554 19.2155364,3.49151554 27.9876718,3.49151554" transform="rotate(-15 14.124 6.326)"/>
      </g>
      <g transform="matrix(-1 0 0 1 180 85)">
        <path fill="#2A313B" d="M10.2386159,15.6615364 L22.4703386,12.3840562 C23.4276197,13.923458 24,15.8757876 24,18 C24,22.9705627 20.8659932,27 17,27 C13.1340068,27 10,22.9705627 10,18 C10,17.1911552 10.0829887,16.4072315 10.2386159,15.6615364 Z"/>
        <path fill="#FFF" stroke="#2A313B" stroke-width="4" d="M0.261109276,9.15948429 C2.39001553,5.38083846 5.35030198,3.49151554 9.14196865,3.49151554 C12.9336353,3.49151554 19.2155364,3.49151554 27.9876718,3.49151554" transform="rotate(-15 14.124 6.326)"/>
      </g>
    </g>
    <rect width="614" height="4" y="252" fill="#2A313B"/>
  </g>
</svg>
