<svg xmlns="http://www.w3.org/2000/svg" xmlns:xlink="http://www.w3.org/1999/xlink" width="32" height="32" viewBox="0 0 32 32">
  <defs>
    <rect id="img_eye-_32-a" width="32" height="32"/>
  </defs>
  <g fill="none" fill-rule="evenodd">
    <mask id="img_eye-_32-b" fill="#fff">
      <use xlink:href="#img_eye-_32-a"/>
    </mask>
    <g fill-rule="nonzero" mask="url(#img_eye-_32-b)">
      <g transform="translate(.364 3.636)">
        <path fill="#FFF" d="M19.4545455,10.1454545 C20.6545455,12.2545455 19.9636364,14.9454545 17.8545455,16.1818182 C15.7454545,17.3818182 13.0545455,16.6909091 11.8181818,14.5818182 C11.1636364,13.4181818 11.0545455,12.1090909 11.4545455,10.9454545 L15.7090909,12.5090909 L13.4181818,8.54545455 C15.5272727,7.30909091 18.2545455,8.03636364 19.4545455,10.1454545 Z"/>
        <path stroke="#FFF" stroke-linecap="round" stroke-linejoin="round" stroke-width="2" d="M15.6363636,0.0727272727 C24.1454545,0.0727272727 31.0181818,12.3636364 31.0181818,12.3636364 C31.0181818,12.3636364 24.1454545,24.6545455 15.6363636,24.6545455 C7.12727273,24.6545455 0.254545455,12.3636364 0.254545455,12.3636364 C0.254545455,12.3636364 7.12727273,0.0727272727 15.6363636,0.0727272727 Z M15.6363636,20.5181818 C20.1401293,20.5181818 23.7909091,16.8674021 23.7909091,12.3636364 C23.7909091,7.85987067 20.1401293,4.20909091 15.6363636,4.20909091 C11.1325979,4.20909091 7.48181818,7.85987067 7.48181818,12.3636364 C7.48181818,16.8674021 11.1325979,20.5181818 15.6363636,20.5181818 Z"/>
      </g>
    </g>
  </g>
</svg>
