<svg xmlns="http://www.w3.org/2000/svg" width="128" height="128" viewBox="0 0 128 128">
  <g fill="#2A313B">
    <path d="M96.3899883 84.5155C95.5596101 85.3475 95.5596101 86.7 96.3899883 87.532L100.908164 92.059C101.323353 92.47725 101.868538 92.684 102.413474 92.684 102.956413 92.684 103.501598 92.477 103.918784 92.059 104.749162 91.227 104.749162 89.8765 103.918784 89.0425L99.4028538 84.5155C98.57023 83.6835 97.2223626 83.6835 96.3899883 84.5155zM119.233871 47.82L119.233871 68.27025 110.717255 68.27025 110.717255 57.6035C110.717255 56.426 109.765614 55.47025 108.588164 55.47025 107.410713 55.47025 106.459072 56.426 106.459072 57.6035L106.459072 70.4035C106.459072 71.581 107.410713 72.53675 108.588164 72.53675L121.363212 72.53675C122.540663 72.53675 123.492304 71.581 123.492304 70.4035L123.492304 52.08675 124.116086 52.71175C124.531275 53.12775 125.07646 53.33675 125.621396 53.33675 126.166581 53.33675 126.711517 53.12775 127.126706 52.71175 127.959329 51.8775 127.959329 50.52925 127.126706 49.69525L122.870519 45.43075C122.870519 45.43075 122.868273 45.4285 122.866277 45.4265L103.705949 26.22875C102.873326 25.3945 101.527704 25.3945 100.695329 26.22875 99.8627057 27.06275 99.8627057 28.41125 100.695329 29.24525L119.233871 47.82zM71.7703236 45.43075C71.7703236 45.43075 71.7683275 45.4285 71.7660819 45.4265L52.6055049 26.22875C51.7728811 25.3945 50.4272593 25.3945 49.594885 26.22875L30.434308 45.4265C30.434308 45.4265 30.4320624 45.42875 30.4300663 45.43075L26.1738791 49.69525C25.3412554 50.5295 25.3412554 51.87775 26.1738791 52.71175 27.0065029 53.54575 28.3521248 53.54575 29.184499 52.71175L29.8082807 52.08675 29.8082807 70.4035C29.8082807 71.581 30.759922 72.53675 31.9373723 72.53675L46.8415127 72.53675C48.018963 72.53675 48.9706043 71.581 48.9706043 70.4035L48.9706043 59.73675 53.229037 59.73675 53.229037 70.4035C53.229037 71.581 54.1806784 72.53675 55.3581287 72.53675L70.262768 72.53675C71.4402183 72.53675 72.3918596 71.581 72.3918596 70.4035L72.3918596 52.08675 73.0156413 52.71175C73.4308304 53.12775 73.9760156 53.33675 74.5209513 53.33675 75.0661365 53.33675 75.6110721 53.12775 76.0262612 52.71175 76.8586355 51.8775 76.8586355 50.52925 76.0262612 49.69525L71.7703236 45.43075zM68.1339259 68.27025L57.4877193 68.27025 57.4877193 57.6035C57.4877193 56.426 56.536078 55.47025 55.3586277 55.47025L46.8420117 55.47025C45.6645614 55.47025 44.7129201 56.426 44.7129201 57.6035L44.7129201 68.27025 34.066963 68.27025 34.066963 47.82 51.1004444 30.75325 68.1339259 47.82 68.1339259 68.27025z"/>
    <path d="M51.1001949 8.53675C27.6195556 8.53675 8.51661598 27.677 8.51661598 51.2035 8.51661598 74.73 27.6195556 93.87025 51.1001949 93.87025 74.5808343 93.87025 93.6837739 74.73 93.6837739 51.2035 93.6837739 27.677 74.5808343 8.53675 51.1001949 8.53675zM51.1001949 89.6035C29.9682183 89.6035 12.7750487 72.37675 12.7750487 51.2035 12.7750487 30.03025 29.9682183 12.8035 51.1001949 12.8035 72.2321715 12.8035 89.4253411 30.03025 89.4253411 51.2035 89.4253411 72.37675 72.2321715 89.6035 51.1001949 89.6035zM109.709973 94.845C109.31175 94.446 108.771057 94.22 108.204663 94.22L108.202667 94.22C107.638519 94.222 107.095579 94.44825 106.695111 94.84925L100.690838 100.8995C99.86046 101.73375 99.8647018 103.084 100.699322 103.916 101.533942 104.748 102.881809 104.746 103.709942 103.9075L108.208904 99.37625 121.62046 112.812C122.825606 114.0215 123.492055 115.628 123.492055 117.33675 123.492055 119.0455 122.825606 120.654 121.62046 121.8615 119.131571 124.35525 115.081731 124.3595 112.5886 121.8635L87.3578791 96.5835C86.527501 95.7515 85.1796335 95.7515 84.3472593 96.5835 83.5168811 97.41775 83.5168811 98.768 84.3472593 99.6L109.577981 124.88C111.65168 126.96 114.377107 127.99675 117.102534 127.99675 119.827961 127.99675 122.55738 126.95775 124.631329 124.88 126.641154 122.864 127.750487 120.18675 127.750487 117.3365 127.750487 114.4885 126.641154 111.809 124.631329 109.79525L109.709973 94.845z"/>
    <path d="M102.20039,51.2035 C102.20039,22.973 79.2756647,0.0035 51.1001949,0.0035 C22.9247251,0.0035 0,22.973 0,51.2035 C0,79.434 22.9247251,102.4035 51.1001949,102.4035 C79.2756647,102.4035 102.20039,79.434 102.20039,51.2035 Z M51.1001949,98.13675 C25.2711423,98.13675 4.25843275,77.083 4.25843275,51.2035 C4.25843275,25.324 25.2711423,4.27025 51.1001949,4.27025 C76.9292476,4.27025 97.9419571,25.324 97.9419571,51.2035 C97.9419571,77.083 76.9292476,98.13675 51.1001949,98.13675 Z"/>
  </g>
</svg>
