<svg xmlns="http://www.w3.org/2000/svg" width="96" height="96" viewBox="0 0 96 96">
  <g fill="none" fill-rule="evenodd">
    <g fill="#8D9099" fill-rule="nonzero">
      <path d="M68.7999375 89.6000625L36 89.6000625C35.116875 89.6000625 34.4000625 90.3169688 34.4000625 91.2000938L36 92.800125 68.7999375 92.800125C69.6830625 92.800125 70.399875 92.0833125 70.399875 91.2001875 70.399875 90.3170625 69.68325 89.6000625 68.7999375 89.6000625zM35.1999375 39.9999375C35.1999375 40.8830625 35.91675 41.599875 36.799875 41.599875L43.2 41.599875C44.083125 41.599875 44.7999375 40.8830625 44.7999375 39.9999375L44.7999375 30.3999375C44.7999375 29.5168125 44.083125 28.8 43.2 28.8L36.8000625 28.8C35.9169375 28.8 35.200125 29.5168125 35.200125 30.3999375L35.200125 39.9999375 35.1999375 39.9999375zM38.4 32.0000625L41.6000625 32.0000625 41.6000625 38.4 38.4 38.4 38.4 32.0000625zM20.7999375 19.2L1.5999375 19.2C.7168125 19.2 0 19.9168125 0 20.7999375L0 48.8C0 49.683125.7168125 50.3999375 1.5999375 50.3999375 2.4830625 50.3999375 3.199875 49.683125 3.199875 48.8L3.199875 22.4000625 20.7999375 22.4000625C21.6830625 22.4000625 22.399875 21.68325 22.399875 20.800125 22.399875 19.917 21.68325 19.2 20.7999375 19.2zM76.8 78.3999375C76.8 79.2830625 77.5168125 79.999875 78.3999375 79.999875L84.799875 79.999875C85.683 79.999875 86.3998125 79.2830625 86.3998125 78.3999375L86.3998125 68.7999375C86.3998125 67.9168125 85.683 67.2 84.799875 67.2L78.3999375 67.2C77.5168125 67.2 76.8 67.9168125 76.8 68.7999375L76.8 78.3999375zM80.0000625 70.4000625L83.200125 70.4000625 83.200125 76.8 80.0000625 76.8 80.0000625 70.4000625zM78.3999375 41.6000625L84.799875 41.6000625C85.683 41.6000625 86.3998125 40.88325 86.3998125 40.000125L86.3998125 30.400125C86.3998125 29.517 85.683 28.8001875 84.799875 28.8001875L78.3999375 28.8001875C77.5168125 28.8001875 76.8 29.517 76.8 30.400125L76.8 40.000125C76.8 40.88325 77.5168125 41.6000625 78.3999375 41.6000625zM80.0000625 32.0000625L83.200125 32.0000625 83.200125 38.4 80.0000625 38.4 80.0000625 32.0000625z"/>
      <path d="M17.6000625 28.8L11.1999375 28.8C10.3168125 28.8 9.6 29.5168125 9.6 30.3999375L9.6 39.9999375C9.6 40.8830625 10.3168125 41.599875 11.1999375 41.599875L17.599875 41.599875C18.483 41.599875 19.1998125 40.8830625 19.1998125 39.9999375L19.1998125 30.3999375C19.2 29.5168125 18.4831875 28.8 17.6000625 28.8zM15.9999375 38.4L12.8000625 38.4 12.8000625 32.0000625 16.000125 32.0000625 16.000125 38.4 15.9999375 38.4zM51.2000625 39.9999375C51.2000625 40.8830625 51.916875 41.599875 52.8 41.599875L59.1999375 41.599875C60.0830625 41.599875 60.799875 40.8830625 60.799875 39.9999375L60.799875 30.3999375C60.799875 29.5168125 60.0830625 28.8 59.1999375 28.8L52.8 28.8C51.916875 28.8 51.2000625 29.5168125 51.2000625 30.3999375L51.2000625 39.9999375zM54.3999375 32.0000625L57.6 32.0000625 57.6 38.4 54.3999375 38.4 54.3999375 32.0000625zM94.4000625 19.2L75.2000625 19.2C74.3169375 19.2 73.600125 19.9168125 73.600125 20.7999375 73.600125 21.6830625 74.3169375 22.399875 75.2000625 22.399875L92.800125 22.399875 92.800125 92.2C92.5293778 92.103384 93.4801328 92.879752 94.4142653 93.2016924 95.2132124 93.4770425 96 93.419975 96 92.2L96 20.7999375C96 19.9168125 95.2831875 19.2 94.4000625 19.2zM52.8 22.4000625L59.1999375 22.4000625C60.0830625 22.4000625 60.799875 21.68325 60.799875 20.800125L60.799875 11.200125C60.799875 10.317 60.0830625 9.6001875 59.1999375 9.6001875L52.8 9.6001875C51.916875 9.6001875 51.2000625 10.317 51.2000625 11.200125L51.2000625 20.800125C51.2000625 21.68325 51.916875 22.4000625 52.8 22.4000625zM54.3999375 12.8000625L57.6 12.8000625 57.6 19.2 54.3999375 19.2 54.3999375 12.8000625zM51.2000625 59.1999375C51.2000625 60.0830625 51.916875 60.799875 52.8 60.799875L59.1999375 60.799875C60.0830625 60.799875 60.799875 60.0830625 60.799875 59.1999375L60.799875 49.5999375C60.799875 48.7168125 60.0830625 48 59.1999375 48L52.8 48C51.916875 48 51.2000625 48.7168125 51.2000625 49.5999375L51.2000625 59.1999375zM54.3999375 51.2000625L57.6 51.2000625 57.6 57.6 54.3999375 57.6 54.3999375 51.2000625zM36.8000625 22.4000625L43.2 22.4000625C44.083125 22.4000625 44.7999375 21.68325 44.7999375 20.800125L44.7999375 11.200125C44.7999375 10.317 44.083125 9.6001875 43.2 9.6001875L36.8000625 9.6001875C35.9169375 9.6001875 35.200125 10.317 35.200125 11.200125L35.200125 20.800125C35.1999375 21.68325 35.91675 22.4000625 36.8000625 22.4000625zM38.4 12.8000625L41.6000625 12.8000625 41.6000625 19.2 38.4 19.2 38.4 12.8000625zM46.8639375 77.2640625C46.5759375 77.568 46.399875 77.9840625 46.399875 78.400125 46.399875 78.8161875 46.5759375 79.2320625 46.8639375 79.5361875 47.167875 79.8241875 47.5839375 80.00025 48 80.00025 48.4160625 80.00025 48.8319375 79.8241875 49.1360625 79.5361875 49.4240625 79.23225 49.600125 78.8161875 49.600125 78.400125 49.600125 77.9840625 49.4240625 77.5681875 49.1360625 77.2640625 48.528 76.6719375 47.472 76.6719375 46.8639375 77.2640625zM35.1999375 59.1999375C35.1999375 60.0830625 35.91675 60.799875 36.799875 60.799875L43.2 60.799875C44.083125 60.799875 44.7999375 60.0830625 44.7999375 59.1999375L44.7999375 49.5999375C44.7999375 48.7168125 44.083125 48 43.2 48L36.8000625 48C35.9169375 48 35.200125 48.7168125 35.200125 49.5999375L35.200125 59.1999375 35.1999375 59.1999375zM38.4 51.2000625L41.6000625 51.2000625 41.6000625 57.6 38.4 57.6 38.4 51.2000625z"/>
      <path d="M34.0000625 68.7999375C34.0000625 69.6830625 34.716875 70.399875 35.6 70.399875L38.4 70.399875 38.4 84.799875C38.4 85.683 39.1168125 86.3998125 39.9999375 86.3998125 40.8830625 86.3998125 41.599875 85.683 41.599875 84.799875L41.599875 70.399875 54.3999375 70.399875 54.3999375 84.799875C54.3999375 85.683 55.11675 86.3998125 55.999875 86.3998125 56.883 86.3998125 57.5998125 85.683 57.5998125 84.799875L57.5998125 70.399875 60.3998125 70.399875C61.2829375 70.399875 61.99975 69.6830625 61.99975 68.7999375 61.99975 67.9168125 61.2829375 67.2 60.3998125 67.2L35.6 67.2C34.716875 67.2 34.0000625 67.9168125 34.0000625 68.7999375zM76.8 59.1999375C76.8 60.0830625 77.5168125 60.799875 78.3999375 60.799875L84.799875 60.799875C85.683 60.799875 86.3998125 60.0830625 86.3998125 59.1999375L86.3998125 49.5999375C86.3998125 48.7168125 85.683 48 84.799875 48L78.3999375 48C77.5168125 48 76.8 48.7168125 76.8 49.5999375L76.8 59.1999375zM80.0000625 51.2000625L83.200125 51.2000625 83.200125 57.6 80.0000625 57.6 80.0000625 51.2000625z"/>
      <path d="M68.7999375,0 L27.2000625,0 C26.3169375,0 25.600125,0.7168125 25.600125,1.5999375 L25.600125,57.799875 C25.600125,58.683 26.3169375,59.3998125 27.2000625,59.3998125 C28.0831875,59.3998125 28.8,58.683 28.8,57.799875 L28.8,3.199875 L67.2,3.199875 L67.2,84.799875 C67.2,85.683 67.9168125,86.3998125 68.7999375,86.3998125 C69.6830625,86.3998125 70.399875,85.683 70.399875,84.799875 L70.399875,1.5999375 C70.4000625,0.7168125 69.68325,0 68.7999375,0 Z"/>
    </g>
    <path fill="#8D9099" fill-rule="nonzero" d="M5.76375377,65.0807191 C5.24980954,67.8868292 5.1329659,68.5734608 4.98504205,69.8276283 C4.58033986,73.2588822 4.8298558,76.0138468 5.99922286,78.999327 C8.95493387,86.5454746 14.6527473,89.4273187 18.6073076,84.6278925 L18.9492765,84.2128642 L19.4770424,84.1096445 C24.0484807,83.2155696 25.5439054,80.9699084 24.9297543,77.5062991 C24.4276593,74.6746495 22.3541574,71.192905 20.578379,69.6369898 C17.4498761,66.8958343 15.3536073,65.4875719 12.8954692,64.3244083 C12.5110638,64.142512 12.1079388,63.9607596 11.6133669,63.7448326 C11.3090415,63.611966 10.2141039,63.1407603 10.1428594,63.1099327 C9.518086,62.8395923 9.01258524,62.6158784 8.49293647,62.3776072 C7.78578014,62.0533592 7.09139875,61.7190719 6.38418273,61.3596675 C6.23797115,62.4103553 6.04184237,63.562369 5.76375377,65.0807191 Z M3.20585527,80.0934465 C1.8406166,76.6078917 1.54696128,73.3655736 2.00569367,69.4762265 C2.1641958,68.1323715 2.2855672,67.4191325 2.81283914,64.5402537 C3.27696817,62.0061321 3.50117632,60.5520209 3.64727809,58.8697607 L3.84742255,56.5652366 L5.86979673,57.6881309 C7.23174643,58.444334 8.46404815,59.0640285 9.74332954,59.6506093 C10.2406953,59.8786633 10.7276152,60.094154 11.3342171,60.3566316 C11.3990794,60.3846976 12.5008043,60.8588242 12.8137321,60.9954466 C13.3339283,61.222561 13.7633715,61.4161792 14.178631,61.6126754 C16.8986106,62.8997394 19.2253496,64.4628304 22.5554101,67.3805883 C24.826852,69.3707976 27.2577918,73.4527381 27.8836769,76.9825232 C28.7549038,81.8959547 26.3892846,85.6251286 20.5720083,86.9443548 C14.7773575,93.4292903 6.78962717,89.2430798 3.20585527,80.0934465 Z"/>
    <path fill="#8D9099" fill-rule="nonzero" d="M10.3695123,72.1710577 L12.0035345,69.6551142 C15.9848968,72.2408776 20.4768144,79.8033273 25.7364141,92.5016799 L22.9647578,93.6496873 C17.9398523,81.5179617 13.6557282,74.3053464 10.3695123,72.1710577 Z"/>
  </g>
</svg>
