<svg xmlns="http://www.w3.org/2000/svg" width="130" height="81" viewBox="0 0 130 81">
  <g fill="none" fill-rule="evenodd">
    <rect width="126" height="79" x="2" y="2" stroke="#2A313B" stroke-linecap="round" stroke-linejoin="round" stroke-width="4" rx="6"/>
    <rect width="24" height="21" x="95" y="11" stroke="#2A313B" stroke-linecap="round" stroke-linejoin="round" stroke-width="4" rx="2"/>
    <path stroke="#2A313B" stroke-linecap="square" stroke-width="4" d="M74 17.4775638C76.4990266 16.4925213 78.9980532 16 81.4970799 16 87.6647199 16 87.6647199 20 93.83236 20 96.91618 20 98.45809 19 100 18M74 24.4775638C76.4990266 23.4925213 78.9980532 23 81.4970799 23 87.6647199 23 87.6647199 27 93.83236 27 96.91618 27 98.45809 26 100 25"/>
    <path stroke="#2A313B" stroke-linecap="round" stroke-width="4" d="M82,58 C77.2654371,62.3249579 70.7246994,65 63.5,65 C56.2753006,65 49.7345629,62.3249579 45,58"/>
    <path fill="#2A313B" d="M46.2913526 46.1488518C45.482731 44.8708697 45 43.2559023 45 41.5 45 37.3578644 47.6862915 34 51 34 54.3137085 34 57 37.3578644 57 41.5 57 43.2559023 56.517269 44.8708697 55.7086474 46.1488518 54.387583 45.4263435 52.7601768 45 51 45 49.2398232 45 47.612417 45.4263435 46.2913526 46.1488518zM71.2913526 46.1488518C70.482731 44.8708697 70 43.2559023 70 41.5 70 37.3578644 72.6862915 34 76 34 79.3137085 34 82 37.3578644 82 41.5 82 43.2559023 81.517269 44.8708697 80.7086474 46.1488518 79.387583 45.4263435 77.7601768 45 76 45 74.2398232 45 72.612417 45.4263435 71.2913526 46.1488518z"/>
  </g>
</svg>
