<svg xmlns="http://www.w3.org/2000/svg" width="128" height="128" viewBox="0 0 128 128">
  <g fill="none" fill-rule="evenodd">
    <rect width="128" height="128" fill="#F8CE46" rx="64"/>
    <path fill="#2A313B" d="M78.2505723,30.4329825 L77.0087315,17.1866814 C76.9056302,16.0869342 77.7135714,15.1118328 78.8133186,15.0087315 C79.9130658,14.9056302 80.8881672,15.7135714 80.9912685,16.8133186 L84.0679182,49.6309157 L73.9477583,62 L71.75,62 L70,69 L67,69 L67,77.4581779 C74.9580327,78.8751109 81,85.8291227 81,94.1943116 C81,103.583152 73.3888407,111.194312 64,111.194312 C54.6111593,111.194312 47,103.583152 47,94.1943116 C47,92.5374573 48.3431458,91.1943116 50,91.1943116 C51.6568542,91.1943116 53,92.5374573 53,94.1943116 C53,100.269444 57.9248678,105.194312 64,105.194312 C70.0751322,105.194312 75,100.269444 75,94.1943116 C75,88.1191793 70.0751322,83.1943116 64,83.1943116 L61,80.1943116 L61,69 L58,69 L56.25,62 L54.0522417,62 L43.9320818,49.6309157 L47.0087315,16.8133186 C47.1118328,15.7135714 48.0869342,14.9056302 49.1866814,15.0087315 C50.2864286,15.1118328 51.0943698,16.0869342 50.9912685,17.1866814 L49.7494277,30.4329825 C53.230928,26.4881084 58.3248996,24 64,24 C69.6751004,24 74.769072,26.4881084 78.2505723,30.4329825 Z M54,43 C54,48.5228475 58.4771525,53 64,53 C69.5228475,53 74,48.5228475 74,43 C74,37.4771525 69.5228475,33 64,33 C58.4771525,33 54,37.4771525 54,43 Z M72,43 C72,47.418278 68.418278,51 64,51 C59.581722,51 56,47.418278 56,43 C56,38.581722 59.581722,35 64,35 C68.418278,35 72,38.581722 72,43 Z M64,35 C63.4477153,35 63,35.4477153 63,36 L63,50 C63,50.5522847 63.4477153,51 64,51 C64.5522847,51 65,50.5522847 65,50 L65,36 C65,35.4477153 64.5522847,35 64,35 Z"/>
  </g>
</svg>
