<svg xmlns="http://www.w3.org/2000/svg" xmlns:xlink="http://www.w3.org/1999/xlink" width="88" height="73" viewBox="0 0 88 73"><defs><path id="e00va" d="M627.36 391.42a2 2 0 0 1-1.52-.7l-23.42-27.45a2 2 0 0 1 1.52-3.3H616c-.47-9.83-3.72-28.1-21.38-28.1-11.35 0-21.69 8.04-25.72 20a2 2 0 0 1-3.84-1.12c4.62-18.7 19.55-31.75 36.3-31.75 20.15 0 36.4 17.84 37.7 40.97h11.72a2 2 0 0 1 1.53 3.3l-23.43 27.45a2 2 0 0 1-1.52.7z"/></defs><g><g opacity=".25" transform="translate(-565 -319)"><use fill="#fff" xlink:href="#e00va"/></g></g></svg>