<svg xmlns="http://www.w3.org/2000/svg" xmlns:xlink="http://www.w3.org/1999/xlink" width="32" height="32" viewBox="0 0 32 32"><defs><path id="vt5ja" d="M242.5 2418a3.5 3.5 0 1 1 0-7 3.5 3.5 0 0 1 0 7zm0-2a1.5 1.5 0 1 0 0-3 1.5 1.5 0 0 0 0 3zm6.5-1.5a6.5 6.5 0 0 0-13 0c0 2.27 2.14 5.37 6.5 9.18 4.36-3.8 6.5-6.91 6.5-9.18zm-5.85 11.26l-.65.55-.65-.55c-5.2-4.41-7.85-8.12-7.85-11.26a8.5 8.5 0 0 1 17 0c0 3.14-2.65 6.85-7.85 11.26zM242 2432a16 16 0 1 0 0-32 16 16 0 0 0 0 32z"/></defs><g><g transform="translate(-226 -2400)"><g><use fill="#8d9099" xlink:href="#vt5ja"/></g></g></g></svg>