<svg xmlns="http://www.w3.org/2000/svg" xmlns:xlink="http://www.w3.org/1999/xlink" width="95" height="48" viewBox="0 0 95 48"><defs><path id="vj6xc" d="M88.7 3605.32l-1.96-2.83h-2.16v2.83h-2.34v-10.15h4.38c2.7 0 4.4 1.4 4.4 3.68a3.3 3.3 0 0 1-2.08 3.2l2.27 3.27zm-2.2-8.24h-1.92v3.54h1.91c1.44 0 2.16-.66 2.16-1.77 0-1.11-.72-1.77-2.16-1.77z"/><path id="vj6xd" d="M99.54 3603.15h-4.7l-.9 2.17h-2.4l4.51-10.15h2.32l4.53 10.15h-2.46zm-.74-1.8l-1.6-3.87-1.6 3.87z"/><path id="vj6xe" d="M103.95 3595.17h4.6c3.31 0 5.59 2 5.59 5.08 0 3.07-2.28 5.07-5.59 5.07h-4.6zm4.48 8.22c2.02 0 3.33-1.2 3.33-3.14 0-1.95-1.31-3.15-3.33-3.15h-2.14v6.3z"/><path id="vj6xf" d="M122.43 3603.15h-4.7l-.9 2.17h-2.4l4.51-10.15h2.32l4.53 10.15h-2.46zm-.74-1.8l-1.6-3.87-1.6 3.87z"/><path id="vj6xg" d="M133.3 3605.32l-1.96-2.83h-2.16v2.83h-2.34v-10.15h4.38c2.7 0 4.4 1.4 4.4 3.68a3.3 3.3 0 0 1-2.08 3.2l2.27 3.27zm-2.2-8.24h-1.92v3.54h1.91c1.44 0 2.16-.66 2.16-1.77 0-1.11-.72-1.77-2.16-1.77z"/><path id="vj6xh" d="M90.08 3617.95v1.88h-7.84v-10.15h7.65v1.89h-5.32v2.2h4.7v1.83h-4.7v2.35z"/><path id="vj6xi" d="M91.15 3618.83l.8-1.77a5.95 5.95 0 0 0 3.34 1.05c1.39 0 1.95-.46 1.95-1.08 0-1.9-5.89-.6-5.89-4.37 0-1.72 1.4-3.16 4.27-3.16 1.27 0 2.58.3 3.52.9l-.73 1.78a5.71 5.71 0 0 0-2.8-.8c-1.4 0-1.93.53-1.93 1.17 0 1.87 5.9.58 5.9 4.3 0 1.7-1.41 3.15-4.3 3.15a7.2 7.2 0 0 1-4.13-1.17"/><path id="vj6xj" d="M103.13 3611.6H99.9v-1.92h8.83v1.91h-3.25v8.24h-2.34z"/><path id="vj6xk" d="M116.14 3617.66h-4.7l-.9 2.17h-2.4l4.51-10.15h2.32l4.53 10.15h-2.46zm-.74-1.8l-1.6-3.87-1.6 3.87z"/><path id="vj6xl" d="M122.14 3611.6h-3.24v-1.92h8.83v1.91h-3.25v8.24h-2.34z"/><path id="vj6xm" d="M136.83 3617.95v1.88H129v-10.15h7.65v1.89h-5.32v2.2h4.7v1.83h-4.7v2.35z"/><path id="vj6xa" d="M42.87 3613.64h13.41v14.25H42.87z"/><path id="vj6xo" d="M43.29 3613.64l-.42 4.63a9.66 9.66 0 0 1 8.77 9.62h4.64a14.3 14.3 0 0 0-13-14.25"/><path id="vj6xb" d="M43.51 3606.51h19.9v21.37h-19.9z"/><path id="vj6xq" d="M43.93 3606.51l-.42 4.63a16.82 16.82 0 0 1 15.27 16.74h4.64c0-11.2-8.57-20.4-19.5-21.37"/><path id="vj6xr" d="M42.64 3620.76l-.64 7.12h7.14c0-3.73-2.86-6.8-6.5-7.12"/><path id="vj6xs" d="M69 3600.82a38.87 38.87 0 0 1 3.25 3.68l1.77-24.5-28.4 7.7-.18 2.06c8.9.8 17.17 4.65 23.57 11.06"/><path id="vj6xt" d="M44.57 3599.39l-.42 4.63a23.98 23.98 0 0 1 21.76 23.87h4.64a28.6 28.6 0 0 0-25.98-28.5"/><path id="vj6xu" d="M45.2 3592.26l-.41 4.63a31.14 31.14 0 0 1 26.5 20.69l.67-9.14a35.66 35.66 0 0 0-26.75-16.18"/><clipPath id="vj6xn"><use xlink:href="#vj6xa"/></clipPath><clipPath id="vj6xp"><use xlink:href="#vj6xb"/></clipPath></defs><g><g transform="translate(-42 -3580)"><g><use fill="#434345" xlink:href="#vj6xc"/></g><g><use fill="#434345" xlink:href="#vj6xd"/></g><g><use fill="#434345" xlink:href="#vj6xe"/></g><g><use fill="#434345" xlink:href="#vj6xf"/></g><g><use fill="#434345" xlink:href="#vj6xg"/></g><g><use fill="#434345" xlink:href="#vj6xh"/></g><g><use fill="#434345" xlink:href="#vj6xi"/></g><g><use fill="#434345" xlink:href="#vj6xj"/></g><g><use fill="#434345" xlink:href="#vj6xk"/></g><g><use fill="#434345" xlink:href="#vj6xl"/></g><g><use fill="#434345" xlink:href="#vj6xm"/></g><g><g/><g clip-path="url(#vj6xn)"><use fill="#434345" xlink:href="#vj6xo"/></g></g><g><g/><g clip-path="url(#vj6xp)"><use fill="#434345" xlink:href="#vj6xq"/></g></g><g><use fill="#434345" xlink:href="#vj6xr"/></g><g><use fill="#434345" xlink:href="#vj6xs"/></g><g><use fill="#434345" xlink:href="#vj6xt"/></g><g><use fill="#f8ce46" xlink:href="#vj6xu"/></g></g></g></svg>