<svg xmlns="http://www.w3.org/2000/svg" xmlns:xlink="http://www.w3.org/1999/xlink" width="20" height="16" viewBox="0 0 20 16"><defs><path id="legja" d="M44 626h16a2 2 0 0 1 2 1.99 1 1 0 0 0-1.61-.77L52 633.72l-8.39-6.52A1 1 0 0 0 42 628a2 2 0 0 1 2-1.99zm18 14a2 2 0 0 1-.09.59 1 1 0 0 0-.2-.3l-5-7a1 1 0 0 0-.53-.27l5.43-4.23A1 1 0 0 0 62 628zm-2 2H44a2 2 0 0 1-.59-.09 1 1 0 0 0 .3-.2l5-7a1 1 0 0 0 .29-.78l1.77 1.38a2 2 0 0 0 2.46 0l1.77-1.38a1 1 0 0 0 .3.78l5 7a1 1 0 0 0 .29.2 2 2 0 0 1-.59.09zm-18-2v-12c0 .3.14.6.39.79l5.43 4.23a1 1 0 0 0-.53.27l-5 7a1 1 0 0 0-.2.3A2 2 0 0 1 42 640z"/></defs><g><g transform="translate(-42 -626)"><g><use fill="#a4a6ad" xlink:href="#legja"/></g></g></g></svg>