<svg xmlns="http://www.w3.org/2000/svg" xmlns:xlink="http://www.w3.org/1999/xlink" width="32" height="32" viewBox="0 0 32 32"><defs><path id="wx1wa" d="M28 2023a16 16 0 1 1 32 0 16 16 0 0 1-32 0zm6 5a3 3 0 0 0 3 3h14a3 3 0 0 0 3-3v-10-.01a3 3 0 0 0-3-2.99H37a3 3 0 0 0-3 3zm17-11a1 1 0 0 1 .9.58l-7.9 6.15-7.9-6.15a1 1 0 0 1 .9-.58zm-13.59 12l4.3-4.3a1 1 0 0 0 .11-.13l.95.74a2 2 0 0 0 2.46 0l.95-.74a1 1 0 0 0 .11.14l4.3 4.29zm14.59-8.96v7.55l-4.24-4.25zm-16 0l4.24 3.3-4.24 4.25z"/></defs><g><g transform="translate(-28 -2007)"><g><g><use fill="#8d9099" xlink:href="#wx1wa"/></g></g></g></g></svg>