<svg xmlns="http://www.w3.org/2000/svg" xmlns:xlink="http://www.w3.org/1999/xlink" width="104" height="104" viewBox="0 0 104 104"><defs><path id="wigha" d="M916 603a52 52 0 1 1 104 0 52 52 0 0 1-104 0z"/><path id="wighb" d="M932 603a36 36 0 1 1 72 0 36 36 0 0 1-72 0z"/><path id="wighc" d="M948 603a20 20 0 1 1 40 0 20 20 0 0 1-40 0z"/><path id="wighd" d="M958 603a10 10 0 1 1 20 0 10 10 0 0 1-20 0z"/></defs><g><g clip-path="url(#clip-7F636024-DFF2-4ACC-A923-88F030CDDB5A)" transform="translate(-916 -551)"><g><g opacity=".15"><use fill="#2c8cfd" xlink:href="#wigha"/></g><g opacity=".3"><use fill="#2c8cfd" xlink:href="#wighb"/></g><g opacity=".5"><use fill="#2c8cfd" xlink:href="#wighc"/></g><g><use fill="#f8ce46" xlink:href="#wighd"/></g></g></g></g></svg>