<svg xmlns="http://www.w3.org/2000/svg" xmlns:xlink="http://www.w3.org/1999/xlink" width="404" height="248" viewBox="0 0 404 248"><defs><path id="tcrta" d="M228.41 529.14c0-8.56 5.65-15.5 12.61-15.5 6.96 0 12.61 6.94 12.61 15.5 0 8.56-5.65 15.5-12.61 15.5-6.96 0-12.61-6.94-12.61-15.5z"/><path id="tcrtb" d="M195.83 361.53c0-8.56 5.65-15.5 12.61-15.5 6.96 0 12.61 6.94 12.61 15.5 0 8.56-5.65 15.5-12.61 15.5-6.96 0-12.61-6.94-12.61-15.5z"/><path id="tcrtc" d="M67.49 400.53c0-8.56 5.65-15.5 12.61-15.5 6.96 0 12.61 6.94 12.61 15.5 0 8.56-5.65 15.5-12.61 15.5-6.96 0-12.61-6.94-12.61-15.5z"/><path id="tcrtd" d="M185.49 426.53c0-8.56 5.65-15.5 12.61-15.5 6.96 0 12.61 6.94 12.61 15.5 0 8.56-5.65 15.5-12.61 15.5-6.96 0-12.61-6.94-12.61-15.5z"/><path id="tcrte" d="M80.24 473.45c0-8.56 5.65-15.5 12.61-15.5 6.96 0 12.61 6.94 12.61 15.5 0 8.56-5.65 15.5-12.61 15.5-6.96 0-12.61-6.94-12.61-15.5z"/><path id="tcrtf" d="M24.55 430.36c0-12.04 8-21.8 17.86-21.8s17.85 9.76 17.85 21.8c0 12.05-8 21.8-17.85 21.8-9.87 0-17.86-9.75-17.86-21.8z"/><path id="tcrtg" d="M26.65 414.34a4.2 4.2 0 1 1 8.4 0 4.2 4.2 0 0 1-8.4 0z"/><path id="tcrth" d="M282 413.03c0-8.56 5.65-15.5 12.61-15.5 6.96 0 12.61 6.94 12.61 15.5 0 8.55-5.65 15.5-12.61 15.5-6.96 0-12.61-6.95-12.61-15.5z"/><path id="tcrti" d="M291.98 411.19v-2.1h5.78v2.1z"/><path id="tcrtj" d="M-84 552V304h404v248z"/><path id="tcrtl" d="M-146.26 552h525.39V304.01h-525.39z"/><path id="tcrtm" d="M213.86 386.36s10.27-2.88 10.83-3.12c.56-.24 10.93-10.35 10.93-10.35l15.86-38.42s-92.34 31.61-92.97 31.88l-1.81 1.59 40.82 19.18 16.34-.76"/><path id="tcrtn" d="M220.45 426.42l.2-8.15-4.72-17.7-7.89-8.26-15.26 6.98-19.92 6.08-35.95 11.25s43.17 19.89 42.88 20.36c-.3.47 15.05-2.35 15.05-2.35l12.86.1 12.75-8.3"/><path id="tcrto" d="M331.37 452.72l-18.72.2-42.93 22.58 48.83 21.6 48.84-24.44-22.41-9.51-13.61-10.43"/><path id="tcrtp" d="M260.5 490.69l15.31 1.09 17.25-5.52-74.65-32.84c-.6-.26-24.7 6.73-24.7 6.73l37.95 26.3 28.85 4.24"/><path id="tcrtq" d="M331.37 357s3.55 9.42 14.5 11.5c10.93 2.09 20.83 6.68 20.35 8.66-.49 1.98 8.49 6.58 12.1 7.94 3.6 1.35-15.07 10.94-1.4 15.3.73.24 1.47.46 2.21.67v-75.24l-47.76 31.18"/><path id="tcrtr" d="M-125.8 393.31s13.4-8 21.02-13.81c7.62-5.81-13.44-20.2-12.24-20.81 1.2-.62 4.17-8.66 18.81-8.56 14.64.1 33.13-5.25 33.13-5.25l-80.8-19.3-.41.25v75.24c13.21 3.71 28.32 3.73 28.32 3.73l-7.83-11.49"/><path id="tcrts" d="M-92.02 472.77c1.2-1.24 0-2.1 0-2.1s.1-2 0-2.5c-.11-.49 3.45-4.9 7.75-3.96 4.3.94 7.54-6.95 7.5-7.5-.04-.54 21.05-11.19 21.05-11.19l-20.64-11.35-45.4 21.14 23.36 19.86s5.18-1.16 6.38-2.4"/><path id="tcrtt" d="M-4.17 443.2c-1.14 3-14.79 10.33-20.48 13.1-6.57 3.2-10.55 6.67-3.96 8.4 6.58 1.74 13.95 6.27 18.8 5.37 4.86-.9 17.12-.9 17.2.6.09 1.5 5.26 2.61 5.26 2.61s15.63-8.53 19.81-9.07c4.18-.53 5.39-1.76 5.39-1.76L-3.9 442.48l-.27.72"/><path id="tcrtu" d="M-28.86 535.87c-5.3-.48-34.72-17.6-38.94-17.32-4.22.28-30.6 8.7-30.6 8.7l8.3 21.42 29.28 1.03 54.16-3.88-2.04-3.14s-14.86-6.34-20.16-6.81"/><path id="tcrtv" d="M192.03 546.4l-36.2-18.79-18.93 4.8c-.34 1.32-.47 6.46 1.87 7.03 2.34.57 9.53 5.4 10.49 6.3.96.89 6.2 3.97 6.56 5.11.1.34 1.33.75 3.1 1.15h145.43c5.1-.63 10.64-1.15 10.64-1.15l-41.34-14.82-81.62 10.36"/><path id="tcrtw" d="M173.38 305.74c4.16-.17 65.2.58 68.48 1.7 3.29 1.1 34.38 3.18 39.5.82 5.12-2.36 11.71-2.3 16.47-3.28 1.58-.32 4-.67 6.52-.98H158.93c4.2.95 11.51 1.85 14.44 1.74"/><path id="tcrtx" d="M31.1 498.03c-4.88-.55-.7-3.5-4.48-4.51a6.05 6.05 0 0 0-4.73.71c-.44.32-.56.75-.71 1.12-.35.85-3.56.29-4.5.99.15-.11-1.8-.79-2.03-.83-1.62-.3-4.62-.16-5.43.73-.72.8-.3 1.72 1.7 1.97 2.04.24 3.93.7 6 .8.34.17.65.34.96.53.21.14.57.41.95.44.51.05 1.06.01 1.62-.05.9.23 1.8.39 2.94.45 2.29.12 4.77 0 7.05-.07 1.43-.05 2.32-.6 2.4-1.17l.26.03c-.08-.05-.16-.1-.24-.13-.01-.45-.55-.88-1.77-1.01"/><path id="tcrty" d="M115.49 525.86c-1.6-.29-3.27-.59-4.7-1.04-1.55-.48-2.9-.89-4.78-1.03-1-.07-2-.07-3-.07 1 .41 1.92.86 2.84 1.32 1.6.78 3.22 1.43 4.45 2.36 1.37 1.02 2.95 1.15 5.24 1.61.58.12 1.15.25 1.7.4 1.38-.84 3.27-1.63 1.53-2.77-.64-.41-2.32-.6-3.28-.78"/><path id="tcrtz" d="M152.34 315.06c-.41-.95-1.64-1.82-1.85-2.78-.11-.5.23-.93.82-1.34.75-.52.52-.91.2-1.48a2.1 2.1 0 0 1-.17-1.92c-.3-.2-.64-.4-1.02-.57l.3-.3c.84-.89.88-1.8.21-2.67h-10.05c.39.23.77.46 1.2.67.32.16.62.24.87.32a4.5 4.5 0 0 0-1.36 1.15c-.62.98-.29 1.85.68 2.75.54.5 1.45.88 2.44 1.2.3 1.16 1.13 2.3 2.16 3.45l.86.98c-.15.22-.28.44-.24.7.07.4.15.59.55.94.89.8.25 1.39-.47 2.14a15 15 0 0 1-5.29 3.37c-1.7.7-3.29 1.35-4.37 2.3-.19.16-.32.33-.44.5-1.53.83-2.9 1.7-4.01 2.72-.69.62-1.32 1.35-2.08 2.04l-2.33 1.36c-.36.22-.78.44-1.2.67-1.31.35-2.97.37-4.36.65-1.72.35-3.1.9-4.25 1.6-.98.58-1.83 1.19-2.98 1.7-.9.4-2.24.5-3.45.7-2.96.47-6.73 1.67-5.93 3.23a6.36 6.36 0 0 0-.47 2.5l-.06.05c-.13-.01-.5.4-.65.5-.46.24-1.04.44-1.56.66a7.9 7.9 0 0 0-2.79 1.85c-.41.46-.67.9-1.1 1.3-.36.07-.7.14-.94.24-1.63.66-2.8 1.11-4.9 1.38-1.44.19-2.12.66-2.58 1.3-.17.24-.23.47-.32.69-1.34.73-2.55 1.52-3.85 2.27a48.92 48.92 0 0 1-3.58 1.91c-1.56.24-2.92.4-4.1 1-.32.17-.53.39-.7.6-.12.15-.27.28-.43.4-3.86 1.27-7.85 2.66-8.96 4.7-.2.14-.4.28-.54.44-.46.5-.03 1 .36 1.47l.05.17.1.26c-.06.3-.43.6-.51.89-.17.61-.28 1.16-.9 1.72-1.06.96-2.09 2.19-3.95 2.87-1.53.55-3.38.95-5 1.47l-1.12.33c-.75.07-1.47.15-2.09.27-.65.14-1.27.3-1.87.48-.42.04-.85.07-1.3.09-.4.01-.52.29-.1.35 2.7.35 5.82-.41 8.24-1.11 1.08-.22 2.12-.51 3.09-.84.86-.22 1.7-.45 2.48-.77a5.85 5.85 0 0 0 1.92-1.32 8.23 8.23 0 0 0 1.64-1.47c.37-.3.57-.64.7-.99.3-.49.54-1 .76-1.55a9.1 9.1 0 0 1 2.94-3.66c.39-.17.75-.34 1.05-.53a9.75 9.75 0 0 1 2.83-1.3c.87-.25 2-.48 2.5-.93.29-.27.51-.63.83-.94a57.7 57.7 0 0 1 2.38-.82c.53-.06 1.07-.1 1.51-.18a7.62 7.62 0 0 0 3.4-1.48l.09-.06c.7-.28 1.36-.57 1.96-.89 1.67-.88 3.17-1.82 4.81-2.71 1-.55 2.11-1.14 3.32-1.7.2-.07.4-.14.58-.22.75-.3 1.18-.59 2.16-.74.94-.15 1.81-.19 2.7-.41a4.18 4.18 0 0 0 1.55-.78l.06-.02c.87-.68 1.78-1.36 2.52-2.12 1.77-1.78 0-4.08 4.53-5.08 1-.22 2.3-.28 3.15-.63.81-.32 1.58-.66 2.35-1.01a26.56 26.56 0 0 1 5.55-1.98c2.17-.48 4.5-.88 6.2-1.7a7.57 7.57 0 0 0 3.23-2.87c.21-.3.45-.58.7-.87l2.36-1.3c1.54-.82 2.41-1.62 2.97-2.63 3.97-2.28 8.66-4.33 11.62-6.95 1.31-1.16 1.28-2.4.74-3.68"/><path id="tcrtA" d="M115.54 529.01c-2.3-.46-3.87-.59-5.23-1.61-1.24-.93-2.87-1.58-4.46-2.36-.92-.46-1.83-.9-2.84-1.32 1 0 2 0 3 .07 1.89.14 3.23.55 4.78 1.03 1.44.45 3.1.75 4.7 1.04.97.17 2.64.37 3.28.78 1.74 1.14-.14 1.93-1.52 2.76-.55-.14-1.12-.27-1.7-.39zm-82.7-29.87c-.09.56-.98 1.12-2.4 1.17-2.28.07-4.76.2-7.05.07a14.72 14.72 0 0 1-2.94-.45c-.56.06-1.1.1-1.62.05-.38-.03-.74-.3-.95-.44-.3-.19-.62-.36-.96-.52-2.07-.12-3.96-.57-5.99-.81-2-.25-2.43-1.17-1.7-1.97.8-.89 3.8-1.02 5.42-.73.23.04 2.18.72 2.04.83.93-.7 4.14-.14 4.49-1 .15-.36.27-.79.71-1.1 1-.74 2.95-1.2 4.73-.72 3.79 1.01-.4 3.96 4.47 4.5 1.22.14 1.76.57 1.77 1.02l.24.13-.26-.03zm117.11 52.04c-1.65-1.2-3.05-2.32-5.61-3.16-.82-.27-2.07-.38-3.04-.47l-.13-.01c-.47-.03-.93-.07-1.37-.14-1.89-.27-3.91-1.07-4.27-2.03-.34-.94.24-2.07-1.28-2.8-1.46-.7-3.05-1.33-3.94-2.24a3.16 3.16 0 0 1-.79-1.7c-.16-.71-.78-1.23-1.3-1.89-.42-.52-.57-1.33-1.26-1.78-.71-.47-1.7-.82-2.41-1.3-.87-.57-1.26-1.26-1.18-1.92l-.31-.17a5.8 5.8 0 0 0-.35-.2.95.95 0 0 1-.38-.23l.11-.06c.78-.4 1.49-.79 2.12-1.23 2.12-1.5 1.82-3.98-.27-5.43-2.31-1.61-6.92-1.96-10.38-2.81a32.81 32.81 0 0 0-13.16-.52c-.3-.04-.6-.08-.97-.1-1.37-.08-1.53-.1-2.69-.4-1.57-.4-3.2-.76-4.61-1.3-4.79-.29-9.16-1.61-11.39-3.76-1.66-1.6-1.34-3.62-3.5-5.1-2.28-1.58-6.15-2.84-9.47-3.88-3.24-1.03-7.37-1.92-9.67-3.46-.65-.44-1.29-1.1-2.32-1.4-1.13-.3-2.33-.55-3.5-.83-.62-.16-1.32-.32-1.92-.53-.27 0-.54-.02-.82-.05-.6-.06-1.21-.28-1.78-.39-.45-.08-.9-.13-1.36-.17-.47 0-.92-.03-1.33-.08l-.56-.01c-1.47-.02-2.6.27-3.97.42 0-1.15-1.65-1.6-3.31-2.26-1.4-.57-1.82-1.18-3.74-1.5-.71-.11-1.61-.22-2.29-.42l-.01-.08v-.58c-.02-1.57-.75-3.05-2-4.47l.12-.16c2.44-3.36 3.64-6.69 1.15-10.13-2.21-3.05-6.82-6.13-14.23-6.35-3.37-.1-6.79.59-10.12.37-3.88-.25-7.17-1.4-10.94-1.82-3.41-.37-6.73.02-10.15-.04-2.51-.03-4.5-.7-6.24-1.5-1.95-.89-3.64-1.9-5.57-2.8a49.73 49.73 0 0 0-6.74-2.41c-2.17-.65-5.16-1.38-6.21-2.57-1.64-1.86 1.15-3.9 2.74-5.56 1.93-2 2.74-4.23 3.7-6.37.68-1.54 1.15-3.56 3.84-4.63 1.5-.6 1.32-1.46.35-2.06a23.9 23.9 0 0 1 5.13-2.8c.73-.28.84-.68.6-1.03.62-.3 1.22-.62 1.78-.95a8.8 8.8 0 0 0 2.53-2.14c.5-.65.34-1.4.7-2.06.18-.36 1.76-.6 2.44-.8 1.26-1 2.8-2.04 1.93-3.12-.88-1.1-.1-2.09 2.11-2.63.5-.12 1.19-.17 1.64-.33.55-.2.88-.63 1.28-.89.69-.44 1.5-.8 2.28-1.21 1.53-.8 3.23-1.31 4.05-2.35a27.15 27.15 0 0 1 3.69-3.67 7.84 7.84 0 0 0 2.03-2.75c.17-.46.38-1.09.72-1.72 1.13-.6 2.32-1.2 3.1-1.97.86-.86 1.25-1.86 1.91-2.76.76-1.05 2.12-1.96 3-2.98.35-.4.67-.77 1.06-1.12.12-.06.25-.1.4-.15a15.71 15.71 0 0 1 1.82-1.1l.23-.07c1.38-.4 2.35-.55 2.84-1.33.54-.87 1.42-1.64 2.14-2.55.86-1.09.93-2.1.8-3.26-.23-1.94 2.05-3.81 1.18-5.75-.18-.4-.8-.84-1.16-1.22a3.5 3.5 0 0 1-.99-1.92c-.19-1.08 2.25-2.56 3.62-3.34 1.21-.68 2.51-1.3 3.58-2.04.32-.22.57-.44.8-.67 1.47-.68 2.97-1.47 3.33-2.41l.1-.42.11-.55c.3-.46.53-.91.64-1.26.14-.43-.05-.99.03-1.49l.15-.4c.09-.14.23-.28.44-.4.2-.11.02-.29-.3-.25-.9.11-1.2.37-1.45.77-.18.3-.2.62-.25.92-.14.73-.65 1.3-1.3 1.96-.9.92-2.54 1.61-3.24 2.56-.08.12-.18.23-.27.33-.73.3-1.43.58-2.01.85-4.64 2.17-7.34 5.04-7.2 8.13.02.57.39 1.1.8 1.64-.32 1.38-.07 2.83.02 4.28.06 1.12.3 2.27-.44 3.34-.6.86-2.36 1.65-3.74 2.28-1.72.79-3.54 1.52-5.25 2.3-.97.43-1.76.97-2.56 1.48-.4.25-.72.64-.93.92-.14.18-1 1.36-.25.64-1.14 1.07-2.38 2.32-2.06 3.54.19.7-1.18 1.05-1.77 1.68-.76.8-.57 1.58-1.66 2.32-2 1.36-3.07 2.54-3.88 4.17-.69 1.38-2.79 2.6-4.86 3.59-4.04 1.92-10.46 3.71-11.01 6.67-.06.34.2.74.38 1.06l.08.1-.07.02c-1.3.35-2.43.65-3.36 1.22-2.1 1.28-1.57 2.88-3.73 4.15-2.13 1.24-4.93 2.2-7.07 3.44a7.1 7.1 0 0 0-1.53 1.14 8.83 8.83 0 0 0-5.48 3.94l-.07.11c-2.63 1.49-5.7 2.8-8.68 4.14-1.78.3-3.53.62-5.05 1.15a10.3 10.3 0 0 0-4.7 3.14c-.8.86-1.74 1.67-2.59 2.48-1.64 1.01-3.3 2.01-5.1 2.96-2.36 1.24-4.72 2.4-6.12 3.95a7.16 7.16 0 0 0-1.82 4.7 8.25 8.25 0 0 1-1.31 4.5c-1.06 1.6-1.95 3.26-1.53 4.96.78 3.19 5.48 5.45 7.95 8.31 2.46 2.86 4.96 5.6 11.8 6.53 7.61 1.04 13.15-2.55 20.34-2.6.62-.01 1.22 0 1.8.05.77.12 1.54.2 2.32.25 5.17.8 9.56 2.9 14.87 3.5 1.5.16 3.03.1 4.48-.11.44.05.9.09 1.38.12 1.3.1 2.61.17 3.9.33 1.83.23 3.55.8 5.38 1.07 1.4.21 2.84.36 4.3.46l.4.16c1.39.6 1.97 1.48 3.11 2.16 2.33 1.4 6.07 1.67 8.72 2.83 1.32.58 2.33 1.06 4.07 1.36 1.63.28 3.66.04 5.28-.1 2-.17 3.92.02 5.93-.1 1.04-.06 1.9-.23 2.82-.47h.05c.9.18 1.79.4 2.66.63a8 8 0 0 0 2.24.67c1.21.2 2.49.32 3.76.2 1.72-.15 4.37-1.27 6.12-.92 1.76.35 2.97.85 5.01.9.82.02 1.6.01 2.41-.02 1.24-.04 1.06.01 1.95.54 1.22.72 2.71 1.29 3.95 2 1.47.83 3.02 1.37 5.14 1.8.91.18 2.15.3 2.49.73.6.78 1.28 1.47 2.64 2.02 1.29.53 2.75.73 4.28 1.04 1.92.39.78.46.27 1.32-.55.93-.31 1.87.64 2.73.5.45 1.05.89 1.57 1.33.2.2.46.37.73.53-.04.01.01.11.17.33.43.88 1.88 1.57 3.6 2.08l.15.06.4.09 1.04.25c2.84.77 5.05 2.12 7.84 2.96 1.95.6 4.13.83 6.38.7a9.3 9.3 0 0 0 2.13 1.04c1.82.67 3.23 1.53 4.79 2.32 2.48 1.26 3.31 3.01 6.9 3.77 3.3.69 6.16 1.47 8.4 2.78.18.23.5.4.87.53 1.22.76 2.75 1.32 3.96 2.09.3.2.38.44.47.54l-.43.3c-2.75 1.75 1.85 2.85 4 3.8.65.29.57.95.65 1.39a4.67 4.67 0 0 0 1.81 2.82c1.02.83 1.9 1.44 2.29 2.4.4 1 1.18 1.92 2.85 2.61.88.37 1.84.56 2.92.76.43.07 1.55.08 1.85.2.39.17.73.36 1.06.55h10.05a4.28 4.28 0 0 0-.88-.82z"/><path id="tcrtB" d="M-50.22 422.37l16.34 7.76-.41 2.46 20.27 9.26 4.3-.24 99.03 47.05c-2.2.95-12.1 5.29-22.05 10.66l-4.45.26-10.46 6.22.98 2c-.9.65-1.75 1.3-2.55 1.94A1595.15 1595.15 0 0 0 29 527.52l-26.9 21-121.64-91.6 43.83-21.85zM-133.1 552a264.2 264.2 0 0 0-13.19-15.83v9.95c1.63 1.98 3.2 3.94 4.72 5.88h8.47M12.62 365.95l1.5.37a54013.75 54013.75 0 0 1 118.22 51.73l-90.8 44.4-47.63-22.63.5-2.15-19.59-9.14-4.85-.09-16.98-8.06zm153.23 66.83l2.7 1.19 12.17 5.36a4.33 4.33 0 0 0-.55 2.07c0 4.64 7.99 8.4 17.8 8.4 1.93 0 3.8-.15 5.54-.42 36.48 16.12 63.77 28.26 84.05 37.37-15.43 5.65-20.18 4.62-30.58 2.38-2.47-.54-5.27-1.14-8.52-1.72-9.03-1.62-16.2-1.86-22.78-.99-1.3.18-2.6.4-3.87.66a67.32 67.32 0 0 0-9.68 2.8 141.95 141.95 0 0 0-12.94 5.6 173.06 173.06 0 0 0-14.49 7.96l-1.44.9-2.49-.24c-17.57-1.47-41.48 1.08-47.73 1.8l-87.8-41.7 90.95-44.46 29.66 13.04zm32.12 2.7c2.51 0 4.94.36 7 1.02 3.47 1.1 5.54 2.94 5.54 4.9 0 3.27-5.63 5.92-12.54 5.92-6.92 0-12.54-2.65-12.54-5.92 0-3.26 5.62-5.91 12.54-5.91zm9.38-45.44a6266.5 6266.5 0 0 1-46.95-22.62l169.55-58.49a78085.25 78085.25 0 0 0 11.39 3.96l33.37 11.6-151.65 97.34c.16-3.92-.04-10.33-2.3-16.6-.21-.6-.44-1.19-.7-1.78-2.27-5.3-6.16-10.32-12.71-13.41zm-308.87 85.1L-.95 550.9l-1.4 1.1h6.14l28.2-22.02 45.06 16.7L71.6 552h5.83l6.2-6.04-48.96-18.14A1566.2 1566.2 0 0 1 55.3 511c.79-.62 1.63-1.26 2.53-1.9h3.39l10.16-6.23-.3-1.81a307.1 307.1 0 0 1 21.94-10.63l38.42 18.25 1.47-.19c.43-.05 42.6-5.28 57.61-.03l6.88 2.4 3.06 1.07 19.94 6.93 3.1 1.08 43.61 15.16 3.74 1.3 44.9 15.61h8.86l-4.04-1.4-3.07-1.07-14.8-5.15-3.06-1.06-49.57-17.23-3-1.04a56063.4 56063.4 0 0 1-53.42-18.6 36.5 36.5 0 0 0-5.07-1.32c3.67-2.29 10.6-6.35 19.43-10.28 13.32-5.93 22.05-8.08 38.59-5.12 3.09.55 5.8 1.13 8.19 1.65 6.02 1.3 10.78 2.33 16.9 1.94 5.49-.34 11.51-1.82 19.72-4.84a5081.23 5081.23 0 0 1 19.96 9.03c21.12 9.62 29.21 13.57 31.4 14.88A98.22 98.22 0 0 1 357.07 523c7.94 6.93 15.45 15.11 22.05 23.12v-9.95c-9.1-10.05-19.45-19.64-30.17-26.08-2.51-1.5-11-5.58-25.37-12.17l55.54-27.68v-5.4l-61.2 30.49a6391.15 6391.15 0 0 0-48.5-21.81 16288.1 16288.1 0 0 0-37.52-16.68l-2.67-1.18-18.76-8.3c3.26-1.51 5.28-3.63 5.28-5.96 0-2.13-1.7-4.15-4.7-5.68l2.78-1.68 48.1-30.89 117.19 31.06v-2.84l-114.05-30.23 114.05-73.21v-4.99L324.61 304h-8.86l9.76 3.4-168.8 58.23c-16-7.76-29.26-14.23-29.55-14.37L123.4 353a24557.8 24557.8 0 0 0 67.43 32.68l2.6 1.25c4.08 1.96 7.59 3.64 10.22 4.87 17.17 8.1 14 32.6 13.86 33.62l-9.95 6.38-2.98 1.81a35.8 35.8 0 0 0-6.6-.6c-5.37 0-10.19 1.13-13.45 2.92a40941 40941 0 0 0-57.23-25.17l-2.74-1.2a50100.89 50100.89 0 0 0-40.22-17.62c-37.99-16.63-64.78-28.31-65.25-28.52l-.4-.17-1.58-.38L77.43 304H71.6l-59.17 57.72-62.92-15.37c1.74-1.34 9-7 18.61-14.5l1.04-.81 6.13-4.8 1.98-1.54L3.79 304h-6.14l-3.15 2.45-2.06 1.62-13.6 10.6-1.9 1.5-15.84 12.36c-.65.51-1.29 1-1.9 1.5a6488.66 6488.66 0 0 1-14.36 11.18l-59.43-14.52a242.42 242.42 0 0 0-2.94-4.66c-3.4-5.26-8.8-13.26-15.57-22.03h-8.47a333.72 333.72 0 0 1 17.25 24.32l-21.97-5.37v4.98l.9-.57 24.16 5.9c.04.07 58.3 14.24 58.3 14.24l68.56 16.74-60.07 54.82-48.02 23.93-43.83-11.62v2.84l40.1 10.63-40.1 20v5.4l23.02-11.47z"/><path id="tcrtC" d="M267.68 393.2l2.23-1.44-33.14-18.18 30.58-15.7 40.03 9.83 2.2-1.42-39.65-9.74 38.37-19.7 45.04 1.35 2.6-1.66-25.37-.76 10.77-22.89-3.24-1.13-11.25 23.9-20.06-.6-68.58 35.22 15.52-35.06-4.43 1.53-16.53 37.3 34.9 19.14"/><path id="tcrtD" d="M330.54 386.6l33.53 3.23-9.8 13.88-40.04-5.97 16.3-11.15zm26.08 19.28l12.25-17.36-36.06-3.48 12.26-8.38-3.03-.99-48.35 33.05 3.22.86 15.14-10.35z"/><path id="tcrtE" d="M295.83 459.8l-42.01-15.45c8.04-4.56 17.17-9.72 25.88-14.64l42.96 16.22-26.83 13.87zm61.03-31.49a60285.1 60285.1 0 0 0-31.7 16.34l-43.1-16.27 24-13.53-3.26-.87c-17.02 9.58-61.98 34.93-73.56 41.68l2.67 1.18c3.49-2.03 10.73-6.15 19.56-11.16l41.87 15.4a3671.17 3671.17 0 0 0-23.9 12.44l2.65 1.18c11.5-6.05 60.29-31.21 88.06-45.52z"/><path id="tcrtF" d="M282.32 511.05l16.08-7.5 45.65 22.32-16.94 6.66zm28.75 27.78a9222.65 9222.65 0 0 0-52.86-16.54l21.5-10.02 44.56 21.37zm37.02-12.29l9-3.54-1.81-1.54-8.4 3.3-45.86-22.43 10.35-4.82-2.65-1.2-61.64 28.74 3 1.04 5.46-2.55c3.66 1.07 32.14 10.01 52.58 16.45l-8.48 3.33 3.05 1.06 42.43-16.67 7.55 8.81-35.17 13 3.08 1.08 36.54-13.52z"/><path id="tcrtG" d="M191.45 547.2l79.4-10.8-3.74-1.3-74.5 10.13-16.87-8.67 47.76-16.63-3.1-1.08-47.16 16.43-14.73-7.57 41.96-15.8-3.07-1.06-44.26 16.67 38.3 19.68"/><path id="tcrtH" d="M-6.81 508.39c-13.55 3.57-28.74 7.44-33.26 8.38l1.97 1.48c2.46-.53 7.08-1.63 16.22-3.97 6.61-1.69 13.15-3.4 15.72-4.08l21.35 8.95-36.4 11.82 1.96 1.48 37.28-12.12 13.04 5.47 1.86-1.54-38.6-16.17-1.14.3"/><path id="tcrtI" d="M-111.93 521.35l-7.22-12.68 45.7-12.37-1.95-1.47-44.74 12.1-11.26-19.75 31.83-10.56-1.95-1.47-34.1 11.31 29.96 52.56 3.55-.45-8.85-15.52 56.27-12.63-1.97-1.48-55.27 12.4"/><path id="tcrtJ" d="M111.84 457.4l-27.69-12.22-2.55 1.25 27.65 12.2-38.6 17.64 2.6 1.23 63.04-28.8 34.95 15.68-64.07 29.23 2.59 1.24 23.65-10.8 47.37 20.05c.84.07 1.67.15 2.48.24l1.45-.9-48.65-20.6 14.13-6.44 46.47 20.34c.82-.42 1.66-.84 2.53-1.26l-46.36-20.28 11.8-5.38 44.64 21.16c.96-.39 1.92-.76 2.86-1.1l-44.86-21.27 6.64-3.03 47.9 21.5c1.27-.26 2.56-.48 3.88-.66l-86.75-38.93 29.6-13.52-2.69-1.19-55.13 25.18 1.12-.56"/><path id="tcrtK" d="M54 421.17c-1.55 2.16-6.9 6.66-23.57 15.83a14.4 14.4 0 0 0-1.26.72l3.11.93-.06.04 1-.56c13.7-7.53 21.86-13.05 24.26-16.4 3.74-5.21 9.4-6.85 19.19-8.2 7.99-1.1 21.23-5.83 27.08-8.02l-2.73-1.2c-5.88 2.2-18.26 6.58-25.38 7.56-10.77 1.48-17.4 3.4-21.64 9.3"/><path id="tcrtL" d="M102.82 400.03l32.63-15.64 26.3 11.76-37.2 13.4 2.74 1.2 66.12-23.83-2.6-1.24-26.1 9.4-26.68-11.92 23.89-11.45-2.57-1.24-59.23 28.37 2.7 1.19"/><path id="tcrtM" d="M64 344.18c9.14 0 20.23-1.43 29.9-6.71 22.3-12.2 43.42-27.3 43.63-27.45l-3.07-.95c-.12.08-6.7 4.8-16.36 11.04L72.11 309.2l-1.6 1.56 45.39 10.78a465.69 465.69 0 0 1-15.9 9.77l.28-.27-40.67-9.65-1.6 1.57 40.02 9.5c-2.28 1.3-4.6 2.61-6.92 3.88-8.86 4.85-20 6.83-33.09 5.9a92.04 92.04 0 0 1-16.9-2.8L39.5 341a98.16 98.16 0 0 0 24.5 3.18"/><path id="tcrtN" d="M-24.82 305.94c-10.53.27-19.89 5.33-22.1 6.61l-34.5-7.47-36.1 20.95 1.3 2.04 15.68-9.6 59.73 15.55 1.9-1.49-59.36-15.44 17.91-9.82 57.3 12.9 1.9-1.5-22.38-5.31c2.65-1.47 10.62-5.48 18.92-5.7 6.86-.17 13.29.15 17.06.4l2.07-1.6c-3.54-.28-11.06-.74-19.33-.52"/><path id="tcrtO" d="M27.06 309.82l-3.09-.94-25.44 18.57-21.26-2.75-1.98 1.55 24.87 3.2 26.9-19.63"/><path id="tcrtP" d="M-62.27 422.96l2.53-1.26-58.83-27.5 16.14-12.57 57.42 28.83 1.79-1.64-57.23-28.73 14.88-11.6c5.3 2.5 34.96 17.76 55.45 28.37l1.8-1.64c-4.36-2.26-15.32-7.92-26.27-13.55-21.6-11.11-27.3-13.93-29.04-14.7l13.58-10.58L-5.5 374.4l1.69-1.54-64.32-17.97 8.48-6.6-3.28-.8-60.28 46.98 60.95 28.48"/><path id="tcrtQ" d="M-138.91 423.64l.32 1.73 31.43-1.31 14.06 14.27 2.72-1.36-14.54-14.75-34 1.42"/><path id="tcrtR" d="M23.94 431.36v-17.62h-3.68v16.98c-1.45.8-6.21 3.44-10.93 6.1a319.62 319.62 0 0 0-9.8 5.67l2.61 1.24c3.5-2.18 14.33-8.25 21.36-12.13l.44-.24"/><path id="tcrtS" d="M97.12 511.96l37.27 14.26 2.32-1.35-34.45-13.18c5.48-3.28 12.56-7.5 15.77-9.4l-2.61-1.23c-4.2 2.48-15.65 9.31-17.17 10.22l-1.13.68"/><path id="tcrtT" d="M358.15 446.24c.52.59 7.07 10.09 11.35 16.33l3.5-.53c-2.4-3.51-9.94-14.5-11.32-16.3.55-1.42 7.29-10 10.18-13.45l-3.23-.86c-1.28 1.54-3.49 4.27-5.55 6.93-5.6 7.21-5.33 7.49-4.93 7.88"/><path id="tcrtU" d="M211.73 310.65l-2.83-1.1c-18.33 10.5-31 17.76-39.76 22.8l-14.36-4.81-2.13 1.41 14.15 4.74c-17.26 9.93-17.36 10.06-17.45 10.19-.35.47.07.74 1.32 1.53l2.93 1.8a3675.06 3675.06 0 0 0 20.79 12.32l2.97-1.03c-8.54-5-21.02-12.39-24.01-14.3 4.01-2.36 23.1-13.32 40.37-23.22l63.09 10.11 3.62-1.25-64.22-10.3c5.67-3.25 11.06-6.33 15.52-8.9"/><path id="tcrtV" d="M299.83 308.55l-.98-1.67-34.92 4.53 13.27 12.65 3.02-1.04-11.01-10.5 30.62-3.97"/><path id="tcrtW" d="M106.66 533.7c1.06 1.37 10.27 10.32 11.33 11.35l3.3-.76c-4.16-4.05-10.58-10.37-11.19-11.2-.28-.4-.76-1.05-11.61-4.4a555.44 555.44 0 0 0-13.21-3.9c-2.89-.79-22.73-8.54-31.98-12.2l-1.88 1.53c6.93 2.73 28.6 11.24 32 12.18 7.44 2.06 21.83 6.4 23.24 7.4"/><path id="tcrtX" d="M-60.93 548.82l-50.75-1.82-.28 1.73 50.95 1.83h.2l54.64-3.59-2.14-1.61-52.62 3.46"/><path id="tcrtY" d="M-4.06 503.47l1.12-1.66-26.75-4.02-30.44 3.86 2.04 1.54 28.31-3.6 25.72 3.88"/><path id="tcrtZ" d="M-64.94 441.78l1.5.88 23.9-15.22-2.63-1.24-21.39 13.62c-3.8-2.26-7.57-4.63-9.57-6.04l-2.59 1.3c1 .69 2.34 1.55 3.98 2.58 3.3 2.07 6.77 4.1 6.8 4.12"/><path id="tcrtaa" d="M-15.52 416.89L-11 409l17.7-7.12-2.38-1.32-18.58 7.47-4.59 7.98c-5.67 2.87-14.13 7.17-17.97 9.2l2.6 1.23c3.54-1.86 12.47-6.41 18.38-9.4l.3-.16"/><path id="tcrtab" d="M-6.84 338.7l1.66-1.55-25.66-6.12-1.04.81-.87.68 25.9 6.18"/><path id="tcrtac" d="M90.1 370.96l12.7-11-3.23-.83-13.62 11.8 14.07 13.31-15.69 7.69 2.7 1.18 17.44-8.55-14.37-13.6"/><path id="tcrtad" d="M53.29 354.73a852.9 852.9 0 0 0-11.54-2.59c-3.4-.73-6.15-1.3-8.18-1.67a48 48 0 0 0-3.24-.52l-1.62 1.59c1.35.08 13.27 2.5 22.95 4.75l1.63-1.56"/><path id="tcrtae" d="M239.68 400.05l-10.13-13.97-3.48.56 9.17 12.64a819.8 819.8 0 0 1-15.18 4.17c.26.6.49 1.19.7 1.78 3.63-.86 13.23-3.57 17.65-4.82l1.27-.36"/><path id="tcrtaf" d="M222.95 448.27l3.47.58 7.8-10.43-15.27-7.67-2.22 1.43 13.27 6.66-7.05 9.43"/><path id="tcrtag" d="M330.16 316.5l-7.75-.66-5.55 14.45 7.75.66 5.55-14.45"/><path id="tcrtah" d="M319.32 354.59l23.07-12.87-6.02-2.4-23.07 12.87 6.02 2.4"/><path id="tcrtai" d="M304.89 363.22l4.87-2.93-16.77-6.22 22.84-12.84-6.03-2.4-28.08 15.8 23.17 8.59"/><path id="tcrtaj" d="M241 374.62l11.03 5.41 5.68-2.58-11.04-5.4-5.67 2.57"/><path id="tcrtak" d="M267.54 387.34l5.56-2.63-11.12-5.23-5.56 2.64 11.12 5.22"/><path id="tcrtal" d="M282.35 380.23l18.18-12-17.52-5.34-4.27 3.12 10.57 3.22-13.37 8.83 6.4 2.17"/><path id="tcrtam" d="M267.51 360.1l-16.98 8.15 5.61 2.61 16.99-8.14-5.62-2.61"/><path id="tcrtan" d="M314.8 384.6l6.51 2.1c6.45-4.43 14.21-9.78 14.6-10.1l-6.8-1.88.04-.03c-.56.42-8.88 6.15-14.34 9.91"/><path id="tcrtao" d="M305.2 390.38l-13.94 9.81 6.55 2.07 13.94-9.8-6.54-2.08"/><path id="tcrtap" d="M347.49 414.5l-37.03-10.16-3.96 3.22 37.02 10.16 3.97-3.21"/><path id="tcrtaq" d="M354.76 416.16l-3.96 3.22 19.92 5.45 3.95-3.22-19.91-5.45"/><path id="tcrtar" d="M328.56 398.2l10.92-7.73-6.56-2.07-10.92 7.73 6.56 2.06"/><path id="tcrtas" d="M356.5 391.83l-7.44-1.22-6.22 8.44 7.44 1.22 6.22-8.44"/><path id="tcrtat" d="M231.33 433.34l34.12-22.51 18.23 3.74 3.15-3.4-24.08-4.96-37.83 24.96 6.41 2.17"/><path id="tcrtau" d="M304.86 417.65l-18.32 10.69 15.15 5.78 4.96-2.9-9.02-3.44 13.36-7.79-6.13-2.34"/><path id="tcrtav" d="M301.2 440.87l-20.28-8.45-21.36 11.07 16.73 7.28 24.9-9.9"/><path id="tcrtaw" d="M295.91 456.5l18.21-9.03-5.7-2.57-18.21 9.03 5.7 2.56"/><path id="tcrtax" d="M240.37 455.9l6.03 2.4 11.4-6.4-6.04-2.4-11.4 6.4"/><path id="tcrtay" d="M273.12 468.73l-20.3-9.45-5.53 2.65 20.3 9.45 5.53-2.65"/><path id="tcrtaz" d="M341.58 521.2l6.45-2.14-9.92-6.67-24.95-11.8-5.58 2.63 24.47 11.57 9.53 6.41"/><path id="tcrtaA" d="M299.3 497.38l-5.24-2.78-29.29 12.31 5.24 2.78 29.3-12.31"/><path id="tcrtaB" d="M244.95 516.94l-20.05-6.25-4.34 3.1 25.48 7.95 16.98-8.2-5.64-2.6-12.43 6"/><path id="tcrtaC" d="M278.43 514.95l-13.2 6.93 5.86 2.48 13.2-6.93-5.86-2.48"/><path id="tcrtaD" d="M293.7 509.73l-5.68 2.58 18.52 9.1 5.69-2.57-18.53-9.1"/><path id="tcrtaE" d="M330.91 526.99l-13.1-6.3-5.63 2.6 13.1 6.3 5.63-2.6"/><path id="tcrtaF" d="M282.91 523.2l15.46 8.66 6.03-2.4-15.46-8.66-6.03 2.4"/><path id="tcrtaG" d="M339.26 533.47l-26.18 10.59 5.13 2.82 26.18-10.58-5.13-2.83"/><path id="tcrtaH" d="M335.3 547.04l4.65 3 19.47-6.7-4.65-3.01-19.47 6.71"/><path id="tcrtaI" d="M182.3 536.72l11.76 6.92 6.15-2.33-11.77-6.92-6.15 2.33"/><path id="tcrtaJ" d="M197.28 533.08l14.17 8.06 6.07-2.38-14.18-8.06-6.06 2.38"/><path id="tcrtaK" d="M220.43 526.28l29.77 10.12 4.6-3.02-29.77-10.12-4.6 3.02"/><path id="tcrtaL" d="M187.9 526.2l19.59-7.76-5.07-2.85-19.59 7.76 5.07 2.85"/><path id="tcrtaM" d="M166.5 527.87l4.46 3.07 9.5-3.08-4.44-3.07-9.51 3.08"/><path id="tcrtaN" d="M16.12 549.56l6.77 1.9 12.74-10.08 20.62 4.15 3.09-3.43-26.96-5.42-16.26 12.88"/><path id="tcrtaO" d="M-32.62 520.81l10.46 6.87 6.4-2.17-10.46-6.87-6.4 2.17"/><path id="tcrtaP" d="M-10.9 524.2l6.44-2.15-9.98-6.67-6.43 2.15 9.97 6.66"/><path id="tcrtaQ" d="M14.53 522.52l-27.84 10.13 4.8 2.95 27.85-10.13-4.8-2.95"/><path id="tcrtaR" d="M-51.94 505.67l10.67 8.35 6.75-1.92-10.66-8.35-6.76 1.92"/><path id="tcrtaS" d="M-130.64 515.12l-7.52 1.11 8.43 12.65 7.51-1.12-8.42-12.64"/><path id="tcrtaT" d="M-124.76 533.09l9.2 11.13 7.34-1.35-9.2-11.13-7.34 1.35"/><path id="tcrtaU" d="M-137.59 496.54l-7.71.76 6.36 14.32 7.72-.76-6.37-14.32"/><path id="tcrtaV" d="M-112.16 501.4l-8.49-14.06-7.58 1.02 8.49 14.06 7.58-1.02"/><path id="tcrtaW" d="M-91.07 494.45l6.9-1.79-14.98-12.9-3.4.8-12.69 3 1.67 1.68 1.32 1.75c.29-.05.33-.06 9.84-2.3l11.34 9.76"/><path id="tcrtaX" d="M-115.45 509.7l8.24 8.73 43.04-9.36-11.26-8.86-40.02 9.49"/><path id="tcrtaY" d="M221.34 505.51l15.95 6.1 25.48-12.55-25.44-8.07-18.69 7.54-7-2.74-11.46 6.5 15.87 6.23 5.29-3"/><path id="tcrtaZ" d="M24.74 471.93l5.42 2.7 9.46-4.23-5.42-2.7-9.46 4.23"/><path id="tcrtba" d="M79.9 488.05l-33.8-15.19-5.43 2.7 33.8 15.18 5.44-2.7"/><path id="tcrtbb" d="M34.95 488.13l5.8 2.53 9.04-4.63-5.8-2.52-9.04 4.62"/><path id="tcrtbc" d="M62.4 490.91l-6.16-2.32-8.06 4.78 6.17 2.32 8.06-4.78"/><path id="tcrtbd" d="M87.7 432.25l-31.07 14.08-14.47-7.23-22.5 10.04 21.31 10.65 22.5-10.04-1.43-.71 31.12-14.11-5.46-2.68"/><path id="tcrtbe" d="M52.44 436.6l12.44-8.79-6.56-2.06-12.43 8.78 6.55 2.07"/><path id="tcrtbf" d="M71.64 420.3l21.44-3.35-2.48-3.53-25.16 3.93-4.4 6.08 7.46 1.2 3.14-4.33"/><path id="tcrtbg" d="M100.62 412.74l19.16 7.36 4.98-2.88-19.17-7.36-4.97 2.88"/><path id="tcrtbh" d="M61.28 412.1l19.3-8.28-20.52-10.02-5.67 2.59 14.87 7.25-13.29 5.7 5.3 2.76"/><path id="tcrtbi" d="M-21.2 409l-7.04-1.68-13.5 12.69 7.04 1.67L-21.2 409"/><path id="tcrtbj" d="M23.07 378.89v-3.72H8.37l-32.04 27.88 6.93 1.78 29.8-25.94h10"/><path id="tcrtbk" d="M-113.45 429.62l9.28 9.72 7.18-1.53-11.54-12.09-24.56.84.57 3.71 19.07-.65"/><path id="tcrtbl" d="M98.27 391.93l5.44 2.7 29.8-13.4-5.44-2.69-29.8 13.4"/><path id="tcrtbm" d="M60 379.1c4.43 1.8 20.9 9.6 21.06 9.67l5.58-2.63c-.69-.32-16.84-7.96-21.48-9.85l-5.15 2.81"/><path id="tcrtbn" d="M83.9 373.04l-7.12 1.6 10.1 10.04 7.12-1.6-10.1-10.04"/><path id="tcrtbo" d="M144.71 372.07l-24.34-12.49-5.8 2.52 24.34 12.5 5.8-2.53"/><path id="tcrtbp" d="M179.72 386.95l-5.63-2.6-11.05 5.33 5.63 2.6 11.05-5.33"/><path id="tcrtbq" d="M149.51 385.05l11.47-4.94-5.31-2.74-11.47 4.93 5.31 2.75"/><path id="tcrtbr" d="M115.44 398.33l-5.5 2.67 13.67 6.28 5.5-2.66-13.67-6.29"/><path id="tcrtbs" d="M131.29 390.98l15.84 7.19 5.46-2.68-15.84-7.2-5.46 2.69"/><path id="tcrtbt" d="M223.88 312.23l-6.33-2.2-8.93 5.7 6.34 2.2 8.92-5.7"/><path id="tcrtbu" d="M259.04 323.8l-32.03-4.64-2.31 3.55 32.03 4.64 2.31-3.56"/><path id="tcrtbv" d="M261.69 339.86a3978 3978 0 0 1 34-10.95l-4.41-3.08a3451.96 3451.96 0 0 0-34.6 11.16l5.01 2.87"/><path id="tcrtbw" d="M221.04 327.7l-25.77-4.47-2.72 3.49 25.78 4.46 2.71-3.49"/><path id="tcrtbx" d="M211.2 340.63l4.78 2.96 23.87-8.59-4.78-2.95-23.86 8.58"/><path id="tcrtby" d="M186.96 332.93l-5.66-2.59-15.27 7.44 5.66 2.59 15.27-7.44"/><path id="tcrtbz" d="M182 352.32l-13.65-9.23-6.47 2.14 13.67 9.22 6.46-2.13"/><path id="tcrtbA" d="M78.48 330.34l-16.53-3.58-3.29 3.39 16.54 3.57 3.28-3.38"/><path id="tcrtbB" d="M50.85 336.55l14.38 3.07 3.25-3.4-14.39-3.06-3.24 3.39"/><path id="tcrtbC" d="M99.04 325.73l-28.59-7.33-3.76 3.27L95.27 329l3.77-3.27"/><path id="tcrtbD" d="M92.92 318.4l-16.12-4.15-3.77 3.27 16.1 4.15 3.79-3.26"/><path id="tcrtbE" d="M102 308.46l-6.7-1.95-5.18 3.95 6.7 1.96 5.18-3.96"/><path id="tcrtbF" d="M18.53 338.92l7.14 1.58 9.92-10.01 1.18.25 19.2-19.93L36 306.5l-19.21 19.94 11.64 2.5-9.89 9.97"/><path id="tcrtbG" d="M8.7 355.53l8.02-8.44-7.19-1.53-4.83 5.1-34.93-7.2-3.15 3.4 42.07 8.67"/><path id="tcrtbH" d="M-76.37 311.75l-6.58-2.05-8.3 5.95 6.57 2.05 8.3-5.95"/><path id="tcrtbI" d="M-94.42 324.92l-6.53-2.08-9.53 6.68 6.54 2.08 9.52-6.68"/><path id="tcrtbJ" d="M-97.91 332.39l6.53 2.08 9.53-6.69-6.54-2.07-9.52 6.68"/><path id="tcrtbK" d="M-85.34 335.25l6.54 2.08 9.53-6.68-6.54-2.08-9.53 6.68"/><path id="tcrtbL" d="M-72.77 338.12l6.53 2.08 9.53-6.68-6.53-2.08-9.53 6.68"/><path id="tcrtbM" d="M-31.29 321.63L-38 319.7l-9.22 7.1 6.72 1.95 9.22-7.1"/><path id="tcrtbN" d="M-54.99 326.6l3.83-3.25L-75.4 317l-3.82 3.26 24.23 6.34"/><path id="tcrtbO" d="M-61.88 354.1l27.71 7.25 3.82-3.26-27.71-7.24-3.82 3.25"/><path id="tcrtbP" d="M-4.21 364.35l-18.7-4.55-3.62 3.3 18.71 4.55 3.6-3.3"/><path id="tcrtbQ" d="M-77.88 366.83l19.23 10.09 5.86-2.5-19.23-10.08-5.86 2.5"/><path id="tcrtbR" d="M-51.75 380.4l19.52 10.7 5.97-2.42-19.51-10.71-5.98 2.42"/><path id="tcrtbS" d="M-12.4 376.08l-6.92-1.77-7.56 6.58 6.93 1.77 7.56-6.58"/><path id="tcrtbT" d="M-62.92 364.07l33.13 9.85 4.2-3.15-33.13-9.85-4.2 3.15"/><path id="tcrtbU" d="M-96 379.94l6.58 2.05 9.24-6.62-6.58-2.04-9.24 6.6"/><path id="tcrtbV" d="M-71.2 379.93l-10.26 7.19 6.53 2.07 10.26-7.19-6.53-2.07"/><path id="tcrtbW" d="M-41.35 402.31l-22.08-11.44-5.83 2.5 22.09 11.45 5.82-2.5"/><path id="tcrtbX" d="M-104.83 388.5l26.18 13.56 5.82-2.5L-99 385.98l-5.83 2.5"/><path id="tcrtbY" d="M-86.1 401.39l-20.5-9.29-5.46 2.69 20.5 9.28 5.46-2.68"/><path id="tcrtbZ" d="M-80.32 409.44l16.64 8.29 5.72-2.56-16.64-8.29-5.72 2.56"/><path id="tcrtca" d="M-89.9 415.54l-11.69 3.97 11.97 13.24 20.99-8.41-21.27-8.8"/><path id="tcrtcb" d="M-40.67 437.12l-6.67-1.99-7.2 5.4 6.68 1.98 7.19-5.4"/><path id="tcrtcc" d="M-131.07 481.33l18.26-6.82-7.91-10.51-7.43 1.25 6.03 8-13.83 5.16 4.88 2.92"/><path id="tcrtcd" d="M-118.12 448.4l-5.93-2.44-17.67 9.53 5.93 2.45 17.67-9.54"/><path id="tcrtce" d="M363.17 459.18l-14.3-11.06-6.73 1.94 14.3 11.06 6.73-1.94"/><path id="tcrtcf" d="M363.99 489.65l-6.5-2.1-19 13.09 23.57 8.73 4.87-2.93-17.76-6.58 14.82-10.21"/><path id="tcrtcg" d="M186.59 512.95l-4.9-2.91-16.62 6.2 4.89 2.93 16.63-6.22"/><path id="tcrtch" d="M144.41 523.68l4.9 2.92 13.4-5.01-4.89-2.92-13.4 5.01"/><path id="tcrtci" d="M81.48 478.92l19.11 9.58 5.74-2.55-19.11-9.59-5.74 2.56"/><path id="tcrtcj" d="M138.21 455.72l-5.32-2.74-43.72 18.93 5.33 2.74 43.71-18.93"/><path id="tcrtck" d="M157.4 468.93l-5.24-2.78-41.08 17.23 5.23 2.78 41.08-17.23"/><path id="tcrtcl" d="M165.06 463.92l-17.86-7.29-5.16 2.82 17.86 7.29 5.16-2.82"/><path id="tcrtcm" d="M177.2 461l5.24-2.79-25.3-10.65 15.58-7.7-5.7-2.57-21.2 10.49 31.38 13.21"/><path id="tcrtcn" d="M165.8 487.69l-16.11-7.83-5.65 2.6 16.1 7.82 5.65-2.6"/><path id="tcrtco" d="M188.11 496.85l-16.36-7.5-5.49 2.67 16.36 7.5 5.49-2.67"/><path id="tcrtcp" d="M182.17 481.2l-16.02-8.42-5.86 2.48 16.01 8.42 5.87-2.49"/><path id="tcrtcq" d="M181.49 485.79l16 6.89 5.3-2.75-16-6.89-5.3 2.75"/><path id="tcrtcr" d="M195.3 481.4l14.58 6.29 5.32-2.75-14.58-6.29-5.31 2.75"/><path id="tcrtcs" d="M115.04 495.94l19.81 8.11 5.17-2.81-19.82-8.11-5.16 2.8"/><path id="tcrtct" d="M57.54 520.23l-6.93-1.77-10.69 9.3 6.93 1.77 10.69-9.3"/><path id="tcrtcu" d="M69.62 524l-6.93-1.77-10.71 9.3 6.92 1.77 10.72-9.3"/><path id="tcrtcv" d="M76.09 526.66l-13.14 8.67 6.41 2.16 13.14-8.66-6.41-2.17"/><path id="tcrtcw" d="M74 538.34l5.68 2.58 16.23-7.97-5.68-2.58L74 538.34"/><path id="tcrtcx" d="M34.68 515.49l-15.91-5.52-4.67 3 15.91 5.52 4.67-3"/><path id="tcrtcy" d="M110.83 454.69l5.73-2.55-17.88-8.96-5.74 2.55 17.89 8.96"/><path id="tcrtcz" d="M79.42 450.57l-27.44 13.47 5.68 2.58 27.44-13.47-5.68-2.58"/><path id="tcrtcA" d="M143.8 435.23l-26.83 11.7 5.35 2.73 26.83-11.7-5.35-2.73"/><path id="tcrtcB" d="M105.99 442.5l23.64-11.96-5.76-2.54-23.64 11.97 5.76 2.54"/><path id="tcrtcC" d="M132.91 425.89l21.07 8.95 5.28-2.77-21.08-8.95-5.27 2.77"/><path id="tcrtcD" d="M40.3 507.48l-7.13-1.59-4.38 4.4 7.13 1.58 4.38-4.4"/><path id="tcrtcE" d="M109.76 405.78l-13.24-5.47 65.77-30.04-4.84-2.3 18.61-6.7 32.38 15.47"/><path id="tcrtcF" d="M42.22 452.03l-14 5.98 103.7 49.45c34.67-5.35 50.58-.76 53.72-2.6 32.82-19.22 50.06-17.47 50.06-17.47s24.32 3.65 34.9 4.86c8.18.94 20.66-6.24 20.66-6.24l-24-10.34 57.7-29.83-37.34-13.94 6.54-3.37"/><path id="tcrtcG" d="M42.41 452.23l13.34 5.67 81.6-40.12-27.2-11.85-29.64 10.72"/><path id="tcrtcH" d="M229.99 544.64c0-1.16 4.94-2.1 11.03-2.1 6.1 0 11.03.94 11.03 2.1 0 1.16-4.94 2.1-11.03 2.1-6.1 0-11.03-.94-11.03-2.1z"/><path id="tcrtcK" d="M239.88 527.83c-.29.5-.82.79-1.75.79s-1.46-.3-1.75-.8h-.09a2.1 2.1 0 0 1-1.46-3.6 1.57 1.57 0 0 1 1.1-2.13c-.1-.16-.16-.36-.16-.57a1.05 1.05 0 0 1 1.16-1.04c.38-.66.83-1.06 1.2-1.06s.82.4 1.2 1.06h.11a1.05 1.05 0 0 1 .89 1.6 1.58 1.58 0 0 1 1.1 2.14 2.1 2.1 0 0 1-1.55 3.6z"/><path id="tcrtcL" d="M245.87 528.74c-.2.36-.55.58-1.17.58-.62 0-.97-.22-1.17-.58h-.06c-.77 0-1.4-.7-1.4-1.54 0-.44.16-.83.43-1.11a1.25 1.25 0 0 1-.08-.43c0-.55.35-1.01.81-1.13a.82.82 0 0 1-.1-.42c0-.42.3-.77.7-.77h.07c.25-.48.55-.77.8-.77.24 0 .54.3.8.78h.07c.4 0 .7.34.7.76 0 .16-.04.3-.1.42.46.12.8.58.8 1.13 0 .15-.02.3-.07.43.26.28.43.67.43 1.1 0 .86-.63 1.55-1.4 1.55h-.06z"/><path id="tcrtcM" d="M238.4 528.35v4.73"/><path id="tcrtcN" d="M244.7 528.88v3.68"/><path id="tcrtcO" d="M197.4 377.03c0-1.16 4.95-2.1 11.04-2.1 6.1 0 11.03.94 11.03 2.1 0 1.16-4.94 2.1-11.03 2.1-6.1 0-11.03-.94-11.03-2.1z"/><path id="tcrtcR" d="M207.3 360.22c-.29.5-.82.79-1.75.79s-1.46-.3-1.75-.8h-.09a2.1 2.1 0 0 1-1.46-3.6 1.57 1.57 0 0 1 1.1-2.13c-.1-.16-.16-.36-.16-.57a1.05 1.05 0 0 1 1.16-1.04c.38-.66.83-1.06 1.2-1.06s.82.4 1.2 1.06h.11a1.05 1.05 0 0 1 .89 1.6 1.58 1.58 0 0 1 1.1 2.14 2.1 2.1 0 0 1-1.55 3.6z"/><path id="tcrtcS" d="M213.29 361.13c-.2.36-.55.58-1.17.58-.62 0-.97-.22-1.17-.58h-.06c-.77 0-1.4-.7-1.4-1.54 0-.44.16-.83.43-1.11a1.25 1.25 0 0 1-.08-.43c0-.55.35-1.01.81-1.13a.82.82 0 0 1-.1-.42c0-.42.3-.77.7-.77h.07c.25-.48.55-.77.8-.77.24 0 .54.3.8.78h.07c.4 0 .7.34.7.76 0 .16-.04.3-.1.42.46.12.8.58.8 1.13 0 .15-.02.3-.07.43.26.28.43.67.43 1.1 0 .86-.63 1.55-1.4 1.55h-.06z"/><path id="tcrtcT" d="M205.81 360.74v4.73"/><path id="tcrtcU" d="M212.12 361.27v3.68"/><path id="tcrtcV" d="M69.07 416.03c0-1.16 4.94-2.1 11.03-2.1 6.1 0 11.03.94 11.03 2.1 0 1.16-4.94 2.1-11.03 2.1-6.1 0-11.03-.94-11.03-2.1z"/><path id="tcrtcY" d="M85.88 403.95H74.32l1.05-8.94h9.46z"/><path id="tcrtcZ" d="M77.47 396.06v-2.62a2.63 2.63 0 0 1 5.26 0v2.62"/><path id="tcrtda" d="M187.07 442.03c0-1.16 4.94-2.1 11.03-2.1 6.1 0 11.03.94 11.03 2.1 0 1.16-4.94 2.1-11.03 2.1-6.1 0-11.03-.94-11.03-2.1z"/><path id="tcrtdd" d="M193.37 421.34a4 4 0 0 1 4-4h1.46a4 4 0 0 1 4 4v5.98h-9.46z"/><path id="tcrtde" d="M193.37 419.96v-1.05h9.46v1.05z"/><path id="tcrtdf" d="M193.37 424.17v-1.05h9.46v1.05z"/><path id="tcrtdg" d="M194.95 425.48a.79.79 0 1 1 1.57 0 .79.79 0 0 1-1.57 0z"/><path id="tcrtdh" d="M199.68 425.48a.79.79 0 1 1 1.57 0 .79.79 0 0 1-1.57 0z"/><path id="tcrtdi" d="M194.92 427.85l-1.02 2.72"/><path id="tcrtdj" d="M201.78 427.85l1.02 2.72"/><path id="tcrtdk" d="M81.82 488.95c0-1.16 4.94-2.1 11.03-2.1 6.1 0 11.03.94 11.03 2.1 0 1.16-4.94 2.1-11.03 2.1-6.1 0-11.03-.94-11.03-2.1z"/><path id="tcrtdn" d="M86.02 469.3a4 4 0 0 1 4-4h1.46a4 4 0 0 1 4 4v4.94h-9.46z"/><path id="tcrtdo" d="M97.05 468.46a1.58 1.58 0 1 1 3.16 0 1.58 1.58 0 0 1-3.16 0z"/><path id="tcrtdp" d="M98.1 475.82v-5.78h1.06v5.78z"/><path id="tcrtdq" d="M97.05 476.34c0-.29.24-.52.53-.52h2.1c.3 0 .53.23.53.52 0 .3-.24.53-.53.53h-2.1a.53.53 0 0 1-.53-.53z"/><path id="tcrtdr" d="M86.02 470.56v-1.05h9.46v1.05z"/><path id="tcrtds" d="M87.6 472.14a1.05 1.05 0 1 1 2.1 0 1.05 1.05 0 0 1-2.1 0z"/><path id="tcrtdt" d="M91.8 472.14a1.05 1.05 0 1 1 2.1 0 1.05 1.05 0 0 1-2.1 0z"/><path id="tcrtdu" d="M86.55 474.76h2.1v1.1a1 1 0 0 1-1 1h-.1a1 1 0 0 1-1-1z"/><path id="tcrtdv" d="M92.85 474.76h2.1v1.1a1 1 0 0 1-1 1h-.1a1 1 0 0 1-1-1z"/><path id="tcrtdw" d="M31.9 451.12c0-1.16 4.94-2.1 11.03-2.1 6.1 0 11.03.94 11.03 2.1 0 1.16-4.94 2.1-11.03 2.1-6.1 0-11.03-.94-11.03-2.1z"/><path id="tcrtdz" d="M32.95 422.64c0-1.1.9-2 2-2h15.43a2 2 0 0 1 2 2v12.82a2 2 0 0 1-2 2H34.95a2 2 0 0 1-2-2z"/><path id="tcrtdA" d="M50.8 425.9v-2.1h-1.57v2.1z"/><path id="tcrtdB" d="M50.8 429.58v-2.1h-1.57v2.1z"/><path id="tcrtdC" d="M50.8 433.25v-2.1h-1.57v2.1z"/><path id="tcrtdD" d="M34.53 425.9v-2.1h1.57v2.1z"/><path id="tcrtdE" d="M34.53 429.58v-2.1h1.57v2.1z"/><path id="tcrtdF" d="M34.53 433.25v-2.1h1.57v2.1z"/><path id="tcrtdG" d="M37.68 417.39c0-1.1.9-2 2-2h5.98a2 2 0 0 1 2 2v18.07a2 2 0 0 1-2 2h-5.98a2 2 0 0 1-2-2z"/><path id="tcrtdH" d="M39.25 421.17v-2.63h1.58v2.63z"/><path id="tcrtdI" d="M39.25 425.9v-2.63h1.58v2.63z"/><path id="tcrtdJ" d="M39.25 430.63V428h1.58v2.63z"/><path id="tcrtdK" d="M41.88 421.17v-2.63h1.58v2.63z"/><path id="tcrtdL" d="M41.88 425.9v-2.63h1.58v2.63z"/><path id="tcrtdM" d="M41.88 430.63V428h1.58v2.63z"/><path id="tcrtdN" d="M44.5 421.17v-2.63h1.58v2.63z"/><path id="tcrtdO" d="M44.5 425.9v-2.63h1.58v2.63z"/><path id="tcrtdP" d="M44.5 430.63V428h1.58v2.63z"/><path id="tcrtdQ" d="M40.83 436.4v-4.2h3.68v4.2z"/><path id="tcrtdT" d="M27.7 414.34l2.1 1.58 3.14-3.16"/><path id="tcrtdU" d="M283.58 428.53c0-1.16 4.94-2.1 11.03-2.1 6.1 0 11.03.94 11.03 2.1 0 1.16-4.94 2.1-11.03 2.1-6.1 0-11.03-.94-11.03-2.1z"/><path id="tcrtdY" d="M297.76 413.81v-7.35h1.58v7.35z"/><path id="tcrtdZ" d="M299.34 412.24v-4.2h1.58v4.2z"/><path id="tcrtea" d="M300.92 411.19v-2.1h1.57v2.1z"/><path id="tcrteb" d="M286.73 413.81v-7.35h1.57v7.35z"/><path id="tcrtec" d="M288.3 412.24v-4.2h1.58v4.2z"/><path id="tcrted" d="M289.88 411.19v-2.1h1.58v2.1z"/><radialGradient id="tcrtcI" cx="241.02" cy="544.64" r="10.69" gradientUnits="userSpaceOnUse"><stop offset="0" stop-opacity=".86"/><stop offset=".22" stop-opacity=".5"/><stop offset=".5" stop-opacity=".2"/><stop offset=".7" stop-opacity=".14"/><stop offset="1" stop-opacity="0"/></radialGradient><clipPath id="tcrtcJ"><use fill="#fff" xlink:href="#tcrta"/></clipPath><radialGradient id="tcrtcP" cx="208.44" cy="377.03" r="10.69" gradientUnits="userSpaceOnUse"><stop offset="0" stop-opacity=".86"/><stop offset=".22" stop-opacity=".5"/><stop offset=".5" stop-opacity=".2"/><stop offset=".7" stop-opacity=".14"/><stop offset="1" stop-opacity="0"/></radialGradient><clipPath id="tcrtcQ"><use fill="#fff" xlink:href="#tcrtb"/></clipPath><radialGradient id="tcrtcW" cx="80.1" cy="416.03" r="10.69" gradientUnits="userSpaceOnUse"><stop offset="0" stop-opacity=".86"/><stop offset=".22" stop-opacity=".5"/><stop offset=".5" stop-opacity=".2"/><stop offset=".7" stop-opacity=".14"/><stop offset="1" stop-opacity="0"/></radialGradient><clipPath id="tcrtcX"><use fill="#fff" xlink:href="#tcrtc"/></clipPath><radialGradient id="tcrtdb" cx="198.1" cy="442.03" r="10.69" gradientUnits="userSpaceOnUse"><stop offset="0" stop-opacity=".86"/><stop offset=".22" stop-opacity=".5"/><stop offset=".5" stop-opacity=".2"/><stop offset=".7" stop-opacity=".14"/><stop offset="1" stop-opacity="0"/></radialGradient><clipPath id="tcrtdc"><use fill="#fff" xlink:href="#tcrtd"/></clipPath><radialGradient id="tcrtdl" cx="92.85" cy="488.95" r="10.69" gradientUnits="userSpaceOnUse"><stop offset="0" stop-opacity=".86"/><stop offset=".22" stop-opacity=".5"/><stop offset=".5" stop-opacity=".2"/><stop offset=".7" stop-opacity=".14"/><stop offset="1" stop-opacity="0"/></radialGradient><clipPath id="tcrtdm"><use fill="#fff" xlink:href="#tcrte"/></clipPath><radialGradient id="tcrtdx" cx="42.93" cy="451.12" r="10.69" gradientUnits="userSpaceOnUse"><stop offset="0" stop-opacity=".86"/><stop offset=".22" stop-opacity=".5"/><stop offset=".5" stop-opacity=".2"/><stop offset=".7" stop-opacity=".14"/><stop offset="1" stop-opacity="0"/></radialGradient><clipPath id="tcrtdy"><use fill="#fff" xlink:href="#tcrtf"/></clipPath><mask id="tcrtdS" width="2" height="2" x="-1" y="-1"><path fill="#fff" d="M26 410h10v9H26z"/><use xlink:href="#tcrtg"/></mask><filter id="tcrtdR" width="34" height="34" x="14" y="398" filterUnits="userSpaceOnUse"><feOffset dy="1" in="SourceGraphic" result="FeOffset2335Out"/><feGaussianBlur in="FeOffset2335Out" result="FeGaussianBlur2336Out" stdDeviation="0.8 0.8"/></filter><radialGradient id="tcrtdV" cx="294.61" cy="428.53" r="10.69" gradientUnits="userSpaceOnUse"><stop offset="0" stop-opacity=".86"/><stop offset=".22" stop-opacity=".5"/><stop offset=".5" stop-opacity=".2"/><stop offset=".7" stop-opacity=".14"/><stop offset="1" stop-opacity="0"/></radialGradient><clipPath id="tcrtdW"><use fill="#fff" xlink:href="#tcrth"/></clipPath><clipPath id="tcrtdX"><use fill="#fff" xlink:href="#tcrti"/></clipPath><clipPath id="tcrtk"><use xlink:href="#tcrtj"/></clipPath></defs><g><g transform="translate(84 -304)"><g><use fill="#fff" xlink:href="#tcrtj"/></g><g clip-path="url(#tcrtk)"><g><g opacity=".75"><g opacity=".75"><g opacity=".75"><use fill="#fff7ef" xlink:href="#tcrtl"/></g><g opacity=".75"><g opacity=".75"><use fill="#c1e1b2" xlink:href="#tcrtm"/></g><g opacity=".75"><use fill="#c1e1b2" xlink:href="#tcrtn"/></g><g opacity=".75"><use fill="#c1e1b2" xlink:href="#tcrto"/></g><g opacity=".75"><use fill="#c1e1b2" xlink:href="#tcrtp"/></g><g opacity=".75"><use fill="#c1e1b2" xlink:href="#tcrtq"/></g><g opacity=".75"><use fill="#c1e1b2" xlink:href="#tcrtr"/></g><g opacity=".75"><use fill="#c1e1b2" xlink:href="#tcrts"/></g><g opacity=".75"><use fill="#c1e1b2" xlink:href="#tcrtt"/></g><g opacity=".75"><use fill="#c1e1b2" xlink:href="#tcrtu"/></g><g opacity=".75"><use fill="#c1e1b2" xlink:href="#tcrtv"/></g><g opacity=".75"><use fill="#c1e1b2" xlink:href="#tcrtw"/></g><g opacity=".75"><use fill="#c1e1b2" xlink:href="#tcrtx"/></g><g opacity=".75"><use fill="#c1e1b2" xlink:href="#tcrty"/></g></g><g opacity=".75"><g opacity=".75"><use fill="#9ccee1" xlink:href="#tcrtz"/></g><g opacity=".75"><use fill="#9ccee1" xlink:href="#tcrtA"/></g></g><g opacity=".75"><use fill="#fbdf89" xlink:href="#tcrtB"/></g><g opacity=".75"><g opacity=".75"><use fill="#fff" xlink:href="#tcrtC"/><use fill="#fff" fill-opacity="0" stroke="#e4d7ca" stroke-miterlimit="50" stroke-width="2" xlink:href="#tcrtC"/></g><g opacity=".75"><use fill="#fff" xlink:href="#tcrtD"/><use fill="#fff" fill-opacity="0" stroke="#e4d7ca" stroke-miterlimit="50" stroke-width="2" xlink:href="#tcrtD"/></g><g opacity=".75"><use fill="#fff" xlink:href="#tcrtE"/><use fill="#fff" fill-opacity="0" stroke="#e4d7ca" stroke-miterlimit="50" stroke-width="2" xlink:href="#tcrtE"/></g><g opacity=".75"><use fill="#fff" xlink:href="#tcrtF"/><use fill="#fff" fill-opacity="0" stroke="#e4d7ca" stroke-miterlimit="50" stroke-width="2" xlink:href="#tcrtF"/></g><g opacity=".75"><use fill="#fff" xlink:href="#tcrtG"/><use fill="#fff" fill-opacity="0" stroke="#e4d7ca" stroke-miterlimit="50" stroke-width="2" xlink:href="#tcrtG"/></g><g opacity=".75"><use fill="#fff" xlink:href="#tcrtH"/><use fill="#fff" fill-opacity="0" stroke="#e4d7ca" stroke-miterlimit="50" stroke-width="2" xlink:href="#tcrtH"/></g><g opacity=".75"><use fill="#fff" xlink:href="#tcrtI"/><use fill="#fff" fill-opacity="0" stroke="#e4d7ca" stroke-miterlimit="50" stroke-width="2" xlink:href="#tcrtI"/></g><g opacity=".75"><use fill="#fff" xlink:href="#tcrtJ"/><use fill="#fff" fill-opacity="0" stroke="#e4d7ca" stroke-miterlimit="50" stroke-width="2" xlink:href="#tcrtJ"/></g><g opacity=".75"><use fill="#fff" xlink:href="#tcrtK"/><use fill="#fff" fill-opacity="0" stroke="#e4d7ca" stroke-miterlimit="50" stroke-width="2" xlink:href="#tcrtK"/></g><g opacity=".75"><use fill="#fff" xlink:href="#tcrtL"/><use fill="#fff" fill-opacity="0" stroke="#e4d7ca" stroke-miterlimit="50" stroke-width="2" xlink:href="#tcrtL"/></g><g opacity=".75"><use fill="#fff" xlink:href="#tcrtM"/><use fill="#fff" fill-opacity="0" stroke="#e4d7ca" stroke-miterlimit="50" stroke-width="2" xlink:href="#tcrtM"/></g><g opacity=".75"><use fill="#fff" xlink:href="#tcrtN"/><use fill="#fff" fill-opacity="0" stroke="#e4d7ca" stroke-miterlimit="50" stroke-width="2" xlink:href="#tcrtN"/></g><g opacity=".75"><use fill="#fff" xlink:href="#tcrtO"/><use fill="#fff" fill-opacity="0" stroke="#e4d7ca" stroke-miterlimit="50" stroke-width="2" xlink:href="#tcrtO"/></g><g opacity=".75"><use fill="#fff" xlink:href="#tcrtP"/><use fill="#fff" fill-opacity="0" stroke="#e4d7ca" stroke-miterlimit="50" stroke-width="2" xlink:href="#tcrtP"/></g><g opacity=".75"><use fill="#fff" xlink:href="#tcrtQ"/><use fill="#fff" fill-opacity="0" stroke="#e4d7ca" stroke-miterlimit="50" stroke-width="2" xlink:href="#tcrtQ"/></g><g opacity=".75"><use fill="#fff" xlink:href="#tcrtR"/><use fill="#fff" fill-opacity="0" stroke="#e4d7ca" stroke-miterlimit="50" stroke-width="2" xlink:href="#tcrtR"/></g><g opacity=".75"><use fill="#fff" xlink:href="#tcrtS"/><use fill="#fff" fill-opacity="0" stroke="#e4d7ca" stroke-miterlimit="50" stroke-width="2" xlink:href="#tcrtS"/></g><g opacity=".75"><use fill="#fff" xlink:href="#tcrtT"/><use fill="#fff" fill-opacity="0" stroke="#e4d7ca" stroke-miterlimit="50" stroke-width="2" xlink:href="#tcrtT"/></g><g opacity=".75"><use fill="#fff" xlink:href="#tcrtU"/><use fill="#fff" fill-opacity="0" stroke="#e4d7ca" stroke-miterlimit="50" stroke-width="2" xlink:href="#tcrtU"/></g><g opacity=".75"><use fill="#fff" xlink:href="#tcrtV"/><use fill="#fff" fill-opacity="0" stroke="#e4d7ca" stroke-miterlimit="50" stroke-width="2" xlink:href="#tcrtV"/></g><g opacity=".75"><use fill="#fff" xlink:href="#tcrtW"/><use fill="#fff" fill-opacity="0" stroke="#e4d7ca" stroke-miterlimit="50" stroke-width="2" xlink:href="#tcrtW"/></g><g opacity=".75"><use fill="#fff" xlink:href="#tcrtX"/><use fill="#fff" fill-opacity="0" stroke="#e4d7ca" stroke-miterlimit="50" stroke-width="2" xlink:href="#tcrtX"/></g><g opacity=".75"><use fill="#fff" xlink:href="#tcrtY"/><use fill="#fff" fill-opacity="0" stroke="#e4d7ca" stroke-miterlimit="50" stroke-width="2" xlink:href="#tcrtY"/></g><g opacity=".75"><use fill="#fff" xlink:href="#tcrtZ"/><use fill="#fff" fill-opacity="0" stroke="#e4d7ca" stroke-miterlimit="50" stroke-width="2" xlink:href="#tcrtZ"/></g><g opacity=".75"><use fill="#fff" xlink:href="#tcrtaa"/><use fill="#fff" fill-opacity="0" stroke="#e4d7ca" stroke-miterlimit="50" stroke-width="2" xlink:href="#tcrtaa"/></g><g opacity=".75"><use fill="#fff" xlink:href="#tcrtab"/><use fill="#fff" fill-opacity="0" stroke="#e4d7ca" stroke-miterlimit="50" stroke-width="2" xlink:href="#tcrtab"/></g><g opacity=".75"><use fill="#fff" xlink:href="#tcrtac"/><use fill="#fff" fill-opacity="0" stroke="#e4d7ca" stroke-miterlimit="50" stroke-width="2" xlink:href="#tcrtac"/></g><g opacity=".75"><use fill="#fff" xlink:href="#tcrtad"/><use fill="#fff" fill-opacity="0" stroke="#e4d7ca" stroke-miterlimit="50" stroke-width="2" xlink:href="#tcrtad"/></g><g opacity=".75"><use fill="#fff" xlink:href="#tcrtae"/><use fill="#fff" fill-opacity="0" stroke="#e4d7ca" stroke-miterlimit="50" stroke-width="2" xlink:href="#tcrtae"/></g><g opacity=".75"><use fill="#fff" xlink:href="#tcrtaf"/><use fill="#fff" fill-opacity="0" stroke="#e4d7ca" stroke-miterlimit="50" stroke-width="2" xlink:href="#tcrtaf"/></g></g><g opacity=".75"><g opacity=".75"><use fill="#f4ebe2" xlink:href="#tcrtag"/></g><g opacity=".75"><use fill="#f4ebe2" xlink:href="#tcrtah"/></g><g opacity=".75"><use fill="#f4ebe2" xlink:href="#tcrtai"/></g><g opacity=".75"><use fill="#f4ebe2" xlink:href="#tcrtaj"/></g><g opacity=".75"><use fill="#f4ebe2" xlink:href="#tcrtak"/></g><g opacity=".75"><use fill="#f4ebe2" xlink:href="#tcrtal"/></g><g opacity=".75"><use fill="#f4ebe2" xlink:href="#tcrtam"/></g><g opacity=".75"><use fill="#f4ebe2" xlink:href="#tcrtan"/></g><g opacity=".75"><use fill="#f4ebe2" xlink:href="#tcrtao"/></g><g opacity=".75"><use fill="#f4ebe2" xlink:href="#tcrtap"/></g><g opacity=".75"><use fill="#f4ebe2" xlink:href="#tcrtaq"/></g><g opacity=".75"><use fill="#f4ebe2" xlink:href="#tcrtar"/></g><g opacity=".75"><use fill="#f4ebe2" xlink:href="#tcrtas"/></g><g opacity=".75"><use fill="#f4ebe2" xlink:href="#tcrtat"/></g><g opacity=".75"><use fill="#f4ebe2" xlink:href="#tcrtau"/></g><g opacity=".75"><use fill="#f4ebe2" xlink:href="#tcrtav"/></g><g opacity=".75"><use fill="#f4ebe2" xlink:href="#tcrtaw"/></g><g opacity=".75"><use fill="#f4ebe2" xlink:href="#tcrtax"/></g><g opacity=".75"><use fill="#f4ebe2" xlink:href="#tcrtay"/></g><g opacity=".75"><use fill="#f4ebe2" xlink:href="#tcrtaz"/></g><g opacity=".75"><use fill="#f4ebe2" xlink:href="#tcrtaA"/></g><g opacity=".75"><use fill="#f4ebe2" xlink:href="#tcrtaB"/></g><g opacity=".75"><use fill="#f4ebe2" xlink:href="#tcrtaC"/></g><g opacity=".75"><use fill="#f4ebe2" xlink:href="#tcrtaD"/></g><g opacity=".75"><use fill="#f4ebe2" xlink:href="#tcrtaE"/></g><g opacity=".75"><use fill="#f4ebe2" xlink:href="#tcrtaF"/></g><g opacity=".75"><use fill="#f4ebe2" xlink:href="#tcrtaG"/></g><g opacity=".75"><use fill="#f4ebe2" xlink:href="#tcrtaH"/></g><g opacity=".75"><use fill="#f4ebe2" xlink:href="#tcrtaI"/></g><g opacity=".75"><use fill="#f4ebe2" xlink:href="#tcrtaJ"/></g><g opacity=".75"><use fill="#f4ebe2" xlink:href="#tcrtaK"/></g><g opacity=".75"><use fill="#f4ebe2" xlink:href="#tcrtaL"/></g><g opacity=".75"><use fill="#f4ebe2" xlink:href="#tcrtaM"/></g><g opacity=".75"><use fill="#f4ebe2" xlink:href="#tcrtaN"/></g><g opacity=".75"><use fill="#f4ebe2" xlink:href="#tcrtaO"/></g><g opacity=".75"><use fill="#f4ebe2" xlink:href="#tcrtaP"/></g><g opacity=".75"><use fill="#f4ebe2" xlink:href="#tcrtaQ"/></g><g opacity=".75"><use fill="#f4ebe2" xlink:href="#tcrtaR"/></g><g opacity=".75"><use fill="#f4ebe2" xlink:href="#tcrtaS"/></g><g opacity=".75"><use fill="#f4ebe2" xlink:href="#tcrtaT"/></g><g opacity=".75"><use fill="#f4ebe2" xlink:href="#tcrtaU"/></g><g opacity=".75"><use fill="#f4ebe2" xlink:href="#tcrtaV"/></g><g opacity=".75"><use fill="#f4ebe2" xlink:href="#tcrtaW"/></g><g opacity=".75"><use fill="#f4ebe2" xlink:href="#tcrtaX"/></g><g opacity=".75"><use fill="#f4ebe2" xlink:href="#tcrtaY"/></g><g opacity=".75"><use fill="#f4ebe2" xlink:href="#tcrtaZ"/></g><g opacity=".75"><use fill="#f4ebe2" xlink:href="#tcrtba"/></g><g opacity=".75"><use fill="#f4ebe2" xlink:href="#tcrtbb"/></g><g opacity=".75"><use fill="#f4ebe2" xlink:href="#tcrtbc"/></g><g opacity=".75"><use fill="#f4ebe2" xlink:href="#tcrtbd"/></g><g opacity=".75"><use fill="#f4ebe2" xlink:href="#tcrtbe"/></g><g opacity=".75"><use fill="#f4ebe2" xlink:href="#tcrtbf"/></g><g opacity=".75"><use fill="#f4ebe2" xlink:href="#tcrtbg"/></g><g opacity=".75"><use fill="#f4ebe2" xlink:href="#tcrtbh"/></g><g opacity=".75"><use fill="#f4ebe2" xlink:href="#tcrtbi"/></g><g opacity=".75"><use fill="#f4ebe2" xlink:href="#tcrtbj"/></g><g opacity=".75"><use fill="#f4ebe2" xlink:href="#tcrtbk"/></g><g opacity=".75"><use fill="#f4ebe2" xlink:href="#tcrtbl"/></g><g opacity=".75"><use fill="#f4ebe2" xlink:href="#tcrtbm"/></g><g opacity=".75"><use fill="#f4ebe2" xlink:href="#tcrtbn"/></g><g opacity=".75"><use fill="#f4ebe2" xlink:href="#tcrtbo"/></g><g opacity=".75"><use fill="#f4ebe2" xlink:href="#tcrtbp"/></g><g opacity=".75"><use fill="#f4ebe2" xlink:href="#tcrtbq"/></g><g opacity=".75"><use fill="#f4ebe2" xlink:href="#tcrtbr"/></g><g opacity=".75"><use fill="#f4ebe2" xlink:href="#tcrtbs"/></g><g opacity=".75"><use fill="#f4ebe2" xlink:href="#tcrtbt"/></g><g opacity=".75"><use fill="#f4ebe2" xlink:href="#tcrtbu"/></g><g opacity=".75"><use fill="#f4ebe2" xlink:href="#tcrtbv"/></g><g opacity=".75"><use fill="#f4ebe2" xlink:href="#tcrtbw"/></g><g opacity=".75"><use fill="#f4ebe2" xlink:href="#tcrtbx"/></g><g opacity=".75"><use fill="#f4ebe2" xlink:href="#tcrtby"/></g><g opacity=".75"><use fill="#f4ebe2" xlink:href="#tcrtbz"/></g><g opacity=".75"><use fill="#f4ebe2" xlink:href="#tcrtbA"/></g><g opacity=".75"><use fill="#f4ebe2" xlink:href="#tcrtbB"/></g><g opacity=".75"><use fill="#f4ebe2" xlink:href="#tcrtbC"/></g><g opacity=".75"><use fill="#f4ebe2" xlink:href="#tcrtbD"/></g><g opacity=".75"><use fill="#f4ebe2" xlink:href="#tcrtbE"/></g><g opacity=".75"><use fill="#f4ebe2" xlink:href="#tcrtbF"/></g><g opacity=".75"><use fill="#f4ebe2" xlink:href="#tcrtbG"/></g><g opacity=".75"><use fill="#f4ebe2" xlink:href="#tcrtbH"/></g><g opacity=".75"><use fill="#f4ebe2" xlink:href="#tcrtbI"/></g><g opacity=".75"><use fill="#f4ebe2" xlink:href="#tcrtbJ"/></g><g opacity=".75"><use fill="#f4ebe2" xlink:href="#tcrtbK"/></g><g opacity=".75"><use fill="#f4ebe2" xlink:href="#tcrtbL"/></g><g opacity=".75"><use fill="#f4ebe2" xlink:href="#tcrtbM"/></g><g opacity=".75"><use fill="#f4ebe2" xlink:href="#tcrtbN"/></g><g opacity=".75"><use fill="#f4ebe2" xlink:href="#tcrtbO"/></g><g opacity=".75"><use fill="#f4ebe2" xlink:href="#tcrtbP"/></g><g opacity=".75"><use fill="#f4ebe2" xlink:href="#tcrtbQ"/></g><g opacity=".75"><use fill="#f4ebe2" xlink:href="#tcrtbR"/></g><g opacity=".75"><use fill="#f4ebe2" xlink:href="#tcrtbS"/></g><g opacity=".75"><use fill="#f4ebe2" xlink:href="#tcrtbT"/></g><g opacity=".75"><use fill="#f4ebe2" xlink:href="#tcrtbU"/></g><g opacity=".75"><use fill="#f4ebe2" xlink:href="#tcrtbV"/></g><g opacity=".75"><use fill="#f4ebe2" xlink:href="#tcrtbW"/></g><g opacity=".75"><use fill="#f4ebe2" xlink:href="#tcrtbX"/></g><g opacity=".75"><use fill="#f4ebe2" xlink:href="#tcrtbY"/></g><g opacity=".75"><use fill="#f4ebe2" xlink:href="#tcrtbZ"/></g><g opacity=".75"><use fill="#f4ebe2" xlink:href="#tcrtca"/></g><g opacity=".75"><use fill="#f4ebe2" xlink:href="#tcrtcb"/></g><g opacity=".75"><use fill="#f4ebe2" xlink:href="#tcrtcc"/></g><g opacity=".75"><use fill="#f4ebe2" xlink:href="#tcrtcd"/></g><g opacity=".75"><use fill="#f4ebe2" xlink:href="#tcrtce"/></g><g opacity=".75"><use fill="#f4ebe2" xlink:href="#tcrtcf"/></g><g opacity=".75"><use fill="#f4ebe2" xlink:href="#tcrtcg"/></g><g opacity=".75"><use fill="#f4ebe2" xlink:href="#tcrtch"/></g><g opacity=".75"><use fill="#f4ebe2" xlink:href="#tcrtci"/></g><g opacity=".75"><use fill="#f4ebe2" xlink:href="#tcrtcj"/></g><g opacity=".75"><use fill="#f4ebe2" xlink:href="#tcrtck"/></g><g opacity=".75"><use fill="#f4ebe2" xlink:href="#tcrtcl"/></g><g opacity=".75"><use fill="#f4ebe2" xlink:href="#tcrtcm"/></g><g opacity=".75"><use fill="#f4ebe2" xlink:href="#tcrtcn"/></g><g opacity=".75"><use fill="#f4ebe2" xlink:href="#tcrtco"/></g><g opacity=".75"><use fill="#f4ebe2" xlink:href="#tcrtcp"/></g><g opacity=".75"><use fill="#f4ebe2" xlink:href="#tcrtcq"/></g><g opacity=".75"><use fill="#f4ebe2" xlink:href="#tcrtcr"/></g><g opacity=".75"><use fill="#f4ebe2" xlink:href="#tcrtcs"/></g><g opacity=".75"><use fill="#f4ebe2" xlink:href="#tcrtct"/></g><g opacity=".75"><use fill="#f4ebe2" xlink:href="#tcrtcu"/></g><g opacity=".75"><use fill="#f4ebe2" xlink:href="#tcrtcv"/></g><g opacity=".75"><use fill="#f4ebe2" xlink:href="#tcrtcw"/></g><g opacity=".75"><use fill="#f4ebe2" xlink:href="#tcrtcx"/></g><g opacity=".75"><use fill="#f4ebe2" xlink:href="#tcrtcy"/></g><g opacity=".75"><use fill="#f4ebe2" xlink:href="#tcrtcz"/></g><g opacity=".75"><use fill="#f4ebe2" xlink:href="#tcrtcA"/></g><g opacity=".75"><use fill="#f4ebe2" xlink:href="#tcrtcB"/></g><g opacity=".75"><use fill="#f4ebe2" xlink:href="#tcrtcC"/></g><g opacity=".75"><use fill="#f4ebe2" xlink:href="#tcrtcD"/></g></g></g></g></g></g><g clip-path="url(#tcrtk)"><g><use fill="#fff" fill-opacity="0" stroke="#fff" stroke-miterlimit="50" stroke-width="3.15" xlink:href="#tcrtcE"/><use fill="#fff" fill-opacity="0" stroke="#e61e1e" stroke-miterlimit="50" stroke-width="1.05" xlink:href="#tcrtcE"/></g><g><use fill="#fff" fill-opacity="0" stroke="#fff" stroke-miterlimit="50" stroke-width="3.15" xlink:href="#tcrtcF"/><use fill="#fff" fill-opacity="0" stroke="#e61e1e" stroke-miterlimit="50" stroke-width="1.05" xlink:href="#tcrtcF"/></g><g><use fill="#fff" fill-opacity="0" stroke="#fff" stroke-miterlimit="50" stroke-width="3.15" xlink:href="#tcrtcG"/><use fill="#fff" fill-opacity="0" stroke="#e61e1e" stroke-miterlimit="50" stroke-width="1.05" xlink:href="#tcrtcG"/></g><g><g opacity=".55"><use fill="url(#tcrtcI)" xlink:href="#tcrtcH"/></g><g><use fill="#fff" xlink:href="#tcrta"/><use fill="#fff" fill-opacity="0" stroke="#e1e3ea" stroke-miterlimit="50" stroke-width="8" clip-path="url(&quot;#tcrtcJ&quot;)" xlink:href="#tcrta"/></g><g><g><use fill="#fff" fill-opacity="0" stroke="#8d9099" stroke-miterlimit="50" stroke-width="2" xlink:href="#tcrtcK"/></g><g><use fill="#fff" fill-opacity="0" stroke="#8d9099" stroke-miterlimit="50" stroke-width="2" xlink:href="#tcrtcL"/></g><g><use fill="#fff" fill-opacity="0" stroke="#8d9099" stroke-linecap="square" stroke-miterlimit="50" stroke-width="2" xlink:href="#tcrtcM"/></g><g><use fill="#fff" fill-opacity="0" stroke="#8d9099" stroke-linecap="square" stroke-miterlimit="50" stroke-width="2" xlink:href="#tcrtcN"/></g></g></g><g><g opacity=".55"><use fill="url(#tcrtcP)" xlink:href="#tcrtcO"/></g><g><use fill="#fff" xlink:href="#tcrtb"/><use fill="#fff" fill-opacity="0" stroke="#e1e3ea" stroke-miterlimit="50" stroke-width="8" clip-path="url(&quot;#tcrtcQ&quot;)" xlink:href="#tcrtb"/></g><g><g><use fill="#fff" fill-opacity="0" stroke="#8d9099" stroke-miterlimit="50" stroke-width="2" xlink:href="#tcrtcR"/></g><g><use fill="#fff" fill-opacity="0" stroke="#8d9099" stroke-miterlimit="50" stroke-width="2" xlink:href="#tcrtcS"/></g><g><use fill="#fff" fill-opacity="0" stroke="#8d9099" stroke-linecap="square" stroke-miterlimit="50" stroke-width="2" xlink:href="#tcrtcT"/></g><g><use fill="#fff" fill-opacity="0" stroke="#8d9099" stroke-linecap="square" stroke-miterlimit="50" stroke-width="2" xlink:href="#tcrtcU"/></g></g></g><g><g opacity=".55"><use fill="url(#tcrtcW)" xlink:href="#tcrtcV"/></g><g><use fill="#fff" xlink:href="#tcrtc"/><use fill="#fff" fill-opacity="0" stroke="#e1e3ea" stroke-miterlimit="50" stroke-width="8" clip-path="url(&quot;#tcrtcX&quot;)" xlink:href="#tcrtc"/></g><g><g><use fill="#fff" fill-opacity="0" stroke="#8d9099" stroke-linecap="square" stroke-miterlimit="50" stroke-width="2" xlink:href="#tcrtcY"/></g><g><use fill="#fff" fill-opacity="0" stroke="#8d9099" stroke-linecap="square" stroke-miterlimit="50" stroke-width="2" xlink:href="#tcrtcZ"/></g></g></g><g><g opacity=".55"><use fill="url(#tcrtdb)" xlink:href="#tcrtda"/></g><g><use fill="#fff" xlink:href="#tcrtd"/><use fill="#fff" fill-opacity="0" stroke="#e1e3ea" stroke-miterlimit="50" stroke-width="8" clip-path="url(&quot;#tcrtdc&quot;)" xlink:href="#tcrtd"/></g><g><g><use fill="#fff" fill-opacity="0" stroke="#8d9099" stroke-miterlimit="50" stroke-width="2" xlink:href="#tcrtdd"/></g><g><use fill="#8d9099" xlink:href="#tcrtde"/></g><g><use fill="#8d9099" xlink:href="#tcrtdf"/></g><g><use fill="#8d9099" xlink:href="#tcrtdg"/></g><g><use fill="#8d9099" xlink:href="#tcrtdh"/></g><g><use fill="#fff" fill-opacity="0" stroke="#8d9099" stroke-linecap="square" stroke-miterlimit="50" stroke-width="2" xlink:href="#tcrtdi"/></g><g><use fill="#fff" fill-opacity="0" stroke="#8d9099" stroke-linecap="square" stroke-miterlimit="50" stroke-width="2" xlink:href="#tcrtdj"/></g></g></g><g><g opacity=".55"><use fill="url(#tcrtdl)" xlink:href="#tcrtdk"/></g><g><use fill="#fff" xlink:href="#tcrte"/><use fill="#fff" fill-opacity="0" stroke="#e1e3ea" stroke-miterlimit="50" stroke-width="8" clip-path="url(&quot;#tcrtdm&quot;)" xlink:href="#tcrte"/></g><g><g><use fill="#fff" fill-opacity="0" stroke="#8d9099" stroke-miterlimit="50" stroke-width="2" xlink:href="#tcrtdn"/></g><g><use fill="#fff" fill-opacity="0" stroke="#8d9099" stroke-miterlimit="50" stroke-width="2" xlink:href="#tcrtdo"/></g><g><use fill="#8d9099" xlink:href="#tcrtdp"/></g><g><use fill="#8d9099" xlink:href="#tcrtdq"/></g><g><use fill="#8d9099" xlink:href="#tcrtdr"/></g><g><use fill="#8d9099" xlink:href="#tcrtds"/></g><g><use fill="#8d9099" xlink:href="#tcrtdt"/></g><g><use fill="#8d9099" xlink:href="#tcrtdu"/></g><g><use fill="#8d9099" xlink:href="#tcrtdv"/></g></g></g><g><g opacity=".55"><use fill="url(#tcrtdx)" xlink:href="#tcrtdw"/></g><g><use fill="#fff" xlink:href="#tcrtf"/><use fill="#fff" fill-opacity="0" stroke="#2a313b" stroke-miterlimit="50" stroke-width="8" clip-path="url(&quot;#tcrtdy&quot;)" xlink:href="#tcrtf"/></g><g><g><use fill="#fff" xlink:href="#tcrtdz"/><use fill="#fff" fill-opacity="0" stroke="#2a313b" stroke-miterlimit="50" stroke-width="2" xlink:href="#tcrtdz"/></g><g><use fill="#2a313b" xlink:href="#tcrtdA"/></g><g><use fill="#2a313b" xlink:href="#tcrtdB"/></g><g><use fill="#2a313b" xlink:href="#tcrtdC"/></g><g><use fill="#2a313b" xlink:href="#tcrtdD"/></g><g><use fill="#2a313b" xlink:href="#tcrtdE"/></g><g><use fill="#2a313b" xlink:href="#tcrtdF"/></g><g><g><use fill="#fff" xlink:href="#tcrtdG"/><use fill="#fff" fill-opacity="0" stroke="#2a313b" stroke-miterlimit="50" stroke-width="2" xlink:href="#tcrtdG"/></g><g><use fill="#2a313b" xlink:href="#tcrtdH"/></g><g><use fill="#2a313b" xlink:href="#tcrtdI"/></g><g><use fill="#2a313b" xlink:href="#tcrtdJ"/></g><g><use fill="#2a313b" xlink:href="#tcrtdK"/></g><g><use fill="#2a313b" xlink:href="#tcrtdL"/></g><g><use fill="#2a313b" xlink:href="#tcrtdM"/></g><g><use fill="#2a313b" xlink:href="#tcrtdN"/></g><g><use fill="#2a313b" xlink:href="#tcrtdO"/></g><g><use fill="#2a313b" xlink:href="#tcrtdP"/></g><g><use fill="#2a313b" xlink:href="#tcrtdQ"/></g></g></g><g><g><g filter="url(#tcrtdR)"><use fill="none" stroke-opacity=".2" stroke-width="0" mask="url(&quot;#tcrtdS&quot;)" xlink:href="#tcrtg"/><use fill-opacity=".2" xlink:href="#tcrtg"/></g><use fill="#9cd600" xlink:href="#tcrtg"/></g><g><g><use fill="#fff" fill-opacity="0" stroke="#fff" stroke-miterlimit="50" stroke-width="2" xlink:href="#tcrtdT"/></g></g></g></g><g><g opacity=".55"><use fill="url(#tcrtdV)" xlink:href="#tcrtdU"/></g><g><use fill="#fff" xlink:href="#tcrth"/><use fill="#fff" fill-opacity="0" stroke="#2a313b" stroke-miterlimit="50" stroke-width="8" clip-path="url(&quot;#tcrtdW&quot;)" xlink:href="#tcrth"/></g><g><g transform="rotate(-45 294.5 410)"><g><use fill="#fff" fill-opacity="0" stroke="#2a313b" stroke-miterlimit="50" stroke-width="4" clip-path="url(&quot;#tcrtdX&quot;)" xlink:href="#tcrti"/></g><g><g><use fill="#fff" fill-opacity="0" stroke="#2a313b" stroke-miterlimit="50" stroke-width="2" xlink:href="#tcrtdY"/></g><g><use fill="#fff" fill-opacity="0" stroke="#2a313b" stroke-miterlimit="50" stroke-width="2" xlink:href="#tcrtdZ"/></g><g><use fill="#fff" fill-opacity="0" stroke="#2a313b" stroke-miterlimit="50" stroke-width="2" xlink:href="#tcrtea"/></g></g><g transform="matrix(-1 0 0 1 583 0)"><g><use fill="#fff" fill-opacity="0" stroke="#2a313b" stroke-miterlimit="50" stroke-width="2" xlink:href="#tcrteb"/></g><g><use fill="#fff" fill-opacity="0" stroke="#2a313b" stroke-miterlimit="50" stroke-width="2" xlink:href="#tcrtec"/></g><g><use fill="#fff" fill-opacity="0" stroke="#2a313b" stroke-miterlimit="50" stroke-width="2" xlink:href="#tcrted"/></g></g></g></g></g></g></g></g></svg>