<svg xmlns="http://www.w3.org/2000/svg" xmlns:xlink="http://www.w3.org/1999/xlink" width="112" height="112" viewBox="0 0 112 112"><defs><path id="c2bga" d="M181 467a4 4 0 1 1 8 0v20a4 4 0 1 1-8 0zm26.54 4.97a4 4 0 1 1 6.92 4l-10 17.32a4 4 0 1 1-6.92-4zm20.49 17.57a4 4 0 1 1 4 6.92l-17.32 10a4 4 0 1 1-4-6.92zM237 515a4 4 0 1 1 0 8h-20a4 4 0 1 1 0-8zm-4.97 26.54a4 4 0 1 1-4 6.92l-17.32-10a4 4 0 1 1 4-6.92zm-17.57 20.49a4 4 0 1 1-6.92 4l-10-17.32a4 4 0 1 1 6.92-4zM189 571a4 4 0 1 1-8 0v-20a4 4 0 1 1 8 0zm-26.54-4.97a4 4 0 1 1-6.92-4l10-17.32a4 4 0 1 1 6.92 4zm-20.49-17.57a4 4 0 1 1-4-6.92l17.32-10a4 4 0 1 1 4 6.92zM133 523a4 4 0 1 1 0-8h20a4 4 0 1 1 0 8zm4.97-26.54a4 4 0 1 1 4-6.92l17.32 10a4 4 0 1 1-4 6.92zm17.57-20.49a4 4 0 1 1 6.92-4l10 17.32a4 4 0 1 1-6.92 4z"/><path id="c2bgc" d="M185 519l3-89a89 89 0 0 0-3 0z"/><mask id="c2bgb"><use fill="#fff" xlink:href="#c2bga"/></mask></defs><g><g transform="translate(-129 -463)"><g mask="url(&quot;#c2bgb&quot;)"><g transform="rotate(90 185 519)"><use fill="rgba(0,0,0,0.747)" xlink:href="#c2bgc"/><use fill="rgba(0,0,0,0.746)" transform="rotate(1 185 519)" xlink:href="#c2bgc"/><use fill="rgba(0,0,0,0.745)" transform="rotate(2 185 519)" xlink:href="#c2bgc"/><use fill="rgba(0,0,0,0.744)" transform="rotate(3 185 519)" xlink:href="#c2bgc"/><use fill="rgba(0,0,0,0.743)" transform="rotate(4 185 519)" xlink:href="#c2bgc"/><use fill="rgba(0,0,0,0.742)" transform="rotate(5 185 519)" xlink:href="#c2bgc"/><use fill="rgba(0,0,0,0.741)" transform="rotate(6 185 519)" xlink:href="#c2bgc"/><use fill="rgba(0,0,0,0.74)" transform="rotate(7 185 519)" xlink:href="#c2bgc"/><use fill="rgba(0,0,0,0.739)" transform="rotate(8 185 519)" xlink:href="#c2bgc"/><use fill="rgba(0,0,0,0.738)" transform="rotate(9 185 519)" xlink:href="#c2bgc"/><use fill="rgba(0,0,0,0.737)" transform="rotate(10 185 519)" xlink:href="#c2bgc"/><use fill="rgba(0,0,0,0.736)" transform="rotate(11 185 519)" xlink:href="#c2bgc"/><use fill="rgba(0,0,0,0.735)" transform="rotate(12 185 519)" xlink:href="#c2bgc"/><use fill="rgba(0,0,0,0.734)" transform="rotate(13 185 519)" xlink:href="#c2bgc"/><use fill="rgba(0,0,0,0.733)" transform="rotate(14 185 519)" xlink:href="#c2bgc"/><use fill="rgba(0,0,0,0.732)" transform="rotate(15 185 519)" xlink:href="#c2bgc"/><use fill="rgba(0,0,0,0.732)" transform="rotate(16 185 519)" xlink:href="#c2bgc"/><use fill="rgba(0,0,0,0.731)" transform="rotate(17 185 519)" xlink:href="#c2bgc"/><use fill="rgba(0,0,0,0.73)" transform="rotate(18 185 519)" xlink:href="#c2bgc"/><use fill="rgba(0,0,0,0.729)" transform="rotate(19 185 519)" xlink:href="#c2bgc"/><use fill="rgba(0,0,0,0.728)" transform="rotate(20 185 519)" xlink:href="#c2bgc"/><use fill="rgba(0,0,0,0.727)" transform="rotate(21 185 519)" xlink:href="#c2bgc"/><use fill="rgba(0,0,0,0.726)" transform="rotate(22 185 519)" xlink:href="#c2bgc"/><use fill="rgba(0,0,0,0.725)" transform="rotate(23 185 519)" xlink:href="#c2bgc"/><use fill="rgba(0,0,0,0.724)" transform="rotate(24 185 519)" xlink:href="#c2bgc"/><use fill="rgba(0,0,0,0.723)" transform="rotate(25 185 519)" xlink:href="#c2bgc"/><use fill="rgba(0,0,0,0.722)" transform="rotate(26 185 519)" xlink:href="#c2bgc"/><use fill="rgba(0,0,0,0.721)" transform="rotate(27 185 519)" xlink:href="#c2bgc"/><use fill="rgba(0,0,0,0.72)" transform="rotate(28 185 519)" xlink:href="#c2bgc"/><use fill="rgba(0,0,0,0.719)" transform="rotate(29 185 519)" xlink:href="#c2bgc"/><use fill="rgba(0,0,0,0.718)" transform="rotate(30 185 519)" xlink:href="#c2bgc"/><use fill="rgba(0,0,0,0.717)" transform="rotate(31 185 519)" xlink:href="#c2bgc"/><use fill="rgba(0,0,0,0.716)" transform="rotate(32 185 519)" xlink:href="#c2bgc"/><use fill="rgba(0,0,0,0.715)" transform="rotate(33 185 519)" xlink:href="#c2bgc"/><use fill="rgba(0,0,0,0.714)" transform="rotate(34 185 519)" xlink:href="#c2bgc"/><use fill="rgba(0,0,0,0.713)" transform="rotate(35 185 519)" xlink:href="#c2bgc"/><use fill="rgba(0,0,0,0.712)" transform="rotate(36 185 519)" xlink:href="#c2bgc"/><use fill="rgba(0,0,0,0.711)" transform="rotate(37 185 519)" xlink:href="#c2bgc"/><use fill="rgba(0,0,0,0.71)" transform="rotate(38 185 519)" xlink:href="#c2bgc"/><use fill="rgba(0,0,0,0.709)" transform="rotate(39 185 519)" xlink:href="#c2bgc"/><use fill="rgba(0,0,0,0.708)" transform="rotate(40 185 519)" xlink:href="#c2bgc"/><use fill="rgba(0,0,0,0.707)" transform="rotate(41 185 519)" xlink:href="#c2bgc"/><use fill="rgba(0,0,0,0.706)" transform="rotate(42 185 519)" xlink:href="#c2bgc"/><use fill="rgba(0,0,0,0.705)" transform="rotate(43 185 519)" xlink:href="#c2bgc"/><use fill="rgba(0,0,0,0.704)" transform="rotate(44 185 519)" xlink:href="#c2bgc"/><use fill="rgba(0,0,0,0.703)" transform="rotate(45 185 519)" xlink:href="#c2bgc"/><use fill="rgba(0,0,0,0.702)" transform="rotate(46 185 519)" xlink:href="#c2bgc"/><use fill="rgba(0,0,0,0.701)" transform="rotate(47 185 519)" xlink:href="#c2bgc"/><use fill="rgba(0,0,0,0.701)" transform="rotate(48 185 519)" xlink:href="#c2bgc"/><use fill="rgba(0,0,0,0.7)" transform="rotate(49 185 519)" xlink:href="#c2bgc"/><use fill="rgba(0,0,0,0.699)" transform="rotate(50 185 519)" xlink:href="#c2bgc"/><use fill="rgba(0,0,0,0.698)" transform="rotate(51 185 519)" xlink:href="#c2bgc"/><use fill="rgba(0,0,0,0.697)" transform="rotate(52 185 519)" xlink:href="#c2bgc"/><use fill="rgba(0,0,0,0.696)" transform="rotate(53 185 519)" xlink:href="#c2bgc"/><use fill="rgba(0,0,0,0.695)" transform="rotate(54 185 519)" xlink:href="#c2bgc"/><use fill="rgba(0,0,0,0.694)" transform="rotate(55 185 519)" xlink:href="#c2bgc"/><use fill="rgba(0,0,0,0.693)" transform="rotate(56 185 519)" xlink:href="#c2bgc"/><use fill="rgba(0,0,0,0.692)" transform="rotate(57 185 519)" xlink:href="#c2bgc"/><use fill="rgba(0,0,0,0.691)" transform="rotate(58 185 519)" xlink:href="#c2bgc"/><use fill="rgba(0,0,0,0.69)" transform="rotate(59 185 519)" xlink:href="#c2bgc"/><use fill="rgba(0,0,0,0.689)" transform="rotate(60 185 519)" xlink:href="#c2bgc"/><use fill="rgba(0,0,0,0.688)" transform="rotate(61 185 519)" xlink:href="#c2bgc"/><use fill="rgba(0,0,0,0.687)" transform="rotate(62 185 519)" xlink:href="#c2bgc"/><use fill="rgba(0,0,0,0.686)" transform="rotate(63 185 519)" xlink:href="#c2bgc"/><use fill="rgba(0,0,0,0.685)" transform="rotate(64 185 519)" xlink:href="#c2bgc"/><use fill="rgba(0,0,0,0.684)" transform="rotate(65 185 519)" xlink:href="#c2bgc"/><use fill="rgba(0,0,0,0.683)" transform="rotate(66 185 519)" xlink:href="#c2bgc"/><use fill="rgba(0,0,0,0.682)" transform="rotate(67 185 519)" xlink:href="#c2bgc"/><use fill="rgba(0,0,0,0.681)" transform="rotate(68 185 519)" xlink:href="#c2bgc"/><use fill="rgba(0,0,0,0.68)" transform="rotate(69 185 519)" xlink:href="#c2bgc"/><use fill="rgba(0,0,0,0.679)" transform="rotate(70 185 519)" xlink:href="#c2bgc"/><use fill="rgba(0,0,0,0.678)" transform="rotate(71 185 519)" xlink:href="#c2bgc"/><use fill="rgba(0,0,0,0.677)" transform="rotate(72 185 519)" xlink:href="#c2bgc"/><use fill="rgba(0,0,0,0.676)" transform="rotate(73 185 519)" xlink:href="#c2bgc"/><use fill="rgba(0,0,0,0.675)" transform="rotate(74 185 519)" xlink:href="#c2bgc"/><use fill="rgba(0,0,0,0.674)" transform="rotate(75 185 519)" xlink:href="#c2bgc"/><use fill="rgba(0,0,0,0.673)" transform="rotate(76 185 519)" xlink:href="#c2bgc"/><use fill="rgba(0,0,0,0.672)" transform="rotate(77 185 519)" xlink:href="#c2bgc"/><use fill="rgba(0,0,0,0.671)" transform="rotate(78 185 519)" xlink:href="#c2bgc"/><use fill="rgba(0,0,0,0.67)" transform="rotate(79 185 519)" xlink:href="#c2bgc"/><use fill="rgba(0,0,0,0.67)" transform="rotate(80 185 519)" xlink:href="#c2bgc"/><use fill="rgba(0,0,0,0.669)" transform="rotate(81 185 519)" xlink:href="#c2bgc"/><use fill="rgba(0,0,0,0.668)" transform="rotate(82 185 519)" xlink:href="#c2bgc"/><use fill="rgba(0,0,0,0.667)" transform="rotate(83 185 519)" xlink:href="#c2bgc"/><use fill="rgba(0,0,0,0.666)" transform="rotate(84 185 519)" xlink:href="#c2bgc"/><use fill="rgba(0,0,0,0.665)" transform="rotate(85 185 519)" xlink:href="#c2bgc"/><use fill="rgba(0,0,0,0.664)" transform="rotate(86 185 519)" xlink:href="#c2bgc"/><use fill="rgba(0,0,0,0.663)" transform="rotate(87 185 519)" xlink:href="#c2bgc"/><use fill="rgba(0,0,0,0.662)" transform="rotate(88 185 519)" xlink:href="#c2bgc"/><use fill="rgba(0,0,0,0.661)" transform="rotate(89 185 519)" xlink:href="#c2bgc"/><use fill="rgba(0,0,0,0.66)" transform="rotate(90 185 519)" xlink:href="#c2bgc"/><use fill="rgba(0,0,0,0.659)" transform="rotate(91 185 519)" xlink:href="#c2bgc"/><use fill="rgba(0,0,0,0.658)" transform="rotate(92 185 519)" xlink:href="#c2bgc"/><use fill="rgba(0,0,0,0.657)" transform="rotate(93 185 519)" xlink:href="#c2bgc"/><use fill="rgba(0,0,0,0.656)" transform="rotate(94 185 519)" xlink:href="#c2bgc"/><use fill="rgba(0,0,0,0.655)" transform="rotate(95 185 519)" xlink:href="#c2bgc"/><use fill="rgba(0,0,0,0.654)" transform="rotate(96 185 519)" xlink:href="#c2bgc"/><use fill="rgba(0,0,0,0.653)" transform="rotate(97 185 519)" xlink:href="#c2bgc"/><use fill="rgba(0,0,0,0.652)" transform="rotate(98 185 519)" xlink:href="#c2bgc"/><use fill="rgba(0,0,0,0.651)" transform="rotate(99 185 519)" xlink:href="#c2bgc"/><use fill="rgba(0,0,0,0.65)" transform="rotate(100 185 519)" xlink:href="#c2bgc"/><use fill="rgba(0,0,0,0.649)" transform="rotate(101 185 519)" xlink:href="#c2bgc"/><use fill="rgba(0,0,0,0.648)" transform="rotate(102 185 519)" xlink:href="#c2bgc"/><use fill="rgba(0,0,0,0.647)" transform="rotate(103 185 519)" xlink:href="#c2bgc"/><use fill="rgba(0,0,0,0.646)" transform="rotate(104 185 519)" xlink:href="#c2bgc"/><use fill="rgba(0,0,0,0.645)" transform="rotate(105 185 519)" xlink:href="#c2bgc"/><use fill="rgba(0,0,0,0.644)" transform="rotate(106 185 519)" xlink:href="#c2bgc"/><use fill="rgba(0,0,0,0.643)" transform="rotate(107 185 519)" xlink:href="#c2bgc"/><use fill="rgba(0,0,0,0.642)" transform="rotate(108 185 519)" xlink:href="#c2bgc"/><use fill="rgba(0,0,0,0.641)" transform="rotate(109 185 519)" xlink:href="#c2bgc"/><use fill="rgba(0,0,0,0.64)" transform="rotate(110 185 519)" xlink:href="#c2bgc"/><use fill="rgba(0,0,0,0.639)" transform="rotate(111 185 519)" xlink:href="#c2bgc"/><use fill="rgba(0,0,0,0.639)" transform="rotate(112 185 519)" xlink:href="#c2bgc"/><use fill="rgba(0,0,0,0.638)" transform="rotate(113 185 519)" xlink:href="#c2bgc"/><use fill="rgba(0,0,0,0.637)" transform="rotate(114 185 519)" xlink:href="#c2bgc"/><use fill="rgba(0,0,0,0.636)" transform="rotate(115 185 519)" xlink:href="#c2bgc"/><use fill="rgba(0,0,0,0.635)" transform="rotate(116 185 519)" xlink:href="#c2bgc"/><use fill="rgba(0,0,0,0.634)" transform="rotate(117 185 519)" xlink:href="#c2bgc"/><use fill="rgba(0,0,0,0.633)" transform="rotate(118 185 519)" xlink:href="#c2bgc"/><use fill="rgba(0,0,0,0.632)" transform="rotate(119 185 519)" xlink:href="#c2bgc"/><use fill="rgba(0,0,0,0.631)" transform="rotate(120 185 519)" xlink:href="#c2bgc"/><use fill="rgba(0,0,0,0.63)" transform="rotate(121 185 519)" xlink:href="#c2bgc"/><use fill="rgba(0,0,0,0.629)" transform="rotate(122 185 519)" xlink:href="#c2bgc"/><use fill="rgba(0,0,0,0.628)" transform="rotate(123 185 519)" xlink:href="#c2bgc"/><use fill="rgba(0,0,0,0.627)" transform="rotate(124 185 519)" xlink:href="#c2bgc"/><use fill="rgba(0,0,0,0.626)" transform="rotate(125 185 519)" xlink:href="#c2bgc"/><use fill="rgba(0,0,0,0.625)" transform="rotate(126 185 519)" xlink:href="#c2bgc"/><use fill="rgba(0,0,0,0.624)" transform="rotate(127 185 519)" xlink:href="#c2bgc"/><use fill="rgba(0,0,0,0.623)" transform="rotate(128 185 519)" xlink:href="#c2bgc"/><use fill="rgba(0,0,0,0.622)" transform="rotate(129 185 519)" xlink:href="#c2bgc"/><use fill="rgba(0,0,0,0.621)" transform="rotate(130 185 519)" xlink:href="#c2bgc"/><use fill="rgba(0,0,0,0.62)" transform="rotate(131 185 519)" xlink:href="#c2bgc"/><use fill="rgba(0,0,0,0.619)" transform="rotate(132 185 519)" xlink:href="#c2bgc"/><use fill="rgba(0,0,0,0.618)" transform="rotate(133 185 519)" xlink:href="#c2bgc"/><use fill="rgba(0,0,0,0.617)" transform="rotate(134 185 519)" xlink:href="#c2bgc"/><use fill="rgba(0,0,0,0.616)" transform="rotate(135 185 519)" xlink:href="#c2bgc"/><use fill="rgba(0,0,0,0.615)" transform="rotate(136 185 519)" xlink:href="#c2bgc"/><use fill="rgba(0,0,0,0.614)" transform="rotate(137 185 519)" xlink:href="#c2bgc"/><use fill="rgba(0,0,0,0.613)" transform="rotate(138 185 519)" xlink:href="#c2bgc"/><use fill="rgba(0,0,0,0.612)" transform="rotate(139 185 519)" xlink:href="#c2bgc"/><use fill="rgba(0,0,0,0.611)" transform="rotate(140 185 519)" xlink:href="#c2bgc"/><use fill="rgba(0,0,0,0.61)" transform="rotate(141 185 519)" xlink:href="#c2bgc"/><use fill="rgba(0,0,0,0.609)" transform="rotate(142 185 519)" xlink:href="#c2bgc"/><use fill="rgba(0,0,0,0.608)" transform="rotate(143 185 519)" xlink:href="#c2bgc"/><use fill="rgba(0,0,0,0.608)" transform="rotate(144 185 519)" xlink:href="#c2bgc"/><use fill="rgba(0,0,0,0.607)" transform="rotate(145 185 519)" xlink:href="#c2bgc"/><use fill="rgba(0,0,0,0.606)" transform="rotate(146 185 519)" xlink:href="#c2bgc"/><use fill="rgba(0,0,0,0.605)" transform="rotate(147 185 519)" xlink:href="#c2bgc"/><use fill="rgba(0,0,0,0.604)" transform="rotate(148 185 519)" xlink:href="#c2bgc"/><use fill="rgba(0,0,0,0.603)" transform="rotate(149 185 519)" xlink:href="#c2bgc"/><use fill="rgba(0,0,0,0.602)" transform="rotate(150 185 519)" xlink:href="#c2bgc"/><use fill="rgba(0,0,0,0.601)" transform="rotate(151 185 519)" xlink:href="#c2bgc"/><use fill="rgba(0,0,0,0.6)" transform="rotate(152 185 519)" xlink:href="#c2bgc"/><use fill="rgba(0,0,0,0.599)" transform="rotate(153 185 519)" xlink:href="#c2bgc"/><use fill="rgba(0,0,0,0.598)" transform="rotate(154 185 519)" xlink:href="#c2bgc"/><use fill="rgba(0,0,0,0.597)" transform="rotate(155 185 519)" xlink:href="#c2bgc"/><use fill="rgba(0,0,0,0.596)" transform="rotate(156 185 519)" xlink:href="#c2bgc"/><use fill="rgba(0,0,0,0.595)" transform="rotate(157 185 519)" xlink:href="#c2bgc"/><use fill="rgba(0,0,0,0.594)" transform="rotate(158 185 519)" xlink:href="#c2bgc"/><use fill="rgba(0,0,0,0.593)" transform="rotate(159 185 519)" xlink:href="#c2bgc"/><use fill="rgba(0,0,0,0.592)" transform="rotate(160 185 519)" xlink:href="#c2bgc"/><use fill="rgba(0,0,0,0.591)" transform="rotate(161 185 519)" xlink:href="#c2bgc"/><use fill="rgba(0,0,0,0.59)" transform="rotate(162 185 519)" xlink:href="#c2bgc"/><use fill="rgba(0,0,0,0.589)" transform="rotate(163 185 519)" xlink:href="#c2bgc"/><use fill="rgba(0,0,0,0.588)" transform="rotate(164 185 519)" xlink:href="#c2bgc"/><use fill="rgba(0,0,0,0.587)" transform="rotate(165 185 519)" xlink:href="#c2bgc"/><use fill="rgba(0,0,0,0.586)" transform="rotate(166 185 519)" xlink:href="#c2bgc"/><use fill="rgba(0,0,0,0.585)" transform="rotate(167 185 519)" xlink:href="#c2bgc"/><use fill="rgba(0,0,0,0.584)" transform="rotate(168 185 519)" xlink:href="#c2bgc"/><use fill="rgba(0,0,0,0.583)" transform="rotate(169 185 519)" xlink:href="#c2bgc"/><use fill="rgba(0,0,0,0.582)" transform="rotate(170 185 519)" xlink:href="#c2bgc"/><use fill="rgba(0,0,0,0.581)" transform="rotate(171 185 519)" xlink:href="#c2bgc"/><use fill="rgba(0,0,0,0.58)" transform="rotate(172 185 519)" xlink:href="#c2bgc"/><use fill="rgba(0,0,0,0.579)" transform="rotate(173 185 519)" xlink:href="#c2bgc"/><use fill="rgba(0,0,0,0.578)" transform="rotate(174 185 519)" xlink:href="#c2bgc"/><use fill="rgba(0,0,0,0.577)" transform="rotate(175 185 519)" xlink:href="#c2bgc"/><use fill="rgba(0,0,0,0.577)" transform="rotate(176 185 519)" xlink:href="#c2bgc"/><use fill="rgba(0,0,0,0.576)" transform="rotate(177 185 519)" xlink:href="#c2bgc"/><use fill="rgba(0,0,0,0.575)" transform="rotate(178 185 519)" xlink:href="#c2bgc"/><use fill="rgba(0,0,0,0.574)" transform="rotate(179 185 519)" xlink:href="#c2bgc"/><use fill="rgba(0,0,0,0.573)" transform="rotate(180 185 519)" xlink:href="#c2bgc"/><use fill="rgba(0,0,0,0.572)" transform="rotate(181 185 519)" xlink:href="#c2bgc"/><use fill="rgba(0,0,0,0.571)" transform="rotate(182 185 519)" xlink:href="#c2bgc"/><use fill="rgba(0,0,0,0.57)" transform="rotate(183 185 519)" xlink:href="#c2bgc"/><use fill="rgba(0,0,0,0.569)" transform="rotate(184 185 519)" xlink:href="#c2bgc"/><use fill="rgba(0,0,0,0.568)" transform="rotate(185 185 519)" xlink:href="#c2bgc"/><use fill="rgba(0,0,0,0.567)" transform="rotate(186 185 519)" xlink:href="#c2bgc"/><use fill="rgba(0,0,0,0.566)" transform="rotate(187 185 519)" xlink:href="#c2bgc"/><use fill="rgba(0,0,0,0.565)" transform="rotate(188 185 519)" xlink:href="#c2bgc"/><use fill="rgba(0,0,0,0.564)" transform="rotate(189 185 519)" xlink:href="#c2bgc"/><use fill="rgba(0,0,0,0.563)" transform="rotate(190 185 519)" xlink:href="#c2bgc"/><use fill="rgba(0,0,0,0.562)" transform="rotate(191 185 519)" xlink:href="#c2bgc"/><use fill="rgba(0,0,0,0.561)" transform="rotate(192 185 519)" xlink:href="#c2bgc"/><use fill="rgba(0,0,0,0.56)" transform="rotate(193 185 519)" xlink:href="#c2bgc"/><use fill="rgba(0,0,0,0.559)" transform="rotate(194 185 519)" xlink:href="#c2bgc"/><use fill="rgba(0,0,0,0.558)" transform="rotate(195 185 519)" xlink:href="#c2bgc"/><use fill="rgba(0,0,0,0.557)" transform="rotate(196 185 519)" xlink:href="#c2bgc"/><use fill="rgba(0,0,0,0.556)" transform="rotate(197 185 519)" xlink:href="#c2bgc"/><use fill="rgba(0,0,0,0.555)" transform="rotate(198 185 519)" xlink:href="#c2bgc"/><use fill="rgba(0,0,0,0.554)" transform="rotate(199 185 519)" xlink:href="#c2bgc"/><use fill="rgba(0,0,0,0.553)" transform="rotate(200 185 519)" xlink:href="#c2bgc"/><use fill="rgba(0,0,0,0.552)" transform="rotate(201 185 519)" xlink:href="#c2bgc"/><use fill="rgba(0,0,0,0.551)" transform="rotate(202 185 519)" xlink:href="#c2bgc"/><use fill="rgba(0,0,0,0.55)" transform="rotate(203 185 519)" xlink:href="#c2bgc"/><use fill="rgba(0,0,0,0.549)" transform="rotate(204 185 519)" xlink:href="#c2bgc"/><use fill="rgba(0,0,0,0.548)" transform="rotate(205 185 519)" xlink:href="#c2bgc"/><use fill="rgba(0,0,0,0.547)" transform="rotate(206 185 519)" xlink:href="#c2bgc"/><use fill="rgba(0,0,0,0.546)" transform="rotate(207 185 519)" xlink:href="#c2bgc"/><use fill="rgba(0,0,0,0.546)" transform="rotate(208 185 519)" xlink:href="#c2bgc"/><use fill="rgba(0,0,0,0.545)" transform="rotate(209 185 519)" xlink:href="#c2bgc"/><use fill="rgba(0,0,0,0.544)" transform="rotate(210 185 519)" xlink:href="#c2bgc"/><use fill="rgba(0,0,0,0.543)" transform="rotate(211 185 519)" xlink:href="#c2bgc"/><use fill="rgba(0,0,0,0.542)" transform="rotate(212 185 519)" xlink:href="#c2bgc"/><use fill="rgba(0,0,0,0.541)" transform="rotate(213 185 519)" xlink:href="#c2bgc"/><use fill="rgba(0,0,0,0.54)" transform="rotate(214 185 519)" xlink:href="#c2bgc"/><use fill="rgba(0,0,0,0.539)" transform="rotate(215 185 519)" xlink:href="#c2bgc"/><use fill="rgba(0,0,0,0.538)" transform="rotate(216 185 519)" xlink:href="#c2bgc"/><use fill="rgba(0,0,0,0.537)" transform="rotate(217 185 519)" xlink:href="#c2bgc"/><use fill="rgba(0,0,0,0.536)" transform="rotate(218 185 519)" xlink:href="#c2bgc"/><use fill="rgba(0,0,0,0.535)" transform="rotate(219 185 519)" xlink:href="#c2bgc"/><use fill="rgba(0,0,0,0.534)" transform="rotate(220 185 519)" xlink:href="#c2bgc"/><use fill="rgba(0,0,0,0.533)" transform="rotate(221 185 519)" xlink:href="#c2bgc"/><use fill="rgba(0,0,0,0.532)" transform="rotate(222 185 519)" xlink:href="#c2bgc"/><use fill="rgba(0,0,0,0.531)" transform="rotate(223 185 519)" xlink:href="#c2bgc"/><use fill="rgba(0,0,0,0.53)" transform="rotate(224 185 519)" xlink:href="#c2bgc"/><use fill="rgba(0,0,0,0.529)" transform="rotate(225 185 519)" xlink:href="#c2bgc"/><use fill="rgba(0,0,0,0.528)" transform="rotate(226 185 519)" xlink:href="#c2bgc"/><use fill="rgba(0,0,0,0.527)" transform="rotate(227 185 519)" xlink:href="#c2bgc"/><use fill="rgba(0,0,0,0.526)" transform="rotate(228 185 519)" xlink:href="#c2bgc"/><use fill="rgba(0,0,0,0.525)" transform="rotate(229 185 519)" xlink:href="#c2bgc"/><use fill="rgba(0,0,0,0.524)" transform="rotate(230 185 519)" xlink:href="#c2bgc"/><use fill="rgba(0,0,0,0.523)" transform="rotate(231 185 519)" xlink:href="#c2bgc"/><use fill="rgba(0,0,0,0.522)" transform="rotate(232 185 519)" xlink:href="#c2bgc"/><use fill="rgba(0,0,0,0.521)" transform="rotate(233 185 519)" xlink:href="#c2bgc"/><use fill="rgba(0,0,0,0.52)" transform="rotate(234 185 519)" xlink:href="#c2bgc"/><use fill="rgba(0,0,0,0.519)" transform="rotate(235 185 519)" xlink:href="#c2bgc"/><use fill="rgba(0,0,0,0.518)" transform="rotate(236 185 519)" xlink:href="#c2bgc"/><use fill="rgba(0,0,0,0.517)" transform="rotate(237 185 519)" xlink:href="#c2bgc"/><use fill="rgba(0,0,0,0.516)" transform="rotate(238 185 519)" xlink:href="#c2bgc"/><use fill="rgba(0,0,0,0.515)" transform="rotate(239 185 519)" xlink:href="#c2bgc"/><use fill="rgba(0,0,0,0.515)" transform="rotate(240 185 519)" xlink:href="#c2bgc"/><use fill="rgba(0,0,0,0.514)" transform="rotate(241 185 519)" xlink:href="#c2bgc"/><use fill="rgba(0,0,0,0.513)" transform="rotate(242 185 519)" xlink:href="#c2bgc"/><use fill="rgba(0,0,0,0.512)" transform="rotate(243 185 519)" xlink:href="#c2bgc"/><use fill="rgba(0,0,0,0.511)" transform="rotate(244 185 519)" xlink:href="#c2bgc"/><use fill="rgba(0,0,0,0.51)" transform="rotate(245 185 519)" xlink:href="#c2bgc"/><use fill="rgba(0,0,0,0.509)" transform="rotate(246 185 519)" xlink:href="#c2bgc"/><use fill="rgba(0,0,0,0.508)" transform="rotate(247 185 519)" xlink:href="#c2bgc"/><use fill="rgba(0,0,0,0.507)" transform="rotate(248 185 519)" xlink:href="#c2bgc"/><use fill="rgba(0,0,0,0.506)" transform="rotate(249 185 519)" xlink:href="#c2bgc"/><use fill="rgba(0,0,0,0.505)" transform="rotate(250 185 519)" xlink:href="#c2bgc"/><use fill="rgba(0,0,0,0.504)" transform="rotate(251 185 519)" xlink:href="#c2bgc"/><use fill="rgba(0,0,0,0.503)" transform="rotate(252 185 519)" xlink:href="#c2bgc"/><use fill="rgba(0,0,0,0.502)" transform="rotate(253 185 519)" xlink:href="#c2bgc"/><use fill="rgba(0,0,0,0.501)" transform="rotate(254 185 519)" xlink:href="#c2bgc"/><use fill="rgba(0,0,0,0.5)" transform="rotate(255 185 519)" xlink:href="#c2bgc"/><use fill="rgba(0,0,0,0.625)" transform="rotate(256 185 519)" xlink:href="#c2bgc"/><use fill="rgba(0,0,0,0.75)" transform="rotate(257 185 519)" xlink:href="#c2bgc"/><use fill="rgba(0,0,0,0.875)" transform="rotate(258 185 519)" xlink:href="#c2bgc"/><use fill="rgba(0,0,0,1)" transform="rotate(259 185 519)" xlink:href="#c2bgc"/><use fill="rgba(0,0,0,0.997)" transform="rotate(260 185 519)" xlink:href="#c2bgc"/><use fill="rgba(0,0,0,0.995)" transform="rotate(261 185 519)" xlink:href="#c2bgc"/><use fill="rgba(0,0,0,0.992)" transform="rotate(262 185 519)" xlink:href="#c2bgc"/><use fill="rgba(0,0,0,0.99)" transform="rotate(263 185 519)" xlink:href="#c2bgc"/><use fill="rgba(0,0,0,0.987)" transform="rotate(264 185 519)" xlink:href="#c2bgc"/><use fill="rgba(0,0,0,0.985)" transform="rotate(265 185 519)" xlink:href="#c2bgc"/><use fill="rgba(0,0,0,0.982)" transform="rotate(266 185 519)" xlink:href="#c2bgc"/><use fill="rgba(0,0,0,0.98)" transform="rotate(267 185 519)" xlink:href="#c2bgc"/><use fill="rgba(0,0,0,0.977)" transform="rotate(268 185 519)" xlink:href="#c2bgc"/><use fill="rgba(0,0,0,0.975)" transform="rotate(269 185 519)" xlink:href="#c2bgc"/><use fill="rgba(0,0,0,0.972)" transform="rotate(270 185 519)" xlink:href="#c2bgc"/><use fill="rgba(0,0,0,0.97)" transform="rotate(271 185 519)" xlink:href="#c2bgc"/><use fill="rgba(0,0,0,0.967)" transform="rotate(272 185 519)" xlink:href="#c2bgc"/><use fill="rgba(0,0,0,0.965)" transform="rotate(273 185 519)" xlink:href="#c2bgc"/><use fill="rgba(0,0,0,0.962)" transform="rotate(274 185 519)" xlink:href="#c2bgc"/><use fill="rgba(0,0,0,0.96)" transform="rotate(275 185 519)" xlink:href="#c2bgc"/><use fill="rgba(0,0,0,0.957)" transform="rotate(276 185 519)" xlink:href="#c2bgc"/><use fill="rgba(0,0,0,0.954)" transform="rotate(277 185 519)" xlink:href="#c2bgc"/><use fill="rgba(0,0,0,0.952)" transform="rotate(278 185 519)" xlink:href="#c2bgc"/><use fill="rgba(0,0,0,0.949)" transform="rotate(279 185 519)" xlink:href="#c2bgc"/><use fill="rgba(0,0,0,0.947)" transform="rotate(280 185 519)" xlink:href="#c2bgc"/><use fill="rgba(0,0,0,0.944)" transform="rotate(281 185 519)" xlink:href="#c2bgc"/><use fill="rgba(0,0,0,0.942)" transform="rotate(282 185 519)" xlink:href="#c2bgc"/><use fill="rgba(0,0,0,0.939)" transform="rotate(283 185 519)" xlink:href="#c2bgc"/><use fill="rgba(0,0,0,0.937)" transform="rotate(284 185 519)" xlink:href="#c2bgc"/><use fill="rgba(0,0,0,0.934)" transform="rotate(285 185 519)" xlink:href="#c2bgc"/><use fill="rgba(0,0,0,0.932)" transform="rotate(286 185 519)" xlink:href="#c2bgc"/><use fill="rgba(0,0,0,0.929)" transform="rotate(287 185 519)" xlink:href="#c2bgc"/><use fill="rgba(0,0,0,0.927)" transform="rotate(288 185 519)" xlink:href="#c2bgc"/><use fill="rgba(0,0,0,0.924)" transform="rotate(289 185 519)" xlink:href="#c2bgc"/><use fill="rgba(0,0,0,0.922)" transform="rotate(290 185 519)" xlink:href="#c2bgc"/><use fill="rgba(0,0,0,0.919)" transform="rotate(291 185 519)" xlink:href="#c2bgc"/><use fill="rgba(0,0,0,0.917)" transform="rotate(292 185 519)" xlink:href="#c2bgc"/><use fill="rgba(0,0,0,0.914)" transform="rotate(293 185 519)" xlink:href="#c2bgc"/><use fill="rgba(0,0,0,0.911)" transform="rotate(294 185 519)" xlink:href="#c2bgc"/><use fill="rgba(0,0,0,0.909)" transform="rotate(295 185 519)" xlink:href="#c2bgc"/><use fill="rgba(0,0,0,0.906)" transform="rotate(296 185 519)" xlink:href="#c2bgc"/><use fill="rgba(0,0,0,0.904)" transform="rotate(297 185 519)" xlink:href="#c2bgc"/><use fill="rgba(0,0,0,0.901)" transform="rotate(298 185 519)" xlink:href="#c2bgc"/><use fill="rgba(0,0,0,0.899)" transform="rotate(299 185 519)" xlink:href="#c2bgc"/><use fill="rgba(0,0,0,0.896)" transform="rotate(300 185 519)" xlink:href="#c2bgc"/><use fill="rgba(0,0,0,0.894)" transform="rotate(301 185 519)" xlink:href="#c2bgc"/><use fill="rgba(0,0,0,0.891)" transform="rotate(302 185 519)" xlink:href="#c2bgc"/><use fill="rgba(0,0,0,0.889)" transform="rotate(303 185 519)" xlink:href="#c2bgc"/><use fill="rgba(0,0,0,0.886)" transform="rotate(304 185 519)" xlink:href="#c2bgc"/><use fill="rgba(0,0,0,0.884)" transform="rotate(305 185 519)" xlink:href="#c2bgc"/><use fill="rgba(0,0,0,0.881)" transform="rotate(306 185 519)" xlink:href="#c2bgc"/><use fill="rgba(0,0,0,0.879)" transform="rotate(307 185 519)" xlink:href="#c2bgc"/><use fill="rgba(0,0,0,0.876)" transform="rotate(308 185 519)" xlink:href="#c2bgc"/><use fill="rgba(0,0,0,0.874)" transform="rotate(309 185 519)" xlink:href="#c2bgc"/><use fill="rgba(0,0,0,0.871)" transform="rotate(310 185 519)" xlink:href="#c2bgc"/><use fill="rgba(0,0,0,0.868)" transform="rotate(311 185 519)" xlink:href="#c2bgc"/><use fill="rgba(0,0,0,0.866)" transform="rotate(312 185 519)" xlink:href="#c2bgc"/><use fill="rgba(0,0,0,0.863)" transform="rotate(313 185 519)" xlink:href="#c2bgc"/><use fill="rgba(0,0,0,0.861)" transform="rotate(314 185 519)" xlink:href="#c2bgc"/><use fill="rgba(0,0,0,0.858)" transform="rotate(315 185 519)" xlink:href="#c2bgc"/><use fill="rgba(0,0,0,0.856)" transform="rotate(316 185 519)" xlink:href="#c2bgc"/><use fill="rgba(0,0,0,0.853)" transform="rotate(317 185 519)" xlink:href="#c2bgc"/><use fill="rgba(0,0,0,0.851)" transform="rotate(318 185 519)" xlink:href="#c2bgc"/><use fill="rgba(0,0,0,0.848)" transform="rotate(319 185 519)" xlink:href="#c2bgc"/><use fill="rgba(0,0,0,0.846)" transform="rotate(320 185 519)" xlink:href="#c2bgc"/><use fill="rgba(0,0,0,0.843)" transform="rotate(321 185 519)" xlink:href="#c2bgc"/><use fill="rgba(0,0,0,0.841)" transform="rotate(322 185 519)" xlink:href="#c2bgc"/><use fill="rgba(0,0,0,0.838)" transform="rotate(323 185 519)" xlink:href="#c2bgc"/><use fill="rgba(0,0,0,0.836)" transform="rotate(324 185 519)" xlink:href="#c2bgc"/><use fill="rgba(0,0,0,0.833)" transform="rotate(325 185 519)" xlink:href="#c2bgc"/><use fill="rgba(0,0,0,0.83)" transform="rotate(326 185 519)" xlink:href="#c2bgc"/><use fill="rgba(0,0,0,0.828)" transform="rotate(327 185 519)" xlink:href="#c2bgc"/><use fill="rgba(0,0,0,0.825)" transform="rotate(328 185 519)" xlink:href="#c2bgc"/><use fill="rgba(0,0,0,0.823)" transform="rotate(329 185 519)" xlink:href="#c2bgc"/><use fill="rgba(0,0,0,0.82)" transform="rotate(330 185 519)" xlink:href="#c2bgc"/><use fill="rgba(0,0,0,0.818)" transform="rotate(331 185 519)" xlink:href="#c2bgc"/><use fill="rgba(0,0,0,0.815)" transform="rotate(332 185 519)" xlink:href="#c2bgc"/><use fill="rgba(0,0,0,0.813)" transform="rotate(333 185 519)" xlink:href="#c2bgc"/><use fill="rgba(0,0,0,0.81)" transform="rotate(334 185 519)" xlink:href="#c2bgc"/><use fill="rgba(0,0,0,0.808)" transform="rotate(335 185 519)" xlink:href="#c2bgc"/><use fill="rgba(0,0,0,0.805)" transform="rotate(336 185 519)" xlink:href="#c2bgc"/><use fill="rgba(0,0,0,0.803)" transform="rotate(337 185 519)" xlink:href="#c2bgc"/><use fill="rgba(0,0,0,0.8)" transform="rotate(338 185 519)" xlink:href="#c2bgc"/><use fill="rgba(0,0,0,0.798)" transform="rotate(339 185 519)" xlink:href="#c2bgc"/><use fill="rgba(0,0,0,0.795)" transform="rotate(340 185 519)" xlink:href="#c2bgc"/><use fill="rgba(0,0,0,0.793)" transform="rotate(341 185 519)" xlink:href="#c2bgc"/><use fill="rgba(0,0,0,0.79)" transform="rotate(342 185 519)" xlink:href="#c2bgc"/><use fill="rgba(0,0,0,0.787)" transform="rotate(343 185 519)" xlink:href="#c2bgc"/><use fill="rgba(0,0,0,0.785)" transform="rotate(344 185 519)" xlink:href="#c2bgc"/><use fill="rgba(0,0,0,0.782)" transform="rotate(345 185 519)" xlink:href="#c2bgc"/><use fill="rgba(0,0,0,0.78)" transform="rotate(346 185 519)" xlink:href="#c2bgc"/><use fill="rgba(0,0,0,0.777)" transform="rotate(347 185 519)" xlink:href="#c2bgc"/><use fill="rgba(0,0,0,0.775)" transform="rotate(348 185 519)" xlink:href="#c2bgc"/><use fill="rgba(0,0,0,0.772)" transform="rotate(349 185 519)" xlink:href="#c2bgc"/><use fill="rgba(0,0,0,0.77)" transform="rotate(350 185 519)" xlink:href="#c2bgc"/><use fill="rgba(0,0,0,0.767)" transform="rotate(351 185 519)" xlink:href="#c2bgc"/><use fill="rgba(0,0,0,0.765)" transform="rotate(352 185 519)" xlink:href="#c2bgc"/><use fill="rgba(0,0,0,0.762)" transform="rotate(353 185 519)" xlink:href="#c2bgc"/><use fill="rgba(0,0,0,0.76)" transform="rotate(354 185 519)" xlink:href="#c2bgc"/><use fill="rgba(0,0,0,0.757)" transform="rotate(355 185 519)" xlink:href="#c2bgc"/><use fill="rgba(0,0,0,0.755)" transform="rotate(356 185 519)" xlink:href="#c2bgc"/><use fill="rgba(0,0,0,0.752)" transform="rotate(357 185 519)" xlink:href="#c2bgc"/><use fill="rgba(0,0,0,0.75)" transform="rotate(358 185 519)" xlink:href="#c2bgc"/></g></g></g></g></svg>