<svg xmlns="http://www.w3.org/2000/svg" xmlns:xlink="http://www.w3.org/1999/xlink" width="72" height="76" viewBox="0 0 72 76"><defs><path id="u2oxa" d="M259 350.5a23.55 23.55 0 0 1 23.54-23.5A23.48 23.48 0 0 1 306 350.5a23.53 23.53 0 0 1-23.46 23.5A23.55 23.55 0 0 1 259 350.5zm61.67 35.7l-13.78-13.8a32.68 32.68 0 0 0 8.33-21.74c0-18-14.63-32.66-32.61-32.66A32.68 32.68 0 0 0 250 350.66c0 18 14.63 32.66 32.61 32.66 6.38 0 12.3-1.87 17.28-4.99l14.32 14.34a4.54 4.54 0 0 0 6.38 0 4.5 4.5 0 0 0 .08-6.46z"/></defs><g><g opacity=".25" transform="translate(-250 -318)"><use fill="#fff" xlink:href="#u2oxa"/></g></g></svg>