<svg xmlns="http://www.w3.org/2000/svg" xmlns:xlink="http://www.w3.org/1999/xlink" width="86" height="68" viewBox="0 0 86 68"><defs><path id="w09ya" d="M1266.5 349.9c3.3 5.8 1.4 13.2-4.4 16.6-5.8 3.3-13.2 1.4-16.6-4.4a12.2 12.2 0 0 1-1-10l11.7 4.3-6.3-10.9a12.1 12.1 0 0 1 16.6 4.4z"/><path id="w09yb" d="M1256 379.9a23.9 23.9 0 1 1 0-47.8 23.9 23.9 0 0 1 0 47.8zm0-57.7c-23.4 0-42.3 33.8-42.3 33.8s18.9 33.8 42.3 33.8 42.3-33.8 42.3-33.8-18.9-33.8-42.3-33.8z"/></defs><g><g opacity=".25" transform="translate(-1213 -322)"><use fill="#f9f9fb" xlink:href="#w09ya"/></g><g opacity=".25" transform="translate(-1213 -322)"><use fill="#f9f9fb" xlink:href="#w09yb"/></g></g></svg>