<svg xmlns="http://www.w3.org/2000/svg" xmlns:xlink="http://www.w3.org/1999/xlink" width="32" height="32" viewBox="0 0 32 32"><defs><path id="bwpka" d="M185 2501a16 16 0 1 1 32 0 16 16 0 0 1-32 0z"/><path id="bwpkb" d="M200 2501c-2.35 0-3.2-3.03-3.2-4.8a3.2 3.2 0 0 1 6.4 0c0 1.77-.86 4.8-3.2 4.8zm0 2c1.27 0 2.25-.6 2.98-1.47A7.88 7.88 0 0 1 206 2504v3a2 2 0 0 1-2 2h-8.1a2 2 0 0 1-2-1.94c-.04-1.17 0-2.19.1-3.06a8.92 8.92 0 0 1 3.06-2.43c.73.86 1.7 1.43 2.94 1.43zm9-6h1a1 1 0 0 1 0 2h-1v1a1 1 0 0 1-2 0v-1h-1a1 1 0 1 1 0-2h1v-1a1 1 0 1 1 2 0z"/></defs><g><g transform="translate(-185 -2485)"><g><use fill="#f8ce46" xlink:href="#bwpka"/></g><g><use fill="#2a313b" xlink:href="#bwpkb"/></g></g></g></svg>