<svg xmlns="http://www.w3.org/2000/svg" xmlns:xlink="http://www.w3.org/1999/xlink" width="32" height="32" viewBox="0 0 32 32"><defs><path id="o1jya" d="M185 2672a16 16 0 1 1 32 0 16 16 0 0 1-32 0zm24.22.08a8.08 8.08 0 0 0-9.53-7.9 4.74 4.74 0 0 0-7.22 3.94c0 .86.23 1.66.64 2.35a8.08 8.08 0 0 0 9.46 9.5c.67.35 1.43.55 2.24.55 2.6 0 4.71-2.08 4.71-4.65 0-.74-.17-1.44-.49-2.06.13-.56.19-1.14.19-1.73z"/><path id="o1jyb" d="M205.26 2675.92c-.37.53-.93.94-1.65 1.24a6.7 6.7 0 0 1-2.54.44c-1.17 0-2.15-.2-2.92-.6-.55-.3-1-.69-1.34-1.18-.35-.49-.52-.97-.52-1.45a1 1 0 0 1 .34-.75c.22-.21.5-.31.85-.31.28 0 .52.08.72.24.18.16.34.4.47.69.15.33.3.6.47.81.16.21.39.39.68.53.3.13.7.2 1.19.2a2.9 2.9 0 0 0 1.63-.42c.41-.27.6-.6.6-1 0-.31-.1-.56-.3-.76-.23-.2-.52-.36-.88-.47-.37-.11-.87-.24-1.49-.37a11.9 11.9 0 0 1-2.13-.63 3.51 3.51 0 0 1-1.4-1 2.49 2.49 0 0 1-.53-1.61c0-.6.19-1.16.56-1.63.36-.46.9-.83 1.58-1.08a7 7 0 0 1 2.38-.37c.73 0 1.37.08 1.9.25.54.16 1 .38 1.35.66.36.27.62.57.79.87.17.31.25.62.25.92 0 .29-.1.55-.33.77-.22.23-.5.35-.84.35-.3 0-.53-.07-.7-.22a2.63 2.63 0 0 1-.48-.63c-.2-.38-.45-.68-.73-.9-.28-.2-.73-.3-1.36-.3-.59 0-1.06.11-1.41.34-.34.22-.5.47-.5.77 0 .18.05.33.16.46.11.14.27.27.48.37.21.1.43.19.66.25l1.12.27c.66.14 1.27.3 1.8.47.54.17 1.01.38 1.4.62.38.25.7.57.91.96.22.38.33.86.33 1.41 0 .66-.19 1.27-.57 1.8z"/></defs><g><g transform="translate(-185 -2656)"><g><g><use fill="#8d9099" xlink:href="#o1jya"/></g><g><use fill="#8d9099" xlink:href="#o1jyb"/></g></g></g></g></svg>