<svg xmlns="http://www.w3.org/2000/svg" xmlns:xlink="http://www.w3.org/1999/xlink" width="20" height="20" viewBox="0 0 20 20"><defs><path id="2b3ba" d="M61.42 690.12c.37.73.58 1.56.58 2.43a5.5 5.5 0 0 1-5.53 5.45c-.95 0-1.84-.24-2.62-.65a9.47 9.47 0 0 1-11.1-11.14 5.38 5.38 0 0 1-.75-2.75 5.56 5.56 0 0 1 8.47-4.62 9.47 9.47 0 0 1 10.95 11.29zm-4.41 2.48c.44-.62.67-1.32.67-2.1 0-.65-.13-1.2-.4-1.66a3.23 3.23 0 0 0-1.07-1.12c-.45-.28-1-.53-1.63-.73-.63-.2-1.34-.38-2.11-.54l-1.32-.32a4.2 4.2 0 0 1-.77-.3 1.7 1.7 0 0 1-.57-.42.81.81 0 0 1-.2-.55c0-.35.2-.65.6-.9.41-.27.97-.4 1.65-.4.74 0 1.28.12 1.6.36.33.25.62.6.86 1.04.2.35.39.6.57.75.19.17.46.25.82.25.39 0 .72-.13.98-.4s.39-.57.39-.91c0-.35-.1-.7-.3-1.07-.2-.36-.5-.7-.93-1.03a4.93 4.93 0 0 0-1.57-.77 7.66 7.66 0 0 0-2.23-.3c-1.07 0-2.01.15-2.8.44-.8.3-1.43.72-1.86 1.27-.43.55-.64 1.2-.64 1.9 0 .75.2 1.38.61 1.89.4.5.96.9 1.64 1.18.67.28 1.51.53 2.5.74.73.15 1.32.3 1.76.42.41.13.76.32 1.02.56.24.23.36.52.36.89 0 .47-.23.86-.7 1.17a3.4 3.4 0 0 1-1.93.5c-.57 0-1.04-.09-1.38-.25a2.12 2.12 0 0 1-.8-.6c-.2-.26-.38-.58-.55-.96a2.16 2.16 0 0 0-.56-.8c-.23-.2-.51-.3-.84-.3-.4 0-.74.12-1 .37-.26.24-.4.54-.4.89 0 .55.2 1.12.61 1.7.4.57.93 1.03 1.58 1.37.9.47 2.04.7 3.41.7 1.15 0 2.15-.17 2.99-.51.84-.35 1.5-.83 1.94-1.45z"/></defs><g><g transform="translate(-42 -678)"><g><use fill="#a4a6ad" xlink:href="#2b3ba"/></g></g></g></svg>