<svg xmlns="http://www.w3.org/2000/svg" xmlns:xlink="http://www.w3.org/1999/xlink" width="24" height="24" viewBox="0 0 24 24"><defs><path id="wc8la" d="M719 1130a11 11 0 1 1 22 0 11 11 0 0 1-22 0z"/><path id="wc8lb" d="M732 1127.5a1.5 1.5 0 1 1 3 0 1.5 1.5 0 0 1-3 0z"/><path id="wc8lc" d="M725 1127.5a1.5 1.5 0 1 1 3 0 1.5 1.5 0 0 1-3 0z"/><path id="wc8ld" d="M726 1134s2 1.5 4 1.5 4-1.5 4-1.5"/></defs><g><g transform="translate(-718 -1118)"><g><use fill="#fff" fill-opacity="0" stroke="#8d9099" stroke-linecap="round" stroke-linejoin="round" stroke-miterlimit="50" stroke-width="2" xlink:href="#wc8la"/></g><g><use fill="#a4a6ad" xlink:href="#wc8lb"/></g><g><use fill="#a4a6ad" xlink:href="#wc8lc"/></g><g><use fill="#fff" fill-opacity="0" stroke="#8d9099" stroke-linecap="round" stroke-linejoin="round" stroke-miterlimit="50" stroke-width="2" xlink:href="#wc8ld"/></g></g></g></svg>