<svg xmlns="http://www.w3.org/2000/svg" xmlns:xlink="http://www.w3.org/1999/xlink" width="24" height="24" viewBox="0 0 24 24"><defs><path id="7mqua" d="M719 898a11 11 0 1 1 22 0 11 11 0 0 1-22 0z"/><path id="7mqub" d="M732 895.5a1.5 1.5 0 1 1 3 0 1.5 1.5 0 0 1-3 0z"/><path id="7mquc" d="M725 895.5a1.5 1.5 0 1 1 3 0 1.5 1.5 0 0 1-3 0z"/><path id="7mqud" d="M726 903s2-1.5 4-1.5 4 1.5 4 1.5"/></defs><g><g transform="translate(-718 -886)"><g><use fill="#fff" fill-opacity="0" stroke="#8d9099" stroke-linecap="round" stroke-linejoin="round" stroke-miterlimit="50" stroke-width="2" xlink:href="#7mqua"/></g><g><use fill="#a4a6ad" xlink:href="#7mqub"/></g><g><use fill="#a4a6ad" xlink:href="#7mquc"/></g><g><use fill="#fff" fill-opacity="0" stroke="#8d9099" stroke-linecap="round" stroke-linejoin="round" stroke-miterlimit="50" stroke-width="2" xlink:href="#7mqud"/></g></g></g></svg>