<svg class="lds-spinner" width="112px"  height="112px"  xmlns="http://www.w3.org/2000/svg" xmlns:xlink="http://www.w3.org/1999/xlink" viewBox="0 0 100 100" preserveAspectRatio="xMidYMid" style="background: none;"><g transform="rotate(0 50 50)">
  <rect x="48" y="10" rx="9.6" ry="2" width="4" height="20" fill="#000000">
    <animate attributeName="opacity" values="1;0" keyTimes="0;1" dur="1.6s" begin="-1.4857142857142858s" repeatCount="indefinite"></animate>
  </rect>
</g><g transform="rotate(25.714285714285715 50 50)">
  <rect x="48" y="10" rx="9.6" ry="2" width="4" height="20" fill="#000000">
    <animate attributeName="opacity" values="1;0" keyTimes="0;1" dur="1.6s" begin="-1.3714285714285717s" repeatCount="indefinite"></animate>
  </rect>
</g><g transform="rotate(51.42857142857143 50 50)">
  <rect x="48" y="10" rx="9.6" ry="2" width="4" height="20" fill="#000000">
    <animate attributeName="opacity" values="1;0" keyTimes="0;1" dur="1.6s" begin="-1.2571428571428573s" repeatCount="indefinite"></animate>
  </rect>
</g><g transform="rotate(77.14285714285714 50 50)">
  <rect x="48" y="10" rx="9.6" ry="2" width="4" height="20" fill="#000000">
    <animate attributeName="opacity" values="1;0" keyTimes="0;1" dur="1.6s" begin="-1.1428571428571428s" repeatCount="indefinite"></animate>
  </rect>
</g><g transform="rotate(102.85714285714286 50 50)">
  <rect x="48" y="10" rx="9.6" ry="2" width="4" height="20" fill="#000000">
    <animate attributeName="opacity" values="1;0" keyTimes="0;1" dur="1.6s" begin="-1.0285714285714287s" repeatCount="indefinite"></animate>
  </rect>
</g><g transform="rotate(128.57142857142858 50 50)">
  <rect x="48" y="10" rx="9.6" ry="2" width="4" height="20" fill="#000000">
    <animate attributeName="opacity" values="1;0" keyTimes="0;1" dur="1.6s" begin="-0.9142857142857144s" repeatCount="indefinite"></animate>
  </rect>
</g><g transform="rotate(154.28571428571428 50 50)">
  <rect x="48" y="10" rx="9.6" ry="2" width="4" height="20" fill="#000000">
    <animate attributeName="opacity" values="1;0" keyTimes="0;1" dur="1.6s" begin="-0.8s" repeatCount="indefinite"></animate>
  </rect>
</g><g transform="rotate(180 50 50)">
  <rect x="48" y="10" rx="9.6" ry="2" width="4" height="20" fill="#000000">
    <animate attributeName="opacity" values="1;0" keyTimes="0;1" dur="1.6s" begin="-0.6857142857142858s" repeatCount="indefinite"></animate>
  </rect>
</g><g transform="rotate(205.71428571428572 50 50)">
  <rect x="48" y="10" rx="9.6" ry="2" width="4" height="20" fill="#000000">
    <animate attributeName="opacity" values="1;0" keyTimes="0;1" dur="1.6s" begin="-0.5714285714285714s" repeatCount="indefinite"></animate>
  </rect>
</g><g transform="rotate(231.42857142857142 50 50)">
  <rect x="48" y="10" rx="9.6" ry="2" width="4" height="20" fill="#000000">
    <animate attributeName="opacity" values="1;0" keyTimes="0;1" dur="1.6s" begin="-0.4571428571428572s" repeatCount="indefinite"></animate>
  </rect>
</g><g transform="rotate(257.14285714285717 50 50)">
  <rect x="48" y="10" rx="9.6" ry="2" width="4" height="20" fill="#000000">
    <animate attributeName="opacity" values="1;0" keyTimes="0;1" dur="1.6s" begin="-0.3428571428571429s" repeatCount="indefinite"></animate>
  </rect>
</g><g transform="rotate(282.85714285714283 50 50)">
  <rect x="48" y="10" rx="9.6" ry="2" width="4" height="20" fill="#000000">
    <animate attributeName="opacity" values="1;0" keyTimes="0;1" dur="1.6s" begin="-0.2285714285714286s" repeatCount="indefinite"></animate>
  </rect>
</g><g transform="rotate(308.57142857142856 50 50)">
  <rect x="48" y="10" rx="9.6" ry="2" width="4" height="20" fill="#000000">
    <animate attributeName="opacity" values="1;0" keyTimes="0;1" dur="1.6s" begin="-0.1142857142857143s" repeatCount="indefinite"></animate>
  </rect>
</g><g transform="rotate(334.2857142857143 50 50)">
  <rect x="48" y="10" rx="9.6" ry="2" width="4" height="20" fill="#000000">
    <animate attributeName="opacity" values="1;0" keyTimes="0;1" dur="1.6s" begin="0s" repeatCount="indefinite"></animate>
  </rect>
</g></svg>