<svg xmlns="http://www.w3.org/2000/svg" xmlns:xlink="http://www.w3.org/1999/xlink" width="14" height="12" viewBox="0 0 14 12"><defs><path id="iehca" d="M630 5678.75a6.04 6.04 0 0 0 4.25-1.15 2.86 2.86 0 0 1-2.68-1.93 2.96 2.96 0 0 0 1.3-.04 2.8 2.8 0 0 1-2.3-2.73v-.03c.38.2.82.33 1.3.35a2.75 2.75 0 0 1-1.28-2.32c0-.5.14-.98.38-1.4a8.25 8.25 0 0 0 5.92 2.91 2.83 2.83 0 0 1 2.8-3.41c.83 0 1.58.34 2.1.88a5.87 5.87 0 0 0 1.82-.68 2.8 2.8 0 0 1-1.26 1.54 5.9 5.9 0 0 0 1.65-.44 5.73 5.73 0 0 1-1.43 1.44v.36c0 3.67-2.88 7.9-8.17 7.9a8.33 8.33 0 0 1-4.4-1.25z"/><path id="iehcd" d="M629 5682v-15h16v15zm5.4-1a7.98 7.98 0 0 0 8.17-8.26c.56-.4 1.04-.88 1.43-1.44a5.9 5.9 0 0 1-1.65.44 2.8 2.8 0 0 0 1.26-1.54c-.55.32-1.17.55-1.82.68a2.92 2.92 0 0 0-2.1-.88 2.83 2.83 0 0 0-2.8 3.41 8.25 8.25 0 0 1-5.92-2.9 2.7 2.7 0 0 0-.38 1.4c0 .96.5 1.8 1.27 2.3a2.94 2.94 0 0 1-1.3-.34v.03a2.8 2.8 0 0 0 2.3 2.73 2.97 2.97 0 0 1-1.3.04 2.86 2.86 0 0 0 2.7 1.93 5.89 5.89 0 0 1-4.26 1.15 8.33 8.33 0 0 0 4.4 1.25z"/><mask id="iehcc" width="2" height="2" x="-1" y="-1"><path fill="#fff" d="M630 5669h14v11h-14z"/><use xlink:href="#iehca"/></mask><filter id="iehcb" width="34" height="32" x="620" y="5659" filterUnits="userSpaceOnUse"><feOffset dy="1" in="SourceGraphic" result="FeOffset1023Out"/><feGaussianBlur in="FeOffset1023Out" result="FeGaussianBlur1024Out" stdDeviation="0 0"/></filter><filter id="iehce" width="200%" height="200%" x="-50%" y="-50%"><feGaussianBlur in="SourceGraphic" result="FeGaussianBlur1029Out" stdDeviation="0.5 0.5"/></filter><mask id="iehcf"><use fill="#fff" xlink:href="#iehca"/></mask></defs><g><g transform="translate(-630 -5669)"><g filter="url(#iehcb)"><use fill="none" stroke-opacity=".5" stroke-width="0" mask="url(&quot;#iehcc&quot;)" xlink:href="#iehca"/><use fill="#fff" fill-opacity=".5" xlink:href="#iehca"/></g><use fill="#00acee" xlink:href="#iehca"/><use fill="#008ec4" stroke="#008ec4" stroke-width="0" filter="url(#iehce)" mask="url(&quot;#iehcf&quot;)" xlink:href="#iehcd"/></g></g></svg>