<svg xmlns="http://www.w3.org/2000/svg" xmlns:xlink="http://www.w3.org/1999/xlink" width="32" height="32" viewBox="0 0 32 32"><defs><path id="w35ma" d="M300 2550.5c0-1.38 1.05-2.5 2.33-2.5h9.34c1.29 0 2.33 1.12 2.33 2.5v15c0 1.38-1.05 2.5-2.33 2.5h-9.34c-1.29 0-2.33-1.12-2.33-2.5zm2 .3v2.2h10v-2.2c0-.44-.32-.8-.7-.8h-8.6c-.38 0-.7.36-.7.8zm0 14.4c0 .44.32.8.7.8h8.6c.38 0 .7-.36.7-.8v-2.2h-10zm10-10.2h-10v6h10zm-7-3v-1h4v1zm1 13v-1h2v1zm1 9a16 16 0 1 0 0-32 16 16 0 0 0 0 32z"/></defs><g><g transform="translate(-291 -2542)"><use fill="#8d9099" xlink:href="#w35ma"/></g></g></svg>