<svg xmlns="http://www.w3.org/2000/svg" xmlns:xlink="http://www.w3.org/1999/xlink" width="32" height="32" viewBox="0 0 32 32"><defs><path id="t4jqa" d="M455 2859a16 16 0 1 1 32 0 16 16 0 0 1-32 0z"/><path id="t4jqb" d="M471.06 2858.23c-2.7 0-3.7-3.5-3.7-5.54a3.7 3.7 0 1 1 7.38 0c0 2.04-.98 5.54-3.68 5.54zm0 2.31c1.47 0 2.6-.68 3.44-1.7a9.1 9.1 0 0 1 3.49 2.86c0 1.07.01 2.33 0 3.77 0 1.1-.9 2.53-2 2.53h-9.92c-1.08 0-1.97-1.4-2-2.47-.05-1.45-.07-2.73-.07-3.83a10.18 10.18 0 0 1 3.65-2.82c.85 1 1.96 1.66 3.41 1.66z"/></defs><g><g transform="translate(-455 -2843)"><g><use fill="#f8ce46" xlink:href="#t4jqa"/></g><g><g><use fill="#2a313b" xlink:href="#t4jqb"/></g></g></g></g></svg>