<svg xmlns="http://www.w3.org/2000/svg" xmlns:xlink="http://www.w3.org/1999/xlink" width="32" height="32" viewBox="0 0 32 32"><defs><path id="z1gla" d="M145.85 2911.2a4.23 4.23 0 0 0-.54-.08c-.26-.01-.31 0-.43.06-.32.16-.41.6-.18.88.13.15.24.2.63.24.83.1 1.32.41 1.6 1a3 3 0 0 1 .25 1.02c.03.33.08.45.23.56.2.16.55.16.74-.01.2-.19.23-.4.15-.97a3.12 3.12 0 0 0-.94-1.96c-.4-.38-.89-.62-1.51-.75zm-.67-2.38c-.76-.12-1.01-.08-1.18.18-.15.23-.13.5.05.71.12.14.29.2.6.23.86.07 1.8.35 2.43.72a4.8 4.8 0 0 1 2.34 4.18c0 .53.08.73.32.85.15.08.4.08.53.02.12-.06.25-.2.29-.31a6.26 6.26 0 0 0-1-3.97 6.12 6.12 0 0 0-4.38-2.61zm-7.45-1.95a1.72 1.72 0 0 0-.8-.07c-.3.06-.67.28-1.48.89a7.04 7.04 0 0 0-1.33 1.29c-.36.62-.34 1.16.1 2.39a23.5 23.5 0 0 0 3.36 6.09 25.1 25.1 0 0 0 10.8 8.3c.57.23.75.27 1.2.25.53-.03.94-.2 1.51-.63a7 7 0 0 0 1.78-2.22c.23-.57.17-1.09-.16-1.49a18.96 18.96 0 0 0-3.8-2.79 1.7 1.7 0 0 0-1.37-.12c-.35.12-.47.22-.98.87-.26.32-.5.62-.54.65-.03.03-.14.09-.25.14-.41.19-.98.07-1.9-.39a8.76 8.76 0 0 1-2.09-1.47 9.5 9.5 0 0 1-1.59-1.86 5.3 5.3 0 0 1-.8-2.22c0-.23.1-.55.21-.72.05-.06.33-.31.63-.55.75-.6.92-.8 1.02-1.16.1-.33 0-.78-.32-1.4a15.32 15.32 0 0 0-2.82-3.6c-.1-.06-.27-.14-.38-.18zm7.23-.35c-.22-.03-.61-.06-.88-.07-.52-.01-.62 0-.77.14-.24.22-.23.69.02.88.14.1.24.13.84.17a7.7 7.7 0 0 1 7.39 6.44c.09.52.14.96.17 1.64.02.44.03.54.1.66.17.34.7.4.94.08.13-.15.14-.28.12-.83-.06-1.62-.41-3.1-1.03-4.33a7.67 7.67 0 0 0-1.61-2.21 8.82 8.82 0 0 0-5.3-2.57zM144 2900a16 16 0 1 1 0 32 16 16 0 0 1 0-32z"/></defs><g><g transform="translate(-128 -2900)"><g><g><use fill="#8d9099" xlink:href="#z1gla"/></g></g></g></g></svg>