<svg xmlns="http://www.w3.org/2000/svg" xmlns:xlink="http://www.w3.org/1999/xlink" width="20" height="20" viewBox="0 0 20 20"><defs><path id="zu3aa" d="M53.85 575.18a4.22 4.22 0 0 0-.53-.06c-.27-.02-.32-.01-.44.05a.6.6 0 0 0-.18.89c.13.14.25.19.63.24.83.1 1.32.4 1.6 1 .13.29.2.6.25 1.03.03.32.08.44.23.56.21.16.56.15.74-.02.2-.18.24-.4.15-.97a3.14 3.14 0 0 0-.94-1.96c-.4-.38-.88-.62-1.5-.76zm-.67-2.37c-.76-.11-1-.07-1.17.18-.16.23-.14.51.04.72.12.13.3.2.6.22.86.07 1.8.35 2.44.73a4.8 4.8 0 0 1 2.34 4.18c0 .54.08.73.32.85.15.08.41.09.53.02.12-.06.25-.2.3-.3a6.27 6.27 0 0 0-1-3.97 6.13 6.13 0 0 0-4.4-2.63zm-7.45-1.95a1.72 1.72 0 0 0-.79-.07c-.3.06-.68.29-1.5.9a7.05 7.05 0 0 0-1.31 1.28c-.37.63-.35 1.16.1 2.4.76 2.1 1.88 4.13 3.35 6.09a25.1 25.1 0 0 0 10.8 8.3c.57.24.75.27 1.2.25.53-.02.94-.2 1.52-.63a7 7 0 0 0 1.78-2.21c.22-.58.16-1.1-.17-1.5a18.96 18.96 0 0 0-3.8-2.8 1.7 1.7 0 0 0-1.37-.11c-.35.12-.46.22-.98.87-.26.32-.5.62-.54.65-.03.03-.14.1-.25.14-.41.2-.98.07-1.9-.39a8.76 8.76 0 0 1-2.09-1.47 9.5 9.5 0 0 1-1.59-1.86 5.3 5.3 0 0 1-.79-2.22c0-.23.1-.55.2-.72.05-.06.33-.31.63-.56.75-.6.92-.79 1.02-1.15.1-.33 0-.79-.32-1.4a15.33 15.33 0 0 0-2.82-3.6c-.1-.06-.27-.15-.38-.19zm7.23-.34c-.21-.02-.6-.06-.88-.07-.51-.01-.62 0-.77.14-.24.22-.23.69.03.89.13.1.24.12.84.16a7.7 7.7 0 0 1 7.38 6.44c.1.53.14.97.17 1.65.02.44.04.54.1.65.17.34.7.4.94.09.13-.16.14-.28.12-.84-.06-1.62-.4-3.09-1.03-4.32a7.67 7.67 0 0 0-1.6-2.22 8.82 8.82 0 0 0-5.3-2.57z"/></defs><g><g transform="translate(-41 -571)"><g><g><use fill="#a4a6ad" xlink:href="#zu3aa"/></g></g></g></g></svg>