<svg xmlns="http://www.w3.org/2000/svg" xmlns:xlink="http://www.w3.org/1999/xlink" width="12" height="20" viewBox="0 0 12 20"><defs><path id="74jwa" d="M677.5 3156.83l-2.58 13.03h1.94l1.66-7.4 1.94 1.85v5.55h1.85v-6.93l-1.94-1.85.55-2.77a6.76 6.76 0 0 0 5.08 2.31v-1.85a4.54 4.54 0 0 1-3.97-2.21l-.92-1.48a1.9 1.9 0 0 0-1.57-.93c-.28 0-.46.1-.74.1l-4.8 2.03v4.34h1.85v-3.14l1.66-.65zm3.42-3.14c1.02 0 1.85-.83 1.85-1.84a1.85 1.85 0 0 0-3.7 0c0 1.01.84 1.84 1.85 1.84z"/></defs><g><g transform="translate(-674 -3150)"><use fill="#8d9099" xlink:href="#74jwa"/></g></g></svg>