<svg xmlns="http://www.w3.org/2000/svg" xmlns:xlink="http://www.w3.org/1999/xlink" width="32" height="32" viewBox="0 0 32 32"><defs><path id="65zga" d="M463 2916a16 16 0 1 1 32 0 16 16 0 0 1-32 0zm13.61 3h-5.5c-.02 0-.11-.11-.11-.33v-5.34c0-.22.1-.33.1-.33h5.51c.01 0 .1.11.1.33a1 1 0 1 0 2 0c0-1.25-.89-2.33-2.1-2.33h-5.5c-1.22 0-2.11 1.08-2.11 2.33v5.34c0 1.25.9 2.33 2.1 2.33h5.51c1.21 0 2.1-1.08 2.1-2.33a1 1 0 1 0-2 0c0 .22-.09.33-.1.33zm-2.61-3a1 1 0 0 0 1 1h8a1 1 0 0 0 0-2h-8a1 1 0 0 0-1 1zm6 1.67a1 1 0 0 0-1 1c0 1.25.9 2.33 2.1 2.33h5.51c1.21 0 2.1-1.08 2.1-2.33v-5.34c0-1.25-.89-2.33-2.1-2.33h-5.5c-1.22 0-2.11 1.08-2.11 2.33a1 1 0 1 0 2 0c0-.22.1-.33.1-.33h5.51c.01 0 .1.11.1.33v5.34c0 .22-.09.33-.1.33h-5.5c-.02 0-.11-.11-.11-.33a1 1 0 0 0-1-1z"/></defs><g><g transform="translate(-463 -2900)"><g><use fill="#8d9099" xlink:href="#65zga"/></g></g></g></svg>