<svg xmlns="http://www.w3.org/2000/svg" xmlns:xlink="http://www.w3.org/1999/xlink" width="32" height="32" viewBox="0 0 32 32"><defs><path id="3mvka" d="M212 2973a16 16 0 1 1 32 0 16 16 0 0 1-32 0zm23.65-4.95c-.65-.7-1.37-.7-1.7-.74-2.4-.18-5.97-.18-5.97-.18s-3.58 0-5.97.18c-.33.04-1.06.04-1.7.74-.52.53-.68 1.73-.68 1.73s-.17 1.41-.17 2.82v1.33c0 1.4.17 2.82.17 2.82s.16 1.2.67 1.73c.65.7 1.5.67 1.88.74 1.37.14 5.8.18 5.8.18s3.58 0 5.96-.18c.34-.04 1.06-.05 1.71-.74.51-.53.68-1.73.68-1.73s.17-1.41.17-2.82v-1.33c0-1.4-.17-2.82-.17-2.82s-.17-1.2-.68-1.73z"/><path id="3mvkb" d="M226 2975.23v-4.82l4.54 2.42z"/></defs><g><g transform="translate(-212 -2957)"><g><g><use fill="#8d9099" xlink:href="#3mvka"/></g><g><use fill="#8d9099" xlink:href="#3mvkb"/></g></g></g></g></svg>