<svg xmlns="http://www.w3.org/2000/svg" width="32" height="32" viewBox="0 0 32 32">
  <g fill="none" fill-rule="evenodd">
    <circle cx="16" cy="16" r="16" fill="#F5F5F8"/>
    <path stroke="#2A313B" d="M19 15.1239113C17.4209124 11.9683198 15.6005005 8.87291358 15.6005005 8.87291358 15.0834197 7.9291274 14.7334095 7.82380334 13.7866756 8.20999156 12.840241 8.5964748 12.8932366 9.29125957 13.1953411 10.0108265 13.1953411 10.0108265 14.8825157 13.2670215 16.1897391 15.8461334 17.0490454 17.5413492 17.6987648 19.3333333 17.6987648 19.3333333M24 14.3333333L22.8250993 12.2262827C22.2532424 11.3636721 21.9038908 10.8036741 20.9754854 11.0643486 20.1898193 11.2850037 20 11.7235729 20 11.7235729M23 11.3517108C24.2199786 10.593928 24.9309378 11.1375676 25.4795707 12.2491007 26.0282036 13.360338 26.3135404 13.9702319 26.9142965 15.4094868 28.3627232 18.8828058 27.2740948 21.6666667 27.2740948 21.6666667"/>
    <path stroke="#2A313B" d="M17.6323135 19.1074043C17.8904322 19.7039344 14.7546558 16.8699066 13.5849034 16.1871172 13.2972594 16.0189697 13.0631871 15.8872494 12.6400917 16.1448618 12.2608277 16.3753724 11.9856635 16.7276952 12.0005784 17.234469 12.0045354 17.3670636 11.9701398 17.6243846 12.4617219 18.0376135 13.5970788 18.9920033 16.5000006 21.882566 17.3650633 22.41615 18.8209378 23.3148792 21.3333333 24 21.3333333 24M21.6666667 14.3333333L20.5430613 12.3728866C19.9886669 11.3886714 19.4469286 10.7205062 18.37796 11.1152935 17.47105 11.4500644 17 12.01031 17 12.01031M9 8C7.66195413 9.36332462 6.87360329 10.8913337 6.63494748 12.5840273 6.39629167 14.2767208 7.18464251 16.0827368 9 18.0020752"/>
    <polyline stroke="#2A313B" points="7 7.5 9.5 7.5 9.5 10"/>
    <polyline stroke="#2A313B" points="7 16.5 9.5 16.5 9.5 18.5" transform="matrix(1 0 0 -1 0 35)"/>
  </g>
</svg>
